<svg width="50" height="39" viewBox="0 0 50 39" fill="none" xmlns="http://www.w3.org/2000/svg">
<path d="M4.71921 38.1611C3.37392 38.1611 2.25155 37.7165 1.3521 36.8273C0.452646 35.9382 0.00194687 34.831 0 33.5059V5.36176C0 4.03665 0.450699 2.93047 1.3521 2.04322C2.2535 1.15598 3.37587 0.711393 4.71921 0.709473H44.9289C46.2722 0.709473 47.3946 1.15406 48.296 2.04322C49.1974 2.93239 49.6471 4.03953 49.6452 5.36464V33.5059C49.6452 34.831 49.1954 35.9382 48.296 36.8273C47.3965 37.7165 46.2742 38.1601 44.9289 38.1582L4.71921 38.1611ZM24.8226 23.0664L2.9203 6.97782V33.5088C2.9203 34.0254 3.08871 34.4498 3.42552 34.7821C3.76232 35.1143 4.19356 35.2804 4.71921 35.2804H44.9289C45.4526 35.2804 45.8828 35.1143 46.2196 34.7821C46.5564 34.4498 46.7249 34.0254 46.7249 33.5088V6.97782L24.8226 23.0664ZM24.8226 19.5577L46.1642 3.9243C46.0512 3.81292 45.9296 3.72938 45.7991 3.67368C45.6667 3.61799 45.4886 3.59014 45.2647 3.59014H4.38046C4.19356 3.59014 4.00666 3.63623 3.81976 3.72842C3.63286 3.82252 3.48295 3.9243 3.37003 4.03377L24.8226 19.5577ZM46.7249 6.92596C46.7249 6.394 46.6596 5.86587 46.5292 5.34159C46.3968 4.81731 46.2751 4.34488 46.1642 3.9243C46.0512 3.81292 45.9296 3.72938 45.7991 3.67368C45.6667 3.61799 45.4886 3.59014 45.2647 3.59014H4.38046C4.19356 3.59014 4.00666 3.63623 3.81976 3.72842C3.63286 3.82252 3.48295 3.9243 3.37003 4.03377C3.25711 4.45627 3.15393 4.92005 3.06048 5.42513C2.96703 5.93021 2.9203 6.43049 2.9203 6.92596V3.59014H46.7249V6.92596Z" fill="#14FF8A"/>
</svg>
