<svg width="36" height="36" viewBox="0 0 36 36" fill="none" xmlns="http://www.w3.org/2000/svg">
<g clip-path="url(#clip0_312_272)">
<path d="M33.6288 0.431152H2.37244C1.85849 0.431152 1.36558 0.63532 1.00216 0.998742C0.638738 1.36216 0.43457 1.85507 0.43457 2.36902V33.6284C0.43457 34.1423 0.638738 34.6353 1.00216 34.9987C1.36558 35.3621 1.85849 35.5663 2.37244 35.5663H19.1932V21.9624H14.6198V16.6586H19.1932V12.7471C19.1932 8.20947 21.9658 5.73794 26.0145 5.73794C27.3807 5.73307 28.7462 5.80274 30.1049 5.94663V10.6899H27.3054C25.1022 10.6899 24.6759 11.7364 24.6759 13.2718V16.6586H29.926L29.2433 21.9624H24.6759V35.5692H33.6199C34.1336 35.5685 34.626 35.364 34.9893 35.0008C35.3526 34.6375 35.557 34.1451 35.5578 33.6314V2.37201C35.5586 1.85908 35.356 1.36676 34.9944 1.00295C34.6328 0.639141 34.1418 0.433519 33.6288 0.431152Z" fill="black"/>
</g>
<defs>
<clipPath id="clip0_312_272">
<rect width="36" height="36" fill="white"/>
</clipPath>
</defs>
</svg>
