<svg width="39" height="36" viewBox="0 0 39 36" fill="none" xmlns="http://www.w3.org/2000/svg">
<g clip-path="url(#clip0_312_275)">
<path fill-rule="evenodd" clip-rule="evenodd" d="M8.32626 0C6.14018 -1.48797e-07 4.04358 0.801418 2.49748 2.22803C0.951391 3.65465 0.0823825 5.58966 0.081543 7.60759V27.9023C0.081543 29.9207 0.950181 31.8565 2.49637 33.2837C4.04255 34.711 6.13963 35.5128 8.32626 35.5128H30.3122C32.4983 35.512 34.5945 34.7099 36.14 33.2827C37.6855 31.8555 38.5537 29.9202 38.5537 27.9023V7.60759C38.5529 5.59017 37.6843 3.6556 36.1389 2.22907C34.5935 0.802535 32.4977 0.00077459 30.3122 0H8.32626ZM32.6837 7.61928C32.6837 8.20063 32.4335 8.75816 31.9881 9.16923C31.5428 9.58031 30.9388 9.81125 30.309 9.81125C29.6792 9.81125 29.0752 9.58031 28.6299 9.16923C28.1846 8.75816 27.9344 8.20063 27.9344 7.61928C27.9344 7.03793 28.1846 6.4804 28.6299 6.06932C29.0752 5.65825 29.6792 5.42731 30.309 5.42731C30.9388 5.42731 31.5428 5.65825 31.9881 6.06932C32.4335 6.4804 32.6837 7.03793 32.6837 7.61928ZM19.3224 11.6759C17.5758 11.6759 15.9007 12.3163 14.6656 13.4564C13.4306 14.5964 12.7367 16.1427 12.7367 17.7549C12.7367 19.3672 13.4306 20.9134 14.6656 22.0535C15.9007 23.1935 17.5758 23.834 19.3224 23.834C21.069 23.834 22.7441 23.1935 23.9791 22.0535C25.2142 20.9134 25.908 19.3672 25.908 17.7549C25.908 16.1427 25.2142 14.5964 23.9791 13.4564C22.7441 12.3163 21.069 11.6759 19.3224 11.6759ZM9.56741 17.7549C9.56741 15.3675 10.5948 13.0779 12.4236 11.3898C14.2525 9.70165 16.7329 8.75326 19.3192 8.75326C21.9056 8.75326 24.386 9.70165 26.2148 11.3898C28.0436 13.0779 29.071 15.3675 29.071 17.7549C29.071 20.1423 28.0436 22.4319 26.2148 24.1201C24.386 25.8082 21.9056 26.7566 19.3192 26.7566C16.7329 26.7566 14.2525 25.8082 12.4236 24.1201C10.5948 22.4319 9.56741 20.1423 9.56741 17.7549Z" fill="black"/>
</g>
<defs>
<clipPath id="clip0_312_275">
<rect width="39" height="36" fill="white"/>
</clipPath>
</defs>
</svg>
