<svg width="37" height="35" viewBox="0 0 37 35" fill="none" xmlns="http://www.w3.org/2000/svg">
<g clip-path="url(#clip0_312_269)">
<path d="M34.264 -0.105711H2.73591C2.3815 -0.110367 2.0296 -0.0489372 1.70029 0.0750699C1.37099 0.199077 1.07073 0.383233 0.816673 0.617019C0.562614 0.850806 0.359728 1.12965 0.219602 1.43761C0.0794761 1.74558 0.00485464 2.07664 0 2.41189V32.5879C0.00485464 32.9231 0.0794761 33.2542 0.219602 33.5621C0.359728 33.8701 0.562614 34.1489 0.816673 34.3827C1.07073 34.6165 1.37099 34.8007 1.70029 34.9247C2.0296 35.0487 2.3815 35.1101 2.73591 35.1055H34.264C34.6184 35.1101 34.9703 35.0487 35.2996 34.9247C35.6289 34.8007 35.9292 34.6165 36.1832 34.3827C36.4373 34.1489 36.6402 33.8701 36.7803 33.5621C36.9204 33.2542 36.995 32.9231 36.9999 32.5879V2.41189C36.995 2.07664 36.9204 1.74558 36.7803 1.43761C36.6402 1.12965 36.4373 0.850806 36.1832 0.617019C35.9292 0.383233 35.6289 0.199077 35.2996 0.0750699C34.9703 -0.0489372 34.6184 -0.110367 34.264 -0.105711ZM11.2228 29.366H5.63932V13.521H11.2228V29.366ZM8.43106 11.3027C7.66103 11.3027 6.92254 11.0133 6.37804 10.4983C5.83354 9.98322 5.52765 9.28465 5.52765 8.55624C5.52765 7.82783 5.83354 7.12925 6.37804 6.61419C6.92254 6.09912 7.66103 5.80976 8.43106 5.80976C8.83995 5.7659 9.25402 5.80423 9.64617 5.92224C10.0383 6.04024 10.3997 6.23527 10.7066 6.49455C11.0136 6.75384 11.2591 7.07152 11.4273 7.42681C11.5954 7.78209 11.6824 8.16697 11.6824 8.55624C11.6824 8.9455 11.5954 9.33038 11.4273 9.68567C11.2591 10.041 11.0136 10.3586 10.7066 10.6179C10.3997 10.8772 10.0383 11.0722 9.64617 11.1902C9.25402 11.3082 8.83995 11.3466 8.43106 11.3027ZM31.3606 29.366H25.7771V20.8625C25.7771 18.7323 24.9768 17.3414 22.9481 17.3414C22.3203 17.3458 21.7089 17.5321 21.1965 17.8752C20.684 18.2183 20.295 18.7018 20.0819 19.2604C19.9363 19.6742 19.8732 20.11 19.8958 20.5456V29.3484H14.3123V13.5034H19.8958V15.7393C20.403 14.9068 21.1408 14.2209 22.0295 13.7555C22.9183 13.2902 23.9244 13.063 24.9396 13.0985C28.6619 13.0985 31.3606 15.3696 31.3606 20.2463V29.366Z" fill="black"/>
</g>
<defs>
<clipPath id="clip0_312_269">
<rect width="37" height="35" fill="white"/>
</clipPath>
</defs>
</svg>
