<svg width="46" height="46" viewBox="0 0 46 46" fill="none" xmlns="http://www.w3.org/2000/svg">
<path d="M43.2576 30.9439L32.3702 26.0649C31.8769 25.8536 31.3387 25.7686 30.8043 25.8177C30.2699 25.8668 29.7561 26.0484 29.3096 26.3461C29.2644 26.3753 29.2213 26.4076 29.1806 26.4429L23.4903 31.2827C23.4312 31.3149 23.3655 31.3329 23.2983 31.3353C23.2311 31.3377 23.1643 31.3245 23.1031 31.2966C19.4456 29.5312 15.6566 25.7653 13.8843 22.1585C13.8548 22.0982 13.8395 22.032 13.8395 21.9649C13.8395 21.8978 13.8548 21.8316 13.8843 21.7713L18.7403 16.0096C18.7752 15.967 18.8075 15.9223 18.8371 15.8759C19.1307 15.4276 19.308 14.9133 19.3531 14.3794C19.3982 13.8454 19.3095 13.3087 19.0952 12.8176L14.2508 1.94866C13.9757 1.30706 13.4999 0.771988 12.8948 0.423756C12.2898 0.0755231 11.5881 -0.0670846 10.8952 0.0173353C7.88346 0.413273 5.11896 1.89229 3.11828 4.17799C1.1176 6.46369 0.0176393 9.39968 0.0239528 12.4373C0.0239528 30.483 14.7048 45.1639 32.7505 45.1639C35.788 45.1697 38.7237 44.0696 41.0093 42.069C43.2949 40.0684 44.7741 37.3042 45.1705 34.2926C45.2547 33.6029 45.1141 32.9044 44.7694 32.3011C44.4247 31.6977 43.8945 31.2217 43.2576 30.9439ZM32.7505 42.3982C16.2305 42.3982 2.78958 28.9573 2.78958 12.4373C2.78187 10.0725 3.63541 7.78584 5.19071 6.00448C6.746 4.22311 8.89667 3.06894 11.2409 2.75761H11.2939C11.3868 2.75934 11.4769 2.7891 11.5526 2.84297C11.6283 2.89685 11.6859 2.97233 11.7179 3.05952L16.5808 13.9169C16.6086 13.9773 16.6229 14.0429 16.6229 14.1093C16.6229 14.1758 16.6086 14.2414 16.5808 14.3018L11.7156 20.0773C11.6795 20.1187 11.6464 20.1626 11.6165 20.2087C11.3121 20.6735 11.1328 21.209 11.0961 21.7633C11.0593 22.3177 11.1664 22.8722 11.4068 23.373C13.4511 27.5584 17.6686 31.7437 21.9 33.7879C22.4038 34.027 22.961 34.1315 23.5172 34.0911C24.0734 34.0507 24.6096 33.8668 25.0736 33.5575C25.1174 33.5275 25.1612 33.4952 25.2027 33.4607L30.8906 28.6208C30.9468 28.5906 31.0088 28.5729 31.0725 28.569C31.1361 28.565 31.1999 28.5748 31.2594 28.5978L42.149 33.4768C42.238 33.5147 42.3128 33.5796 42.3628 33.6623C42.4129 33.745 42.4356 33.8414 42.4279 33.9377C42.1182 36.283 40.9651 38.4353 39.1841 39.9923C37.4032 41.5493 35.1161 42.4046 32.7505 42.3982Z" fill="#14FF8A"/>
</svg>
