<svg width="48" height="48" viewBox="0 0 48 48" fill="none" xmlns="http://www.w3.org/2000/svg">
<path d="M40.7348 32.609C42.5704 35.7261 44.3734 38.7882 46.1753 41.8502C46.182 41.8626 46.173 41.8839 46.1663 41.9515C46.0164 41.9639 45.8575 41.9875 45.6986 41.9875C42.9806 41.9898 40.2626 41.9785 37.5446 41.9999C37.1232 42.0033 36.9125 41.8524 36.7277 41.4956C35.798 39.7034 34.8424 37.9247 33.8992 36.1393C33.7809 35.9153 33.6953 35.7532 33.3561 35.832C31.5948 36.244 29.8245 36.6189 27.9764 37.0241V41.9414C27.7623 41.9605 27.6034 41.9875 27.4445 41.9875C25.0635 41.9898 22.6835 41.9774 20.3025 41.9999C19.8472 42.0044 19.7334 41.8592 19.7402 41.4246C19.7638 39.9285 19.7492 38.4324 19.7492 36.9296C18.4589 36.674 17.1878 36.4725 15.9438 36.1663C11.4577 35.0631 7.34241 33.2202 4.00802 29.9252C2.02136 27.9619 0.604892 25.662 0.150765 22.8544C-0.333786 19.8644 0.365996 17.1334 2.0146 14.6309C3.96858 11.6668 6.7125 9.62243 9.86208 8.09705C14.8192 5.69133 20.0827 4.80538 25.5627 5.03503C29.9721 5.21965 34.1956 6.16189 38.17 8.10605C40.9613 9.47158 43.4359 11.2581 45.3504 13.7449C49.0206 18.5113 48.8865 24.4034 44.894 28.9098C43.7875 30.1593 42.4116 31.1703 41.1562 32.2881C41.0323 32.3984 40.8925 32.4896 40.7337 32.609H40.7348ZM36.855 29.9263C37.4049 30.1233 37.9886 30.1841 38.3672 30.4959C39.3262 31.284 40.035 30.7042 40.7945 30.2156C40.8734 30.165 40.95 30.1109 41.0278 30.0592C45.8846 26.8474 45.9803 20.9159 43.9148 17.4531C42.5637 15.1892 40.4767 13.8507 38.0867 12.9242C35.7473 12.018 33.302 11.6004 30.8082 11.4135C26.9487 11.1253 23.1354 11.3223 19.4156 12.4751C16.5376 13.3666 13.8748 14.6601 11.7766 16.8925C8.62479 20.2461 8.66986 24.4158 11.8702 27.7131C13.5593 29.4535 15.6215 30.6085 17.8628 31.4697C18.4601 31.6994 19.0731 31.8885 19.7661 32.126V14.9528H20.4839C25.5447 14.9528 30.6043 14.9359 35.665 14.9686C36.553 14.9742 37.4658 15.089 38.3233 15.3176C40.7607 15.9671 42.6471 17.3225 43.357 19.8644C43.6038 20.7481 43.6827 21.7095 43.6624 22.6315C43.5925 25.698 42.1152 27.8786 39.2969 29.1056C38.5374 29.4366 37.7215 29.6381 36.8539 29.9252L36.855 29.9263ZM28.0745 20.8314V25.3862C29.7907 25.3862 31.4742 25.4357 33.1521 25.3671C34.0807 25.3288 34.8334 24.8638 35.1376 23.898C35.6729 22.1992 34.7365 20.8765 32.9572 20.8359C31.9655 20.8134 30.9728 20.8314 29.9811 20.8314C29.3489 20.8314 28.7168 20.8314 28.0745 20.8314ZM27.9854 33.2292C29.3726 33.1561 30.682 33.0863 32.05 33.0131C31.2241 31.4269 29.8583 30.9541 27.9854 31.517V33.2292Z" fill="#64FF37"/>
</svg>
