<svg width="48" height="48" viewBox="0 0 48 48" fill="none" xmlns="http://www.w3.org/2000/svg">
<path d="M31.709 9.92451L31.8283 9.9943C30.2135 10.8666 25.5992 13.6797 25.5992 17.2605C25.5992 18.4686 26.2745 19.6331 26.9072 20.7279C27.4654 21.6917 27.9916 22.5989 27.9916 23.4276C27.9916 25.5146 26.0039 27.1349 24.8813 27.8807L24.6682 27.7542C25.0922 27.2243 25.6141 26.3367 25.6141 25.3903C25.6141 24.0862 24.9601 23.0438 24.2975 21.9861C23.6116 20.8936 22.9171 19.7836 22.9171 18.3443C22.9171 13.3461 29.5531 10.6638 31.709 9.92451ZM22.9853 12.5676C25.6546 10.1251 28.571 7.45592 28.571 3.4412C28.571 1.62465 27.8446 0.464496 27.4845 0L27.3674 0.0676027C27.4526 0.429604 27.5804 1.09691 27.5804 1.9692C27.5804 5.62411 24.5511 8.18429 21.6197 10.666C18.8694 12.995 16.2044 15.2499 16.2044 18.268C16.2044 22.5968 20.3756 25.2594 22.1374 26.3847L22.2716 26.4719L22.3781 26.4065C22.283 26.2989 22.1821 26.1884 22.0756 26.075C20.7207 24.5987 18.6628 22.359 18.6628 18.9331C18.6628 16.5278 20.7356 14.6284 22.9853 12.5676ZM22.0245 34.1743C25.7824 34.1743 28.4112 33.6225 29.5787 33.2845L31.3511 34.3313C29.6617 35.2101 25.9166 35.8796 22.0159 35.8796C17.4293 35.8796 12.4145 34.8721 12.3996 33.5288C12.3889 32.7873 14.0293 32.2945 15.7975 31.9761L15.904 32.0393C15.904 32.0393 15.3054 32.2596 15.3118 32.7655C15.3203 33.5288 18.3368 34.1743 22.0223 34.1743M14.5044 38.9086C14.5044 38.0211 16.2917 37.6002 17.1098 37.4323L17.2163 37.4977C17.0757 37.6045 16.999 37.7507 16.999 37.875C16.999 38.4572 18.9802 38.9893 22.0181 38.9893C24.7407 38.9893 26.2532 38.6469 27.1522 38.4267L29.2612 39.6762C29.1654 39.746 27.0883 41.0828 22.0138 41.0828C18.3262 41.0828 14.5044 40.1407 14.5044 38.9086ZM32.6741 35.1403C35.1879 33.6727 37.7038 31.9368 37.8465 29.1499C37.9403 27.3202 36.2978 25.9791 34.5019 26.3367L34.5978 26.0925V26.0881C35.0494 25.9485 35.6075 25.8351 36.2317 25.8351C38.2406 25.8351 39.7809 27.0673 39.9769 28.7922C40.3731 32.2509 35.5841 34.5014 32.902 35.2755L32.6741 35.1403ZM36.8815 41.6564C36.9028 44.0334 29.0035 45.4465 21.9435 45.5097C15.8486 45.5642 6.02133 44.3866 6.00003 42.0096C5.98725 40.3675 10.2607 39.2314 12.5828 38.9043L12.8278 39.046C12.8278 39.046 9.36597 39.8682 9.37662 41.362C9.38941 42.8514 16.673 44.1402 21.9329 44.0944C30.0814 44.0203 35.5969 42.6617 36.2488 40.819L36.3638 40.7514C36.6024 40.9302 36.8751 41.2246 36.8815 41.6564ZM12.0928 46.4976C15.1071 46.9906 18.1561 47.2276 21.2085 47.2063C34.4337 47.0886 38.1661 43.7608 38.7413 43.0368L38.8414 43.0978C38.7051 45.7321 31.7111 47.9216 23.0854 47.9979C18.6947 48.0372 14.6982 47.5182 11.8265 46.6568L12.0928 46.4976ZM17.636 26.2538C15.3373 26.4348 10.4013 27.1828 10.4013 28.5131C10.4013 29.5206 14.9262 30.9402 22.0159 30.9402C28.3942 30.9402 32.4205 29.7081 33.36 29.2393L31.9902 28.4215C31.0103 28.6941 27.3695 29.5249 22.0159 29.5249C18.863 29.5249 13.4307 28.9296 13.4307 28.0202C13.4307 27.2046 16.82 26.5766 17.7936 26.3956L17.8554 26.3847L17.636 26.2538Z" fill="#64FF37"/>
</svg>
