<svg width="48" height="48" viewBox="0 0 48 48" fill="none" xmlns="http://www.w3.org/2000/svg">
<g clip-path="url(#clip0_817_32)">
<path d="M46.4643 0H1.53574C0.687551 0 0 0.687704 0 1.53574V46.4643C0 47.3123 0.687551 48 1.53574 48H46.4643C47.3124 48 48 47.3123 48 46.4643V1.53574C48 0.687704 47.3124 0 46.4643 0ZM18.7408 29.684C17.2847 30.958 15.4248 31.6597 13.5036 31.6597C9.18695 31.6597 5.67502 28.2197 5.67502 23.9912C5.67502 19.7725 9.18695 16.3404 13.5036 16.3404C15.4274 16.3404 17.2811 17.0361 18.7231 18.2994C19.3181 18.8203 19.3778 19.725 18.8567 20.3198C18.3357 20.9148 17.4311 20.9745 16.8362 20.4533C15.9166 19.6478 14.733 19.204 13.5036 19.204C10.7658 19.204 8.53856 21.3514 8.53856 23.9912C8.53856 26.6405 10.7658 28.7959 13.5036 28.7959C14.731 28.7959 15.9212 28.3458 16.8549 27.5287C17.45 27.0077 18.3545 27.0683 18.8753 27.6634C19.3961 28.2587 19.3359 29.1634 18.7408 29.684ZM28.5572 25.4318H25.6717V28.3175C25.6717 29.1083 25.0307 29.7493 24.2398 29.7493C23.4489 29.7493 22.8079 29.1083 22.8079 28.3175V25.4318H19.9225C19.1318 25.4318 18.4906 24.7908 18.4906 24.0001C18.4906 23.2093 19.1316 22.5683 19.9225 22.5683H22.8079V19.6828C22.8079 18.8921 23.4489 18.251 24.2398 18.251C25.0307 18.251 25.6717 18.8921 25.6717 19.6828V22.5683H28.5572C29.348 22.5683 29.9892 23.2093 29.9892 24.0001C29.9892 24.7908 29.3481 25.4318 28.5572 25.4318ZM40.8931 25.4318H38.0076V28.3175C38.0076 29.1083 37.3665 29.7493 36.5756 29.7493C35.7849 29.7493 35.1437 29.1083 35.1437 28.3175V25.4318H32.2584C31.4676 25.4318 30.8264 24.7908 30.8264 24.0001C30.8264 23.2093 31.4675 22.5683 32.2584 22.5683H35.1437V19.6828C35.1437 18.8921 35.7847 18.251 36.5756 18.251C37.3664 18.251 38.0076 18.8921 38.0076 19.6828V22.5683H40.8931C41.6838 22.5683 42.325 23.2093 42.325 24.0001C42.325 24.7908 41.684 25.4318 40.8931 25.4318Z" fill="#64FF37"/>
</g>
<defs>
<clipPath id="clip0_817_32">
<rect width="48" height="48" fill="white"/>
</clipPath>
</defs>
</svg>
