<svg width="48" height="48" viewBox="0 0 48 48" fill="none" xmlns="http://www.w3.org/2000/svg">
<path d="M29 34H25V15.1294L29 14V34Z" fill="#64FF37"/>
<path d="M9.02927 34.2231C9.06217 35.2299 8.92497 36.2349 8.62398 37.1919C8.40919 37.8709 8.02088 38.4756 7.50102 38.9407C6.99702 39.3724 6.39573 39.6622 5.75431 39.7826C5.00699 39.9344 4.24682 40.0067 3.48566 39.9995C2.98528 40.0047 2.48582 39.9534 1.99596 39.8466C1.61308 39.7659 1.24346 39.6274 0.898709 39.4355C0.635103 39.2929 0.408004 39.0864 0.236402 38.8333C0.0854861 38.6305 0.00248056 38.3815 0.000145969 38.1247C-0.00283749 37.915 0.0399486 37.7075 0.125251 37.5178C0.210554 37.328 0.336128 37.1611 0.492428 37.0297C0.874985 36.7198 1.35244 36.5649 1.83484 36.5938C2.03254 36.5886 2.22925 36.6248 2.41411 36.6971C2.57227 36.7611 2.72055 36.8469 2.85696 36.9522C2.98349 37.0597 3.10409 37.1753 3.21678 37.2993C3.31267 37.4284 3.39867 37.5482 3.4738 37.6608C3.60626 37.8519 3.76344 38.0203 3.94137 38.1639C4.04674 38.2396 4.16967 38.2842 4.29724 38.293C4.40689 38.2944 4.51461 38.2628 4.60763 38.2021C4.71169 38.1211 4.78879 38.008 4.82807 37.8788C4.89529 37.6794 4.93681 37.4708 4.95163 37.26C4.9892 36.9316 5.00501 36.6 5.00106 36.2694V21.159L9.02927 20V34.2231ZM14.9159 20.3368V30.0695C14.9149 30.335 14.9643 30.5973 15.0612 30.8432C15.1699 31.0684 15.3153 31.2708 15.4922 31.4423C15.6751 31.6148 15.8846 31.7543 16.112 31.8534C16.3473 31.9567 16.6003 32.0094 16.8554 32.0084C17.0284 32.0001 17.1984 31.9567 17.3546 31.8793C17.5543 31.7834 17.7416 31.6616 17.9121 31.5167C18.1147 31.3555 18.3026 31.1758 18.4726 30.9795C18.6604 30.7698 18.8285 30.5405 18.9718 30.2957V20.3368H23V34.2592H18.9718V32.9639C18.4667 33.4277 17.9002 33.813 17.2893 34.1064C16.7468 34.3716 16.1564 34.5132 15.5574 34.5216C14.934 34.5308 14.3143 34.4208 13.7287 34.1973C13.1876 33.9803 12.6884 33.6632 12.2548 33.2614C11.8429 32.872 11.5089 32.4012 11.2722 31.8762C11.0345 31.3396 10.9129 30.7548 10.9164 30.1635V20.3368H14.9159Z" fill="#64FF37"/>
<path d="M35.5 15C35.1717 15 34.8466 14.9353 34.5433 14.8097C34.24 14.6841 33.9644 14.4999 33.7322 14.2678C33.5001 14.0356 33.3159 13.76 33.1903 13.4567C33.0647 13.1534 33 12.8283 33 12.5C33 12.1717 33.0647 11.8466 33.1903 11.5433C33.3159 11.24 33.5001 10.9644 33.7322 10.7322C33.9644 10.5001 34.24 10.3159 34.5433 10.1903C34.8466 10.0647 35.1717 10 35.5 10C36.163 10 36.7989 10.2634 37.2678 10.7322C37.7366 11.2011 38 11.837 38 12.5C38 13.163 37.7366 13.7989 37.2678 14.2678C36.7989 14.7366 36.163 15 35.5 15Z" fill="#64FF37"/>
<path d="M38.5 20C38.1717 20 37.8466 19.9353 37.5433 19.8097C37.24 19.6841 36.9644 19.4999 36.7322 19.2678C36.5001 19.0356 36.3159 18.76 36.1903 18.4567C36.0647 18.1534 36 17.8283 36 17.5C36 17.1717 36.0647 16.8466 36.1903 16.5433C36.3159 16.24 36.5001 15.9644 36.7322 15.7322C36.9644 15.5001 37.24 15.3159 37.5433 15.1903C37.8466 15.0647 38.1717 15 38.5 15C39.163 15 39.7989 15.2634 40.2678 15.7322C40.7366 16.2011 41 16.837 41 17.5C41 18.163 40.7366 18.7989 40.2678 19.2678C39.7989 19.7366 39.163 20 38.5 20Z" fill="#64FF37"/>
<path d="M32.5 20C32.1717 20 31.8466 19.9353 31.5433 19.8097C31.24 19.6841 30.9644 19.4999 30.7322 19.2678C30.5001 19.0356 30.3159 18.76 30.1903 18.4567C30.0647 18.1534 30 17.8283 30 17.5C30 17.1717 30.0647 16.8466 30.1903 16.5433C30.3159 16.24 30.5001 15.9644 30.7322 15.7322C30.9644 15.5001 31.24 15.3159 31.5433 15.1903C31.8466 15.0647 32.1717 15 32.5 15C33.163 15 33.7989 15.2634 34.2678 15.7322C34.7366 16.2011 35 16.837 35 17.5C35 18.163 34.7366 18.7989 34.2678 19.2678C33.7989 19.7366 33.163 20 32.5 20Z" fill="#64FF37"/>
<path d="M6.5 20C6.1717 20 5.84661 19.9353 5.54329 19.8097C5.23998 19.6841 4.96438 19.4999 4.73223 19.2678C4.50009 19.0356 4.31594 18.76 4.1903 18.4567C4.06466 18.1534 4 17.8283 4 17.5C4 17.1717 4.06466 16.8466 4.1903 16.5433C4.31594 16.24 4.50009 15.9644 4.73223 15.7322C4.96438 15.5001 5.23998 15.3159 5.54329 15.1903C5.84661 15.0647 6.1717 15 6.5 15C7.16304 15 7.79893 15.2634 8.26777 15.7322C8.73661 16.2011 9 16.837 9 17.5C9 18.163 8.73661 18.7989 8.26777 19.2678C7.79893 19.7366 7.16304 20 6.5 20Z" fill="#64FF37"/>
<path d="M31 21.201L35.1692 20V34.7349H31V21.201ZM43.8298 27.2957C43.4164 27.482 43.0122 27.6918 42.6212 27.924C42.2286 28.1435 41.8568 28.4016 41.5109 28.6947C41.1988 28.9516 40.9225 29.2534 40.6922 29.5917C40.4906 29.8775 40.3791 30.2221 40.3719 30.5775C40.3719 30.843 40.4067 31.1074 40.4742 31.3632C40.5367 31.5901 40.6308 31.8063 40.7536 32.0033C40.8611 32.1681 40.9951 32.3126 41.1486 32.4293C41.2909 32.5331 41.4597 32.5898 41.6327 32.5898C41.996 32.577 42.348 32.4614 42.653 32.2548C43.0541 32.0011 43.4409 31.7239 43.8145 31.4263L43.8298 27.2968V27.2957ZM48 34.7349H43.8298V33.5874C43.6118 33.7836 43.3861 33.9704 43.1534 34.1472C42.9219 34.322 42.6752 34.4735 42.4166 34.6C42.1259 34.7327 41.8222 34.8318 41.5109 34.8954C41.1118 34.9704 40.7045 35.0057 40.2982 34.9993C39.7176 35.0083 39.1397 34.9142 38.5892 34.721C38.1183 34.5503 37.6827 34.2873 37.3059 33.946C36.9598 33.616 36.6851 33.2124 36.5005 32.7622C36.3131 32.2983 36.2184 31.7993 36.2222 31.2957C36.2132 30.7851 36.3128 30.2787 36.5138 29.8133C36.7195 29.368 36.9969 28.9634 37.3325 28.6144C37.6961 28.2444 38.1016 27.9223 38.5401 27.6554C39.0211 27.3642 39.5194 27.1052 40.0321 26.8804C40.5775 26.6466 41.1304 26.4327 41.69 26.2393L43.3744 25.6666L43.8329 25.5617V24.1327C43.8406 23.742 43.7933 23.3521 43.6927 22.9757C43.6269 22.6918 43.501 22.4269 43.3243 22.2007C43.1761 22.0003 42.9767 21.8478 42.7492 21.7608C42.5089 21.6692 42.2548 21.6239 41.999 21.627C41.7166 21.6193 41.4352 21.6646 41.1681 21.7608C40.9641 21.8398 40.7805 21.9673 40.6318 22.1333C40.4957 22.2842 40.3965 22.4672 40.3402 22.6663C40.2771 22.8838 40.2467 23.1102 40.2501 23.3375C40.2522 23.6029 40.2215 23.8684 40.1611 24.1263C40.1139 24.3705 40.0138 24.6001 39.8684 24.7974C39.7144 24.9878 39.5174 25.135 39.2953 25.2256C39.0006 25.354 38.6834 25.414 38.3641 25.4011C38.0906 25.4046 37.8186 25.3593 37.5597 25.2673C37.3343 25.1787 37.1262 25.0478 36.9457 24.8809C36.7774 24.7124 36.6397 24.5133 36.5394 24.2933C36.446 24.062 36.3979 23.8134 36.3982 23.5622C36.4013 23.0591 36.5722 22.5721 36.8823 22.1868C37.2404 21.7308 37.6846 21.354 38.185 21.08C38.784 20.7525 39.4226 20.5109 40.0833 20.3618C40.8323 20.1807 41.5987 20.0909 42.3674 20.0942C43.2168 20.0781 44.0642 20.1734 44.8921 20.3746C45.5199 20.5215 46.1165 20.7878 46.6522 21.1603C47.0882 21.4707 47.4402 21.8935 47.6725 22.388C47.8956 22.8932 48.0051 23.4456 47.9939 24.0022L48 34.7349Z" fill="#64FF37"/>
</svg>
