<svg width="48" height="48" viewBox="0 0 48 48" fill="none" xmlns="http://www.w3.org/2000/svg">
<path d="M9.3041 17.1665C9.27226 17.2878 9.24042 17.409 9.20996 17.5303C9.2418 17.409 9.27364 17.2878 9.3041 17.1665Z" fill="#B6B8BA"/>
<path d="M45.3834 30.6863C44.7023 32.0098 44.0073 33.3255 43.1767 34.5736C43.0341 34.7883 42.9497 35.0551 42.6714 35.1722C42.6949 35.0473 42.7115 34.9224 42.7434 34.8C43.3345 32.5187 41.9473 30.2373 39.6049 29.6243C37.9409 29.1897 36.4928 29.6074 35.1762 30.5796L35.7383 29.5749C36.1259 29.0465 36.4693 28.496 36.6783 27.8792C37.4204 26.5114 38.0655 25.1111 38.3576 23.5871C38.6068 23.1173 38.6483 22.5955 38.7162 22.0931C38.8809 20.8919 39.1453 19.6738 38.5113 18.5091C38.5016 18.4453 38.5057 18.375 38.4794 18.3177C37.6654 16.527 35.5722 15.2907 33.5911 15.426C31.185 15.59 29.3465 16.9877 28.7942 19.0648C28.5574 19.9523 28.754 20.8776 28.5311 21.7652C28.1075 22.7646 27.4679 23.6041 26.5002 24.2027C25.653 24.6113 24.7725 24.8755 23.8034 24.7675C23.3521 24.7181 22.9008 24.6647 22.4508 24.6126C21.4056 24.096 20.5653 23.3776 19.9728 22.4094C19.5616 21.6038 19.4052 20.7423 19.2875 19.8625C18.9677 17.477 17.3756 15.9427 14.874 15.5666C12.3918 15.1931 9.72266 16.9109 9.29349 19.1598C9.26165 19.2456 9.22981 19.3315 9.19935 19.4174C9.12598 19.7649 9.08999 20.1124 9.16613 20.4651C9.11906 22.1335 9.49839 23.7303 10.0771 25.2946C10.5145 26.7053 11.1126 28.051 11.9059 29.3198C12.209 29.964 12.6064 30.5575 13.0341 31.1327C13.4287 31.7795 13.8233 32.4263 14.3784 32.969C14.8117 33.5273 15.2464 34.0856 15.6797 34.6439C15.9954 35.3076 16.2293 35.9895 16.2432 36.7248C16.2252 37.7347 15.8348 38.621 15.2367 39.4408C14.5141 40.1124 13.7291 40.672 12.7047 40.8945C11.341 41.1912 10.1311 40.8307 8.96954 40.2035C7.7222 39.1545 6.81957 37.8414 5.8408 36.5869C5.05446 35.3336 4.26951 34.0791 3.48317 32.8258C2.9474 31.6936 2.41164 30.5614 1.87449 29.4291C1.25705 27.9494 0.902644 26.3956 0.447177 24.8703C0.299046 23.6093 0.0290876 22.3625 0.00832163 21.0858C-0.00967557 20.0083 -0.0124444 18.9333 0.14953 17.8623C0.456867 16.3917 0.99263 14.9966 1.79835 13.7043C2.50578 12.5694 3.39595 11.5635 4.41487 10.6603C4.56023 10.5314 4.76097 10.4312 4.74851 10.1983C5.33965 10.0564 5.6719 9.56711 6.14398 9.26388C8.90032 7.49787 11.9751 6.93436 15.2367 7.01115C18.4208 7.32088 21.2644 8.38283 23.6677 10.4026C23.9349 10.6278 24.0664 10.5367 24.2865 10.3558C26.658 8.41406 29.4116 7.30266 32.5445 7.03067C36.2049 6.81984 39.5302 7.69308 42.4928 9.74019C44.215 11.0481 45.616 12.5968 46.5782 14.4851C47.2925 15.8893 47.7051 17.369 47.9307 18.9034C48.1273 20.3427 47.8504 21.7665 47.7784 23.198C47.5043 24.3693 47.2288 25.5392 46.9547 26.7105C46.4314 28.0366 45.9067 29.3615 45.3834 30.6876V30.6863Z" fill="#64FF37"/>
<path d="M35.3937 30.1983C36.6936 29.1637 38.1234 28.7198 39.7664 29.1831C42.0792 29.8345 43.4502 32.259 42.8652 34.6835C42.8337 34.8135 42.8173 34.9476 42.7941 35.079C42.805 35.3584 42.4701 35.458 42.4633 35.729C41.6978 36.859 40.6891 37.6363 39.3454 37.9295C39.0296 37.953 38.7139 37.9765 38.3995 38C36.5036 37.9544 35.2078 36.971 34.3316 35.3335C34.0897 34.6226 33.983 33.8896 34.0022 33.1386C34.0145 32.5176 34.2592 31.963 34.4765 31.4001C34.7827 31.0004 35.0875 30.6007 35.3937 30.201V30.1983Z" fill="#39FF00" fill-opacity="0.83"/>
</svg>
