<svg width="48" height="48" viewBox="0 0 48 48" fill="none" xmlns="http://www.w3.org/2000/svg">
<path d="M24 0C28.78 0 32.656 2.254 32.656 5.034C32.656 7.814 28.78 10.068 24 10.068C19.22 10.068 15.344 7.814 15.344 5.034C15.344 2.254 19.22 0 24 0ZM24 37.932C28.78 37.932 32.656 40.186 32.656 42.966C32.656 45.746 28.78 48 24 48C19.22 48 15.344 45.746 15.344 42.966C15.344 40.186 19.22 37.932 24 37.932ZM3.21197 12C5.59997 7.86 9.49397 5.632 11.904 7.022C14.314 8.412 14.328 12.896 11.938 17.036C9.54797 21.176 5.65597 23.4 3.24797 22.014C0.839971 20.628 0.821971 16.14 3.21197 12ZM36.066 30.966C38.466 26.826 42.344 24.598 44.752 25.988C47.16 27.378 47.174 31.86 44.784 36C42.394 40.14 38.504 42.37 36.096 40.98C33.688 39.59 33.674 35.106 36.066 30.966ZM3.24797 25.986C5.65797 24.586 9.54797 26.824 11.94 30.964C14.332 35.104 14.314 39.586 11.904 40.978C9.49397 42.37 5.59997 40.14 3.21397 36C0.827971 31.86 0.839971 27.378 3.24797 25.986ZM36.098 7.024C38.498 5.634 42.396 7.862 44.786 12.002C47.176 16.142 47.162 20.624 44.754 22.016C42.346 23.408 38.458 21.176 36.068 17.036C33.678 12.896 33.692 8.414 36.098 7.024Z" fill="#64FF37"/>
</svg>
