<svg width="48" height="48" viewBox="0 0 48 48" fill="none" xmlns="http://www.w3.org/2000/svg">
<path d="M24.0013 48C21.1721 48 18.4844 47.5594 15.9382 46.6783C13.392 45.7972 11.1649 44.5904 9.25692 43.0581C7.34551 41.5258 5.82484 39.7161 4.6949 37.6291C3.56497 35.5421 3 33.2945 3 30.8863V26.126L10.0668 31.5445L6.4545 35.22C7.70519 38.1671 9.77186 40.5279 12.6545 42.3025C15.5371 44.0788 18.8881 45.0845 22.7075 45.3197V21.5685H14.9446V18.9357H22.7075V13.0064C21.2308 12.6378 19.9991 11.869 19.0123 10.7C18.0256 9.53102 17.5322 8.15841 17.5322 6.5822C17.5322 4.75849 18.1618 3.20509 19.4212 1.922C20.6839 0.640667 22.2106 0 24.0013 0C25.7919 0 27.3187 0.640667 28.5814 1.922C29.8407 3.20509 30.4704 4.75849 30.4704 6.5822C30.4704 8.15841 29.977 9.53102 28.9903 10.7C28.0035 11.8708 26.7718 12.6396 25.2951 13.0064V18.9357H33.058V21.5685H25.2951V45.3197C29.1145 45.0845 32.4732 44.0875 35.3714 42.3288C38.2695 40.57 40.3284 38.2171 41.5481 35.27L37.9332 31.5419L45 26.126V30.8837C45 33.2936 44.435 35.5421 43.3051 37.6291C42.1769 39.7143 40.6571 41.5231 38.7457 43.0555C36.8343 44.5878 34.6063 45.7945 32.0618 46.6757C29.5173 47.5568 26.8304 47.9982 24.0013 48ZM24.0013 10.5315C25.0657 10.5315 25.9791 10.1436 26.7416 9.36778C27.5024 8.59371 27.8828 7.66519 27.8828 6.5822C27.8828 5.49745 27.5024 4.56804 26.7416 3.79398C25.9791 3.01991 25.0657 2.63288 24.0013 2.63288C22.9369 2.63288 22.0235 3.01991 21.261 3.79398C20.4985 4.56804 20.1181 5.49745 20.1198 6.5822C20.1216 7.66694 20.5019 8.59547 21.261 9.36778C22.02 10.1401 22.9335 10.528 24.0013 10.5315Z" fill="#64FF37"/>
</svg>
