<svg width="372" height="1079" viewBox="0 0 372 1079" fill="none" xmlns="http://www.w3.org/2000/svg">
<g opacity="0.06">
<path d="M50.9456 858.39L50.9456 940.039L274.364 940.039L274.364 996.85L50.9457 996.85L50.9457 1078.12L3.01807 1078.12L3.01806 858.39L50.9456 858.39Z" fill="#6D6E70"/>
<path d="M285.691 746.274C312.356 746.274 333.741 755.806 349.848 774.87C364.189 792.43 371.359 813.5 371.358 838.08C371.358 862.16 364.313 882.477 350.225 899.032C334.378 917.345 312.741 926.501 285.313 926.499L285.313 877.211C298.145 877.211 308.209 873.448 315.507 865.924C322.046 859.404 325.316 851.127 325.318 841.091C325.429 830.34 321.373 819.961 313.996 812.119C305.439 803.341 294.242 798.951 280.406 798.95L249.462 798.95C258.518 802.714 265.564 809.549 270.599 819.456C275.726 829.802 278.311 841.216 278.14 852.755C278.14 872.318 272.355 888.998 260.783 902.796C247.453 918.6 229.086 926.501 205.683 926.499L73.2212 926.499L73.2212 873.447L197.759 873.447C222.667 873.447 235.121 862.16 235.121 839.586C235.121 827.546 231.599 817.763 224.555 810.237C221.159 806.553 217.009 803.64 212.386 801.692C207.764 799.745 202.776 798.81 197.759 798.95L73.2212 798.95L73.2212 746.274L285.691 746.274Z" fill="#6D6E70"/>
<path d="M111.334 616.84L111.334 651.078L274.366 651.078L274.366 703.377L111.334 703.377L111.334 732.726L73.2174 732.726L73.2174 703.377C24.4089 703.377 0.00310648 675.033 -4.99972e-06 618.346L43.0244 618.346C43.0244 631.645 45.1621 640.424 49.4377 644.684C53.721 648.95 61.6476 651.081 73.2174 651.078L73.2174 616.84L111.334 616.84Z" fill="#6D6E70"/>
<path d="M173.79 405.774C205.689 405.774 231.243 414.929 250.452 433.241C269.664 451.554 279.272 476.386 279.275 507.738C279.275 539.596 269.543 564.743 250.079 583.178C230.616 601.617 205.186 610.834 173.79 610.831C142.153 610.831 116.599 601.677 97.1287 583.369C77.665 565.06 67.9331 539.85 67.9331 507.738C67.9331 475.633 77.8529 450.425 97.6927 432.112C117.035 414.556 142.401 405.777 173.79 405.774ZM173.977 459.579C133.222 459.579 112.845 475.632 112.845 507.738C112.845 540.098 133.222 556.278 173.977 556.278C214.741 556.278 235.121 540.098 235.118 507.738C235.118 475.633 214.738 459.58 173.977 459.579Z" fill="#6D6E70"/>
<path d="M122.651 272.952C121.91 277.809 121.533 282.714 121.523 287.627C121.523 319.982 137.625 336.161 169.829 336.162L274.367 336.162L274.367 389.214L73.2183 389.214L73.2183 339.173L88.6924 339.173C94.4812 339.173 97.374 339.048 97.3709 338.797C97.0598 338.464 96.8048 338.082 96.6158 337.668C86.045 327.64 79.2511 319.864 76.2339 314.341C71.2048 305.563 68.6895 294.149 68.688 280.099L68.688 272.952L122.651 272.952Z" fill="#6D6E70"/>
<path d="M274.364 82.5685L274.364 131.861C271.6 133.362 266.19 134.992 258.134 136.75C271.721 149.045 278.515 168.611 278.516 195.448C278.516 214.012 274.238 229.312 265.68 241.349C255.622 255.4 241.031 262.423 221.906 262.417C194.486 262.417 175.616 251.692 165.295 230.243C160.522 220.401 156.247 200.338 152.468 170.053C149.7 148.608 143.911 137.884 135.102 137.879C131.425 137.797 127.787 138.639 124.522 140.327C121.258 142.016 118.472 144.496 116.421 147.54C111.726 154.106 109.278 162.005 109.439 170.067C109.226 178.226 111.75 186.223 116.612 192.79C121.893 199.858 129.315 203.896 138.877 204.904L138.877 255.647C122.527 254.397 109.318 250.571 99.2506 244.169C89.1924 237.775 81.3933 227.428 75.8531 213.129C70.824 199.839 68.3087 184.79 68.3071 167.981C68.8152 111.044 96.1138 82.5731 150.203 82.5684L274.364 82.5685ZM176.239 138.632C180.522 143.901 183.92 153.182 186.432 166.475C189.205 181.526 191.846 191.309 194.355 195.824C199.137 205.104 207.44 209.744 219.263 209.746C234.359 209.746 241.908 201.843 241.91 186.038C241.794 178.243 240.057 170.557 236.811 163.464C233.418 155.695 229.33 149.799 224.548 145.778C218.009 140.514 208.322 137.88 195.488 137.879C193.223 137.879 189.96 138.009 185.677 138.255C181.403 138.506 178.257 138.632 176.239 138.632Z" fill="#6D6E70"/>
<path d="M278.519 30.4738C278.519 13.6434 264.833 -0.000234771 247.952 -0.000234033C231.071 -0.000233295 217.386 13.6434 217.386 30.4738C217.386 47.3041 231.071 60.9478 247.952 60.9478C264.833 60.9478 278.519 47.3041 278.519 30.4738Z" fill="#14FF8A"/>
</g>
</svg>
