<svg width="48" height="48" viewBox="0 0 48 48" fill="none" xmlns="http://www.w3.org/2000/svg">
<path d="M0 15.7642V32.2342H16.47V15.7642H0ZM1.704 17.4682H14.764V30.5282H1.704V17.4682ZM46.24 18.8582C45.212 18.8582 44.468 19.5482 44.468 20.6042C44.468 21.6262 45.188 22.3602 46.24 22.3602C47.276 22.3602 48 21.6422 48 20.6042C48 19.5622 47.282 18.8582 46.24 18.8582ZM12.194 18.9682C12.0552 18.9619 11.9167 18.9846 11.7872 19.0349C11.6577 19.0851 11.5401 19.1618 11.4419 19.26C11.3437 19.3583 11.267 19.4759 11.2167 19.6054C11.1665 19.7349 11.1437 19.8734 11.15 20.0122C11.15 20.6162 11.59 21.0302 12.194 21.0302C12.798 21.0302 13.238 20.6182 13.238 20.0122C13.2443 19.8734 13.2215 19.7349 13.1713 19.6054C13.121 19.4759 13.0443 19.3583 12.9461 19.26C12.8479 19.1618 12.7303 19.0851 12.6008 19.0349C12.4713 18.9846 12.3328 18.9619 12.194 18.9682ZM46.24 19.1722C47.114 19.1722 47.672 19.7282 47.672 20.6042C47.672 21.4562 47.124 22.0282 46.24 22.0282C45.388 22.0282 44.802 21.4862 44.802 20.6042C44.802 19.7222 45.358 19.1722 46.24 19.1722ZM45.546 19.5982V21.5742H45.94V20.9382H46.22L46.572 21.5742H47.012L46.64 20.8802C46.7651 20.8326 46.8721 20.747 46.946 20.6354C47.0199 20.5238 47.057 20.3919 47.052 20.2582C47.052 19.8522 46.734 19.5982 46.304 19.5982H45.546ZM38.066 19.6022V28.5382H39.772V24.9902C39.772 23.8482 40.376 23.1622 41.38 23.1622C42.384 23.1622 42.906 23.8222 42.906 24.8382V28.5382H44.61V24.6462C44.61 22.8862 43.372 21.7462 41.792 21.7462C40.774 21.7462 40.156 22.1302 39.772 22.7762V19.6022H38.066ZM45.94 19.9162H46.254C46.484 19.9162 46.64 20.0442 46.64 20.2582C46.64 20.4942 46.484 20.6202 46.254 20.6202H45.94V19.9162ZM3.19 20.0142V25.0042C3.19 27.2862 4.44 28.6202 6.558 28.6202C8.716 28.6202 9.994 27.2582 9.994 25.0042V20.0142H8.29V25.0042C8.29 26.2962 7.74 27.0122 6.598 27.0122C5.416 27.0122 4.894 26.2562 4.894 25.0042V20.0142H3.19ZM18.284 20.0142V28.5382H19.988V25.7882H21.528C23.384 25.7882 24.594 24.7022 24.594 22.8742C24.594 21.1142 23.412 20.0142 21.528 20.0142H18.284ZM33.902 20.0142V21.8422H33.104V23.2862H33.902V26.1862C33.902 27.7682 34.602 28.5382 36.224 28.5382H37.118V27.0802H36.444C35.784 27.0802 35.606 26.7922 35.606 26.2002V23.2862H37.104V21.8422H35.606V20.0142H33.902ZM19.988 21.3882H21.35C22.326 21.3882 22.862 21.9402 22.862 22.8742C22.862 23.8782 22.326 24.4262 21.35 24.4262H19.988V21.3882ZM28.264 21.7602C26.422 21.7602 25.172 23.2162 25.172 25.1962C25.172 27.1902 26.45 28.6202 28.264 28.6202C29.338 28.6202 30.038 28.2342 30.436 27.5882V28.5382H32.142V21.8422H30.436V22.8882C30.024 22.2002 29.31 21.7602 28.264 21.7602ZM11.342 21.8422V28.5382H13.046V21.8422H11.342ZM28.664 23.2442C29.75 23.2442 30.436 24.0422 30.436 25.1962C30.436 26.3662 29.708 27.1222 28.664 27.1222C27.508 27.1222 26.904 26.3102 26.904 25.1962C26.904 24.0002 27.578 23.2442 28.664 23.2442Z" fill="#64FF37"/>
</svg>
