<svg width="48" height="48" viewBox="0 0 48 48" fill="none" xmlns="http://www.w3.org/2000/svg">
<path d="M25.4357 34.2534C18.8608 34.3533 13.0852 36.5768 8.14915 41.0909C6.17446 42.8962 4.57028 44.9998 3.15483 47.2733C2.72048 47.9697 2.19732 48.1609 1.60894 47.867C1.00251 47.563 0.856805 47.0592 1.13712 46.2643C3.12153 40.6456 5.10315 35.0241 7.09033 29.4069C10.1488 20.7612 13.2212 12.1199 16.263 3.46713C16.8805 1.70889 17.9837 0.488685 19.7489 0.0890852C21.2171 -0.243439 22.5257 0.378795 23.4041 1.55761C24.0438 2.41533 24.4643 3.4814 24.8334 4.51037C27.051 10.687 29.2213 16.8794 31.4153 23.0647C32.6101 26.4341 33.8063 29.805 35.0399 33.1603C35.1565 33.4757 35.5048 33.7939 35.8184 33.9238C39.1017 35.2724 42.0811 37.1391 44.6303 39.6423C46.1706 41.1537 46.537 43.7268 45.0813 45.8832C43.8213 47.7499 41.3179 48.4178 39.2349 47.4217C37.8389 46.7538 37.0882 45.5521 36.5775 44.1321C35.6297 41.4976 34.6625 38.8703 33.7299 36.2286C33.5648 35.7605 33.3233 35.5022 32.8529 35.3623C30.43 34.6431 27.9668 34.2435 25.4357 34.2534ZM32.4533 32.7878C32.3575 32.4952 32.284 32.2597 32.2021 32.0285C31.2057 29.2099 30.2066 26.3913 29.2088 23.5727C26.89 17.0221 24.5739 10.4715 22.2509 3.92239C21.9373 3.03613 21.3739 2.41961 20.3997 2.35681C19.6365 2.30829 18.8816 2.90912 18.5125 3.87244C18.1572 4.7958 17.8353 5.73201 17.505 6.66536C15.454 12.4524 13.4016 18.2395 11.3547 24.028C10.0461 27.7286 8.74724 31.4334 7.4442 35.1354C6.86275 36.7866 6.27853 38.4364 5.6957 40.0876C13.3988 32.9733 22.2717 30.5614 32.4546 32.7878H32.4533ZM36.2583 36.651C36.6163 37.6515 36.9008 38.4692 37.2006 39.2798C37.8125 40.931 38.3857 42.6008 39.0712 44.2192C39.4958 45.221 40.3784 45.6649 41.4386 45.5978C42.4794 45.5307 43.1871 44.937 43.5673 43.9509C43.9545 42.9447 43.7574 41.9857 43.0303 41.2664C41.1 39.3583 38.8741 37.8798 36.2569 36.651H36.2583Z" fill="#64FF37"/>
</svg>
