<svg width="48" height="48" viewBox="0 0 48 48" fill="none" xmlns="http://www.w3.org/2000/svg">
<path d="M0.983888 26.9395C0.929225 27.1448 0.883487 27.2842 0.856156 27.427C0.823804 27.5977 0.747945 27.6724 0.558299 27.6724C-0.00617955 27.6724 -0.00283284 27.6814 0.000513865 27.1186C0.0166896 24.5455 0.0306342 21.9719 0.0451366 19.3983C0.0473678 19 0.0456944 19 0.428335 19C0.871216 19 1.09266 19.2255 1.09266 19.6766C1.09266 20.3738 1.0921 21.0705 1.09377 21.7677C1.09377 21.8642 1.10549 21.9613 1.11497 22.1041C1.19138 22.0449 1.23154 22.0243 1.2572 21.9925C2.05539 20.9946 3.73154 21.2127 4.47897 22.185C4.89675 22.7288 5.08026 23.3574 5.13771 24.0195C5.19907 24.7335 5.15946 25.4458 4.92408 26.1369C4.50184 27.3779 3.37065 28.0211 2.1134 27.7215C1.6616 27.6139 1.32469 27.3294 0.983888 26.9401V26.9395ZM1.09266 24.5544C1.09266 24.898 1.12835 25.2461 1.08429 25.5835C1.01847 26.0878 1.2784 26.384 1.64542 26.6394C2.39006 27.1582 3.38348 26.9222 3.76612 26.1028C3.91226 25.7905 4.00039 25.4363 4.03943 25.0927C4.12254 24.367 4.0768 23.6447 3.73209 22.9787C3.485 22.5012 3.07614 22.272 2.53843 22.248C2.02248 22.2246 1.61976 22.4482 1.29346 22.8141C1.18748 22.9324 1.11106 23.1159 1.10158 23.2743C1.07536 23.6999 1.09266 24.1277 1.09266 24.5544Z" fill="#64FF37"/>
<path d="M19.8098 25.9565C20.0653 26.1183 20.3057 26.2711 20.5612 26.4334C20.1663 27.1312 19.6096 27.578 18.8532 27.7442C17.9111 27.9512 17.0404 27.8062 16.3226 27.1123C15.9126 26.7162 15.7185 26.1953 15.6332 25.6503C15.4948 24.7729 15.5065 23.8978 15.781 23.0354C16.3817 21.1501 18.5325 20.98 19.5795 21.8563C20.1473 22.3315 20.381 22.9808 20.4842 23.6841C20.5338 24.0216 20.5372 24.3652 20.5651 24.754H16.6846C16.5195 25.5577 16.8954 26.4546 17.49 26.743C18.3066 27.139 19.0139 26.9048 19.8098 25.956V25.9565ZM19.4283 23.9084C19.3999 23.2323 19.2783 22.6305 18.6508 22.3203C18.151 22.0732 17.6311 22.1184 17.1933 22.4949C16.7721 22.8569 16.6589 23.3483 16.6528 23.8922C16.7671 23.8994 16.8396 23.9078 16.9127 23.9078C17.7371 23.9089 18.5615 23.9084 19.4283 23.9084Z" fill="#64FF37"/>
<path d="M44.3621 22.4682C44.6477 22.2305 44.8859 22.0091 45.1475 21.82C45.611 21.4842 46.118 21.3052 46.7098 21.3755C47.3111 21.4469 47.6743 21.7815 47.8561 22.3265C47.9342 22.5602 47.9799 22.8162 47.9822 23.0628C47.9955 24.5124 47.9855 25.9621 47.9989 27.4118C48.0011 27.6784 47.8678 27.6857 47.6709 27.6874C47.4696 27.689 47.3457 27.6717 47.3485 27.4085C47.3619 26.1819 47.3574 24.9553 47.3519 23.7282C47.3507 23.4599 47.3262 23.191 47.3022 22.9233C47.2213 22.023 46.5732 21.8128 45.8447 22.0102C45.2473 22.172 44.8195 22.5976 44.4508 23.0734C44.3817 23.1626 44.3794 23.3188 44.3789 23.4443C44.3738 24.7729 44.3772 26.1021 44.3722 27.4308C44.3722 27.5217 44.3315 27.6851 44.2924 27.6907C44.1223 27.7147 43.9438 27.7046 43.7737 27.6751C43.7447 27.6701 43.7307 27.5094 43.7307 27.4202C43.7279 26.1841 43.7318 24.9481 43.7263 23.712C43.7251 23.4437 43.7062 23.1743 43.6733 22.9083C43.5639 22.0297 43.0078 21.8557 42.2983 22.0063C41.6647 22.1407 41.2062 22.5825 40.8297 23.0934C40.7622 23.1855 40.76 23.3394 40.7594 23.4649C40.7544 24.7657 40.7566 26.067 40.7561 27.3683C40.7561 27.6773 40.4632 27.8491 40.1815 27.6991C40.1397 27.6768 40.1079 27.5953 40.1079 27.5412C40.1079 25.5343 40.1129 23.5274 40.1174 21.5205C40.1174 21.5127 40.1252 21.5043 40.1408 21.4731H40.7371V22.4732C40.9976 22.2517 41.1794 22.0481 41.4036 21.9182C41.7517 21.7163 42.1126 21.4948 42.4969 21.4056C43.2839 21.2232 43.8428 21.5249 44.2255 22.2333C44.264 22.3042 44.3064 22.3722 44.3616 22.467L44.3621 22.4682Z" fill="#64FF37"/>
<path d="M13.1848 26.8651C12.8819 27.0737 12.6225 27.2673 12.3492 27.4374C11.8489 27.7487 11.2961 27.8647 10.721 27.7453C9.95407 27.5863 9.49668 26.9834 9.48776 26.111C9.4727 24.634 9.48497 23.1564 9.48051 21.6794C9.48051 21.5176 9.52011 21.4407 9.69804 21.4485C9.97359 21.4602 10.2497 21.4513 10.5609 21.4513C10.5609 21.5952 10.5609 21.7034 10.5609 21.8122C10.5609 23.0755 10.5587 24.3395 10.5632 25.6029C10.5637 25.7964 10.5832 25.9922 10.6184 26.1824C10.7177 26.7262 11.1221 26.9427 11.6453 26.8936C12.2053 26.8406 12.6493 26.5232 13.0241 26.1216C13.0927 26.048 13.1056 25.9018 13.1061 25.7886C13.1117 24.4416 13.1145 23.0945 13.105 21.7469C13.1033 21.5221 13.1563 21.4217 13.3962 21.4479C13.6505 21.4758 13.9896 21.3899 14.1386 21.5238C14.2674 21.6404 14.1899 21.9946 14.1899 22.2433C14.1921 23.9529 14.1865 25.6625 14.1971 27.3716C14.1988 27.6198 14.1218 27.6895 13.8803 27.6873C13.2389 27.6806 13.2389 27.6906 13.2138 27.0576C13.2115 27.0051 13.1987 26.9527 13.1853 26.8646L13.1848 26.8651Z" fill="#64FF37"/>
<path d="M22.6678 26.8306C22.6544 27.0119 22.6388 27.1279 22.6388 27.2445C22.6366 28.0432 22.6248 28.842 22.6438 29.6407C22.6511 29.9436 22.5049 29.9536 22.2712 29.9626C22.0163 29.9726 21.9633 29.8783 21.9639 29.6418C21.9717 27.0136 21.9689 24.3847 21.9706 21.7564C21.9706 21.6661 21.9806 21.5752 21.9856 21.4915C22.4302 21.4006 22.4475 21.4106 22.5389 21.8005C22.5741 21.9506 22.6087 22.1006 22.6572 22.3103C22.7805 22.2082 22.8641 22.1458 22.94 22.0755C23.7505 21.3247 24.6892 21.1384 25.5432 21.5618C25.9582 21.7676 26.2694 22.085 26.4613 22.4994C27.0559 23.7857 27.1039 25.1098 26.5673 26.4123C25.9543 27.901 24.3082 28.2479 23.0861 27.1943C22.9629 27.0877 22.8396 26.9807 22.6667 26.8312L22.6678 26.8306ZM22.6388 24.5571C22.6388 24.9749 22.631 25.3926 22.6438 25.8099C22.6477 25.932 22.675 26.0843 22.752 26.1668C23.0036 26.4374 23.2574 26.7179 23.5563 26.9293C24.4957 27.5937 25.5833 27.2746 25.9799 26.1953C26.3865 25.0875 26.3676 23.9536 25.9297 22.8547C25.6826 22.2345 25.2074 21.887 24.5012 21.9126C23.7878 21.9383 23.3065 22.3527 22.8586 22.8419C22.699 23.0159 22.6248 23.2033 22.6349 23.4432C22.6505 23.8136 22.6388 24.1856 22.6388 24.5571Z" fill="#64FF37"/>
<path d="M38.4473 22.4605C38.304 22.5676 38.159 22.6758 38.0028 22.7923C37.6335 22.3288 37.2146 21.9763 36.6262 21.8882C36.2792 21.8363 35.944 21.8452 35.6305 22.0315C35.2741 22.2429 35.1263 22.5653 35.1347 22.9636C35.1425 23.3412 35.3622 23.5877 35.6913 23.7289C36.3211 23.9994 36.9631 24.2415 37.5906 24.5181C38.0781 24.7329 38.4942 25.0318 38.6269 25.5997C38.801 26.3449 38.502 27.0711 37.8483 27.4677C36.7221 28.1504 34.9757 27.7148 34.2734 26.5574C34.4179 26.4375 34.5652 26.3153 34.7314 26.1775C34.8652 26.3209 34.9863 26.4575 35.1151 26.5864C35.5926 27.0655 36.1621 27.302 36.8476 27.2541C37.6274 27.1994 38.1941 26.4442 37.9186 25.7514C37.8282 25.5244 37.6112 25.2979 37.3931 25.1819C36.9536 24.9487 36.4728 24.7948 36.0115 24.6012C35.7471 24.4902 35.4816 24.377 35.2278 24.2437C34.6985 23.9665 34.4023 23.5314 34.4196 22.9217C34.4363 22.3221 34.7386 21.891 35.2535 21.5992C36.3043 21.0035 37.8003 21.3973 38.4479 22.4599L38.4473 22.4605Z" fill="#64FF37"/>
<path d="M6.57685 23.3329C6.57685 22.0037 6.58298 20.6745 6.57183 19.3459C6.5696 19.1016 6.64044 19.0257 6.8853 19.0274C7.62548 19.0318 7.62548 19.0224 7.62548 19.7586C7.62548 22.2681 7.62548 24.7776 7.62548 27.2865C7.62548 27.5505 7.49217 27.6829 7.22555 27.6836C6.79308 27.6847 6.57685 27.4707 6.57685 27.0416C6.57685 25.8056 6.57685 24.5695 6.57685 23.3335V23.3329Z" fill="#64FF37"/>
<path d="M30.9608 21.3611C30.9731 21.4225 30.9842 21.4576 30.9864 21.4933C31.0171 21.9563 31.0177 21.9602 30.5754 22.0467C30.142 22.1314 29.8039 22.3613 29.5585 22.7194C29.2556 23.1622 29.061 23.6341 29.0732 24.1953C29.0967 25.2623 29.0727 26.3305 29.0855 27.3981C29.0889 27.6479 28.9873 27.6954 28.7732 27.6864C28.5768 27.6781 28.4117 27.6937 28.4128 27.4064C28.4212 25.5122 28.4229 23.6185 28.4112 21.7243C28.4089 21.4024 28.6019 21.461 28.7932 21.4476C28.9996 21.4337 29.1028 21.4833 29.0844 21.7198C29.0638 21.9831 29.0799 22.2491 29.1279 22.5498C29.5764 21.8894 30.0795 21.3489 30.9597 21.36L30.9608 21.3611Z" fill="#64FF37"/>
<path d="M32.179 24.5534C32.179 23.6069 32.1874 22.6603 32.1734 21.7143C32.1701 21.4705 32.2755 21.436 32.4724 21.4499C32.6503 21.4622 32.8433 21.3958 32.8416 21.7059C32.8322 23.608 32.8327 25.51 32.8416 27.4121C32.8428 27.7044 32.6732 27.6765 32.4808 27.6876C32.2576 27.7004 32.1706 27.633 32.174 27.3931C32.1862 26.4471 32.179 25.5005 32.179 24.554V24.5534Z" fill="#64FF37"/>
</svg>
