<svg width="48" height="48" viewBox="0 0 48 48" fill="none" xmlns="http://www.w3.org/2000/svg">
<path d="M22.3791 39C19.8405 38.9926 18.1173 38.0832 16.7973 36.4324C15.8099 35.1982 14.8331 33.9351 14.0242 32.5777C12.0284 29.2264 9.39652 26.577 6.09043 24.5914C4.65522 23.73 3.33927 22.6959 2.12068 21.5311C-0.631285 18.9015 -0.719718 14.5764 1.94219 11.8609C2.45819 11.3343 2.9612 10.7937 3.49423 10.2853C4.77935 9.05602 6.2892 8.68733 7.94995 9.27095C9.57825 9.843 10.5502 11.0474 10.8196 12.795C11.0475 14.2714 10.6046 15.5378 9.58799 16.6017C9.10688 17.1052 8.60955 17.5929 8.12682 18.0947C7.18732 19.0718 7.16542 20.4126 8.06678 21.3434C8.94219 22.247 10.3174 22.2205 11.2569 21.2649C14.8356 17.6235 18.4053 13.973 21.9881 10.3349C24.3644 7.92185 28.3512 8.96178 29.2534 12.242C29.6712 13.7597 29.3661 15.1601 28.3471 16.3686C28.0656 16.7026 27.75 17.0068 27.4441 17.3185C24.0886 20.7392 20.7297 24.1574 17.3774 27.5806C16.1547 28.8288 16.6391 30.8599 18.2779 31.3526C19.0609 31.5874 19.7748 31.4187 20.3833 30.8525C20.5626 30.6855 20.7289 30.5036 20.9017 30.3284C27.3849 23.7217 33.8705 17.1184 40.348 10.506C41.2591 9.57434 42.3212 8.99898 43.6201 9.0213C45.4285 9.05354 46.7972 9.89921 47.5582 11.5773C48.3305 13.2811 48.0758 14.9005 46.9075 16.3595C46.8142 16.4769 46.7063 16.5827 46.6016 16.6902C39.9562 23.463 33.3115 30.235 26.6653 37.0061C25.3704 38.3254 23.8062 38.9926 22.3791 38.9992V39Z" fill="#64FF37"/>
</svg>
