<svg width="48" height="48" viewBox="0 0 48 48" fill="none" xmlns="http://www.w3.org/2000/svg">
<path d="M24.87 23.1991C24.8387 22.96 24.8058 22.7211 24.7761 22.4816C24.6075 21.1283 24.6708 19.7834 24.9292 18.4444C25.0088 18.0328 25.1347 17.6301 25.1751 17.2104C25.2613 16.3103 24.7595 15.5195 23.8764 15.1918C23.2656 14.9654 22.6322 14.9645 21.9972 15.0604C20.3235 15.3123 18.7457 15.8435 17.2274 16.5463C15.1706 17.4983 13.2971 18.7138 11.5454 20.1006C9.5027 21.7177 7.66581 23.5265 6.0009 25.4925C3.66657 28.2489 1.73007 31.2341 0.224286 34.4673C0.14754 34.632 0.0830108 34.8018 0 35C0.0642159 34.9697 0.0952275 34.9567 0.124986 34.9409C2.88909 33.4853 5.76815 32.2638 8.70674 31.164C9.1315 31.005 9.55626 30.8456 9.98103 30.6862C10.3663 30.5545 10.751 30.4215 11.1366 30.2909C14.4711 29.1603 17.8605 28.2109 21.3328 27.537C22.8383 27.2446 24.3547 27.0164 25.8846 26.874C26.0319 26.8603 26.0109 26.8137 25.9698 26.7194C25.6441 25.9668 25.3678 25.1987 25.152 24.4108C25.042 24.0102 24.9722 23.6016 24.8697 23.1997L24.87 23.1991Z" fill="#64FF37"/>
<path d="M27.0047 23.2821C26.9825 22.9438 27.0437 22.6124 27.0874 22.281C27.2263 21.229 27.4667 20.2037 27.8652 19.2247C28.9281 16.6121 30.7904 15.0004 33.4108 14.3414C34.0914 14.1701 34.7821 14.0755 35.4798 14.0317C35.5247 14.0289 35.5794 14.0553 35.6143 14H35.9685C35.9977 14.0532 36.0467 14.0317 36.0875 14.032C36.2884 14.0336 36.4893 14.0326 36.6902 14.0311C36.7271 14.0311 36.7702 14.0482 36.795 14H36.9723C37.1551 14.0644 37.3469 14.0423 37.5339 14.0547C38.6966 14.1321 39.8363 14.3271 40.9264 14.7769C41.3651 14.9578 41.7935 15.163 42.1899 15.4357C42.2626 15.4857 42.2694 15.5153 42.2067 15.5805C41.9902 15.8062 41.7754 16.0341 41.5663 16.267C41.3069 16.5552 41.335 16.7548 41.6313 16.9957C42.2841 17.527 42.9296 18.0686 43.5792 18.6042C43.6306 18.6468 43.6472 18.6947 43.6495 18.7618C43.6575 19.0096 43.6658 19.258 43.7193 19.5011C43.8052 19.8903 44.0176 20.2062 44.2584 20.5018C45.2282 21.6922 46.2687 22.8145 47.2858 23.9592C47.4569 24.1519 47.6326 24.34 47.8043 24.5322C48.0255 24.7796 48.0675 25.2086 47.8876 25.5463C47.6811 25.9333 47.4716 26.3197 47.2409 26.6906C47.0554 26.9888 46.752 27.0715 46.4303 27.0802C46.1485 27.0879 45.89 27.0021 45.6433 26.8598C44.8991 26.4304 44.1447 26.0241 43.3544 25.693C42.8171 25.4679 42.272 25.4172 41.6957 25.4583C40.4062 25.5506 39.1321 25.4465 37.909 24.9571C37.367 24.7405 36.8704 24.442 36.4521 24.0133C36.3537 23.9126 36.2671 23.7994 36.1773 23.69C36.1348 23.6381 36.0905 23.5905 36.0273 23.5693C35.9242 23.5348 35.8506 23.5914 35.8509 23.7052C35.8509 23.7969 35.8934 23.8728 35.9377 23.948C36.2919 24.5502 36.7853 25.0028 37.3448 25.3815C38.1256 25.91 38.9687 26.2967 39.8567 26.5768C39.9412 26.6036 39.9832 26.6499 40.0151 26.7338C40.3944 27.7343 40.688 28.7589 40.8286 29.8284C40.8351 29.8778 40.8499 29.9282 40.8233 30C40.0012 29.331 39.1129 28.7888 38.1876 28.3113C38.1767 28.2793 38.1557 28.2662 38.1238 28.2746L38.1253 28.2755C38.0257 28.1425 37.8786 28.0784 37.7486 27.9904C35.616 26.5458 33.3348 25.4213 30.9523 24.5179C29.6593 24.0276 28.342 23.62 27.0056 23.2815L27.0047 23.2821ZM41.7486 19.6995C42.1039 19.8819 42.4502 20.0595 42.802 20.2401C42.8779 19.9817 42.9468 19.7352 43.0244 19.4918C43.0522 19.405 43.0221 19.3746 42.9521 19.346C42.5282 19.1741 42.0463 19.3099 41.7483 19.6995H41.7486Z" fill="#64FF37"/>
<path d="M9.90806 30.6861C9.4864 30.8455 9.06474 31.0049 8.64308 31.1639C5.72598 32.2641 2.86797 33.4853 0.124072 34.9409C0.0945313 34.9567 0.0637464 34.9697 0 35C0.0824039 34.8018 0.146772 34.632 0.222646 34.4673C1.71742 31.234 3.63976 28.2488 5.9564 25.4926C7.60914 23.5265 9.43291 21.7177 11.4604 20.1006C13.1992 18.7138 15.0591 17.4979 17.1008 16.5462C18.608 15.8434 20.174 15.3122 21.8358 15.0602C22.4661 14.9647 23.0949 14.9653 23.7012 15.1917C24.5781 15.519 25.0763 16.3102 24.9905 17.2103C24.9507 17.63 24.8253 18.0327 24.7464 18.4443C24.4898 19.7837 24.427 21.1286 24.5943 22.4816C24.6238 22.7208 24.6565 22.96 24.6876 23.1992C24.255 23.128 23.8219 23.0606 23.3903 22.9846C22.5323 22.8336 21.6688 22.7273 20.7991 22.6614C20.3164 22.6249 19.8332 22.6083 19.3497 22.5997C19.0906 22.5594 18.8319 22.5546 18.5729 22.6003C18.2542 22.6054 17.9373 22.643 17.6201 22.6549C17.0741 22.6757 16.5361 22.7481 16.0031 22.846C14.9272 23.0434 13.8896 23.3526 12.9287 23.8714C11.6388 24.5679 10.6422 25.5191 10.0722 26.8427C9.80669 27.4593 9.65089 28.0992 9.65867 28.7699C9.6596 28.996 9.66053 29.2219 9.66178 29.448C9.69723 29.8691 9.79176 30.2796 9.90744 30.6861H9.90806Z" fill="#64FF37"/>
<path d="M19.6004 22.0003C20.0798 22.0099 20.5582 22.0281 21.0363 22.069C21.8979 22.1424 22.7534 22.2606 23.6033 22.4287C24.0308 22.5133 24.46 22.5883 24.8885 22.6675C24.9892 23.1148 25.0579 23.5696 25.166 24.0155C25.3783 24.8924 25.65 25.7472 25.9703 26.5849C26.0107 26.6899 26.0313 26.7418 25.8866 26.757C24.382 26.9158 22.8907 27.1698 21.4102 27.4949C17.9955 28.245 14.6623 29.3016 11.3831 30.56C11.0039 30.7057 10.6256 30.8533 10.2467 31C10.1318 30.5475 10.0385 30.0907 10.0034 29.622C10.0471 29.3703 10.0369 29.1186 10.0003 28.8673C9.99257 28.1208 10.1469 27.4087 10.41 26.7223C10.9743 25.2492 11.9616 24.1902 13.2398 23.4153C14.1913 22.8383 15.2193 22.4938 16.2855 22.2741C16.8135 22.1655 17.3467 22.0846 17.8874 22.0614C18.2016 22.0482 18.5158 22.0063 18.8312 22.0007C19.0878 22.0007 19.3441 22.0003 19.6007 22L19.6004 22.0003Z" fill="#64FF37"/>
<path d="M27.0481 23C28.3644 23.339 29.6617 23.747 30.9353 24.2379C33.2818 25.1424 35.5286 26.2682 37.629 27.7146C37.7571 27.8027 37.9022 27.8668 38 28C37.8542 27.9757 37.7323 27.8867 37.5996 27.8279C36.1943 27.2026 34.7349 26.7995 33.2298 26.5648C31.6277 26.3152 30.019 26.2607 28.4045 26.3279C28.0222 26.3438 27.6399 26.3659 27.259 26.4011C27.1458 26.4117 27.1132 26.3771 27.1054 26.2704C27.0795 25.9196 27.0417 25.5697 27.0254 25.2186C26.991 24.4791 26.9852 23.7389 27.0481 23Z" fill="#64FF37"/>
</svg>
