<svg width="153" height="53" viewBox="0 0 153 53" fill="none" xmlns="http://www.w3.org/2000/svg">
<path d="M37.5251 3.88605C36.2341 3.26199 34.8933 2.74417 33.5159 2.33789C-2.78015 7.42619 -0.0114982 30.2977 5.6776 42.6263C7.92311 45.4338 10.7424 47.7442 13.9523 49.4077C17.1623 51.0711 20.6912 52.0503 24.3097 52.2817C12.5391 41.3568 -6.19781 14.6664 37.5251 3.9067" fill="#9BCB3C"/>
<path d="M33.5145 2.31547C28.2353 0.741337 22.5845 0.869142 17.384 2.68029C12.1835 4.49144 7.70479 7.89144 4.59938 12.3857C1.49397 16.88 -0.0761113 22.2339 0.117548 27.6687C0.311208 33.1035 2.25851 38.3357 5.67615 42.6038C-0.012947 30.2754 -2.78159 7.40377 33.5145 2.31547Z" fill="#007AA5"/>
<path d="M38.7319 4.50556C38.3341 4.28365 37.9312 4.07723 37.5229 3.87598C-6.19995 14.6357 12.5369 41.3261 24.3077 52.2509C24.8572 52.287 25.412 52.3077 25.9772 52.3077C27.0636 52.3076 28.149 52.2422 29.2274 52.1116C18.137 43.0445 -6.17902 15.6524 38.7319 4.50556Z" fill="white"/>
<path d="M42.6298 7.17261C41.4156 6.17134 40.1124 5.28011 38.7358 4.50977C-6.17509 15.6566 18.1409 43.0488 29.2312 52.1158C34.0891 51.5187 38.6743 49.5714 42.4517 46.5011C26.3998 33.5482 9.90825 15.3108 42.6087 7.17261" fill="#098AC4"/>
<path d="M51.916 26.8078C51.9249 23.0629 51.0972 19.3622 49.4916 15.9685C47.886 12.5747 45.542 9.5714 42.626 7.17188C9.92557 15.31 26.4014 33.5475 42.4692 46.5004C45.4169 44.1078 47.7906 41.1009 49.4195 37.6959C51.0483 34.291 51.892 30.5725 51.8898 26.8078" fill="#DFDFDE"/>
<path d="M67.1247 44.4192C64.9788 44.4192 63.325 42.68 63.3302 40.4146C63.3073 39.3963 63.6904 38.4099 64.3968 37.667C65.1033 36.9241 66.077 36.4839 67.109 36.4409C69.1763 36.4409 70.8773 38.2832 70.8773 40.4765C70.8976 40.9793 70.8161 41.481 70.6379 41.9526C70.4594 42.424 70.1878 42.8559 69.8385 43.2228C69.4893 43.5898 69.0695 43.8845 68.6036 44.0899C68.1376 44.2953 67.6349 44.4071 67.1247 44.4192ZM67.1247 33.6387C66.2216 33.636 65.3268 33.8087 64.4913 34.147C63.6559 34.4853 62.8962 34.9824 62.2557 35.6102C61.6151 36.238 61.1062 36.984 60.7581 37.8057C60.4099 38.6273 60.2293 39.5085 60.2266 40.399C60.2239 41.2896 60.399 42.1718 60.7421 42.9955C61.0852 43.8194 61.5895 44.5683 62.2261 45.1999C62.8627 45.8315 63.6193 46.3332 64.4526 46.6766C65.286 47.0199 66.1797 47.1979 67.0828 47.2006C68.9068 47.2062 70.6582 46.4969 71.9518 45.2292C73.2455 43.9613 73.9753 42.2388 73.9809 40.4403C73.9865 38.6419 73.2673 36.915 71.9814 35.6394C70.6957 34.3639 68.9486 33.6443 67.1247 33.6387Z" fill="#098AC4"/>
<path d="M90.2826 33.6641C89.4705 33.6096 88.6579 33.7634 87.9242 34.1108C87.1903 34.4581 86.5602 34.9869 86.0955 35.6458C85.6994 35.028 85.1495 34.5205 84.4981 34.1718C83.8467 33.8231 83.1155 33.6447 82.3743 33.6538C81.7234 33.6078 81.0708 33.7174 80.4721 33.9735C79.8735 34.2295 79.3463 34.6245 78.9358 35.1246V34.0563H76.0938V46.8028H79.1921V40.4554C79.1921 37.6275 79.9197 36.4559 81.6521 36.4559C83.3845 36.4559 84.2375 37.6325 84.2323 39.7743V46.808H87.3359V40.4605C87.3359 37.6842 88.142 36.4611 89.9528 36.4611C91.5805 36.4611 92.4074 37.5861 92.4022 39.7794V46.8132H95.5058V39.4078C95.5058 35.7335 93.606 33.6641 90.272 33.6641" fill="#098AC4"/>
<path d="M104.608 44.4923C104.092 44.4859 103.582 44.3776 103.109 44.174C102.635 43.9702 102.208 43.6754 101.852 43.3066C101.496 42.9379 101.219 42.5027 101.036 42.0264C100.853 41.5503 100.768 41.043 100.787 40.5342C100.787 38.2429 102.446 36.4831 104.618 36.4883C106.79 36.4935 108.413 38.1501 108.413 40.4465C108.413 42.743 106.801 44.4923 104.608 44.4923ZM108.491 35.7194C107.962 35.0868 107.3 34.5746 106.552 34.2184C105.802 33.862 104.984 33.6699 104.153 33.6553C100.489 33.6553 97.6888 36.5554 97.6836 40.3639C97.6836 44.3118 100.337 47.1965 103.964 47.2017C105.674 47.161 107.298 46.4584 108.486 45.2459V46.794H111.333V34.0473H108.486L108.491 35.7194Z" fill="#098AC4"/>
<path d="M120.896 33.7033C120.236 33.6974 119.583 33.8279 118.978 34.0866C118.373 34.3453 117.83 34.7263 117.384 35.205V34.111H114.484V46.8575H117.588V40.8145C117.588 39.3128 117.666 38.7245 117.923 38.0639C118.124 37.6095 118.453 37.222 118.872 36.9474C119.291 36.6729 119.781 36.523 120.283 36.5158C122.042 36.5158 122.9 37.8421 122.9 40.5978V46.8679H126.004V39.9889C126.004 38.1724 125.852 37.3054 125.334 36.2887C124.902 35.506 124.263 34.853 123.486 34.3988C122.708 33.9447 121.82 33.706 120.917 33.7085" fill="#098AC4"/>
<path d="M134.815 44.5001C132.674 44.5001 131.026 42.7663 131.026 40.4955C131.003 39.477 131.386 38.4904 132.094 37.7482C132.802 37.0059 133.777 36.5674 134.809 36.5271C136.872 36.5271 138.577 38.3643 138.572 40.5574C138.594 41.0609 138.512 41.5634 138.334 42.0355C138.156 42.5077 137.884 42.94 137.534 43.3071C137.183 43.6744 136.763 43.969 136.297 44.1737C135.83 44.3786 135.325 44.4895 134.815 44.5001ZM134.815 33.7198C133.453 33.7136 132.122 34.1058 130.987 34.8468C129.851 35.5877 128.965 36.644 128.44 37.8818C127.914 39.1197 127.773 40.4836 128.034 41.8007C128.295 43.1179 128.946 44.329 129.906 45.2809C130.865 46.2327 132.089 46.8824 133.423 47.1478C134.758 47.4131 136.142 47.2821 137.4 46.7714C138.659 46.2606 139.736 45.3931 140.494 44.2787C141.252 43.1643 141.658 41.8531 141.661 40.511C141.667 39.6208 141.496 38.738 141.155 37.9136C140.813 37.0893 140.31 36.3398 139.673 35.7083C139.036 35.0769 138.28 34.5761 137.445 34.2347C136.612 33.8934 135.718 33.7184 134.815 33.7198Z" fill="#098AC4"/>
<path d="M143.799 34.1465L143.781 46.893L146.891 46.8973L146.909 34.1507L143.799 34.1465Z" fill="#098AC4"/>
<path d="M149.801 29.9287L149.777 46.9069L152.875 46.9112L152.9 29.933L149.801 29.9287Z" fill="#098AC4"/>
<path d="M145.337 29.7256C145.014 29.7246 144.699 29.8179 144.429 29.9937C144.161 30.1696 143.951 30.42 143.826 30.7136C143.702 31.0072 143.668 31.3305 143.729 31.6429C143.791 31.9552 143.944 32.2426 144.172 32.4687C144.399 32.6948 144.688 32.8495 145.005 32.9132C145.321 32.9769 145.649 32.9468 145.949 32.8266C146.247 32.7065 146.504 32.5018 146.684 32.2382C146.865 31.9747 146.963 31.6642 146.965 31.346C146.965 30.9199 146.794 30.5112 146.488 30.2093C146.183 29.9075 145.77 29.7372 145.337 29.7359" fill="#098AC4"/>
<path d="M140.08 21.1808C137.939 21.1808 136.286 19.4417 136.291 17.1762C136.291 15.0087 138.002 13.1974 140.069 13.2026C142.136 13.2078 143.837 15.0449 143.837 17.2381C143.858 17.7413 143.776 18.2435 143.597 18.7154C143.418 19.1872 143.147 19.6193 142.797 19.9863C142.447 20.3533 142.027 20.6479 141.56 20.8531C141.093 21.0581 140.59 21.1695 140.08 21.1808ZM128.466 20.8093H117.805V17.4085C117.857 14.725 120.469 13.28 123.038 13.3109C125.368 13.3109 126.66 14.2605 127.608 15.8397C128.256 16.8717 128.461 17.9813 128.461 19.9681L128.466 20.8093ZM152.227 20.995C152.75 19.9629 152.896 19.1115 152.902 17.3V10.8236H149.804V16.6912C149.804 19.4417 148.946 20.8453 147.188 20.8196H146.255C146.107 20.8125 145.96 20.8354 145.821 20.8867C146.55 19.7804 146.939 18.4902 146.941 17.171C146.946 16.2814 146.774 15.3995 146.432 14.5761C146.091 13.7526 145.586 13.0039 144.951 12.3732C144.314 11.7424 143.557 11.242 142.725 10.9008C141.891 10.5596 140.997 10.3842 140.095 10.3849C138.271 10.3863 136.52 11.0987 135.226 12.367C133.932 13.6353 133.2 15.3565 133.187 17.1556C133.188 18.477 133.583 19.769 134.323 20.8712C134.183 20.817 134.032 20.7941 133.883 20.8041H131.418V20.0868C131.496 18.5334 131.279 16.9792 130.779 15.5042C129.701 12.444 126.917 10.3746 123.007 10.3436C120.793 10.3436 118.611 11.1384 117.59 12.4698V6.57129H114.722V20.8248H113.23V23.5547L140.074 23.5856H147.81C148.716 23.591 149.606 23.3538 150.386 22.8994C151.166 22.445 151.806 21.7903 152.238 21.0054" fill="#098AC4"/>
<path d="M151.362 9.49361C151.684 9.49463 152.001 9.40107 152.271 9.22477C152.539 9.04848 152.75 8.79737 152.873 8.50326C152.998 8.20915 153.032 7.88524 152.969 7.57258C152.907 7.25992 152.752 6.97255 152.523 6.74686C152.295 6.52117 152.005 6.3673 151.687 6.30476C151.371 6.24221 151.041 6.2738 150.743 6.3955C150.445 6.51722 150.189 6.72359 150.009 6.98847C149.83 7.25335 149.734 7.56485 149.734 7.88352C149.734 8.30964 149.906 8.7184 150.21 9.02021C150.515 9.32201 150.93 9.49226 151.362 9.49361Z" fill="#098AC4"/>
<path d="M140.096 9.47897C140.42 9.47999 140.735 9.38643 141.005 9.21013C141.275 9.03384 141.485 8.78273 141.609 8.48862C141.734 8.1945 141.766 7.8706 141.704 7.55794C141.642 7.24527 141.486 6.9579 141.258 6.7322C141.03 6.50651 140.739 6.35266 140.423 6.2901C140.105 6.22756 139.777 6.25914 139.478 6.38086C139.179 6.50257 138.924 6.70893 138.745 6.97383C138.565 7.23871 138.469 7.55021 138.469 7.86887C138.469 8.295 138.64 8.70376 138.945 9.00557C139.251 9.30737 139.664 9.4776 140.096 9.47897Z" fill="#098AC4"/>
<path d="M67.1629 13.522C67.486 13.523 67.8023 13.4294 68.0715 13.2531C68.3408 13.0768 68.5508 12.8257 68.6753 12.5316C68.7996 12.2375 68.8327 11.9136 68.7703 11.6009C68.708 11.2882 68.5528 11.0009 68.3247 10.7752C68.0965 10.5495 67.8055 10.3956 67.4886 10.3331C67.1717 10.2705 66.8432 10.3021 66.5444 10.4238C66.2458 10.5455 65.9904 10.7519 65.8108 11.0168C65.6311 11.2817 65.5352 11.5932 65.5352 11.9118C65.5352 12.338 65.7066 12.7467 66.0117 13.0486C66.3168 13.3503 66.7308 13.5205 67.1629 13.522Z" fill="#098AC4"/>
<path d="M89.6258 21.1117C87.48 21.1117 85.8314 19.3725 85.8314 17.1071C85.8084 16.0888 86.1915 15.1024 86.898 14.3595C87.6044 13.6166 88.5781 13.1764 89.6101 13.1333C91.7036 13.1333 93.3836 14.9757 93.3836 17.169C93.404 17.6722 93.3223 18.1744 93.1436 18.6463C92.9651 19.1181 92.6929 19.5501 92.3431 19.9171C91.9933 20.2841 91.5728 20.5788 91.1063 20.7838C90.6397 20.989 90.1365 21.1004 89.6258 21.1117ZM111.084 20.7865H105.851C105.337 20.7909 104.827 20.6928 104.352 20.4983C103.878 20.3037 103.448 20.0166 103.089 19.6542C102.729 19.2917 102.448 18.8615 102.262 18.3891C102.075 17.9169 101.987 17.4123 102.004 16.9058C101.981 16.4111 102.062 15.9171 102.242 15.4546C102.421 14.992 102.695 14.5708 103.046 14.217C103.398 13.8633 103.819 13.5845 104.284 13.3981C104.75 13.2117 105.249 13.1216 105.751 13.1333C106.243 13.096 106.737 13.1897 107.18 13.4048C107.623 13.62 107.999 13.9488 108.268 14.3565L110.498 12.2922C109.882 11.6684 109.145 11.1742 108.33 10.8398C107.514 10.5054 106.639 10.3376 105.756 10.3467C104.515 10.3426 103.295 10.672 102.229 11.2995C101.163 11.9271 100.291 12.8291 99.7054 13.9087C99.12 14.9882 98.8438 16.2046 98.9067 17.4274C98.9694 18.65 99.3689 19.8327 100.062 20.8485C99.9048 20.799 99.7399 20.778 99.5752 20.7865H97.309C97.0219 20.7977 96.7355 20.7527 96.4659 20.6544C96.1965 20.5562 95.9495 20.4064 95.7388 20.2136C96.2743 19.1804 96.5322 18.0291 96.4877 16.8696C96.4432 15.7102 96.0981 14.5813 95.4852 13.5908C94.8721 12.6004 94.0118 11.7814 92.9863 11.2123C91.961 10.6431 90.8045 10.3427 89.6279 10.3397C88.4511 10.3367 87.2932 10.6313 86.2648 11.1953C85.2364 11.7593 84.3719 12.5739 83.7537 13.5612C83.1356 14.5486 82.7846 15.6757 82.7342 16.8349C82.6837 17.9942 82.9355 19.1468 83.4657 20.1827C83.2518 20.3805 82.9998 20.5341 82.7248 20.6343C82.4497 20.7345 82.157 20.7792 81.8641 20.7659H79.4357V6.51758H76.332V23.4906H82.4817C83.5468 23.5069 84.5812 23.1399 85.3917 22.4585C86.5995 23.3749 88.0807 23.8719 89.6049 23.8719C91.1289 23.8719 92.6102 23.3749 93.8181 22.4585C94.6135 23.1381 95.6393 23.4974 96.6914 23.4649H111.095L111.084 20.7865Z" fill="#098AC4"/>
<path d="M70.1054 14.5968L70.0687 14.6277C70.6186 15.3531 70.9144 16.2353 70.9114 17.1409C70.9318 17.644 70.8503 18.146 70.6721 18.6178C70.4938 19.0896 70.2221 19.5218 69.873 19.8891C69.5238 20.2564 69.1041 20.5516 68.6381 20.7576C68.1721 20.9635 67.6692 21.0761 67.1588 21.0888C65.013 21.0888 63.359 19.3496 63.3644 17.079C63.3654 16.1962 63.6534 15.3372 64.186 14.6277L62.0088 12.5944C61.1394 13.5719 60.5744 14.7761 60.382 16.0623C60.1895 17.3486 60.3775 18.6623 60.9236 19.8457C61.4696 21.0292 62.3504 22.0322 63.4603 22.7342C64.5702 23.4363 65.8619 23.8075 67.1805 23.8037C68.4992 23.7996 69.7885 23.4205 70.894 22.7119C71.9995 22.0031 72.8741 20.9949 73.4128 19.8081C73.9516 18.6214 74.1314 17.3066 73.931 16.0216C73.7305 14.7364 73.1582 13.5357 72.2827 12.5635L70.1054 14.5968Z" fill="#098AC4"/>
</svg>
