<svg width="175" height="66" viewBox="0 0 175 66" fill="none" xmlns="http://www.w3.org/2000/svg">
<path fill-rule="evenodd" clip-rule="evenodd" d="M52.7544 27.4605C52.7544 41.9653 40.8888 53.7302 26.1861 53.9128V41.4441C26.1861 37.7374 24.6786 34.3744 22.2453 31.9462C21.9384 31.6453 21.6208 31.3553 21.2869 31.0813C21.1039 30.9309 20.9154 30.7858 20.727 30.6461C20.6031 30.5495 20.474 30.4582 20.3448 30.3722C20.0003 30.1305 19.6395 29.9102 19.2681 29.706C19.1334 29.6308 18.9936 29.5556 18.8536 29.4858C18.6221 29.3623 18.3906 29.2548 18.1537 29.1527C18.1321 29.142 18.1106 29.1313 18.0837 29.1206C17.9759 29.0722 17.863 29.0238 17.7444 28.9809C17.723 28.9701 17.7015 28.9593 17.6744 28.9539C17.54 28.9003 17.4053 28.8465 17.2653 28.7981C17.2277 28.782 17.1953 28.7713 17.1577 28.7606C17.0446 28.7175 16.9316 28.68 16.8238 28.6477C16.7538 28.6262 16.6785 28.6048 16.6031 28.5833C16.5279 28.5564 16.4525 28.5349 16.3771 28.5189C16.2264 28.4758 16.0756 28.4383 15.9249 28.4006C15.7795 28.3577 15.6287 28.3254 15.478 28.2986C15.3326 28.2663 15.1926 28.2395 15.0472 28.218C15.0365 28.2126 15.0204 28.2073 15.0043 28.2073C14.9235 28.1964 14.8374 28.1803 14.7566 28.1696C14.3581 28.1051 13.9598 28.0622 13.5506 28.0406C13.4806 28.0353 13.4107 28.0299 13.3461 28.0299C13.1415 28.0192 12.9369 28.0138 12.7269 28.0138C12.2209 28.0138 11.7202 28.0406 11.2303 28.0944C11.0742 28.1105 10.918 28.1321 10.7619 28.1535V28.1589C6.21811 28.8197 2.41187 31.7421 0.538365 35.7551C0.333786 35.1266 0.156126 34.4872 0 33.8372V27.2027C0 26.6064 0.0430692 26.0208 0.113056 25.446C1.14133 11.9512 12.4093 1.31446 26.1861 1.27148V13.9389C26.1861 14.2076 26.1914 14.4708 26.2076 14.7339C26.2183 14.8683 26.2291 15.008 26.2453 15.1423C26.2614 15.3948 26.2883 15.6418 26.3314 15.8889C26.3422 15.9588 26.3476 16.0233 26.3637 16.0931C26.3798 16.2489 26.4122 16.4047 26.4444 16.5605C26.4552 16.6142 26.4661 16.668 26.4822 16.727C26.5144 16.9205 26.5629 17.1084 26.6113 17.2965C26.7191 17.7208 26.8537 18.1453 27.0043 18.5535C27.0635 18.7254 27.1282 18.8919 27.1982 19.0586C27.2035 19.0693 27.2089 19.0747 27.2089 19.0854C27.2682 19.2251 27.3328 19.3702 27.3974 19.5044C27.4943 19.7246 27.5965 19.9395 27.715 20.1491C27.7688 20.2618 27.828 20.3694 27.8927 20.4768C28.0056 20.6863 28.1295 20.8904 28.2588 21.0945C28.3825 21.2934 28.5118 21.4867 28.6464 21.6748C28.6518 21.6855 28.6571 21.7016 28.6733 21.7123C28.7864 21.8788 28.9101 22.04 29.034 22.1958C29.0663 22.2388 29.0986 22.2819 29.1363 22.3248C29.2709 22.4966 29.4109 22.6578 29.5509 22.8191C29.6263 22.9104 29.707 22.9963 29.7878 23.0822C29.8307 23.1253 29.8685 23.1682 29.9169 23.2166C30.0246 23.3293 30.1322 23.4422 30.2454 23.5496C30.2776 23.5818 30.3152 23.6195 30.353 23.6516C30.4552 23.7484 30.5522 23.8451 30.6599 23.9364C30.9345 24.1835 31.2197 24.4198 31.5158 24.6401C31.5858 24.6992 31.6612 24.753 31.7366 24.8013C31.8496 24.8872 31.9627 24.9678 32.0757 25.043C32.2103 25.1344 32.345 25.2257 32.485 25.3063C32.5765 25.3708 32.6733 25.4299 32.7648 25.4835C32.878 25.5534 32.9963 25.6179 33.1094 25.677C33.2278 25.7415 33.3463 25.8058 33.4647 25.865C33.5939 25.9402 33.7232 26.0047 33.8523 26.0638C33.9654 26.1174 34.0838 26.1712 34.2023 26.2249C34.2884 26.2625 34.3692 26.2948 34.4553 26.3323C34.6114 26.3968 34.7675 26.4613 34.9237 26.5151C35.0098 26.5472 35.096 26.5794 35.1768 26.6064C35.2683 26.6439 35.3598 26.6762 35.4566 26.703C35.5913 26.7461 35.7313 26.789 35.8659 26.832C35.9411 26.8535 36.0274 26.8803 36.1082 26.8965C36.2211 26.9287 36.3343 26.9555 36.4473 26.9824C36.485 26.9985 36.5173 27.0039 36.5549 27.0092C36.5765 27.02 36.6034 27.0253 36.6249 27.0253C36.7649 27.0576 36.9049 27.0898 37.0503 27.1166C37.244 27.1597 37.4379 27.1918 37.6316 27.2188C37.8147 27.2456 37.9977 27.2671 38.1809 27.2886H38.1862C38.3154 27.3047 38.45 27.3155 38.5846 27.3262C38.5954 27.3315 38.6115 27.3315 38.6222 27.3262C38.7568 27.3423 38.8969 27.3476 39.0315 27.3531C39.236 27.3639 39.4406 27.3692 39.6452 27.3692C40.1512 27.3692 40.6573 27.3423 41.1526 27.2886C41.3033 27.2671 41.4594 27.251 41.6156 27.2295C46.0193 26.5794 49.7287 23.8074 51.6615 19.9879C52.3721 22.3571 52.7544 24.8658 52.7544 27.4605Z" fill="#C7BAF8"/>
<path fill-rule="evenodd" clip-rule="evenodd" d="M26.1859 13.9382V12.1875C17.6587 12.1875 10.7461 19.0853 10.7461 27.5942C10.7461 27.7827 10.7536 27.9691 10.7601 28.1561C11.4024 28.0626 12.0586 28.0131 12.7267 28.0131C16.4468 28.0131 19.8062 29.5174 22.2451 31.9456C24.6784 34.3737 26.1859 37.7367 26.1859 41.4434V43.0008C34.7131 43.0008 41.6256 36.1031 41.6256 27.5942C41.6256 27.47 41.6191 27.3476 41.6165 27.2246C40.9731 27.3186 40.3147 27.3685 39.6449 27.3685C32.2101 27.3685 26.1859 21.3518 26.1859 13.9382Z" fill="#B8A9F5"/>
<path fill-rule="evenodd" clip-rule="evenodd" d="M52.7558 27.4606C52.7558 41.9653 40.8903 53.7302 26.1875 53.913V53.3113C30.882 50.8292 36.5565 46.3436 36.5565 40.0206V3.18945C43.8136 6.28378 49.4072 12.4349 51.663 19.988C52.3736 22.3571 52.7558 24.8659 52.7558 27.4606Z" fill="#AD83E6"/>
<path fill-rule="evenodd" clip-rule="evenodd" d="M26.1861 1.27148V1.73349C21.6853 4.10259 16.124 8.41639 15.8332 14.5192L15.8441 16.1576L15.9249 28.4006L16.0647 48.8792C16.0647 57.5927 8.97991 64.6624 0.242263 64.6624H0V27.2027C0 26.6064 0.0430692 26.0208 0.113056 25.446C1.14133 11.9512 12.4093 1.31446 26.1861 1.27148Z" fill="#AD83E6"/>
<path fill-rule="evenodd" clip-rule="evenodd" d="M69.4484 25.793H65.4922V35.2559H67.477V32.318H69.3499C70.3532 32.318 71.1681 32.0186 71.7947 31.4196C72.4211 30.8207 72.7344 30.0359 72.7344 29.0653C72.7344 28.0861 72.431 27.2958 71.8242 26.6947C71.2174 26.0935 70.4255 25.793 69.4484 25.793ZM67.4773 30.7105V27.4186H68.923C69.4969 27.4186 69.9395 27.5607 70.2505 27.8449C70.5617 28.129 70.7171 28.5377 70.7171 29.0711C70.7171 29.6001 70.5606 30.0056 70.2472 30.2876C69.934 30.5696 69.4905 30.7105 68.9165 30.7105H67.4773Z" fill="white"/>
<path fill-rule="evenodd" clip-rule="evenodd" d="M82.6425 33L83.3588 35.2559H85.5078L82.2153 25.793H79.8823L76.5898 35.2559H78.5811L79.3105 33H82.6425ZM79.7381 31.473L80.9275 27.7613H81.0459L82.2222 31.473H79.7381Z" fill="white"/>
<path d="M92.2659 25.793V31.7869C92.2659 32.3901 92.4401 32.8667 92.7884 33.2165C93.1366 33.5661 93.6242 33.741 94.2506 33.741C94.8815 33.741 95.3711 33.5661 95.7195 33.2165C96.0677 32.8667 96.2419 32.3901 96.2419 31.7869V25.793H98.2265V31.9901C98.2265 33.0438 97.8662 33.8919 97.1455 34.5345C96.4249 35.1772 95.4599 35.4985 94.2506 35.4985C93.0458 35.4985 92.0831 35.1772 91.3622 34.5345C90.6416 33.8919 90.2812 33.0438 90.2812 31.9901V25.793H92.2659Z" fill="white"/>
<path d="M103.477 32.6265H105.396C105.439 33.0113 105.641 33.3173 106 33.5446C106.36 33.7719 106.819 33.8856 107.38 33.8856C107.897 33.8856 108.32 33.773 108.649 33.5479C108.977 33.3227 109.141 33.0309 109.141 32.6725C109.141 32.3708 109.014 32.1259 108.76 31.9379C108.506 31.75 108.088 31.5947 107.505 31.4724L106.27 31.21C104.552 30.8515 103.693 29.9509 103.693 28.5083C103.693 27.6164 104.024 26.9005 104.686 26.3607C105.347 25.8207 106.226 25.5508 107.321 25.5508C108.364 25.5508 109.222 25.8152 109.894 26.3442C110.567 26.8733 110.918 27.5595 110.949 28.4034H109.082C109.034 28.0273 108.85 27.7258 108.53 27.4983C108.211 27.271 107.812 27.1573 107.334 27.1573C106.835 27.1573 106.435 27.2644 106.135 27.4787C105.835 27.6929 105.685 27.9793 105.685 28.3378C105.685 28.6306 105.806 28.8667 106.049 29.046C106.293 29.2252 106.692 29.3738 107.249 29.4919L108.392 29.7345C109.343 29.9357 110.035 30.2504 110.469 30.6788C110.903 31.1073 111.12 31.6888 111.12 32.4232C111.12 33.3763 110.777 34.1272 110.091 34.6758C109.405 35.2245 108.467 35.4988 107.275 35.4988C106.145 35.4988 105.238 35.2408 104.554 34.7251C103.871 34.2092 103.512 33.5097 103.477 32.6265Z" fill="white"/>
<path d="M122.642 33.5639V35.2559H116.359V25.793H122.642V27.4849H118.344V29.6949H122.399V31.2622H118.344V33.5639H122.642Z" fill="white"/>
<path d="M130.079 35.2559H128.094V25.793H130.079V35.2559Z" fill="white"/>
<path d="M140.029 35.2559H138.045V27.4849H135.199V25.793H142.875V27.4849H140.029V35.2559Z" fill="white"/>
<path d="M149.98 35.2559H147.996V25.793H149.98V35.2559Z" fill="white"/>
<path d="M160.576 35.2559H158.177L154.969 25.793H157.211L159.366 33.0263H159.484L161.601 25.793H163.737L160.576 35.2559Z" fill="white"/>
<path d="M175.001 33.5639V35.2559H168.719V25.793H175.001V27.4849H170.703V29.6949H174.758V31.2622H170.703V33.5639H175.001Z" fill="white"/>
</svg>
