<svg width="95" height="69" viewBox="0 0 95 69" fill="none" xmlns="http://www.w3.org/2000/svg">
<path d="M7.66361 61.4921L7.66338 61.4919C3.21474 57.1537 1 51.8783 1 45.6047C1 40.2165 2.61986 35.4366 5.86562 31.2296C9.1036 27.0326 13.3256 24.3569 18.5703 23.1853L19.1589 23.0538L19.3172 22.4719C21.0592 16.0697 24.5324 10.9037 29.7523 6.94186C34.9744 2.97826 40.8791 1 47.5 1C55.6602 1 62.5469 3.82635 68.2202 9.49214C73.8964 15.1608 76.7273 22.0393 76.7273 30.1875V31.0784L77.6123 31.1809C82.3366 31.7279 86.2309 33.7498 89.3415 37.2631C92.4522 40.7825 94 44.8777 94 49.5938C94 54.7216 92.2151 59.0489 88.6282 62.6342C85.0381 66.2168 80.7043 68 75.5682 68H51.8182C49.7098 68 47.9311 67.2625 46.4276 65.761C44.9208 64.2562 44.1818 62.4789 44.1818 60.375V38.1656V35.8067L42.4865 37.4469L36.2839 43.4478L31.6424 38.8125L47.5 22.9758L63.3576 38.8125L58.7161 43.4478L52.5135 37.4469L50.8182 35.8067V38.1656V60.375V61.375H51.8182H75.5682C78.8486 61.375 81.6598 60.2328 83.9396 57.956C86.2194 55.6792 87.3636 52.871 87.3636 49.5938C87.3636 46.3165 86.2194 43.5083 83.9396 41.2315C81.6598 38.9547 78.8486 37.8125 75.5682 37.8125H70.0909V30.1875C70.0909 23.9573 67.8816 18.6168 63.4846 14.2225L63.4841 14.2221C59.0842 9.83089 53.7372 7.625 47.5 7.625C41.2628 7.625 35.9171 9.83091 31.52 14.2223C27.3572 18.3796 25.1539 23.384 24.9284 29.1875H23.75C19.3111 29.1875 15.4943 30.7659 12.3559 33.9002C9.21736 37.0346 7.63636 40.8469 7.63636 45.2812C7.63636 49.7156 9.21736 53.5279 12.3559 56.6623C15.4943 59.7966 19.3111 61.375 23.75 61.375H33.5455V68H23.75C17.4588 68 12.1153 65.8359 7.66361 61.4921Z" stroke="#14FF8A" stroke-width="2"/>
</svg>
