<svg width="48" height="48" viewBox="0 0 48 48" fill="none" xmlns="http://www.w3.org/2000/svg">
<g clip-path="url(#clip0_806_48)">
<path d="M23.9998 1.60016L24.4382 0.0641622C24.1516 -0.0174811 23.848 -0.0174811 23.5614 0.0641622L23.9998 1.60016ZM1.59981 8.00016L1.16141 6.46416C0.798237 6.56768 0.48338 6.79632 0.272552 7.10964C0.061724 7.42295 -0.0314857 7.80074 0.00941447 8.17616L1.59981 8.00016ZM4.79981 36.8002L3.20941 36.9762C3.2388 37.2415 3.33414 37.4953 3.48672 37.7144C3.63931 37.9335 3.8443 38.111 4.08301 38.2306L4.79981 36.8002ZM23.9998 46.4002L23.283 47.8306C23.5055 47.9421 23.7509 48.0001 23.9998 48.0001C24.2487 48.0001 24.4941 47.9421 24.7166 47.8306L23.9998 46.4002ZM43.1998 36.8002L43.9166 38.2306C44.1553 38.111 44.3603 37.9335 44.5129 37.7144C44.6655 37.4953 44.7608 37.2415 44.7902 36.9762L43.1998 36.8002ZM46.3998 8.00016L47.9902 8.17616C48.0319 7.80023 47.9391 7.42168 47.7282 7.10768C47.5173 6.79369 47.202 6.56456 46.8382 6.46096L46.3998 8.00016ZM23.9998 9.60016L25.4654 8.96016L23.9998 5.60976L22.5342 8.96016L23.9998 9.60016ZM23.5614 0.0641622L1.16141 6.46416L2.03821 9.53616L24.4382 3.13616L23.5614 0.0641622ZM0.00941447 8.17296L3.20941 36.973L6.39021 36.621L3.19021 7.82096L0.00941447 8.17296ZM4.08301 38.2306L23.283 47.8306L24.7166 44.9666L5.51661 35.3666L4.08301 38.2306ZM24.7166 47.8306L43.9166 38.2306L42.483 35.3666L23.283 44.9666L24.7166 47.8306ZM44.7902 36.973L47.9902 8.17296L44.8094 7.82096L41.6094 36.621L44.7902 36.973ZM46.8382 6.45776L24.4382 0.0577622L23.5614 3.13616L45.9614 9.53616L46.8382 6.45776ZM14.2654 35.8402L25.4654 10.2402L22.5342 8.96016L11.3342 34.5602L14.2654 35.8402ZM22.5342 10.2402L33.7342 35.8402L36.6654 34.5602L25.4654 8.96016L22.5342 10.2402ZM15.9998 28.8002H31.9998V25.6002H15.9998V28.8002Z" fill="#64FF37"/>
</g>
<defs>
<clipPath id="clip0_806_48">
<rect width="48" height="48" fill="white"/>
</clipPath>
</defs>
</svg>
