<svg width="48" height="48" viewBox="0 0 48 48" fill="none" xmlns="http://www.w3.org/2000/svg">
<path d="M44.4475 7.08804L37.8139 40.5129C37.6853 41.161 37.376 41.7594 36.9218 42.2393C36.4676 42.7191 35.887 43.0607 35.2469 43.2247L24.8714 45.8898C24.2999 46.0366 23.7005 46.0366 23.1289 45.8898L12.7535 43.2271C12.1135 43.0625 11.5332 42.7204 11.0794 42.2401C10.6256 41.7599 10.3169 41.1611 10.1888 40.5129L3.55287 7.08804C3.45205 6.58007 3.4651 6.05607 3.59107 5.55375C3.71704 5.05143 3.9528 4.58328 4.28139 4.18299C4.60997 3.78271 5.0232 3.46024 5.49135 3.2388C5.95949 3.01736 6.47091 2.90245 6.98878 2.90234H41.0116C41.5295 2.90245 42.0409 3.01736 42.509 3.2388C42.9772 3.46024 43.3904 3.78271 43.719 4.18299C44.0476 4.58328 44.2833 5.05143 44.4093 5.55375C44.5353 6.05607 44.5483 6.58007 44.4475 7.08804Z" stroke="#64FF37" stroke-width="3" stroke-linecap="round" stroke-linejoin="round"/>
<path d="M14.1201 11.9673H36.38L16.2223 24.9939H30.7625C31.1097 24.9941 31.4525 25.0718 31.7659 25.2212C32.0793 25.3707 32.3555 25.5881 32.5743 25.8577C32.7931 26.1273 32.9491 26.4423 33.0308 26.7797C33.1126 27.1172 33.118 27.4686 33.0469 27.8085L31.7342 34.0753C31.6511 34.4708 31.4669 34.8379 31.1996 35.1408C30.9323 35.4438 30.5909 35.6722 30.2089 35.8038L24.8763 37.6397C24.3765 37.8119 23.833 37.8094 23.3347 37.6327L16.9698 35.3694" stroke="#64FF37" stroke-width="3" stroke-linecap="round" stroke-linejoin="round"/>
</svg>
