<svg width="48" height="48" viewBox="0 0 48 48" fill="none" xmlns="http://www.w3.org/2000/svg">
<g clip-path="url(#clip0_806_50)">
<path d="M45.3962 6.28228L38.4548 41.2583C38.3202 41.9364 37.9966 42.5627 37.5213 43.0648C37.046 43.5669 36.4384 43.9243 35.7687 44.0959L24.9117 46.8847C24.3136 47.0383 23.6864 47.0383 23.0884 46.8847L12.2314 44.0984C11.5618 43.9262 10.9545 43.5682 10.4796 43.0656C10.0048 42.5631 9.68171 41.9365 9.5477 41.2583L2.60383 6.28228C2.49834 5.75074 2.51199 5.20243 2.64381 4.67679C2.77562 4.15116 3.02233 3.66128 3.36616 3.24242C3.70999 2.82356 4.1424 2.48613 4.63227 2.25441C5.12214 2.02269 5.65728 1.90245 6.19919 1.90234H41.8009C42.3428 1.90245 42.8779 2.02269 43.3678 2.25441C43.8577 2.48613 44.2901 2.82356 44.6339 3.24242C44.9777 3.66128 45.2244 4.15116 45.3563 4.67679C45.4881 5.20243 45.5017 5.75074 45.3962 6.28228Z" stroke="#64FF37" stroke-width="3" stroke-linecap="round" stroke-linejoin="round"/>
<path d="M36.9542 11.3882H16.5308C16.1768 11.3882 15.827 11.4652 15.5056 11.6137C15.1842 11.7622 14.899 11.9788 14.6696 12.2485C14.4401 12.5181 14.272 12.8343 14.1769 13.1753C14.0817 13.5163 14.0618 13.8739 14.1184 14.2234L15.5287 22.9637C15.621 23.5371 15.9145 24.0589 16.3566 24.4355C16.7986 24.8122 17.3603 25.0191 17.9411 25.0193H31.076C31.4393 25.0196 31.798 25.1008 32.126 25.2572C32.454 25.4136 32.743 25.6411 32.9719 25.9232C33.2009 26.2053 33.3641 26.5349 33.4496 26.888C33.5351 27.2411 33.5409 27.6089 33.4664 27.9645L32.0928 34.5222C32.0059 34.936 31.8132 35.3201 31.5334 35.6371C31.2537 35.9542 30.8965 36.1932 30.4967 36.3309L24.9167 38.252C24.3937 38.4322 23.825 38.4296 23.3036 38.2447L16.6432 35.8763" stroke="#64FF37" stroke-width="3" stroke-linecap="round" stroke-linejoin="round"/>
</g>
<defs>
<clipPath id="clip0_806_50">
<rect width="48" height="48" fill="white"/>
</clipPath>
</defs>
</svg>
