<svg width="48" height="48" viewBox="0 0 48 48" fill="none" xmlns="http://www.w3.org/2000/svg">
<g clip-path="url(#clip0_806_12)">
<path d="M0 17.9072C0.779997 17.7705 1.21453 18.1393 1.64366 18.7862C5.27465 24.2588 8.94792 29.7034 12.6077 35.1571C12.7957 35.4378 13.0638 35.6933 12.9424 36.0865L12.9478 36.0811C10.0086 32.4591 7.43921 28.5726 4.79604 24.7392C3.55362 22.9372 2.3121 21.1343 0.877159 19.3638C0.877159 21.0164 0.879858 22.6691 0.877159 24.3208C0.872661 26.4179 0.830377 28.5159 0.877159 30.6121C0.892453 31.3192 0.69543 31.59 0.0017993 31.4695V17.9072H0Z" fill="#64FF37"/>
<path d="M12.1968 18.8622C12.1869 20.4276 12.1968 21.9939 12.1545 23.5584C12.141 24.0631 12.4055 24.0316 12.7438 24.0307C14.8202 24.0244 16.8966 24.0109 18.9721 24.0451C19.2852 24.0505 19.8717 23.7114 19.8987 24.4014C19.9275 25.131 19.3167 24.7783 19.0153 24.7846C16.7823 24.8323 14.5476 24.8323 12.3138 24.8476C12.1581 24.8674 12.168 24.9718 12.1905 25.0842C12.1905 26.8943 12.1905 28.7035 12.1914 30.5136C12.1617 30.6234 12.2013 30.6684 12.3147 30.6459C14.8238 30.6567 17.3329 30.6693 19.8421 30.6747C20.1902 30.6747 20.5546 30.6171 20.5114 31.1497C20.4898 31.2522 20.4673 31.3557 20.4457 31.4582C17.6253 31.4582 14.804 31.443 11.9836 31.4735C11.4195 31.4798 11.2792 31.3215 11.2828 30.7691C11.3062 26.709 11.3026 22.648 11.2864 18.587C11.2846 18.1011 11.3629 17.8969 11.9287 17.905C14.5359 17.9392 17.144 17.9176 19.7521 17.9248C20.0382 17.9248 20.4304 17.7809 20.4241 18.3261C20.4169 18.8856 20.0058 18.6976 19.735 18.7003C17.2619 18.7228 14.7878 18.73 12.3147 18.7417C12.2094 18.7192 12.1698 18.7588 12.1968 18.8631V18.8622Z" fill="#64FF37"/>
<path d="M20.95 31.1479C22.5091 29.0373 24.0565 26.9177 25.6381 24.8233C25.9314 24.4347 25.6678 24.2421 25.4986 24.0055C24.2319 22.235 22.9553 20.4726 21.6823 18.7066C21.5303 18.4961 21.3863 18.2793 21.2046 18.0157C21.8227 17.7926 22.196 17.9401 22.5514 18.4511C23.792 20.2333 25.0785 21.984 26.4037 23.8256C28.9533 20.3826 31.3931 16.9532 34.1542 13.6641C34.3206 14.1229 34.0498 14.2848 33.9113 14.4854C31.7584 17.6099 29.6109 20.7389 27.4275 23.8436C27.0865 24.3285 27.0433 24.6317 27.4203 25.131C28.8444 27.0158 30.2101 28.9455 31.5938 30.86C31.7134 31.0255 31.9032 31.1605 31.8861 31.4016C31.2708 31.5977 30.8776 31.3944 30.5025 30.8564C29.1854 28.9671 27.8107 27.1165 26.4055 25.1796C25.0497 27.0428 23.7083 28.8475 22.4155 30.6863C22.0341 31.2288 21.6517 31.6148 20.9419 31.4708C20.9446 31.3629 20.9464 31.2549 20.9491 31.147L20.95 31.1479Z" fill="#64FF37"/>
<path d="M37.9398 18.8633C37.9299 22.8434 37.92 26.8234 37.9092 30.8035C37.9083 31.13 38.0253 31.4989 37.436 31.4719C36.8836 31.4467 37.0339 31.0815 37.0339 30.8017C37.0267 27.1131 37.0303 23.4236 37.0267 19.7351C37.0267 19.4454 36.9925 19.1566 36.9745 18.8669C36.9925 18.7149 36.8971 18.7167 36.791 18.7329C35.4892 18.7239 34.1865 18.7176 32.8847 18.7032C32.6166 18.7005 32.2945 18.8147 32.2954 18.3163C32.2963 17.8242 32.6112 17.9232 32.8847 17.9232C35.9696 17.9205 39.0536 17.9232 42.1385 17.9187C42.4543 17.9187 42.7134 17.9088 42.6945 18.3604C42.6765 18.8093 42.3715 18.6987 42.1322 18.7014C40.7773 18.7194 39.4215 18.7266 38.0667 18.7365C37.9578 18.7122 37.9155 18.7545 37.9407 18.8624L37.9398 18.8633Z" fill="#64FF37"/>
<path d="M46.7454 30.5471C46.6482 30.5237 46.4269 30.5093 46.2452 30.4175C45.9879 30.288 45.6343 30.055 45.7981 29.7761C45.9969 29.4387 46.2236 29.7914 46.417 29.9443C46.5952 30.0856 46.8129 30.0793 47.0252 30.0577C47.2483 30.0352 47.4561 29.9614 47.4858 29.7077C47.5128 29.4765 47.3149 29.3955 47.1404 29.3334C46.8921 29.2462 46.6329 29.1868 46.3828 29.1022C45.9465 28.9556 45.7135 28.6443 45.8143 28.1927C45.9384 27.6403 46.3631 27.4586 46.8956 27.4595C47.3626 27.4604 47.7233 27.625 47.9096 28.073C47.9338 28.1306 47.9293 28.2449 47.8907 28.2764C47.7827 28.3654 47.6442 28.3762 47.5254 28.2854C47.3626 28.1612 47.2708 27.9417 47.018 27.9408C46.7508 27.9408 46.4503 27.8913 46.3694 28.2386C46.2902 28.5768 46.6015 28.5993 46.8093 28.6866C46.9055 28.7271 47.0144 28.737 47.1179 28.7613C47.6541 28.889 48.0913 29.122 47.9842 29.7743C47.8817 30.3977 47.4057 30.5354 46.7454 30.5462V30.5471Z" fill="#64FF37"/>
<path d="M45.2183 28.8243C45.1967 29.1752 45.2669 29.5746 45.1382 29.9642C45.015 30.3366 44.7586 30.522 44.3735 30.5445C44.0128 30.5652 43.6853 30.5085 43.4703 30.172C43.383 30.0353 43.2732 29.8742 43.401 29.7438C43.5126 29.6295 43.6763 29.6709 43.8337 29.7627C44.5517 30.1801 44.6308 30.1315 44.6425 29.302C44.6479 28.9044 44.6299 28.5068 44.6488 28.11C44.6596 27.8761 44.5175 27.4956 44.9475 27.518C45.355 27.5387 45.1913 27.9103 45.2147 28.146C45.2354 28.3556 45.2192 28.5697 45.2192 28.8252L45.2183 28.8243Z" fill="#64FF37"/>
</g>
<defs>
<clipPath id="clip0_806_12">
<rect width="48" height="48" fill="white"/>
</clipPath>
</defs>
</svg>
