<svg width="48" height="48" viewBox="0 0 48 48" fill="none" xmlns="http://www.w3.org/2000/svg">
<g clip-path="url(#clip0_806_10)">
<path d="M48 24.3513C48 25.0857 47.8359 25.7732 47.5078 26.4138C47.1797 27.0545 46.7344 27.6404 46.1719 28.1717C45.6094 28.7029 44.9766 29.1951 44.2734 29.6482C43.5703 30.1013 42.8516 30.4998 42.1172 30.8435C41.3828 31.1873 40.6484 31.4998 39.9141 31.781C39.1797 32.0623 38.5391 32.281 37.9922 32.4373C38.2266 33.4217 38.4141 34.406 38.5547 35.3904C38.6953 36.3748 38.7656 37.367 38.7656 38.367C38.7656 39.1951 38.6953 40.0467 38.5547 40.9217C38.4141 41.7967 38.1484 42.5857 37.7578 43.2888C37.3672 43.992 36.8438 44.5779 36.1875 45.0467C35.5312 45.5154 34.6875 45.742 33.6562 45.7263C32.7969 45.7263 31.9219 45.5623 31.0312 45.2342C30.1406 44.906 29.2734 44.4763 28.4297 43.9451C27.5859 43.4138 26.7891 42.8513 26.0391 42.2576C25.2891 41.6638 24.6094 41.0779 24 40.4998C23.4062 41.0623 22.7344 41.6482 21.9844 42.2576C21.2344 42.867 20.4297 43.4295 19.5703 43.9451C18.7109 44.4607 17.8438 44.8826 16.9688 45.2107C16.0938 45.5388 15.2188 45.7107 14.3438 45.7263C13.3281 45.7263 12.4922 45.4998 11.8359 45.0467C11.1797 44.5935 10.6562 44.0154 10.2656 43.3123C9.875 42.6092 9.60938 41.8123 9.46875 40.9217C9.32812 40.031 9.25 39.1795 9.23438 38.367C9.23438 37.367 9.30469 36.3748 9.44531 35.3904C9.58594 34.406 9.77344 33.4217 10.0078 32.4373C9.42969 32.2654 8.78906 32.0467 8.08594 31.781C7.38281 31.5154 6.65625 31.2107 5.90625 30.867C5.15625 30.5232 4.42969 30.1248 3.72656 29.6717C3.02344 29.2185 2.39844 28.7263 1.85156 28.1951C1.30469 27.6638 0.859375 27.0701 0.515625 26.4138C0.171875 25.7576 0 25.0701 0 24.3513C0 23.617 0.164062 22.9295 0.492188 22.2888C0.820312 21.6482 1.26562 21.0623 1.82812 20.531C2.39062 19.9998 3.02344 19.5076 3.72656 19.0545C4.42969 18.6013 5.14844 18.2029 5.88281 17.8592C6.61719 17.5154 7.35156 17.2029 8.08594 16.9217C8.82031 16.6404 9.46094 16.4217 10.0078 16.2654C9.77344 15.281 9.58594 14.2967 9.44531 13.3123C9.30469 12.3279 9.23438 11.3357 9.23438 10.3357C9.23438 9.50759 9.30469 8.65603 9.44531 7.78103C9.58594 6.90603 9.85156 6.11697 10.2422 5.41384C10.6328 4.71072 11.1562 4.12478 11.8125 3.65603C12.4688 3.18728 13.3125 2.96072 14.3438 2.97634C15.2031 2.97634 16.0781 3.1404 16.9688 3.46853C17.8594 3.79665 18.7266 4.22634 19.5703 4.75759C20.4141 5.28884 21.2109 5.85134 21.9609 6.44509C22.7109 7.03884 23.3906 7.63259 24 8.22634C24.5938 7.66384 25.2656 7.0779 26.0156 6.46853C26.7656 5.85915 27.5703 5.28884 28.4297 4.75759C29.2891 4.22634 30.1562 3.80447 31.0312 3.49197C31.9062 3.17947 32.7812 3.00759 33.6562 2.97634C34.6719 2.97634 35.5078 3.2029 36.1641 3.65603C36.8203 4.10915 37.3438 4.68728 37.7344 5.3904C38.125 6.09353 38.3906 6.8904 38.5312 7.78103C38.6719 8.67165 38.75 9.52322 38.7656 10.3357C38.7656 11.3357 38.6953 12.3279 38.5547 13.3123C38.4141 14.2967 38.2266 15.281 37.9922 16.2654C38.5547 16.4373 39.1953 16.656 39.9141 16.9217C40.6328 17.1873 41.3594 17.492 42.0938 17.8357C42.8281 18.1795 43.5547 18.5779 44.2734 19.031C44.9922 19.4842 45.6172 19.9763 46.1484 20.5076C46.6797 21.0388 47.125 21.6326 47.4844 22.2888C47.8438 22.9451 48.0156 23.6326 48 24.3513ZM33.6562 5.22634C32.9844 5.22634 32.2734 5.38259 31.5234 5.69509C30.7734 6.00759 30.0391 6.3904 29.3203 6.84353C28.6016 7.29665 27.9141 7.79665 27.2578 8.34353C26.6016 8.8904 26.0469 9.37478 25.5938 9.79665C26.3281 10.5623 27.0156 11.3513 27.6562 12.1638C28.2969 12.9763 28.9297 13.8123 29.5547 14.6717C30.6328 14.7654 31.6953 14.8982 32.7422 15.0701C33.7891 15.242 34.8281 15.4529 35.8594 15.7029C36.0625 14.8279 36.2266 13.9451 36.3516 13.0545C36.4766 12.1638 36.5391 11.2732 36.5391 10.3826C36.5391 9.91384 36.5078 9.38259 36.4453 8.78884C36.3828 8.19509 36.2578 7.63259 36.0703 7.10134C35.8828 6.57009 35.5938 6.12478 35.2031 5.7654C34.8125 5.40603 34.2969 5.22634 33.6562 5.22634ZM14.1094 27.0232C13.8438 27.6638 13.6016 28.2967 13.3828 28.9217C13.1641 29.5467 12.9453 30.1951 12.7266 30.867C13.3984 31.0388 14.0703 31.1795 14.7422 31.2888C15.4141 31.3982 16.0938 31.4998 16.7812 31.5935C16.2969 30.8435 15.8359 30.0935 15.3984 29.3435C14.9609 28.5935 14.5312 27.8201 14.1094 27.0232ZM12.7266 17.8357C12.9297 18.492 13.1406 19.1404 13.3594 19.781C13.5781 20.4217 13.8281 21.0623 14.1094 21.7029C14.5156 20.906 14.9453 20.1326 15.3984 19.3826C15.8516 18.6326 16.3125 17.8748 16.7812 17.1092C16.0938 17.2029 15.4141 17.3045 14.7422 17.4138C14.0703 17.5232 13.3984 17.6638 12.7266 17.8357ZM15.2812 24.3513C16.5312 26.9451 17.9844 29.4607 19.6406 31.8982C20.375 31.9607 21.1016 31.9998 21.8203 32.0154C22.5391 32.031 23.2656 32.0467 24 32.0623C24.7344 32.0623 25.4609 32.0545 26.1797 32.0388C26.8984 32.0232 27.625 31.9763 28.3594 31.8982C30.0156 29.4607 31.4688 26.9451 32.7188 24.3513C32.0625 23.0232 31.3828 21.742 30.6797 20.5076C29.9766 19.2732 29.2031 18.0388 28.3594 16.8045C27.625 16.7576 26.8984 16.7185 26.1797 16.6873C25.4609 16.656 24.7344 16.6404 24 16.6404C23.2656 16.6404 22.5391 16.656 21.8203 16.6873C21.1016 16.7185 20.375 16.7576 19.6406 16.8045C18.8125 18.0232 18.0469 19.2498 17.3438 20.4842C16.6406 21.7185 15.9531 23.0076 15.2812 24.3513ZM31.2188 31.5935C31.9062 31.5154 32.5859 31.4217 33.2578 31.3123C33.9297 31.2029 34.6016 31.0545 35.2734 30.867C35.0703 30.2107 34.8594 29.5701 34.6406 28.9451C34.4219 28.3201 34.1719 27.6795 33.8906 27.0232C33.4844 27.8201 33.0625 28.5935 32.625 29.3435C32.1875 30.0935 31.7188 30.8435 31.2188 31.5935ZM33.8906 21.7029C34.1562 21.0623 34.3984 20.4217 34.6172 19.781C34.8359 19.1404 35.0547 18.492 35.2734 17.8357C34.6016 17.6795 33.9297 17.5467 33.2578 17.4373C32.5859 17.3279 31.9062 17.2185 31.2188 17.1092C31.6875 17.8592 32.1484 18.6092 32.6016 19.3592C33.0547 20.1092 33.4844 20.8904 33.8906 21.7029ZM26.6016 14.4607C26.1953 13.9138 25.7812 13.3904 25.3594 12.8904C24.9375 12.3904 24.4844 11.8826 24 11.367C23.5312 11.867 23.0859 12.367 22.6641 12.867C22.2422 13.367 21.8203 13.8982 21.3984 14.4607C22.2578 14.4138 23.125 14.3904 24 14.3904C24.8594 14.3904 25.7266 14.4138 26.6016 14.4607ZM11.4609 10.3826C11.4609 11.2732 11.5234 12.1638 11.6484 13.0545C11.7734 13.9451 11.9375 14.8279 12.1406 15.7029C13.1719 15.4529 14.2109 15.242 15.2578 15.0701C16.3047 14.8982 17.3672 14.7654 18.4453 14.6717C19.0547 13.8123 19.6797 12.9763 20.3203 12.1638C20.9609 11.3513 21.6562 10.5623 22.4062 9.79665C21.9375 9.35915 21.3828 8.87478 20.7422 8.34353C20.1016 7.81228 19.4219 7.32009 18.7031 6.86697C17.9844 6.41384 17.2422 6.02322 16.4766 5.69509C15.7109 5.36697 15 5.21072 14.3438 5.22634C13.7031 5.22634 13.1953 5.40603 12.8203 5.7654C12.4453 6.12478 12.1562 6.56228 11.9531 7.0779C11.75 7.59353 11.6172 8.15603 11.5547 8.7654C11.4922 9.37478 11.4609 9.91384 11.4609 10.3826ZM10.5703 30.281C10.8828 29.2654 11.2266 28.2654 11.6016 27.281C11.9766 26.2967 12.3828 25.3201 12.8203 24.3513C12.3828 23.3826 11.9766 22.406 11.6016 21.4217C11.2266 20.4373 10.8828 19.4373 10.5703 18.4217C10.1953 18.531 9.73438 18.6795 9.1875 18.867C8.64062 19.0545 8.0625 19.2888 7.45312 19.5701C6.84375 19.8513 6.22656 20.1638 5.60156 20.5076C4.97656 20.8513 4.42188 21.2263 3.9375 21.6326C3.45312 22.0388 3.04688 22.4685 2.71875 22.9217C2.39062 23.3748 2.23438 23.8513 2.25 24.3513C2.25 24.8513 2.39844 25.3279 2.69531 25.781C2.99219 26.2342 3.39062 26.6638 3.89062 27.0701C4.39062 27.4763 4.94531 27.8513 5.55469 28.1951C6.16406 28.5388 6.78125 28.8435 7.40625 29.1092C8.03125 29.3748 8.61719 29.6092 9.16406 29.8123C9.71094 30.0154 10.1797 30.1717 10.5703 30.281ZM14.3438 43.4763C15.0156 43.4763 15.7266 43.3201 16.4766 43.0076C17.2266 42.6951 17.9609 42.3123 18.6797 41.8592C19.3984 41.406 20.0859 40.9138 20.7422 40.3826C21.3984 39.8513 21.9531 39.367 22.4062 38.9295C21.6719 38.1638 20.9844 37.3748 20.3438 36.5623C19.7031 35.7498 19.0703 34.906 18.4453 34.031C17.3828 33.9373 16.3281 33.8045 15.2812 33.6326C14.2344 33.4607 13.1875 33.2576 12.1406 33.0232C11.9375 33.8982 11.7734 34.7732 11.6484 35.6482C11.5234 36.5232 11.4609 37.4138 11.4609 38.3201C11.4609 38.8045 11.4844 39.3435 11.5312 39.9373C11.5781 40.531 11.7109 41.0935 11.9297 41.6248C12.1484 42.156 12.4375 42.5935 12.7969 42.9373C13.1562 43.281 13.6719 43.4607 14.3438 43.4763ZM21.3984 34.2654C22.2109 35.3435 23.0781 36.3748 24 37.3592C24.9062 36.3748 25.7734 35.3435 26.6016 34.2654C25.7266 34.3123 24.8594 34.3357 24 34.3357C23.1094 34.3357 22.2422 34.3123 21.3984 34.2654ZM36.5391 38.3201C36.5391 37.4295 36.4766 36.5467 36.3516 35.6717C36.2266 34.7967 36.0625 33.9138 35.8594 33.0232C34.8125 33.2576 33.7656 33.4607 32.7188 33.6326C31.6719 33.8045 30.6172 33.9373 29.5547 34.031C28.9453 34.8904 28.3203 35.7263 27.6797 36.5388C27.0391 37.3513 26.3438 38.1482 25.5938 38.9295C26.0625 39.367 26.6172 39.8435 27.2578 40.3592C27.8984 40.8748 28.5781 41.367 29.2969 41.8357C30.0156 42.3045 30.7578 42.6951 31.5234 43.0076C32.2891 43.3201 33 43.4763 33.6562 43.4763C34.2969 43.4763 34.8047 43.3045 35.1797 42.9607C35.5547 42.617 35.8438 42.1795 36.0469 41.6482C36.25 41.117 36.3828 40.5545 36.4453 39.9607C36.5078 39.367 36.5391 38.8201 36.5391 38.3201ZM37.4297 30.281C37.8047 30.1717 38.2656 30.0232 38.8125 29.8357C39.3594 29.6482 39.9453 29.4138 40.5703 29.1326C41.1953 28.8513 41.8125 28.5388 42.4219 28.1951C43.0312 27.8513 43.5859 27.4763 44.0859 27.0701C44.5859 26.6638 44.9844 26.2342 45.2812 25.781C45.5781 25.3279 45.7344 24.8513 45.75 24.3513C45.75 23.8513 45.5938 23.3748 45.2812 22.9217C44.9688 22.4685 44.5703 22.0388 44.0859 21.6326C43.6016 21.2263 43.0469 20.8513 42.4219 20.5076C41.7969 20.1638 41.1797 19.8592 40.5703 19.5935C39.9609 19.3279 39.375 19.0935 38.8125 18.8904C38.25 18.6873 37.7891 18.531 37.4297 18.4217C37.1172 19.4373 36.7734 20.4373 36.3984 21.4217C36.0234 22.406 35.6172 23.3826 35.1797 24.3513C35.6172 25.3201 36.0234 26.2967 36.3984 27.281C36.7734 28.2654 37.1172 29.2654 37.4297 30.281ZM24 28.8279C23.3906 28.8279 22.8125 28.7107 22.2656 28.4763C21.7188 28.242 21.25 27.9217 20.8594 27.5154C20.4688 27.1092 20.1484 26.6326 19.8984 26.0857C19.6484 25.5388 19.5312 24.9607 19.5469 24.3513C19.5469 23.742 19.6641 23.1638 19.8984 22.617C20.1328 22.0701 20.4453 21.6013 20.8359 21.2107C21.2266 20.8201 21.7031 20.4998 22.2656 20.2498C22.8281 19.9998 23.4062 19.8826 24 19.8982C24.6094 19.8982 25.1875 20.0154 25.7344 20.2498C26.2812 20.4842 26.75 20.7967 27.1406 21.1873C27.5312 21.5779 27.8516 22.0545 28.1016 22.617C28.3516 23.1795 28.4688 23.7576 28.4531 24.3513C28.4531 24.9607 28.3359 25.5388 28.1016 26.0857C27.8672 26.6326 27.5547 27.1092 27.1641 27.5154C26.7734 27.9217 26.2969 28.242 25.7344 28.4763C25.1719 28.7107 24.5938 28.8279 24 28.8279Z" fill="#64FF37"/>
</g>
<defs>
<clipPath id="clip0_806_10">
<rect width="48" height="48" fill="white"/>
</clipPath>
</defs>
</svg>
