<svg width="48" height="48" viewBox="0 0 48 48" fill="none" xmlns="http://www.w3.org/2000/svg">
<path d="M11.0212 17.0996C4.95602 18.6636 1 21.3431 1 24.4021C1 29.2483 11.1316 33.1997 23.6551 33.1997C25.3571 33.1997 26.5531 33.11 28.1401 32.9766" stroke="#64FF37" stroke-width="2" stroke-linecap="round" stroke-linejoin="round"/>
<path d="M19.0258 32.97C18.0759 31.5992 17.172 30.3641 16.3118 28.83C9.98445 17.5599 8.28934 6.35884 12.5628 3.82193C15.2078 2.21882 19.5709 4.40383 24.003 9.00616" stroke="#64FF37" stroke-width="2" stroke-linecap="round" stroke-linejoin="round"/>
<path d="M11.1868 31.7901C9.57215 37.9726 9.89876 42.637 12.4748 44.1987C16.5757 46.6827 24.8649 39.6953 30.9738 28.5494C31.8018 27.0084 32.5439 25.4919 33.2002 24" stroke="#64FF37" stroke-width="2" stroke-linecap="round" stroke-linejoin="round"/>
<path d="M24 38.9964C28.4344 43.5964 32.7791 45.7814 35.4495 44.1783C39.7045 41.6437 38.0278 30.4426 31.6935 19.1703C30.8103 17.6132 29.9064 16.4011 28.9795 15.0303" stroke="#64FF37" stroke-width="2" stroke-linecap="round" stroke-linejoin="round"/>
<path d="M37.018 30.8999C43.0256 29.3198 47 26.6449 47 23.595C47 18.742 36.8615 14.7998 24.3564 14.7998C22.6383 14.7998 21.4446 14.8665 19.8599 14.9999" stroke="#64FF37" stroke-width="2" stroke-linecap="round" stroke-linejoin="round"/>
<path d="M14.7998 23.9998C15.4553 22.4818 16.1959 20.9914 17.0262 19.4504C23.1143 8.30916 31.4082 1.30333 35.5321 3.80804C38.0851 5.36975 38.4347 10.0319 36.8201 16.212M24.5979 24.0343H24.5749C24.5519 24.3333 24.2989 24.5863 23.9769 24.5863C23.8228 24.5787 23.6776 24.5126 23.5707 24.4014C23.4638 24.2903 23.4034 24.1425 23.4018 23.9883C23.4018 23.6663 23.6548 23.4133 23.9538 23.4133H23.9309C24.2299 23.3903 24.5059 23.6663 24.5059 23.9653" stroke="#64FF37" stroke-width="2" stroke-linecap="round" stroke-linejoin="round"/>
</svg>
