<svg width="58" height="58" viewBox="0 0 58 58" fill="none" xmlns="http://www.w3.org/2000/svg">
<path d="M19.3125 28.875C19.3125 29.1899 19.1874 29.492 18.9647 29.7147C18.742 29.9374 18.4399 30.0625 18.125 30.0625C17.8101 30.0625 17.508 29.9374 17.2853 29.7147C17.0626 29.492 16.9375 29.1899 16.9375 28.875C16.9375 28.5601 17.0626 28.258 17.2853 28.0353C17.508 27.8126 17.8101 27.6875 18.125 27.6875C18.4399 27.6875 18.742 27.8126 18.9647 28.0353C19.1874 28.258 19.3125 28.5601 19.3125 28.875ZM30.0625 28.875C30.0625 29.1899 29.9374 29.492 29.7147 29.7147C29.492 29.9374 29.1899 30.0625 28.875 30.0625C28.5601 30.0625 28.258 29.9374 28.0353 29.7147C27.8126 29.492 27.6875 29.1899 27.6875 28.875C27.6875 28.5601 27.8126 28.258 28.0353 28.0353C28.258 27.8126 28.5601 27.6875 28.875 27.6875C29.1899 27.6875 29.492 27.8126 29.7147 28.0353C29.9374 28.258 30.0625 28.5601 30.0625 28.875ZM40.8125 28.875C40.8125 29.1899 40.6874 29.492 40.4647 29.7147C40.242 29.9374 39.9399 30.0625 39.625 30.0625C39.3101 30.0625 39.008 29.9374 38.7853 29.7147C38.5626 29.492 38.4375 29.1899 38.4375 28.875C38.4375 28.5601 38.5626 28.258 38.7853 28.0353C39.008 27.8126 39.3101 27.6875 39.625 27.6875C39.9399 27.6875 40.242 27.8126 40.4647 28.0353C40.6874 28.258 40.8125 28.5601 40.8125 28.875Z" fill="black" stroke="#6D6E70" stroke-width="3"/>
<path d="M2 28.875C2 16.2061 2 9.87169 5.9345 5.9345C9.87437 2 16.2061 2 28.875 2C41.5439 2 47.8783 2 51.8128 5.9345C55.75 9.87437 55.75 16.2061 55.75 28.875C55.75 41.5439 55.75 47.8783 51.8128 51.8128C47.881 55.75 41.5439 55.75 28.875 55.75C16.2061 55.75 9.87169 55.75 5.9345 51.8128C2 47.881 2 41.5439 2 28.875Z" stroke="#6D6E70" stroke-width="3"/>
</svg>
