<svg width="221" height="77" viewBox="0 0 221 77" fill="none" xmlns="http://www.w3.org/2000/svg">
<path d="M45.0419 10.4432H28.3051V56.2407H16.6596V10.4432H0V0.618683H45.0419V10.4432Z" fill="#6D6E70"/>
<path d="M68.024 58.5624C68.024 64.0283 66.0701 68.4121 62.1622 71.7136C58.5626 74.6534 54.2436 76.1232 49.205 76.1229C44.2691 76.1229 40.1043 74.6789 36.7108 71.791C32.9569 68.5426 31.0801 64.1073 31.0804 58.485H41.1838C41.1838 61.1153 41.9551 63.1783 43.4975 64.6742C44.8339 66.0146 46.5307 66.685 48.5878 66.6853C50.7916 66.7081 52.9191 65.8768 54.5268 64.3646C56.3261 62.6105 57.2259 60.3153 57.2262 57.479V51.136C56.4547 52.9924 55.0535 54.4367 53.0227 55.4688C50.9019 56.5197 48.5622 57.0496 46.197 57.0147C42.1868 57.0147 38.7676 55.8287 35.9393 53.4567C32.6997 50.7243 31.0801 46.9593 31.0804 42.1619V15.0091H41.9554V40.5377C41.9554 45.6434 44.2691 48.1962 48.8964 48.1962C51.3644 48.1962 53.3698 47.4743 54.9125 46.0303C55.6676 45.3342 56.2649 44.4836 56.664 43.536C57.0632 42.5884 57.2549 41.566 57.2262 40.5377V15.0091H68.024V58.5624Z" fill="#6D6E70"/>
<path d="M94.556 22.8219H87.5378V56.2411H76.8172V22.8219H70.801V15.0085H76.8172C76.8172 5.00348 82.6272 0.000637302 94.2474 0V8.81939C91.5212 8.81939 89.7216 9.2576 88.8485 10.134C87.974 11.0121 87.5371 12.6369 87.5378 15.0085H94.556V22.8219Z" fill="#6D6E70"/>
<path d="M137.822 35.6245C137.822 42.1633 135.945 47.4015 132.192 51.339C128.438 55.2772 123.348 57.2467 116.921 57.2473C110.39 57.2473 105.236 55.2524 101.457 51.2626C97.6772 47.2728 95.7877 42.0601 95.7883 35.6245C95.7883 29.1391 97.6648 23.9009 101.418 19.9099C105.171 15.9201 110.338 13.9252 116.921 13.9252C123.502 13.9252 128.669 15.9586 132.423 20.0255C136.022 23.9904 137.822 29.1901 137.822 35.6245ZM126.793 35.6627C126.793 27.3086 123.502 23.1315 116.921 23.1315C110.288 23.1315 106.971 27.3086 106.971 35.6627C106.971 44.0187 110.288 48.1964 116.921 48.1957C123.502 48.1957 126.793 44.0181 126.793 35.6627Z" fill="#6D6E70"/>
<path d="M165.048 25.1416C164.053 24.9897 163.047 24.9124 162.04 24.9104C155.408 24.9104 152.092 28.211 152.091 34.8123V56.2412H141.216V15.0086H151.474V18.1805C151.474 19.3671 151.5 19.9601 151.551 19.9595C151.62 19.8957 151.698 19.8434 151.783 19.8047C153.838 17.6378 155.432 16.2452 156.564 15.6267C158.364 14.5958 160.703 14.0802 163.583 14.0799H165.048L165.048 25.1416Z" fill="#6D6E70"/>
<path d="M204.075 56.2406H193.97C193.663 55.6741 193.329 54.5651 192.968 52.9139C190.448 55.6989 186.437 57.0916 180.936 57.0919C177.131 57.0919 173.994 56.2148 171.527 54.4607C168.646 52.3989 167.207 49.4078 167.208 45.4875C167.208 39.8668 169.407 35.9987 173.803 33.8831C175.821 32.9047 179.934 32.0283 186.141 31.2538C190.537 30.6863 192.736 29.4996 192.737 27.6939C192.753 26.9402 192.581 26.1945 192.235 25.5253C191.889 24.8561 191.38 24.285 190.756 23.8646C189.41 22.9023 187.791 22.4004 186.139 22.4334C184.466 22.3898 182.827 22.9072 181.481 23.9038C180.032 24.9863 179.204 26.5076 178.998 28.4678H168.596C168.852 25.1162 169.636 22.4086 170.949 20.3449C172.259 18.2831 174.38 16.6844 177.312 15.5488C180.036 14.5179 183.121 14.0023 186.566 14.002C198.237 14.1061 204.074 19.7019 204.075 30.7895L204.075 56.2406ZM192.582 36.1264C191.502 37.0044 189.6 37.7009 186.875 38.2158C183.79 38.7843 181.784 39.3257 180.859 39.84C178.957 40.8203 178.005 42.5222 178.005 44.9458C178.005 48.0403 179.625 49.5878 182.865 49.5881C184.463 49.5642 186.038 49.2083 187.492 48.5429C189.085 47.8473 190.293 47.0094 191.117 46.0292C192.197 44.6887 192.736 42.7031 192.737 40.0722C192.737 39.6079 192.71 38.9391 192.66 38.0611C192.608 37.185 192.582 36.5401 192.582 36.1264Z" fill="#6D6E70"/>
<path d="M214.753 57.0923C218.203 57.0923 221 54.2871 221 50.8266C221 47.3662 218.203 44.5609 214.753 44.5609C211.303 44.5609 208.506 47.3662 208.506 50.8266C208.506 54.2871 211.303 57.0923 214.753 57.0923Z" fill="#64FF37"/>
</svg>
