<svg width="48" height="48" viewBox="0 0 48 48" fill="none" xmlns="http://www.w3.org/2000/svg">
<path d="M35.64 32.684L47.024 26.11C47.3201 25.9381 47.5661 25.6916 47.7373 25.3951C47.9085 25.0986 47.9991 24.7624 48 24.42V11.27C47.9995 10.9272 47.909 10.5906 47.7378 10.2937C47.5665 9.99684 47.3204 9.75005 47.024 9.57798L35.638 3.00598C35.3408 2.83506 35.0039 2.74512 34.661 2.74512C34.3181 2.74512 33.9812 2.83506 33.684 3.00598L22.3 9.57798C22.0032 9.7498 21.7567 9.99648 21.5851 10.2934C21.4135 10.5903 21.3227 10.927 21.322 11.27V34.764L13.34 39.372L5.356 34.764V25.544L13.34 20.936L18.606 23.976V17.792L14.316 15.316C14.0188 15.1451 13.6819 15.0551 13.339 15.0551C12.9961 15.0551 12.6592 15.1451 12.362 15.316L0.976 21.89C0.67958 22.062 0.433464 22.3088 0.262207 22.6057C0.0909504 22.9026 0.000541311 23.2392 0 23.582L0 36.728C0.000191544 37.0711 0.0904348 37.4081 0.261709 37.7054C0.432983 38.0026 0.679287 38.2497 0.976 38.422L12.362 44.994C12.6592 45.1649 12.9961 45.2548 13.339 45.2548C13.6819 45.2548 14.0188 45.1649 14.316 44.994L25.7 38.422C25.9968 38.2502 26.2433 38.0035 26.4149 37.7066C26.5865 37.4097 26.6773 37.0729 26.678 36.73V13.236L26.822 13.154L34.662 8.62798L42.642 13.238V22.456L34.662 27.064L29.402 24.03V30.214L33.682 32.686C33.9795 32.8573 34.3167 32.9474 34.66 32.9474C35.0033 32.9474 35.3405 32.8573 35.638 32.686L35.64 32.684Z" fill="#64FF37"/>
</svg>
