<svg width="43" height="48" viewBox="0 0 43 48" fill="none" xmlns="http://www.w3.org/2000/svg">
<g clip-path="url(#clip0_808_4)">
<path d="M37.0821 35.935C37.582 35.935 37.7545 35.8184 37.9921 35.4125C38.2298 35.0067 38.1155 34.3479 38.1065 34.1685C38.0842 33.774 37.9518 33.3347 37.9338 33.115C37.9338 32.9805 37.9338 32.1219 37.954 31.77C38.2545 26.2017 40.644 24.877 41.3343 24.7269C41.7747 24.597 42.247 24.6288 42.666 24.8165V13.9179C42.666 12.6872 41.7917 11.1742 40.7247 10.5555L23.2715 0.468212C22.1957 -0.154955 20.4405 -0.154955 19.3823 0.461545L1.94732 10.5354C0.882151 11.1517 0.00815046 12.6649 0.0103171 13.8977V16.0989C0.00958179 16.1116 0.00958179 16.1244 0.0103171 16.1372V19.3515C0.112578 19.4081 0.213442 19.4671 0.312817 19.5285C0.651317 19.7527 0.985317 19.876 1.32615 20.1114C2.29718 20.7029 3.19939 21.4007 4.01615 22.1917C4.17515 22.344 4.70648 23.012 4.83198 23.169C5.21784 23.7007 5.65154 24.1958 6.12765 24.6484C6.3906 24.8884 6.68015 25.0975 6.99065 25.2717C7.50398 25.5384 8.35132 25.4779 8.78398 25.2872C12.106 23.8482 14.1907 24.57 15.1523 25.1484C17.5307 26.5762 18.3242 28.5734 18.5775 30.9989C18.6109 31.313 18.6214 31.6292 18.6088 31.9449C18.6088 32.5209 18.5888 33.4467 19.1962 33.6015C20.0682 33.8255 20.2788 32.893 20.4088 32.2744C20.7025 30.8734 22.5675 29.9544 23.9327 30.6604C24.8742 31.1469 25.2596 31.4225 26.19 31.0124C27.3533 30.499 27.9542 29.1922 28.36 28.4974C28.7608 27.8207 29.3411 27.2682 30.0366 26.9012C31.8523 25.7692 36.4161 26.0629 36.582 31.093V32.4919C36.582 32.9715 36.5977 33.44 36.5663 33.9354C36.5463 34.2649 36.488 34.6079 36.4565 34.9464C36.4475 34.9464 36.2771 35.9304 37.082 35.9349" fill="#64FF37"/>
<path d="M42.6615 24.8254C42.5381 24.7872 42.1795 24.5518 41.3343 24.7357C40.6418 24.8858 38.2543 26.2107 37.954 31.7788C37.9361 32.1217 37.925 32.9804 37.934 33.1239C37.9518 33.3479 38.084 33.7827 38.1065 34.1772C38.1065 34.3567 38.2431 35.0067 37.9921 35.4214C37.7411 35.836 37.582 35.9458 37.0821 35.9437C36.2773 35.9437 36.4476 34.9552 36.4476 34.9552C36.4791 34.6212 36.5373 34.2827 36.5576 33.9442C36.589 33.4487 36.5731 32.9804 36.5731 32.5005V31.1019C36.4073 26.0717 31.8435 25.778 30.0278 26.91C29.3323 27.277 28.7519 27.8294 28.3511 28.506C27.9453 29.201 27.3445 30.5077 26.1811 31.021C25.2508 31.4314 24.8653 31.1557 23.9238 30.6692C22.5588 29.963 20.6938 30.8822 20.4 32.2832C20.27 32.9018 20.0593 33.832 19.1873 33.6102C18.5798 33.4555 18.6 32.5297 18.6 31.9535C18.6125 31.6379 18.602 31.3218 18.5686 31.0077C18.3153 28.5822 17.522 26.585 15.1436 25.157C14.182 24.5787 12.0971 23.857 8.77513 25.296C8.3268 25.4865 7.48846 25.5472 6.9818 25.2804C6.6713 25.1062 6.38175 24.8971 6.1188 24.6572C5.64268 24.2046 5.20898 23.7093 4.82313 23.1777C4.69763 23.0209 4.16646 22.3527 4.00713 22.2004C3.19035 21.4094 2.28814 20.7118 1.31713 20.1204C0.976632 19.896 0.644798 19.7525 0.304132 19.5374C0.204736 19.4758 0.103816 19.4168 0.00146484 19.3604L0.00146484 34.0585C0.00146484 35.2914 0.875632 36.8045 1.94263 37.4209L19.396 47.508C20.4628 48.1269 22.209 48.1269 23.276 47.508L40.7315 37.4343C41.7985 36.8179 42.6703 35.3049 42.6681 34.0719L42.6615 24.8254Z" fill="#64FF37" fill-opacity="0.67"/>
<path d="M23.5519 22.3549C22.3459 23.0521 20.3711 23.0521 19.1651 22.3549L1.31738 12.9403C1.51905 13.1398 19.416 23.5363 19.416 23.5363C20.4831 24.1549 22.2294 24.1549 23.2962 23.5363C23.2962 23.5363 41.1685 13.1713 41.3704 12.9716L23.5519 22.3549ZM19.1359 1.81076C20.3442 1.12026 22.3167 1.12026 23.5249 1.81293L25.6882 2.7096C25.4864 2.5101 23.2715 1.07543 23.2715 1.07543C22.2045 0.459097 20.4607 0.456763 19.3937 1.07543C19.3937 1.07543 15.8564 3.15343 15.6571 3.35076L19.1359 1.81076Z" fill="white"/>
</g>
<defs>
<clipPath id="clip0_808_4">
<rect width="42.67" height="48" fill="white"/>
</clipPath>
</defs>
</svg>
