<svg width="48" height="48" viewBox="0 0 48 48" fill="none" xmlns="http://www.w3.org/2000/svg">
<g clip-path="url(#clip0_808_8)">
<path d="M24.4162 38H27.1292L28 43H24" stroke="#64FF37" stroke-linecap="round" stroke-linejoin="round"/>
<path d="M47.557 34.0632L32.5708 34.3391L26.9299 38.2654L27.4273 14.6555L30.5243 6.97112L45.5662 1L48 8.40854L45.7877 17.1444M47.557 34.0632L44.5714 23.6879M47.557 34.0632L44.8473 45.0653L33.787 41.6375L27.8703 47H24M45.7877 17.1444L46.0092 21.5667L44.5714 23.6879M45.7877 17.1444L47.7228 16.8129M44.5714 23.6879L34.0085 20.5722M47.7228 19.2449L45.9043 19.4663M27.1967 25.6109L37.4928 25.3817" stroke="#64FF37" stroke-linecap="round" stroke-linejoin="round"/>
<path d="M39.4316 34.5149L33.991 42M33.991 42L32.751 34.6364L37.769 25.5992L34.2168 20.7468L27.5071 14.7773L46 1M33.991 42L27 38.5978" stroke="#64FF37" stroke-linecap="round" stroke-linejoin="round"/>
<path d="M30.7943 7H23.9698M24.0484 38.5426H20.9836L20 43H23.4996M28.6834 31.5556L33 30.0089L29.919 28.4622L28.6834 31.5556Z" stroke="#64FF37" stroke-linecap="round" stroke-linejoin="round"/>
<path d="M0.442981 34.0632L15.4292 34.3391L21.0701 38.2654L20.5727 14.6555L17.4757 6.97112L2.43381 1L0 8.40854L2.21232 17.1444M0.442981 34.0632L3.42857 23.6879M0.442981 34.0632L3.15268 45.0653L14.213 41.6375L20.1297 47H24M2.21232 17.1444L1.99083 21.5667L3.42857 23.6879M2.21232 17.1444L0.275892 16.8129M3.42857 23.6879L13.9915 20.5722M0.275892 19.2449L2.09574 19.4663M20.8033 25.6109L10.5072 25.3817" stroke="#64FF37" stroke-linecap="round" stroke-linejoin="round"/>
<path d="M8.56839 34.5149L14.009 42M14.009 42L15.249 34.6364L10.231 25.5992L13.7832 20.7468L20.4929 14.7773L2 1M14.009 42L21 38.5978" stroke="#64FF37" stroke-linecap="round" stroke-linejoin="round"/>
<path d="M17.1984 7H24M19.3022 31L15 29.4883L18.0707 27.9766L19.3022 31Z" stroke="#64FF37" stroke-linecap="round" stroke-linejoin="round"/>
</g>
<defs>
<clipPath id="clip0_808_8">
<rect width="48" height="48" fill="white"/>
</clipPath>
</defs>
</svg>
