<svg width="48" height="48" viewBox="0 0 48 48" fill="none" xmlns="http://www.w3.org/2000/svg">
<path d="M0 12.1279V35.8719H24.26L48 12.1279H0ZM6.528 16.5439H6.538C8.264 16.5459 10.368 17.0339 11.89 17.8099L10.25 20.6699C8.58 19.8619 7.74 19.7859 6.79 19.7359C5.374 19.6599 4.662 20.1659 4.652 20.7119C4.638 21.3759 5.99 21.9779 7.262 22.3879C9.19 22.9999 11.642 23.8179 12.016 26.1879L15.54 16.8739H19.632L23.76 28.0259L23.746 16.8759H28.486C33 16.8759 35.122 18.4039 35.122 21.9139C35.122 25.0639 32.942 26.9419 29.25 26.9419H27.724L27.704 31.1299L20.528 31.1239L20.028 29.3079C19.288 29.5519 18.454 29.6859 17.568 29.6859C16.656 29.6859 15.798 29.5439 15.042 29.2859L14.326 31.1239L10.326 31.1359L10.506 30.2119C10.4487 30.2626 10.3907 30.3119 10.332 30.3599C9.262 31.2199 7.916 31.6179 6.258 31.6479L5.832 31.6519C4.02203 31.6679 2.24041 31.202 0.67 30.3019L2.13 27.4059C3.71 28.3399 4.702 28.5499 6.042 28.5219C6.736 28.5079 7.238 28.3819 7.564 28.0439C7.75545 27.8448 7.86656 27.582 7.876 27.3059C7.89 26.5539 6.816 26.1999 5.506 25.7939C4.444 25.4659 3.236 25.0159 2.294 24.3239C1.176 23.5039 0.644 22.4759 0.67 21.0239C0.678865 19.9945 1.08432 19.008 1.802 18.2699C2.84 17.1959 4.516 16.5439 6.528 16.5439ZM27.722 19.8839V23.6919H28.764C30.152 23.6919 31.258 23.2319 31.26 21.7639C31.26 20.3459 30.152 19.8839 28.764 19.8839H27.722ZM17.548 21.4179L16.052 26.1419C16.498 26.3119 17.014 26.4079 17.566 26.4079C18.102 26.4079 18.606 26.3139 19.05 26.1559L17.578 21.4159L17.548 21.4179Z" fill="#64FF37"/>
</svg>
