<svg width="48" height="48" viewBox="0 0 48 48" fill="none" xmlns="http://www.w3.org/2000/svg">
<path d="M47.277 17.5321C47.316 17.5321 47.373 17.5321 47.3925 17.4736C47.412 17.4541 47.412 17.4361 47.412 17.4166C47.4125 17.3969 47.4074 17.3774 47.3973 17.3604C47.3872 17.3434 47.3726 17.3296 47.355 17.3206C47.316 17.3011 47.277 17.3011 47.22 17.3011H47.181V17.5111H47.277M47.22 17.2051C47.316 17.2051 47.373 17.2051 47.412 17.2246C47.547 17.2621 47.547 17.3971 47.547 17.4346V17.4931C47.547 17.5321 47.5275 17.5891 47.4495 17.6281C47.4495 17.6281 47.4315 17.6461 47.412 17.6461L47.5845 17.9536H47.412L47.277 17.6656H47.181V17.9536H47.028V17.2051H47.22ZM47.277 18.2596C47.3653 18.2602 47.4528 18.2433 47.5345 18.2098C47.6162 18.1764 47.6905 18.127 47.753 18.0647C47.8155 18.0023 47.865 17.9282 47.8986 17.8465C47.9323 17.7649 47.9494 17.6774 47.949 17.5891C47.9513 17.5003 47.9354 17.4119 47.9025 17.3293C47.8695 17.2467 47.8201 17.1718 47.7572 17.1089C47.6944 17.046 47.6194 16.9966 47.5368 16.9637C47.4543 16.9307 47.3659 16.9149 47.277 16.9171C47.0996 16.9195 46.9302 16.9911 46.8049 17.1166C46.6797 17.2422 46.6084 17.4118 46.6065 17.5891C46.6065 17.9536 46.9125 18.2596 47.277 18.2596ZM46.7595 17.5891C46.7595 17.3011 46.989 17.0716 47.2965 17.0716C47.5845 17.0716 47.814 17.3011 47.814 17.5891C47.8142 17.6571 47.8009 17.7245 47.775 17.7874C47.7491 17.8503 47.711 17.9074 47.6629 17.9555C47.6148 18.0036 47.5576 18.0417 47.4948 18.0676C47.4319 18.0936 47.3645 18.1068 47.2965 18.1066C47.2267 18.1103 47.1568 18.0996 47.0913 18.0752C47.0257 18.0508 46.9659 18.0131 46.9155 17.9646C46.8652 17.916 46.8253 17.8577 46.7985 17.7931C46.7716 17.7285 46.7584 17.6591 46.7595 17.5891ZM42.099 21.8656C41.6791 21.8657 41.2706 21.7293 40.935 21.4768C40.5995 21.2244 40.3552 20.8696 40.239 20.4661H45.129L45.801 19.4116H40.239C40.3549 19.0078 40.5991 18.6528 40.9347 18.4C41.2702 18.1473 41.6789 18.0106 42.099 18.0106H45.456L46.1265 16.9561H42.0225C40.3725 16.9561 39.0495 18.2986 39.0495 19.9291C39.0495 21.5791 40.392 22.9021 42.0225 22.9021H45.552L46.2225 21.8461H42.099M28.098 22.9021H31.6455L32.3175 21.8461H28.194C27.9409 21.8475 27.69 21.799 27.4556 21.7034C27.2212 21.6078 27.0079 21.467 26.828 21.289C26.648 21.111 26.5049 20.8993 26.4067 20.6659C26.3086 20.4326 26.2574 20.1822 26.256 19.9291C26.256 18.8551 27.12 18.0106 28.194 18.0106H31.551L32.2215 16.9561H28.1175C26.4675 16.9561 25.125 18.2986 25.125 19.9291C25.125 21.5791 26.4675 22.9021 28.098 22.9021ZM6.3675 21.8671H3.0495C2.54054 21.8667 2.05257 21.6643 1.69282 21.3042C1.33308 20.9442 1.131 20.4561 1.131 19.9471C1.131 18.8746 1.995 18.0301 3.0495 18.0301H6.3495C7.422 18.0301 8.2845 18.8926 8.2845 19.9486C8.2845 21.0031 7.422 21.8656 6.3675 21.8656M2.973 22.9006H6.4245C8.0745 22.9006 9.3975 21.5776 9.3975 19.9291C9.3975 18.2806 8.0745 16.9561 6.4245 16.9561H2.973C2.18548 16.9593 1.43112 17.2735 0.874262 17.8304C0.3174 18.3872 0.00315958 19.1416 0 19.9291C0 21.5791 1.3425 22.9006 2.973 22.9006ZM15.036 20.9836C15.5701 20.9836 16.0823 20.7715 16.4599 20.3938C16.8376 20.0162 17.0497 19.5039 17.0497 18.9699C17.0497 18.4358 16.8376 17.9236 16.4599 17.5459C16.0823 17.1683 15.5701 16.9561 15.036 16.9561H10.0305V22.9021H11.181V18.0121H14.961C15.4965 18.0121 15.9195 18.4321 15.9195 18.9691C15.9195 19.5076 15.4965 19.9291 14.9595 19.9291H11.7375L15.1515 22.9021H16.821L14.5185 20.9641H15.036M33.966 21.8656V16.9561H32.8155V22.3456C32.8155 22.4996 32.873 22.6336 32.988 22.7476C33.1007 22.8586 33.2528 22.9206 33.411 22.9201H38.628L39.2985 21.8656H33.966ZM19.965 20.8111H23.0145L21.4035 18.2026L18.4305 22.9021H17.0685L20.6745 17.2621C20.7535 17.1476 20.8596 17.0545 20.9835 16.9911C21.1073 16.9278 21.2449 16.8961 21.384 16.8991C21.672 16.8991 21.921 17.0326 22.074 17.2621L25.6995 22.9201H24.357L23.724 21.8656H20.6355L19.965 20.8111ZM0.5565 26.4886H2.0715L3.912 30.3436V26.4886H4.8915V31.3981H3.4515L1.554 27.3121V31.3786H0.5565V26.4886ZM6.003 26.4886H9.2835V27.2941H7.0575V28.4641H9.1485V29.2696H7.0575V30.5926H9.36V31.3981H6.003V26.4886ZM11.3925 27.2941H9.9345V26.4886H13.9245V27.2941H12.4665V31.3981H11.412V27.2941H11.3925ZM15.1905 29.9596C15.21 30.3046 15.2475 30.9376 16.3785 30.9376C17.3955 30.9376 17.5305 30.3046 17.5305 30.0556C17.5305 29.5006 17.0895 29.4031 16.398 29.2306C15.651 29.0386 15.324 28.9621 15.075 28.7896C14.9124 28.6888 14.779 28.5471 14.6882 28.3786C14.5974 28.2102 14.5524 28.0209 14.5575 27.8296C14.5575 26.8336 15.4965 26.3926 16.4175 26.3926C16.743 26.3926 17.3955 26.4496 17.7975 26.8726C18.0675 27.1786 18.0855 27.5041 18.105 27.7156H17.3955C17.358 27.1006 16.8405 26.9671 16.3605 26.9671C15.6885 26.9671 15.2655 27.2746 15.2655 27.7546C15.2655 28.1956 15.555 28.3291 16.1505 28.4836C17.319 28.7896 17.454 28.8091 17.7405 29.0011C18.201 29.3071 18.2205 29.7676 18.2205 29.9791C18.2205 30.8416 17.5485 31.5136 16.284 31.5136C15.9195 31.5136 15.1515 31.4551 14.769 30.9571C14.481 30.5926 14.481 30.2086 14.481 29.9596H15.1905ZM19.9845 26.4886V29.5186C19.9845 30.0361 20.1 30.2671 20.1945 30.4006C20.5035 30.8041 20.982 30.8806 21.309 30.8806C22.632 30.8806 22.632 29.8456 22.632 29.4796V26.4901H23.2845V29.5201C23.2845 29.7886 23.2845 30.3256 22.881 30.8251C22.401 31.4386 21.654 31.4956 21.2895 31.4956C20.829 31.4956 20.004 31.3606 19.5645 30.7096C19.41 30.4981 19.275 30.2101 19.275 29.4811V26.4901L19.9845 26.4886ZM24.7035 31.3981H25.374V26.4886H24.7035V31.3981ZM28.0215 31.3981V27.0631H26.3715V26.4886H30.3225V27.0631H28.674V31.3981H28.0215ZM31.1475 26.4886H34.2165V27.0631H31.8195V28.5976H34.101V29.1736H31.8195V30.8041H34.2735V31.3981H31.1475V26.4886Z" fill="#64FF37"/>
</svg>
