<svg width="48" height="48" viewBox="0 0 48 48" fill="none" xmlns="http://www.w3.org/2000/svg">
<path d="M27.3577 12.2334V3.35897C27.3577 2.73334 27.6017 2.13332 28.036 1.69093C28.4704 1.24853 29.0595 1 29.6737 1H40.684C41.2982 1 41.8873 1.24853 42.3217 1.69093C42.756 2.13332 43 2.73334 43 3.35897V44.641C43 45.2667 42.756 45.8667 42.3217 46.3091C41.8873 46.7515 41.2982 47 40.684 47H32.8212M9.31601 23.3678H20.3263C20.9405 23.3678 21.5296 23.6163 21.964 24.0587C22.3983 24.5011 22.6423 25.1011 22.6423 25.7268V47H9.31601C8.70176 47 8.11268 46.7515 7.67834 46.3091C7.24401 45.8667 7 45.2667 7 44.641V25.7268C7 25.1011 7.24401 24.5011 7.67834 24.0587C8.11268 23.6163 8.70176 23.3678 9.31601 23.3678Z" stroke="#64FF37" stroke-linecap="round" stroke-linejoin="round"/>
<path d="M17 23.8889V15.307C17 14.6951 17.2496 14.1083 17.6939 13.6757C18.1381 13.2431 18.7407 13 19.369 13H30.631C31.2593 13 31.8619 13.2431 32.3061 13.6757C32.7504 14.1083 33 14.6951 33 15.307V47H22.5884" stroke="#64FF37" stroke-linecap="round" stroke-linejoin="round"/>
</svg>
