<svg width="48" height="48" viewBox="0 0 48 48" fill="none" xmlns="http://www.w3.org/2000/svg">
<path d="M32.3068 35.7106V33.6065L32.2608 33.6247C31.7815 33.8554 31.2595 33.9869 30.7268 34.0109C30.1744 34.0494 29.6265 33.8897 29.1837 33.561C28.8683 33.3203 28.6328 32.9919 28.5075 32.6181C28.3723 32.2095 28.3572 31.7714 28.4639 31.3547C28.5626 30.9295 28.8042 30.5499 29.1492 30.2777C29.4557 30.0254 29.8294 29.866 30.2255 29.8187C30.9269 29.7415 31.6329 29.8732 32.2585 30.1936L32.3045 30.2186V28.1055L32.2079 28.0759C31.5818 27.8793 30.9253 27.7946 30.2692 27.826C29.6725 27.8441 29.0851 27.9769 28.5397 28.2168C27.9878 28.4667 27.5048 28.8371 27.1231 29.2984C26.5408 30.0243 26.2174 30.9199 26.2033 31.846C26.1891 32.7722 26.485 33.677 27.0449 34.4199C27.6106 35.1357 28.4041 35.6424 29.2987 35.8514C30.2393 36.0787 31.2259 36.0446 32.1481 35.7537L32.3068 35.7106ZM11.234 35.7106V33.6065L11.1903 33.6247C10.711 33.8554 10.189 33.9869 9.65633 34.0109C9.10313 34.05 8.55428 33.8902 8.11089 33.561C7.79615 33.3206 7.56211 32.992 7.43936 32.6181C7.30338 32.2097 7.28743 31.7717 7.39336 31.3547C7.49153 30.9299 7.73225 30.5503 8.07639 30.2777C8.38353 30.025 8.75814 29.8656 9.15498 29.8187C9.85411 29.7415 10.5624 29.8732 11.188 30.1936L11.234 30.2186V28.1055L11.1351 28.0759C10.5098 27.8795 9.85405 27.7949 9.19868 27.826C8.60074 27.8419 8.012 27.9759 7.46695 28.2168C6.91731 28.4667 6.43206 28.8371 6.04799 29.2984C5.46567 30.0243 5.14232 30.9199 5.12818 31.846C5.11404 32.7722 5.40991 33.677 5.9698 34.4199C6.53555 35.138 7.33127 35.6424 8.22358 35.8514C9.16648 36.0787 10.1508 36.0446 11.0753 35.7537L11.234 35.7106ZM18.7542 33.9632L18.745 35.7765L18.8807 35.7992C19.3008 35.8749 19.7247 35.9279 20.1525 35.9582C20.5266 35.9946 20.9022 36.0022 21.2794 35.981C21.6381 35.9552 21.9892 35.8901 22.3327 35.7855C22.7351 35.6719 23.11 35.4765 23.4274 35.2084C23.7124 34.9634 23.932 34.6528 24.0667 34.3041C24.2932 33.7179 24.2882 33.069 24.0529 32.4863C23.9288 32.1838 23.7333 31.915 23.4825 31.7024C23.237 31.489 22.952 31.3246 22.6431 31.2184L21.2587 30.7117C21.093 30.6423 20.9589 30.5154 20.8815 30.3549C20.8501 30.2896 20.835 30.2177 20.8374 30.1454C20.8398 30.0731 20.8597 30.0024 20.8953 29.9391C20.9651 29.8226 21.0683 29.7293 21.192 29.671C21.3474 29.5984 21.5135 29.5508 21.6841 29.5301C21.9785 29.4877 22.2721 29.4915 22.5649 29.5415C22.9099 29.5779 23.2503 29.6384 23.586 29.7233L23.6596 29.7369V28.0668L23.5285 28.0373C23.1851 27.957 22.8373 27.8963 22.4868 27.8555C22.0327 27.7972 21.573 27.7949 21.1184 27.8487C20.544 27.9026 19.9977 28.1197 19.5453 28.4736C19.238 28.7101 19.0044 29.0275 18.8715 29.3893C18.6695 29.9398 18.6695 30.5429 18.8715 31.0934C18.9773 31.3676 19.1383 31.6077 19.3545 31.8137C19.5415 31.9909 19.7508 32.1394 19.9823 32.2591C20.2843 32.4181 20.6017 32.5416 20.9344 32.6294C21.0448 32.6612 21.1537 32.6953 21.261 32.7317L21.422 32.7908L21.468 32.8089C21.6289 32.8657 21.7807 32.9566 21.9026 33.0748C21.9907 33.1523 22.0572 33.2509 22.0958 33.3611C22.119 33.4613 22.119 33.5654 22.0958 33.6656C22.0708 33.7454 22.0301 33.8197 21.976 33.884C21.922 33.9483 21.8556 34.0015 21.7807 34.0405C21.6152 34.124 21.4362 34.1786 21.2518 34.2018C20.9811 34.2438 20.7067 34.2575 20.4331 34.2427C20.0749 34.2164 19.7186 34.1693 19.366 34.1018L18.8163 33.9746L18.7542 33.9632ZM14.0098 35.8492H16.0221V27.9578H14.0098V35.8492ZM37.318 30.2891C37.6395 30.0288 38.0321 29.8689 38.4458 29.8295C38.8596 29.7901 39.2758 29.873 39.6418 30.0678C40.0077 30.2626 40.3068 30.5604 40.5011 30.9234C40.6954 31.2865 40.7762 31.6984 40.7331 32.1068C40.7069 32.3787 40.6258 32.6426 40.4947 32.883C40.3636 33.1234 40.185 33.3354 39.9696 33.5065L39.9374 33.5315C39.5014 33.8658 38.9497 34.017 38.4017 33.9525C37.8537 33.888 37.3534 33.6129 37.0091 33.1867C36.6648 32.7605 36.5042 32.2176 36.562 31.6753C36.6198 31.133 36.8914 30.635 37.318 30.2891ZM34.3973 31.9069C34.4084 32.5221 34.5575 33.1271 34.834 33.6785C35.1104 34.2298 35.5073 34.7137 35.9959 35.0952C36.4845 35.4766 37.0527 35.7462 37.6596 35.8845C38.2664 36.0227 38.8967 36.0262 39.505 35.8946C40.321 35.7409 41.0704 35.346 41.6542 34.7622C42.2379 34.1783 42.6285 33.4331 42.7741 32.6251C42.9197 31.8171 42.8135 30.9845 42.4696 30.2375C42.1256 29.4905 41.5602 28.8643 40.8481 28.4417C40.2141 28.0543 39.4877 27.8392 38.7425 27.8185C37.9973 27.7977 37.2598 27.9719 36.6047 28.3234C35.9496 28.675 35.4002 29.1914 35.0121 29.8203C34.6241 30.4492 34.4112 31.1682 34.395 31.9046M45.0084 21.6137C45.0084 21.8747 45.1133 22.1249 45.3001 22.3094C45.4868 22.494 45.7401 22.5976 46.0042 22.5976C46.2683 22.5976 46.5216 22.494 46.7083 22.3094C46.8951 22.1249 47 21.8747 47 21.6137V19.4324C46.9828 19.183 46.8705 18.9494 46.6856 18.7787C46.5007 18.6081 46.2572 18.5132 46.0042 18.5132C45.7512 18.5132 45.5077 18.6081 45.3228 18.7787C45.1379 18.9494 45.0256 19.183 45.0084 19.4324V21.6137ZM39.5579 21.6137C39.5751 21.8637 39.6878 22.0979 39.873 22.269C40.0583 22.44 40.3025 22.5352 40.556 22.5352C40.8096 22.5352 41.0538 22.44 41.239 22.269C41.4243 22.0979 41.537 21.8637 41.5541 21.6137V16.7148C41.5333 16.4678 41.4193 16.2374 41.2346 16.0695C41.0499 15.9016 40.8081 15.8084 40.5572 15.8084C40.3062 15.8084 40.0645 15.9016 39.8798 16.0695C39.6951 16.2374 39.5811 16.4678 39.5602 16.7148V21.616M34.027 23.5928C34.0442 23.8422 34.1565 24.0759 34.3414 24.2465C34.5263 24.4172 34.7698 24.5121 35.0228 24.5121C35.2758 24.5121 35.5193 24.4172 35.7042 24.2465C35.8891 24.0759 36.0014 23.8422 36.0186 23.5928V12.9839C36.0014 12.7345 35.8891 12.5008 35.7042 12.3302C35.5193 12.1596 35.2758 12.0646 35.0228 12.0646C34.7698 12.0646 34.5263 12.1596 34.3414 12.3302C34.1565 12.5008 34.0442 12.7345 34.027 12.9839V23.5928ZM28.588 21.616C28.6003 21.8691 28.7108 22.1077 28.8964 22.2825C29.082 22.4573 29.3286 22.5548 29.585 22.5548C29.8414 22.5548 30.088 22.4573 30.2736 22.2825C30.4592 22.1077 30.5696 21.8691 30.5819 21.616V16.7148C30.5819 16.4539 30.477 16.2037 30.2903 16.0191C30.1035 15.8346 29.8502 15.731 29.5861 15.731C29.322 15.731 29.0688 15.8346 28.882 16.0191C28.6953 16.2037 28.5903 16.4539 28.5903 16.7148L28.588 21.616ZM23.0295 21.616C23.0533 21.8606 23.1685 22.0877 23.3526 22.253C23.5367 22.4182 23.7766 22.5098 24.0253 22.5098C24.274 22.5098 24.5138 22.4182 24.698 22.253C24.8821 22.0877 24.9973 21.8606 25.0211 21.616V19.4324C25.0039 19.183 24.8916 18.9494 24.7067 18.7787C24.5218 18.6081 24.2783 18.5132 24.0253 18.5132C23.7723 18.5132 23.5288 18.6081 23.3439 18.7787C23.159 18.9494 23.0467 19.183 23.0295 19.4324V21.616ZM17.5307 21.616C17.5307 21.877 17.6357 22.1272 17.8224 22.3117C18.0092 22.4962 18.2624 22.5999 18.5265 22.5999C18.7906 22.5999 19.0439 22.4962 19.2307 22.3117C19.4174 22.1272 19.5223 21.877 19.5223 21.616V16.7148C19.5052 16.4655 19.3928 16.2318 19.2079 16.0612C19.0231 15.8905 18.7795 15.7956 18.5265 15.7956C18.2736 15.7956 18.03 15.8905 17.8451 16.0612C17.6603 16.2318 17.5479 16.4655 17.5307 16.7148V21.616ZM11.9975 23.5928C11.9975 23.8538 12.1024 24.104 12.2892 24.2885C12.4759 24.4731 12.7292 24.5767 12.9933 24.5767C13.2574 24.5767 13.5107 24.4731 13.6974 24.2885C13.8842 24.104 13.9891 23.8538 13.9891 23.5928V12.9839C13.9891 12.7229 13.8842 12.4727 13.6974 12.2882C13.5107 12.1037 13.2574 12 12.9933 12C12.7292 12 12.4759 12.1037 12.2892 12.2882C12.1024 12.4727 11.9975 12.7229 11.9975 12.9839V23.5928ZM6.51485 21.616C6.53867 21.8606 6.65388 22.0877 6.83799 22.253C7.0221 22.4182 7.26191 22.5098 7.51065 22.5098C7.75938 22.5098 7.9992 22.4182 8.18331 22.253C8.36742 22.0877 8.48263 21.8606 8.50645 21.616V16.7148C8.49416 16.4624 8.384 16.2243 8.19881 16.0499C8.01363 15.8755 7.76762 15.7782 7.5118 15.7782C7.25598 15.7782 7.00997 15.8755 6.82478 16.0499C6.6396 16.2243 6.52944 16.4624 6.51715 16.7148L6.51485 21.616ZM1 21.616C1.01716 21.8654 1.12954 22.099 1.3144 22.2697C1.49926 22.4403 1.74281 22.5352 1.9958 22.5352C2.24879 22.5352 2.49234 22.4403 2.6772 22.2697C2.86206 22.099 2.97444 21.8654 2.9916 21.616V19.4324C2.9916 19.1715 2.88669 18.9212 2.69994 18.7367C2.51319 18.5522 2.2599 18.4485 1.9958 18.4485C1.7317 18.4485 1.47841 18.5522 1.29166 18.7367C1.10491 18.9212 1 19.1715 1 19.4324V21.616Z" fill="#64FF37"/>
</svg>
