<svg width="48" height="48" viewBox="0 0 48 48" fill="none" xmlns="http://www.w3.org/2000/svg">
<path d="M46.172 26.3279C46.264 26.3279 46.316 26.3019 46.316 26.2039C46.316 26.1079 46.266 26.0859 46.17 26.0859H45.966V26.3279H46.172ZM45.966 26.4119V26.6699H45.876V25.9999H46.174C46.344 25.9999 46.408 26.0679 46.408 26.1999C46.408 26.3079 46.362 26.3819 46.248 26.4039L46.398 26.6679H46.302L46.152 26.4099L45.966 26.4119ZM46.114 25.8279C45.98 25.8285 45.8516 25.8819 45.7568 25.9767C45.662 26.0715 45.6085 26.1999 45.608 26.3339C45.608 26.6139 45.836 26.8419 46.114 26.8419C46.2484 26.8414 46.3771 26.7877 46.4719 26.6924C46.5668 26.5972 46.62 26.4683 46.62 26.3339C46.62 26.1997 46.5667 26.071 46.4718 25.9761C46.3769 25.8813 46.2482 25.8279 46.114 25.8279ZM45.534 26.3339C45.534 26.1801 45.5951 26.0326 45.7039 25.9238C45.8126 25.815 45.9602 25.7539 46.114 25.7539C46.2678 25.7539 46.4153 25.815 46.5241 25.9238C46.6329 26.0326 46.694 26.1801 46.694 26.3339C46.6943 26.4103 46.6795 26.4859 46.6504 26.5565C46.6214 26.6271 46.5787 26.6913 46.5248 26.7454C46.4709 26.7994 46.4069 26.8423 46.3364 26.8716C46.2659 26.9009 46.1903 26.9159 46.114 26.9159C45.9602 26.9159 45.8126 26.8548 45.7039 26.7461C45.5951 26.6373 45.534 26.4898 45.534 26.3359M4.044 25.0159V17.6599H3.2V25.0139C3.2 26.7139 3.266 28.0799 0.32 28.0799L0 28.0739V28.8679L0.32 28.8719C3.892 28.8719 4.044 27.2719 4.044 25.0139M35.124 21.6199H41.392C41.308 19.7839 41.19 18.2179 38.512 18.2179C35.932 18.2179 35.226 19.6159 35.124 21.6179M38.528 17.4399C42.116 17.4399 42.234 19.8499 42.218 22.3919H35.108C35.124 24.6319 35.68 26.3019 38.594 26.3019C40.144 26.3019 40.854 25.8819 41.61 25.3239L42.082 25.9479C41.24 26.5719 40.246 27.0599 38.594 27.0599C34.954 27.0599 34.282 24.9539 34.282 22.2399C34.282 19.5299 35.058 17.4399 38.528 17.4399ZM30.23 22.8519C31.7167 22.8546 32.4593 22.1246 32.458 20.6619C32.458 19.1959 31.66 18.5019 30.194 18.5019H26.736V22.8519H30.23ZM30.218 17.6759C32.354 17.6759 33.322 18.7359 33.322 20.6239C33.322 22.5239 32.366 23.6779 30.206 23.6779H26.736V26.8739H25.912V17.6799L30.218 17.6759ZM24.368 17.6759V26.8759H23.544V17.6759H24.368ZM21.98 26.8759H21.12V21.2479C21.12 19.6299 21.138 18.2659 18.172 18.2659C15.224 18.2659 15.292 19.6299 15.292 21.3319V26.8739H14.448V21.3319C14.448 19.0739 14.6 17.4719 18.172 17.4719C21.76 17.4719 21.98 19.0739 21.98 21.2639V26.8759ZM5.494 17.6599H6.354V23.2879C6.354 24.9059 6.334 26.2679 9.3 26.2679C12.248 26.2679 12.18 24.9059 12.18 23.2039V17.6599H13.024V23.2039C13.024 25.4599 12.872 27.0619 9.3 27.0619C5.712 27.0619 5.494 25.4619 5.494 23.2699V17.6599ZM43.428 21.3339V26.8759H44.27V21.3339C44.27 19.6339 44.202 18.2679 47.15 18.2679C47.466 18.2679 47.7493 18.2833 48 18.3139V17.5119C47.718 17.4879 47.4351 17.4759 47.152 17.4759C43.58 17.4759 43.428 19.0759 43.428 21.3339ZM42.566 30.0539C42.8358 30.2293 43.1523 30.3192 43.474 30.3119C43.998 30.3119 44.232 30.1639 44.232 29.8139C44.232 29.4539 43.93 29.4019 43.472 29.3199C42.926 29.2239 42.554 29.1319 42.554 28.6179C42.554 28.1259 42.87 27.9339 43.474 27.9339C43.872 27.9339 44.156 28.0239 44.358 28.1619L44.214 28.3819C43.9907 28.2477 43.7345 28.1785 43.474 28.1819C43.018 28.1819 42.822 28.3079 42.822 28.6099C42.822 28.9319 43.086 28.9939 43.538 29.0759C44.094 29.1759 44.496 29.2579 44.496 29.8039C44.496 30.3079 44.174 30.5499 43.48 30.5499C43.1078 30.5645 42.7402 30.4631 42.428 30.2599L42.566 30.0539ZM40.988 29.1699L40.48 29.7239V30.5159H40.216V27.9759H40.48V29.3779L41.766 27.9779H42.078L41.166 28.9739L42.202 30.5159H41.896L40.988 29.1699ZM38.788 29.2339C39.148 29.2339 39.368 29.1239 39.368 28.7239C39.368 28.3299 39.154 28.2259 38.776 28.2259H37.95V29.2339H38.788ZM38.712 29.4819H37.952V30.5159H37.686V27.9759H38.784C39.374 27.9759 39.64 28.2119 39.64 28.7159C39.64 29.1559 39.432 29.4119 38.988 29.4699L39.602 30.5159H39.314L38.712 29.4819ZM36.864 29.2479C36.864 28.5619 36.544 28.1919 35.852 28.1919C35.162 28.1919 34.848 28.5619 34.848 29.2479C34.848 29.9379 35.162 30.3079 35.852 30.3079C36.544 30.3079 36.864 29.9379 36.864 29.2479ZM35.852 27.9339C36.668 27.9339 37.134 28.3399 37.134 29.2439C37.134 30.1539 36.668 30.5579 35.852 30.5579C35.04 30.5579 34.576 30.1539 34.576 29.2439C34.576 28.3399 35.04 27.9339 35.852 27.9339ZM31.138 27.9759L31.806 30.0759L32.488 27.9759H32.722L33.402 30.0759L34.072 27.9759H34.332L33.516 30.5339H33.284L32.598 28.4179L31.916 30.5339H31.68L30.86 27.9759H31.138ZM28.354 28.2339V27.9759H30.53V28.2339H29.578V30.5159H29.306V28.2339H28.354ZM27.946 27.9759V28.2339H26.536V29.0739H27.912V29.3279H26.536V30.2679H27.96V30.5159H26.266V27.9759H27.946ZM23.838 27.9759L25.358 30.0719V27.9759H25.618V30.5159H25.37L23.804 28.3599V30.5159H23.544V27.9759H23.838Z" fill="#64FF37"/>
</svg>
