<svg width="48" height="48" viewBox="0 0 48 48" fill="none" xmlns="http://www.w3.org/2000/svg">
<g clip-path="url(#clip0_813_70)">
<path d="M23.8875 0C37.2676 0.0459956 46.9215 10.4103 47.8905 21.5638C48.5216 28.8352 46.4303 35.1989 41.4236 40.514C37.3217 44.8682 32.2323 47.3683 26.2514 47.8917C18.9972 48.5274 12.662 46.335 7.38781 41.3276C3.12963 37.2851 0.668664 32.2777 0.122351 26.4209C-0.532204 19.405 1.43248 13.1803 6.18694 7.9368C10.9342 2.70045 16.9161 0.122655 23.8875 0ZM36.3189 36.8762C29.4058 36.8578 23.4892 34.3945 18.4979 29.6825C13.4616 24.9286 11.0323 18.9798 10.6065 12.0028C8.74695 17.0102 9.00326 25.3569 15.074 31.8065C21.3653 38.4902 30.1481 39.4796 36.3189 36.8762ZM17.3409 10.1691C15.6254 16.0361 17.1816 22.9109 22.558 27.351C27.8271 31.7022 34.4084 31.6603 38.4153 29.9544C38.1161 29.9247 37.8843 29.8951 37.6525 29.8808C36.0054 29.7755 34.3798 29.522 32.7796 29.1244C28.5878 28.0808 24.9985 26.055 22.2741 22.6401C20.3492 20.2278 19.1157 17.4742 18.2834 14.5244C17.8923 13.1394 17.6238 11.7258 17.3409 10.1712V10.1691Z" fill="#64FF37"/>
</g>
<defs>
<clipPath id="clip0_813_70">
<rect width="48" height="48" fill="white"/>
</clipPath>
</defs>
</svg>
