<svg width="48" height="48" viewBox="0 0 48 48" fill="none" xmlns="http://www.w3.org/2000/svg">
<g clip-path="url(#clip0_813_73)">
<path d="M24 0.713867C10.77 0.713867 0 11.3799 0 24.5079C0 33.2279 4.716 40.8139 11.792 44.9159L13.332 34.7639C10.9742 32.1841 9.65847 28.8207 9.64 25.3259C9.64 17.5319 16 11.1739 23.9 11.1739C31.796 11.1739 38.152 17.5339 38.152 25.3259C38.152 29.0199 36.718 32.3019 34.46 34.8659L36 45.0199C43.18 40.9199 48 33.2219 48 24.5039C48 11.3799 37.23 0.713867 24 0.713867ZM23.9 17.0279C22.9024 17.0252 21.9142 17.2197 20.992 17.6002C20.0698 17.9807 19.232 18.5396 18.5265 19.2449C17.821 19.9502 17.2618 20.788 16.8811 21.71C16.5004 22.6321 16.3056 23.6203 16.308 24.6179C16.2975 26.1617 16.7649 27.6709 17.6461 28.9385C18.5274 30.2061 19.7792 31.1699 21.23 31.6979L18.26 47.2859H29.54L26.67 31.6959C29.44 30.5679 31.49 27.8999 31.49 24.6159C31.4921 23.6186 31.2972 22.6308 30.9165 21.7091C30.5358 20.7874 29.9768 19.95 29.2715 19.2449C28.5663 18.5399 27.7287 17.9811 26.8069 17.6006C25.8851 17.2201 24.8972 17.0255 23.9 17.0279Z" fill="#64FF37"/>
</g>
<defs>
<clipPath id="clip0_813_73">
<rect width="48" height="48" fill="white"/>
</clipPath>
</defs>
</svg>
