<svg width="48" height="48" viewBox="0 0 48 48" fill="none" xmlns="http://www.w3.org/2000/svg">
<g clip-path="url(#clip0_813_75)">
<path d="M3.92187 27.0639C3.36055 27.0752 2.80313 26.9682 2.28587 26.7499C1.81648 26.5517 1.39603 26.2534 1.05387 25.8759C0.711016 25.4877 0.446793 25.0367 0.275872 24.5479C0.0863733 24.0138 -0.00706909 23.4505 -0.000128158 22.8839C-0.000128158 22.2865 0.0912052 21.7319 0.273872 21.2199C0.456538 20.7079 0.715872 20.2652 1.05187 19.8919C1.39649 19.5157 1.81712 19.2171 2.28587 19.0159C2.77254 18.8065 3.31787 18.7019 3.92187 18.7019C4.5272 18.7019 5.07254 18.8065 5.55787 19.0159C6.04321 19.2252 6.45387 19.5165 6.78987 19.8899C7.12587 20.2632 7.3852 20.7059 7.56787 21.2179C7.75054 21.7299 7.84187 22.2845 7.84187 22.8819C7.84187 23.4792 7.75054 24.0339 7.56787 24.5459C7.39695 25.0347 7.13273 25.4857 6.78987 25.8739C6.44815 26.2519 6.02758 26.5503 5.55787 26.7479C5.04077 26.9669 4.48334 27.0745 3.92187 27.0639ZM3.92187 26.1779C4.39254 26.1779 4.80721 26.0939 5.16587 25.9259C5.70387 25.6739 5.82787 25.5279 6.07387 25.2359C6.32054 24.9439 6.5052 24.5965 6.62787 24.1939C6.75054 23.7912 6.81187 23.3539 6.81187 22.8819C6.81187 22.4099 6.75054 21.9725 6.62787 21.5699C6.51475 21.1872 6.32641 20.8309 6.07387 20.5219C5.8272 20.2272 5.52454 19.9959 5.16587 19.8279C4.62787 19.5759 4.39387 19.5779 3.92187 19.5779C3.45121 19.5779 3.03654 19.6619 2.67787 19.8299C2.32748 19.991 2.01732 20.2281 1.76987 20.5239C1.51734 20.8329 1.329 21.1892 1.21587 21.5719C1.09321 21.9745 1.03187 22.4119 1.03187 22.8839C1.03187 23.3545 1.09321 23.7919 1.21587 24.1959C1.33987 24.5999 1.52454 24.9472 1.76987 25.2379C2.01521 25.5285 2.31787 25.7585 2.67787 25.9279C3.03787 26.0945 3.45254 26.1779 3.92187 26.1779ZM8.90987 21.1019H9.81787V21.9199H9.83987C10.0559 21.6212 10.3139 21.3879 10.6139 21.2199C10.9125 21.0519 11.2752 20.9679 11.7019 20.9679C12.0672 20.9679 12.4032 21.0372 12.7099 21.1759C13.0165 21.3145 13.2779 21.5125 13.4939 21.7699C13.7099 22.0272 13.8799 22.3465 14.0039 22.7279C14.1279 23.1092 14.1892 23.5385 14.1879 24.0159C14.1879 24.4799 14.1299 24.8999 14.0139 25.2759C13.9123 25.6266 13.7431 25.9541 13.5159 26.2399C13.301 26.5018 13.0286 26.7105 12.7199 26.8499C12.3871 26.9932 12.0281 27.0654 11.6659 27.0619C11.2699 27.0619 10.9259 26.9985 10.6339 26.8719C10.315 26.7249 10.0405 26.4966 9.83787 26.2099H9.81787V29.3239H8.90987V21.1019ZM11.5999 26.3019C11.8458 26.3059 12.0889 26.2486 12.3072 26.1352C12.5254 26.0217 12.712 25.8556 12.8499 25.6519C12.9872 25.4505 13.0899 25.2112 13.1579 24.9339C13.2245 24.6579 13.2579 24.3552 13.2579 24.0259C13.2589 23.7224 13.2253 23.4198 13.1579 23.1239C13.1 22.8646 12.9957 22.618 12.8499 22.3959C12.7187 22.1964 12.5418 22.0312 12.3339 21.9139C12.1133 21.7919 11.8638 21.7318 11.6119 21.7399C11.3268 21.7338 11.0444 21.7955 10.7879 21.9199C10.5583 22.0357 10.36 22.2052 10.2099 22.4139C10.0542 22.6339 9.94033 22.8807 9.87387 23.1419C9.73028 23.7233 9.72617 24.3305 9.86187 24.9139C9.92854 25.1899 10.0352 25.4305 10.1819 25.6359C10.3294 25.8409 10.5233 26.0082 10.7479 26.1239C11.013 26.252 11.3056 26.3131 11.5999 26.3019ZM17.6739 27.0519C17.2671 27.0587 16.8638 26.9768 16.4919 26.8119C16.1452 26.6519 15.8519 26.4332 15.6119 26.1559C15.3719 25.8799 15.1885 25.5565 15.0619 25.1859C14.933 24.8052 14.8688 24.4057 14.8719 24.0039C14.8719 23.5852 14.9372 23.1912 15.0679 22.8219C15.1985 22.4525 15.3852 22.1292 15.6279 21.8519C15.8737 21.5664 16.1791 21.3383 16.5226 21.1835C16.866 21.0287 17.2392 20.951 17.6159 20.9559C18.0492 20.9559 18.4319 21.0359 18.7639 21.1959C19.0959 21.3559 19.3739 21.5799 19.5979 21.8679C19.8219 22.1559 19.9919 22.4999 20.1079 22.8999C20.2239 23.2999 20.2819 23.7385 20.2819 24.2159H15.8019C15.8165 24.5079 15.8685 24.7805 15.9579 25.0339C16.0472 25.2872 16.1705 25.5079 16.3279 25.6959C16.4925 25.8905 16.6992 26.0451 16.9324 26.1481C17.1656 26.251 17.4192 26.2995 17.6739 26.2899C18.044 26.306 18.4095 26.2022 18.7159 25.9939C18.9999 25.771 19.1978 25.4564 19.2759 25.1039H20.1619C20.0285 25.7319 19.7445 26.2139 19.3099 26.5499C18.8752 26.8832 18.3299 27.0505 17.6739 27.0519ZM17.6179 21.6739C17.3715 21.6709 17.1271 21.7186 16.8999 21.8139C16.6972 21.9061 16.516 22.0396 16.3679 22.2059C16.2149 22.3815 16.0937 22.5825 16.0099 22.7999C15.9131 23.0343 15.8511 23.2815 15.8259 23.5339H19.3119C19.2825 22.9525 19.1239 22.4965 18.8359 22.1659C18.5452 21.8379 18.1392 21.6739 17.6179 21.6739ZM22.2399 21.8639H22.2619C22.4725 21.5879 22.7245 21.3692 23.0179 21.2079C23.3139 21.0479 23.6745 20.9679 24.0999 20.9679C24.7065 20.9679 25.1825 21.1265 25.5279 21.4439C25.8759 21.7612 26.0499 22.2225 26.0499 22.8279V26.8959H25.1419V22.9059C25.1419 22.5245 25.0259 22.2332 24.7939 22.0319C24.5632 21.8305 24.2419 21.7299 23.8299 21.7299C23.6118 21.7302 23.3956 21.7702 23.1919 21.8479C23.0048 21.9238 22.8338 22.0344 22.6879 22.1739C22.5426 22.3159 22.43 22.4879 22.3579 22.6779C22.278 22.8873 22.238 23.1098 22.2399 23.3339V26.8979H21.3319V21.1039H22.2399V21.8639ZM30.8179 27.0599C29.7205 27.0599 28.8732 26.8285 28.2759 26.3659C27.6772 25.9032 27.3639 25.2439 27.3359 24.3879H28.9359C28.9959 24.8759 29.1685 25.2232 29.4539 25.4299C29.7392 25.6365 30.1712 25.7399 30.7499 25.7399C30.9605 25.7399 31.1599 25.7212 31.3479 25.6839C31.522 25.6517 31.6896 25.5909 31.8439 25.5039C31.9825 25.4255 32.1005 25.3151 32.1879 25.1819C32.2775 25.0382 32.3228 24.8712 32.3179 24.7019C32.3246 24.5297 32.2755 24.3599 32.1779 24.2179C32.0713 24.081 31.9343 23.9708 31.7779 23.8959C31.5776 23.799 31.3678 23.7232 31.1519 23.6699C30.9079 23.6059 30.6319 23.5399 30.3239 23.4719C29.9735 23.3916 29.626 23.2996 29.2819 23.1959C28.9693 23.1041 28.6725 22.9652 28.4019 22.7839C28.1514 22.6116 27.9434 22.3845 27.7939 22.1199C27.6282 21.8004 27.5483 21.4435 27.5619 21.0839C27.5619 20.6852 27.6392 20.3359 27.7939 20.0359C27.9472 19.7359 28.1612 19.4839 28.4359 19.2799C28.7105 19.0772 29.0352 18.9252 29.4099 18.8239C29.7845 18.7225 30.1979 18.6719 30.6499 18.6719C31.5592 18.6719 32.2899 18.8859 32.8419 19.3139C33.3939 19.7419 33.6999 20.3652 33.7599 21.1839H32.1939C32.1485 20.7785 31.9832 20.4745 31.6979 20.2719C31.385 20.0621 31.0143 19.9558 30.6379 19.9679C30.1952 19.9679 29.8419 20.0545 29.5779 20.2279C29.4567 20.2969 29.3562 20.3971 29.2869 20.5181C29.2176 20.6391 29.1821 20.7764 29.1839 20.9159C29.1839 21.0812 29.2199 21.2185 29.2919 21.3279C29.3639 21.4372 29.4725 21.5332 29.6179 21.6159C29.7632 21.6985 29.9452 21.7699 30.1639 21.8299C30.3825 21.8899 30.6419 21.9539 30.9419 22.0219C31.3552 22.1125 31.7439 22.2119 32.1079 22.3199C32.4719 22.4292 32.7912 22.5739 33.0659 22.7539C33.3405 22.9339 33.5565 23.1632 33.7139 23.4419C33.8712 23.7205 33.9499 24.0772 33.9499 24.5119C33.9499 24.9172 33.8712 25.2799 33.7139 25.5999C33.5565 25.9199 33.3385 26.1865 33.0599 26.3999C32.7624 26.6233 32.4261 26.7895 32.0679 26.8899C31.6615 27.0063 31.2405 27.0635 30.8179 27.0599ZM38.3359 27.0599C37.2385 27.0599 36.3912 26.8285 35.7939 26.3659C34.8979 25.6719 34.8819 25.2439 34.8539 24.3879H36.4539C36.5139 24.8759 36.6865 25.2232 36.9719 25.4299C37.2572 25.6365 37.6892 25.7399 38.2679 25.7399C38.4785 25.7399 38.6779 25.7212 38.8659 25.6839C39.04 25.6517 39.2076 25.5909 39.3619 25.5039C39.5005 25.4255 39.6185 25.3151 39.7059 25.1819C39.7955 25.0382 39.8408 24.8712 39.8359 24.7019C39.8426 24.5297 39.7934 24.3599 39.6959 24.2179C39.5893 24.081 39.4523 23.9708 39.2959 23.8959C39.0956 23.799 38.8858 23.7232 38.6699 23.6699C38.4259 23.6059 38.1499 23.5399 37.8419 23.4719C37.4915 23.3916 37.144 23.2996 36.7999 23.1959C36.4873 23.1041 36.1905 22.9652 35.9199 22.7839C35.6694 22.6116 35.4614 22.3845 35.3119 22.1199C35.1462 21.8004 35.0663 21.4435 35.0799 21.0839C35.0799 20.6852 35.1572 20.3359 35.3119 20.0359C35.4665 19.7359 35.6805 19.4839 35.9539 19.2799C36.2272 19.0759 36.5519 18.9239 36.9279 18.8239C37.3039 18.7239 37.7172 18.6732 38.1679 18.6719C39.0759 18.6719 39.8065 18.8859 40.3599 19.3139C40.9119 19.7419 41.2179 20.3652 41.2779 21.1839H39.7119C39.6665 20.7785 39.5012 20.4745 39.2159 20.2719C38.903 20.0621 38.5323 19.9558 38.1559 19.9679C37.7132 19.9679 37.3599 20.0545 37.0959 20.2279C36.9747 20.2969 36.8742 20.3971 36.8049 20.5181C36.7356 20.6391 36.7001 20.7764 36.7019 20.9159C36.7019 21.0812 36.7379 21.2185 36.8099 21.3279C36.8819 21.4372 36.9905 21.5332 37.1359 21.6159C37.2812 21.6985 37.4632 21.7699 37.6819 21.8299C37.9005 21.8899 38.1599 21.9539 38.4599 22.0219C38.8732 22.1125 39.2619 22.2119 39.6259 22.3199C39.9899 22.4292 40.3092 22.5739 40.5839 22.7539C40.8585 22.9339 41.0745 23.1632 41.2319 23.4419C41.3892 23.7205 41.4679 24.0772 41.4679 24.5119C41.4679 24.9172 41.3892 25.2799 41.2319 25.5999C41.0732 25.9199 40.8552 26.1865 40.5779 26.3999C40.2804 26.6233 39.9441 26.7895 39.5859 26.8899C39.2032 27.0019 38.7865 27.0585 38.3359 27.0599ZM42.5799 18.8199H44.2139V25.5139H47.9999V26.8779H42.5799V18.8199Z" fill="#64FF37"/>
</g>
<defs>
<clipPath id="clip0_813_75">
<rect width="48" height="48" fill="white"/>
</clipPath>
</defs>
</svg>
