<svg width="44" height="48" viewBox="0 0 44 48" fill="none" xmlns="http://www.w3.org/2000/svg">
<g clip-path="url(#clip0_803_48)">
<path d="M43.988 34.0912C43.7015 34.6146 43.4498 35.1607 43.1224 35.6568C42.6358 36.3941 42.0279 37.0313 41.2609 37.4834C35.6931 40.7649 30.1131 44.0222 24.3725 47.0018C22.7308 47.8544 21.3725 47.8317 19.7445 46.9866C14.0266 44.0161 8.44812 40.8059 2.93031 37.4865C1.13248 36.4048 0.116836 34.7845 0.14109 32.53C0.203241 26.8029 0.215368 21.0743 0.136543 15.3472C0.101677 12.8151 1.20676 11.0037 3.26684 9.80518C8.72402 6.62834 14.2236 3.51978 19.9173 0.776833C20.4827 0.505269 21.0633 0.267082 21.6363 0.012207C21.9289 0.012207 22.2199 0.012207 22.5125 0.012207C23.1067 0.276185 23.7085 0.524992 24.2936 0.807175C29.5174 3.31648 34.5274 6.22631 39.598 9.02387C41.6111 10.1344 43.2892 11.471 43.988 13.7618V34.0927V34.0912ZM2.51041 23.8097C2.51041 26.6846 2.54225 29.5595 2.49374 32.4345C2.47706 33.4737 2.84846 34.2596 3.55183 34.9665C3.99143 35.408 4.52805 35.6856 5.05103 35.9921C10.2551 39.037 15.4454 42.1061 20.8268 44.8399C21.7212 45.2935 22.417 45.3011 23.3159 44.846C28.9823 41.9771 34.4349 38.7275 39.9057 35.5127C41.032 34.8512 41.6838 33.8287 41.6702 32.3723C41.6187 26.7438 41.6081 21.1153 41.6747 15.4883C41.6945 13.7527 40.9395 12.5754 39.5525 11.7805C34.1529 8.68404 28.7397 5.61188 23.1401 2.88107C22.3927 2.51696 21.7742 2.50786 21.0193 2.87349C17.6268 4.51956 14.3191 6.32796 11.016 8.14091C8.92714 9.28785 6.861 10.4757 4.79485 11.6636C3.30322 12.5208 2.41491 13.6814 2.48464 15.552C2.58772 18.301 2.51041 21.0576 2.51041 23.8112V23.8097Z" fill="#64FF37"/>
<path d="M11.8269 27.7496C12.9441 28.9482 14.1508 29.9358 15.509 30.7611C17.8162 32.1629 20.331 32.4846 22.952 32.2767C23.7736 32.2115 24.5861 32.0476 25.4062 31.9566C25.7988 31.9126 25.9277 31.7457 25.9262 31.3482C25.9125 27.9605 25.9155 24.5728 25.9216 21.1851C25.9216 20.8984 25.8231 20.6753 25.6548 20.4523C24.5558 18.9944 23.4598 17.5319 22.3775 16.0618C22.1804 15.7948 21.9849 15.7189 21.6453 15.7629C18.1997 16.209 14.7496 16.6231 11.3024 17.0692C10.8431 17.1283 10.6536 17.0813 10.6491 16.5533C10.64 15.7189 11.0068 15.1075 11.6102 14.6008C13.1548 13.3022 15.0254 12.7651 16.9461 12.4101C21.2178 11.6182 25.4593 11.7092 29.6279 13.0458C30.6496 13.3735 31.6077 13.8362 32.4581 14.5204C33.3252 15.2183 33.642 16.0861 33.4419 17.1678C32.4626 22.4504 31.4849 27.7345 30.5102 33.0171C30.4329 33.4403 30.2388 33.7832 29.9281 34.0821C28.6744 35.2867 27.1495 35.9512 25.479 36.2895C22.4442 36.9039 19.4412 36.8614 16.5171 35.7145C15.3438 35.2548 14.3206 34.563 13.4929 33.6057C12.7137 32.7045 12.1513 31.7199 12.1165 30.4668C12.0907 29.5596 11.9285 28.6569 11.8284 27.7527L11.8269 27.7496Z" fill="#64FF37"/>
<path d="M12.4285 19.6695C13.0909 20.017 13.667 20.3871 14.3036 20.6405C16.1909 21.393 18.157 21.7571 20.1686 21.9649C21.5041 22.103 22.8365 22.0848 24.172 22.0772C24.5828 22.0757 24.7314 22.1971 24.7193 22.6143C24.6495 25.119 24.601 27.6238 24.5358 30.127C24.5283 30.3986 24.4752 30.6777 24.122 30.7172C21.113 31.0494 18.1419 31.0251 15.4284 29.4413C13.9247 28.5629 13.0076 27.3128 12.9651 25.4255C12.9242 23.6368 12.618 21.8542 12.43 20.0685C12.4194 19.973 12.43 19.8759 12.43 19.6665L12.4285 19.6695Z" fill="#64FF37"/>
<path d="M24.4012 20.9423C20.1779 20.9196 16.1487 20.821 12.4424 18.2601C13.746 17.9142 14.8723 17.8763 15.9759 17.7185C17.6995 17.4727 19.4321 17.2891 21.1572 17.0555C21.4679 17.013 21.6938 16.9751 21.903 17.2876C22.6928 18.474 23.5083 19.6422 24.4012 20.9439V20.9423Z" fill="#64FF37"/>
</g>
<defs>
<clipPath id="clip0_803_48">
<rect width="44" height="48" fill="white"/>
</clipPath>
</defs>
</svg>
