<svg width="48" height="48" viewBox="0 0 48 48" fill="none" xmlns="http://www.w3.org/2000/svg">
<g clip-path="url(#clip0_803_44)">
<path d="M15.016 0L13.296 0.004C12.8133 0.00533333 12.3307 0.012 11.848 0.024C11.584 0.0306667 11.3207 0.0406667 11.058 0.054C10.2661 0.0839168 9.47706 0.166096 8.696 0.3C7.65495 0.484308 6.6459 0.817738 5.7 1.29C3.80138 2.2558 2.25753 3.79826 1.29 5.696C0.8 6.656 0.49 7.64 0.3 8.696C0.114 9.736 0.056 10.796 0.028 11.848C0.0150072 12.3306 0.00700681 12.8133 0.004 13.296L0 15.016V32.984L0.004 34.708C0.00666667 35.188 0.0146667 35.6693 0.028 36.152C0.056 37.204 0.114 38.266 0.3 39.304C0.49 40.36 0.8 41.344 1.29 42.304C2.2564 44.2026 3.80056 45.7453 5.7 46.71C6.66 47.198 7.64 47.51 8.696 47.7C9.736 47.886 10.796 47.948 11.848 47.976C12.3307 47.9893 12.8133 47.996 13.296 47.996C13.8693 48 14.4427 48.0013 15.016 48H32.984L34.704 47.996C35.1867 47.996 35.6693 47.9893 36.152 47.976C37.2094 47.9636 38.2645 47.8713 39.308 47.7C40.3505 47.5213 41.3603 47.1876 42.304 46.71C44.2011 45.7435 45.7435 44.2011 46.71 42.304C47.2 41.344 47.51 40.36 47.7 39.304C47.886 38.264 47.948 37.204 47.976 36.152C47.9893 35.6707 47.996 35.1893 47.996 34.708C48 34.1333 48.0013 33.5587 48 32.984V15.016L47.996 13.296C47.9945 12.8133 47.9878 12.3306 47.976 11.848C47.9634 10.7919 47.8711 9.73823 47.7 8.696C47.5217 7.65216 47.188 6.64093 46.71 5.696C45.7435 3.79887 44.2011 2.25648 42.304 1.29C41.3603 0.812378 40.3505 0.478682 39.308 0.3C38.2645 0.128666 37.2094 0.0364036 36.152 0.024C35.6707 0.0123683 35.1894 0.00570127 34.708 0.004L32.984 0H15.016ZM27.086 6.82C35.314 11.76 40.176 21.144 38.184 29.082C38.136 29.268 38.084 29.444 38.032 29.626L38.036 29.628C42.16 34.704 41.036 40.144 40.508 39.118C38.364 34.946 34.376 35.982 32.332 37.032C32.1471 37.1416 31.9597 37.247 31.77 37.348L31.73 37.372L31.726 37.376C27.496 39.622 21.812 39.786 16.102 37.332C11.4528 35.3171 7.52097 31.9444 4.822 27.656C6.12 28.616 7.522 29.46 9.016 30.16C15.054 32.988 21.118 32.782 25.41 30.156C19.302 25.46 14.202 19.34 10.292 14.382C9.54853 13.515 8.87634 12.5893 8.282 11.614C12.962 15.898 20.358 21.274 23.012 22.766C17.38 16.816 12.416 9.486 12.648 9.72C21.52 18.66 29.704 23.712 29.704 23.712C30.012 23.882 30.244 24.02 30.424 24.138C30.5947 23.7087 30.744 23.2633 30.872 22.802C32.288 17.626 30.692 11.706 27.086 6.818V6.82Z" fill="#64FF37"/>
</g>
<defs>
<clipPath id="clip0_803_44">
<rect width="48" height="48" fill="white"/>
</clipPath>
</defs>
</svg>
