<svg width="48" height="48" viewBox="0 0 48 48" fill="none" xmlns="http://www.w3.org/2000/svg">
<path d="M1.5 37.5001V39.7201C1.5 42.0001 3.822 43.5001 6 43.5001C8.814 43.5001 10.5 42.0001 10.5 39.7351V18.0001C10.5 12.8551 14.982 7.56607 21.45 7.49707C28.482 7.49707 33 12.1711 33 16.4971M33 16.4971C33.498 25.4671 28.734 28.9081 22.488 31.4971V43.4971H46.494V27.0001C46.617 25.0951 44.814 21.4681 42.393 19.5001C39.582 17.4241 36.174 16.5061 33 16.4971ZM34.5 43.5001V34.5001M18 19.5001C18.3978 19.5001 18.7794 19.342 19.0607 19.0607C19.342 18.7794 19.5 18.3979 19.5 18.0001C19.5 17.6022 19.342 17.2207 19.0607 16.9394C18.7794 16.6581 18.3978 16.5001 18 16.5001C17.6022 16.5001 17.2206 16.6581 16.9393 16.9394C16.658 17.2207 16.5 17.6022 16.5 18.0001C16.5 18.3979 16.658 18.7794 16.9393 19.0607C17.2206 19.342 17.6022 19.5001 18 19.5001Z" stroke="#64FF37" stroke-width="3" stroke-linecap="round" stroke-linejoin="round"/>
</svg>
