<svg width="48" height="48" viewBox="0 0 48 48" fill="none" xmlns="http://www.w3.org/2000/svg">
<g clip-path="url(#clip0_806_60)">
<path d="M19.2001 8.0001H22.4001M14.4001 12.8001V4.8001C14.4001 3.9514 14.7372 3.13747 15.3374 2.53736C15.9375 1.93724 16.7514 1.6001 17.6001 1.6001H30.4001C31.2488 1.6001 32.0627 1.93724 32.6628 2.53736C33.263 3.13747 33.6001 3.9514 33.6001 4.8001V20.8001C33.6001 21.6488 33.263 22.4627 32.6628 23.0628C32.0627 23.663 31.2488 24.0001 30.4001 24.0001H17.6001C16.7514 24.0001 15.9375 24.3372 15.3374 24.9374C14.7372 25.5375 14.4001 26.3514 14.4001 27.2001V43.2001C14.4001 44.0488 14.7372 44.8627 15.3374 45.4628C15.9375 46.063 16.7514 46.4001 17.6001 46.4001H30.4001C31.2488 46.4001 32.0627 46.063 32.6628 45.4628C33.263 44.8627 33.6001 44.0488 33.6001 43.2001V35.2001M25.6001 14.4001H4.8001C3.9514 14.4001 3.13747 14.7372 2.53736 15.3374C1.93724 15.9375 1.6001 16.7514 1.6001 17.6001V33.6001C1.6001 34.4488 1.93724 35.2627 2.53736 35.8628C3.13747 36.463 3.9514 36.8001 4.8001 36.8001H14.4001M22.4001 33.6001H43.2001C44.0488 33.6001 44.8627 33.263 45.4628 32.6628C46.063 32.0627 46.4001 31.2488 46.4001 30.4001V14.4001C46.4001 13.5514 46.063 12.7375 45.4628 12.1374C44.8627 11.5372 44.0488 11.2001 43.2001 11.2001H33.6001M25.6001 40.0001H28.8001" stroke="#64FF37" stroke-width="3.2"/>
</g>
<defs>
<clipPath id="clip0_806_60">
<rect width="48" height="48" fill="white"/>
</clipPath>
</defs>
</svg>
