<svg width="48" height="48" viewBox="0 0 48 48" fill="none" xmlns="http://www.w3.org/2000/svg">
<path d="M46.9763 10.8534C47 10.9015 47 10.9735 47 11.0455V21.3467C47 21.5868 46.8579 21.8749 46.6447 21.995L38.0937 26.9895V36.8584C38.0937 37.1226 37.9753 37.3627 37.7384 37.5067L19.9258 47.9039C19.8785 47.928 19.8311 48 19.7837 48H19.2626C19.2626 48 19.2626 47.928 19.1679 47.9039L1.3553 37.5067C1.24692 37.4379 1.15751 37.3423 1.09538 37.2289C1.03326 37.1156 1.00044 36.9881 1 36.8584V5.97899C1 5.85893 1 5.78689 1.02369 5.73887C1.02369 5.71486 1.04737 5.69085 1.04737 5.66683C1.04737 5.61881 1.07106 5.5948 1.09475 5.54677C1.09475 5.52276 1.11843 5.49875 1.14212 5.47474L1.21318 5.4027L1.28424 5.33067C1.30793 5.30665 1.33162 5.28264 1.3553 5.28264L10.2616 0.072036C10.4985 -0.024012 10.7827 -0.024012 10.9722 0.072036L19.9258 5.28264C19.9495 5.30665 19.9732 5.30665 19.9969 5.33067L20.068 5.4027L20.139 5.47474C20.1627 5.49875 20.1864 5.52276 20.1864 5.54677C20.2101 5.5948 20.2338 5.61881 20.2338 5.66683C20.2338 5.69085 20.2575 5.71486 20.2575 5.73887C20.2812 5.81091 20.2812 5.85893 20.2812 5.97899V25.1886L27.7188 20.9145V11.0455C27.7188 10.9735 27.7188 10.9015 27.7425 10.8534L27.7662 10.7814C27.7662 10.7814 27.7899 10.7094 27.8136 10.6613C27.8136 10.6373 27.8373 10.6133 27.861 10.5893L27.932 10.5173L28.0031 10.4452C28.0268 10.4212 28.0505 10.3972 28.0742 10.3972L37.0278 5.18659C37.2173 5.04252 37.5015 5.04252 37.7384 5.18659L46.6447 10.3972C46.6684 10.3972 46.6921 10.4212 46.7158 10.4452L46.7868 10.5173L46.8579 10.5893C46.8816 10.6133 46.8816 10.6373 46.9053 10.6613C46.9289 10.7094 46.9289 10.7814 46.9526 10.7814C46.9763 10.7814 46.9763 10.7814 46.9763 10.8534ZM45.5314 20.9145V12.3422L38.0937 16.6643V25.1886L45.5314 20.9145ZM36.6251 36.4262V27.8299L20.2812 37.2906V45.959L36.6251 36.4262ZM2.46859 7.17959V36.4262L18.8126 45.959V37.2906L10.2853 32.3922H10.2616C10.2379 32.3922 10.2142 32.3922 10.1905 32.3202C10.1668 32.3202 10.1432 32.2961 10.1195 32.2721L10.0484 32.2001C10.0247 32.1761 10.0247 32.1521 10.001 32.1281C9.97734 32.08 9.97734 32.056 9.95366 32.032C9.95366 31.984 9.92997 31.96 9.92997 31.936C9.90628 31.912 9.90628 31.8639 9.90628 31.8399V11.5498L2.46859 7.17959ZM10.6406 1.6088L3.22657 5.97899L10.6406 10.2531L18.0783 5.97899L10.6406 1.6088ZM18.8126 26.101V7.17959L11.3749 11.5498V30.4472L18.8126 26.101ZM37.3594 6.69935L29.9217 11.0455L37.3594 15.3677L44.7734 11.0455L37.3594 6.69935ZM36.6251 16.6643L29.1874 12.3422V20.9145L36.6251 25.1886V16.6643ZM19.5469 35.994L35.8435 26.5333L28.4531 22.2111L12.1565 31.7439L19.5469 35.994Z" fill="#64FF37"/>
</svg>
