<svg width="48" height="48" viewBox="0 0 48 48" fill="none" xmlns="http://www.w3.org/2000/svg">
<path d="M16.7642 3.69494C18.5642 2.58226 20.454 1.6218 22.3002 0.586438C22.6879 0.368976 23.1529 -0.114273 23.4732 0.0681539C23.7849 0.246956 23.5767 0.882428 23.5767 1.31373C23.5829 16.2667 23.5817 31.2196 23.5817 46.1713C23.5817 46.4069 23.5817 46.6437 23.5817 47.0001C21.2431 45.6796 18.9594 44.4787 16.7642 43.1268C16.8813 42.7801 16.905 42.4237 16.9038 42.0588C16.9 29.6261 16.9 17.1933 16.9038 4.7605C16.9038 4.39565 16.8813 4.04046 16.7642 3.69252V3.69494Z" fill="#64FF37"/>
<path d="M31.8977 43.316C30.2161 44.3791 28.4385 45.2852 26.7145 46.2807C26.3255 46.5054 25.9266 46.7144 25.5352 46.9295C25.3445 46.7603 25.4243 46.5683 25.4243 46.4003C25.4205 31.114 25.4205 15.8276 25.4205 0.541226C25.4205 -0.0990789 25.4355 -0.120825 26.0488 0.213825C27.5285 1.02085 29.0007 1.84237 30.4654 2.67477C30.9454 2.9478 31.4764 3.13748 31.8965 3.50717C31.8828 3.76812 31.8554 4.02787 31.8554 4.28882C31.8529 17.0369 31.8529 29.785 31.8554 42.5343C31.8554 42.7953 31.8828 43.055 31.8977 43.316Z" fill="#64FF37"/>
<path d="M31.8973 43.3157C31.8823 43.0547 31.8549 42.795 31.8549 42.534C31.8524 29.7859 31.8524 17.0378 31.8549 4.28849C31.8549 4.02754 31.8811 3.76779 31.896 3.50684C33.7073 4.43347 35.5049 5.38305 37.2114 6.48486C37.2114 9.51362 37.2077 12.5412 37.2152 15.5699C37.2152 15.9529 37.1952 16.3286 37.0718 16.6947C35.9848 16.0943 34.8978 15.4926 33.7248 14.8451C33.7248 16.5594 33.721 18.1831 33.7273 19.8056C33.7285 20.185 34.0426 20.3396 34.3294 20.493C35.0835 20.8965 35.8414 21.2904 36.5981 21.6891C36.9098 22.5348 36.8337 23.4155 36.835 24.2877C36.8375 26.0697 36.8287 27.8517 36.8412 29.6325C36.8437 30.0058 36.7851 30.3465 36.5832 30.6618C35.8103 30.2498 35.0362 29.8403 34.2645 29.4259C34.11 29.3425 33.9703 29.1178 33.7883 29.2604C33.6986 29.3292 33.7235 29.5564 33.7235 29.711C33.721 33.4864 33.6512 37.2642 33.7634 41.0359C33.7971 42.18 33.2623 42.6609 32.4009 43.0897C32.2351 43.1719 32.0631 43.2396 31.8935 43.3145L31.8973 43.3157Z" fill="#64FF37"/>
<path d="M16.7639 3.69482C16.881 4.04156 16.9047 4.39795 16.9035 4.7628C16.8997 17.1956 16.8997 29.6284 16.9035 42.0612C16.9035 42.426 16.881 42.7812 16.7639 43.1291C16.264 43.0264 15.9212 42.635 15.4512 42.461C15.1807 42.3608 15.2817 42.0358 15.2804 41.8038C15.2767 39.2293 15.2779 36.656 15.2779 34.0815C15.2779 27.908 15.2779 21.7345 15.2742 15.561C15.2742 15.3484 15.3378 15.1249 15.1907 14.8772C13.8469 15.6311 12.513 16.3813 11.1755 17.1267C10.8551 17.3055 10.5646 17.5459 10.1894 17.6221C9.72071 17.645 9.798 17.3164 9.798 17.0446C9.79675 14.4193 9.798 11.7953 9.798 9.17003C9.798 8.65175 9.82792 8.13105 9.67334 7.62364C10.7167 6.89151 11.891 6.37686 12.9905 5.73655C14.0675 5.10953 15.1695 4.52118 16.2578 3.91108C16.4198 3.82047 16.5682 3.70811 16.7626 3.69482H16.7639Z" fill="#64FF37"/>
<path d="M9.67375 7.62451C9.82833 8.13071 9.79841 8.65142 9.79841 9.17091C9.79841 11.7962 9.79841 14.4202 9.79841 17.0454C9.79841 17.3173 9.71987 17.6459 10.1898 17.6229C8.64283 18.5097 7.09583 19.3989 5.54758 20.2844C4.78094 20.723 4.0118 21.1543 3.24391 21.5892C2.91855 21.7716 2.73655 21.7837 2.74029 21.3149C2.76148 18.1207 2.76398 14.9252 2.77146 11.7309C2.77146 11.5521 2.75525 11.3866 2.96841 11.2706C5.16738 10.071 7.3601 8.86163 9.55533 7.65592C9.59023 7.63659 9.63386 7.63418 9.67375 7.62451Z" fill="#64FF37"/>
<path d="M37.0718 16.6942C37.1952 16.3282 37.2151 15.9536 37.2151 15.5695C37.2089 12.5407 37.2114 9.51314 37.2114 6.48438C37.6976 6.50854 38.0254 6.85889 38.4143 7.06669C39.7345 7.77223 41.0222 8.53214 42.3236 9.27151C42.3236 12.3232 42.3149 15.3737 42.3273 18.4255C42.3286 18.8241 42.3024 19.1697 41.906 19.3859C40.2942 18.4883 38.6836 17.5918 37.0718 16.6942Z" fill="#64FF37"/>
<path d="M41.9067 19.3859C42.3019 19.1696 42.3293 18.8253 42.3281 18.4254C42.3156 15.3737 42.3231 12.3232 42.3243 9.27148C43.6133 9.87071 44.81 10.6294 46.0591 11.2963C46.271 11.4099 46.2149 11.6068 46.2162 11.7808C46.2324 14.94 46.2436 18.098 46.2585 21.2573C46.2598 21.5605 46.2885 21.8831 45.8135 21.6125C44.5108 20.8719 43.2094 20.1289 41.9067 19.3859Z" fill="#64FF37"/>
<path d="M36.5859 30.6641C36.7879 30.3476 36.8465 30.0069 36.844 29.6348C36.8303 27.8528 36.8402 26.0708 36.8377 24.2901C36.8365 23.4178 36.9125 22.5383 36.6009 21.6914C37.648 22.2544 38.6951 22.8186 39.7448 23.3792C39.9442 23.4855 39.948 23.6606 39.948 23.8467C39.9554 26.6822 39.9642 29.5176 39.9704 32.3531C39.9704 32.3881 39.9417 32.4232 39.8956 32.5258C38.7737 31.9278 37.653 31.3455 36.5872 30.6665L36.5859 30.6641Z" fill="#64FF37"/>
</svg>
