<svg width="48" height="48" viewBox="0 0 48 48" fill="none" xmlns="http://www.w3.org/2000/svg">
<path d="M37.5376 14.3625L34.0876 17.8125C39.7501 23.475 39.7501 32.5875 34.0876 38.175C28.4251 43.8375 19.3126 43.8375 13.7251 38.175C8.0626 32.5125 8.0626 23.4 13.7251 17.8125L22.7251 8.8125L24.0001 7.5375V0.75L10.4251 14.325C2.8876 21.8625 2.8876 34.05 10.4251 41.625C17.9626 49.2 30.1501 49.1625 37.5751 41.625C45.1126 34.05 45.1126 21.9375 37.5376 14.3625Z" fill="#64FF37"/>
<path d="M33.2883 11.0601C33.314 9.67272 32.2101 8.52723 30.8228 8.50154C29.4355 8.47584 28.29 9.57968 28.2643 10.967C28.2386 12.3543 29.3424 13.4998 30.7298 13.5255C32.1171 13.5512 33.2626 12.4474 33.2883 11.0601Z" fill="#64FF37"/>
</svg>
