<svg width="48" height="48" viewBox="0 0 48 48" fill="none" xmlns="http://www.w3.org/2000/svg">
<path d="M14.4487 16.7739H0V31.2227H14.4487V16.7739ZM10.3763 28.2564C10.3763 28.2564 10.3575 28.2752 10.3463 28.2752H9.14625C9.14625 28.2752 9.12 28.2677 9.11625 28.2602L6.40125 24.2364C6.40125 24.2364 6.3825 24.2252 6.375 24.2364L5.29875 25.2639C5.29875 25.2639 5.28375 25.2864 5.28375 25.2977V27.9827C5.28375 27.9827 5.27625 28.0089 5.26875 28.0164L5.02125 28.2639C5.02125 28.2639 4.99875 28.2789 4.9875 28.2789H4.14C4.14 28.2789 4.11375 28.2714 4.10625 28.2639L3.85875 28.0164C3.85875 28.0164 3.84375 27.9939 3.84375 27.9827V20.0439C3.84375 20.0439 3.85125 20.0177 3.85875 20.0102L4.10625 19.7402C4.10625 19.7402 4.12875 19.7252 4.14 19.7252H4.99125C4.99125 19.7252 5.0175 19.7327 5.025 19.7402L5.26875 19.9989C5.26875 19.9989 5.28375 20.0214 5.28375 20.0327V23.3777C5.28375 23.3777 5.29125 23.3927 5.29875 23.3852L8.92875 19.7402C8.92875 19.7402 8.95125 19.7252 8.9625 19.7252H10.1475C10.1475 19.7252 10.17 19.7327 10.1737 19.7439L10.3425 20.1302C10.3425 20.1302 10.35 20.1564 10.35 20.1677V20.2202C10.35 20.2202 10.3425 20.2464 10.335 20.2539L7.41375 23.1639C7.41375 23.1639 7.40625 23.1864 7.41375 23.1939L10.59 27.7989C10.59 27.7989 10.5975 27.8214 10.59 27.8327L10.3725 28.2527L10.3763 28.2564ZM29.1075 28.1514C28.1813 28.1514 27.4575 27.8814 26.9363 27.3414C26.415 26.8014 26.1525 26.0589 26.1525 25.1102C26.1525 24.1614 26.3962 23.3739 26.88 22.8189C27.3638 22.2639 28.0312 21.9864 28.875 21.9864C29.6588 21.9864 30.2812 22.2264 30.735 22.7027C31.1887 23.1789 31.4175 23.8352 31.4175 24.6714V25.3539H27.4538C27.4725 25.9314 27.6262 26.3739 27.9225 26.6852C28.215 26.9964 28.6312 27.1502 29.1637 27.1502C29.5162 27.1502 29.8425 27.1164 30.1462 27.0489C30.45 26.9814 30.7762 26.8727 31.1213 26.7189V27.7464C30.8137 27.8927 30.5025 27.9977 30.1838 28.0577C29.8687 28.1177 29.5088 28.1477 29.1038 28.1477L29.1075 28.1514ZM28.875 22.9427C28.4737 22.9427 28.1512 23.0702 27.9075 23.3252C27.5419 23.7077 27.5213 23.9514 27.4725 24.4389H30.1725C30.165 23.9477 30.0487 23.5764 29.8162 23.3214C29.5838 23.0664 29.2725 22.9427 28.8675 22.9427H28.875ZM35.8763 21.9864C36.1312 21.9864 36.3412 22.0052 36.5062 22.0389L36.3825 23.2164C36.2025 23.1752 36.015 23.1527 35.8237 23.1527C35.3175 23.1527 34.9087 23.3177 34.5938 23.6477C34.2788 23.9777 34.1213 24.4052 34.1213 24.9339V28.0427H32.8575V22.0914H33.8475L34.0163 23.1414H34.08C34.2787 22.7852 34.5338 22.5039 34.8525 22.2977C35.1712 22.0914 35.5125 21.9864 35.8763 21.9864ZM41.3325 28.0464L41.0813 27.2177H41.04C40.7513 27.5814 40.4625 27.8252 40.1737 27.9564C39.885 28.0877 39.51 28.1514 39.0563 28.1514C38.4713 28.1514 38.0137 27.9939 37.6875 27.6789C37.3613 27.3639 37.1963 26.9177 37.1963 26.3402C37.1963 25.7252 37.425 25.2639 37.8787 24.9527C38.3363 24.6414 39.03 24.4689 39.96 24.4427L40.9875 24.4089V24.0902C40.9875 23.7114 40.8975 23.4264 40.7212 23.2389C40.545 23.0514 40.2675 22.9577 39.8962 22.9577C39.5925 22.9577 39.3 23.0027 39.0188 23.0927C38.7375 23.1827 38.4713 23.2877 38.2125 23.4114L37.8037 22.5077C38.1262 22.3389 38.4787 22.2114 38.865 22.1214C39.2475 22.0352 39.6113 21.9902 39.9525 21.9902C40.71 21.9902 41.28 22.1552 41.6663 22.4852C42.0525 22.8152 42.2438 23.3327 42.2438 24.0414V28.0502H41.34L41.3325 28.0464ZM39.45 27.1839C39.9075 27.1839 40.2788 27.0564 40.5563 26.7977C40.8338 26.5427 40.9725 26.1827 40.9725 25.7177V25.2002L40.2075 25.2339C39.6113 25.2564 39.18 25.3539 38.9062 25.5339C38.6362 25.7102 38.5013 25.9839 38.5013 26.3477C38.5013 26.6139 38.58 26.8202 38.7375 26.9627C38.895 27.1052 39.1313 27.1802 39.4463 27.1802L39.45 27.1839ZM48 26.3514C48 26.9327 47.79 27.3789 47.3662 27.6902C46.9425 28.0014 46.3387 28.1552 45.5475 28.1552C44.7562 28.1552 44.1188 28.0352 43.6388 27.7952V26.7039C44.34 27.0264 44.9888 27.1877 45.5925 27.1877C46.3725 27.1877 46.7588 26.9514 46.7588 26.4827C46.7588 26.3327 46.7175 26.2052 46.6312 26.1077C46.545 26.0064 46.4025 25.9052 46.2075 25.7964C46.0088 25.6877 45.735 25.5677 45.3825 25.4289C44.6962 25.1627 44.235 24.8964 43.9912 24.6339C43.7475 24.3677 43.6275 24.0227 43.6275 23.6027C43.6275 23.0927 43.8338 22.6989 44.2425 22.4177C44.655 22.1364 45.2137 21.9939 45.9187 21.9939C46.6237 21.9939 47.28 22.1364 47.9025 22.4177L47.4938 23.3702C46.8525 23.1039 46.3125 22.9727 45.8737 22.9727C45.2062 22.9727 44.8725 23.1639 44.8725 23.5427C44.8725 23.7302 44.9588 23.8877 45.135 24.0152C45.3075 24.1427 45.69 24.3227 46.2712 24.5477C46.7625 24.7389 47.1188 24.9114 47.3438 25.0689C47.565 25.2264 47.73 25.4102 47.8387 25.6164C47.9475 25.8227 48 26.0702 48 26.3552V26.3514ZM18.7388 27.9002C18.7388 27.9002 18.7463 27.9264 18.7537 27.9339L18.9975 28.1777C18.9975 28.1777 19.02 28.1927 19.0312 28.1927H19.86C19.86 28.1927 19.8862 28.1852 19.8937 28.1777L20.1375 27.9339C20.1375 27.9339 20.1525 27.9114 20.1525 27.9002V25.2714C20.1525 25.2714 20.16 25.2452 20.1675 25.2377L21.2213 24.2327C21.2213 24.2327 21.24 24.2252 21.2475 24.2327L23.9062 28.1702C23.9062 28.1702 23.925 28.1852 23.9363 28.1852H25.11C25.11 28.1852 25.1325 28.1777 25.14 28.1664L25.3538 27.7539C25.3538 27.7539 25.3575 27.7277 25.3538 27.7202L22.2413 23.2089C22.2413 23.2089 22.2375 23.1864 22.2413 23.1789L25.1025 20.3289C25.1025 20.3289 25.1175 20.3064 25.1175 20.2952V20.2427C25.1175 20.2427 25.1175 20.2164 25.11 20.2052L24.945 19.8264C24.945 19.8264 24.93 19.8077 24.9187 19.8077H23.76C23.76 19.8077 23.7337 19.8152 23.7262 19.8227L20.1712 23.3927C20.1712 23.3927 20.1562 23.3964 20.1562 23.3852V20.1114C20.1562 20.1114 20.1488 20.0852 20.1413 20.0777L19.905 19.8227C19.905 19.8227 19.8825 19.8077 19.8713 19.8077H19.035C19.035 19.8077 19.0087 19.8152 19.0012 19.8227L18.7575 20.0852C18.7575 20.0852 18.7425 20.1077 18.7425 20.1189V27.8889L18.7388 27.9002Z" fill="#64FF37"/>
</svg>
