<svg width="48" height="48" viewBox="0 0 48 48" fill="none" xmlns="http://www.w3.org/2000/svg">
<g clip-path="url(#clip0_822_39)">
<path d="M19.0038 47.9993C18.2529 47.9993 17.502 47.9993 16.7515 47.9993C14.9431 47.9506 13.1446 47.7946 11.3562 47.5155C9.57471 47.2373 7.81742 46.8586 6.1127 46.2592C5.35631 45.9932 4.62033 45.682 3.94142 45.2466C3.2919 44.8299 2.87792 44.2124 2.52065 43.552C1.84761 42.3083 1.41702 40.9712 1.0684 39.6067C0.661331 38.0128 0.394677 36.3931 0.223133 34.7563C0.0654232 33.2508 -0.0117036 31.7415 0.00143884 30.229C0.0284155 27.1257 0.378768 24.0618 1.16178 21.0546C1.9493 18.0293 3.14111 15.1846 4.89667 12.5913C5.93009 11.0646 7.15787 9.71221 8.51155 8.46916C9.84551 7.24421 11.2559 6.11847 12.7618 5.11526C15.7915 3.09665 19.0549 1.60749 22.592 0.744561C24.0252 0.395072 25.4785 0.167069 26.9512 0.0629886C28.1488 -0.0219469 29.3455 -0.0247316 30.5404 0.0776086C33.9136 0.365832 37.0584 1.34781 39.8861 3.25503C42.6706 5.13336 44.754 7.61911 46.1634 10.6771C46.9281 12.3362 47.431 14.0763 47.7187 15.8794C47.9335 17.2262 48.0262 18.5838 47.9937 19.9473C47.9158 23.1863 47.2477 26.3049 46.0821 29.3201C45.9382 29.6922 45.7871 30.0612 45.6391 30.4316C45.4153 30.4438 45.1912 30.4654 44.9671 30.465C44.8364 30.465 44.7585 30.5023 44.6987 30.6251C44.5673 30.8956 44.4072 31.1508 44.2411 31.4014C43.7767 32.1025 43.2402 32.7322 42.5091 33.1676C42.1248 33.3967 41.7136 33.5481 41.2478 33.5954C41.3297 33.3556 41.41 33.1342 41.4809 32.9097C41.6524 32.368 41.8108 31.8233 41.7818 31.2451C41.7579 30.7724 41.5137 30.4817 41.0499 30.4239C40.3133 30.3317 39.7129 30.6035 39.2681 31.1932C38.8665 31.7255 38.5992 32.3263 38.4733 32.9852C38.3056 33.8621 38.5667 34.4277 39.3251 34.8131C39.4614 34.8823 39.4607 34.922 39.3801 35.0425C38.5321 36.3088 37.4489 37.3552 36.3238 38.3623C36.1381 38.5287 35.9268 38.6602 35.6875 38.7375C35.141 38.914 34.7505 38.67 34.6568 38.1026C34.5797 37.6347 34.6623 37.1777 34.7498 36.7234C34.9985 35.4316 35.4115 34.1844 35.7836 32.926C36.0181 32.1334 36.2585 31.3426 36.4926 30.5496C36.5054 30.5068 36.5735 30.4097 36.486 30.4114C36.2377 30.4163 35.9787 30.3362 35.7407 30.4678C35.0051 30.8754 34.2684 31.2813 33.5369 31.6962C33.4034 31.7721 33.3474 31.7846 33.2675 31.621C32.9234 30.9158 32.3617 30.4974 31.5787 30.4013C31.0181 30.3327 30.4751 30.4243 29.9525 30.6262C28.6635 31.1236 27.5699 31.9068 26.6755 32.9619C25.7545 34.048 25.106 35.2705 24.9037 36.7039C24.894 36.7732 24.8733 36.8352 24.8196 36.8888C24.2908 37.4144 23.7561 37.9338 23.1658 38.3905C22.6916 38.7574 22.1683 39.017 21.5669 39.0755C20.6248 39.1674 19.8061 38.9384 19.2337 38.1134C19.0172 37.8011 18.8775 37.4537 18.7713 37.091C18.6582 36.7036 18.6589 36.7074 19.0397 36.588C20.1793 36.2309 21.2933 35.8132 22.3036 35.1587C22.9053 34.7689 23.4452 34.3111 23.7824 33.6577C24.3797 32.501 24.0373 30.9541 22.4097 30.535C21.6461 30.3383 20.889 30.4131 20.1478 30.6613C19.2227 30.9711 18.4736 31.5472 17.8168 32.256C16.654 33.5102 15.9229 34.9652 15.7887 36.6952C15.7831 36.7669 15.7513 36.8118 15.705 36.8571C15.1582 37.3886 14.6086 37.9174 14.011 38.3929C13.5835 38.733 13.1294 39.0223 12.5878 39.1465C11.885 39.3077 11.3873 39.0828 11.0494 38.4413C10.8319 38.0281 10.7534 37.5794 10.7371 37.1182C10.7174 36.5612 10.7741 36.0067 10.7987 35.4511C10.8091 35.2151 10.8865 35.0421 11.0429 34.8691C12.2658 33.5147 13.3781 32.0777 14.2372 30.4556C15.1226 28.7837 15.5912 27.0067 15.5684 25.1075C15.5625 24.6135 15.5096 24.1223 15.2654 23.6778C15.0707 23.3235 14.8525 23.2427 14.4769 23.3819C13.5116 23.7401 12.5477 24.1025 11.5817 24.4583C11.4759 24.4972 11.4126 24.5585 11.3621 24.657C10.5459 26.2482 9.84793 27.8908 9.26378 29.5815C8.46866 31.8825 7.79459 34.213 7.64622 36.6639C7.59469 37.5129 7.60921 38.3567 7.90596 39.1681C8.34623 40.3718 9.33295 41.3019 10.9235 41.1171C11.6709 41.0304 12.346 40.7512 12.9848 40.3701C13.9605 39.7877 14.8248 39.0585 15.6652 38.2979C15.7185 38.2498 15.7589 38.1792 15.8419 38.1708C16.1394 39.6593 17.1029 40.722 18.477 41.0283C19.6045 41.2797 20.7005 41.1296 21.7447 40.643C22.5671 40.2597 23.2695 39.6941 23.9491 39.1006C24.2566 38.8322 24.5533 38.5513 24.8677 38.2641C24.8733 38.2996 24.8764 38.3201 24.8795 38.3407C24.9812 39.0484 25.2288 39.6944 25.6836 40.2507C26.2235 40.9117 26.9017 41.2323 27.7656 41.1171C28.476 41.0224 29.0757 40.7004 29.6146 40.2455C30.4114 39.5733 31.0488 38.7594 31.6541 37.917C31.6925 37.8638 31.7333 37.8123 31.8004 37.7239C31.7869 38.113 31.7942 38.4538 31.8256 38.7932C31.8741 39.3147 31.9584 39.8277 32.2102 40.2956C32.5488 40.9256 33.1489 41.2198 33.8555 41.1268C34.3829 41.0572 34.8498 40.8449 35.2786 40.5427C36.0499 39.9994 36.7354 39.3522 37.4264 38.7131C38.6058 37.6226 39.689 36.4498 40.4879 35.0386C40.5249 34.9732 40.5758 34.9607 40.6408 34.9478C41.0247 34.8719 41.4048 34.7776 41.771 34.6373C41.9996 34.5499 42.2241 34.4514 42.4807 34.3452C42.4382 34.4204 42.4126 34.4692 42.3839 34.5155C42.0916 34.9871 41.8139 35.4675 41.5656 35.9642C41.1665 36.7628 40.8241 37.5811 40.6965 38.475C40.5232 38.6125 40.3997 38.7967 40.2569 38.962C38.8693 40.5688 37.3711 42.0521 35.61 43.2506C33.8012 44.4814 31.8547 45.4286 29.7958 46.1488C28.0205 46.7698 26.2006 47.2116 24.3458 47.5116C22.8441 47.7546 21.3341 47.9119 19.8141 47.969C19.5436 47.9791 19.2732 47.9896 19.0027 48L19.0038 47.9993ZM32.0363 22.4289C31.8249 22.4289 31.6368 22.4358 31.4493 22.4264C31.3241 22.4202 31.2356 22.4584 31.1467 22.5496C30.7033 23.0053 30.253 23.454 29.8038 23.9037C29.7616 23.9459 29.7301 24.0057 29.6447 24.0228V23.848C29.6447 23.0133 29.6447 22.1786 29.6447 21.3438C29.6447 20.9028 29.6447 20.9091 29.2065 20.9011C29.0612 20.8983 29.0256 20.9411 29.0259 21.0845C29.0311 22.6784 29.0291 24.2727 29.0291 25.8667C29.0291 26.3296 29.029 26.3268 29.4973 26.3171C29.6049 26.3147 29.6519 26.2896 29.6471 26.1698C29.6378 25.9324 29.6734 25.6902 29.6384 25.458C29.5637 24.9647 29.7391 24.6041 30.1268 24.3145C30.2299 24.2376 30.261 24.2369 30.326 24.3441C30.6283 24.8436 30.97 25.3222 31.2356 25.8405C31.4362 26.2318 31.6935 26.3958 32.1144 26.3157C32.1635 26.3063 32.2299 26.3415 32.259 26.2913C32.2891 26.2398 32.2286 26.1984 32.203 26.1573C31.7416 25.4093 31.2813 24.6605 30.813 23.9166C30.7403 23.8014 30.7479 23.7363 30.8441 23.6409C31.238 23.2507 31.6226 22.8508 32.0356 22.4292L32.0363 22.4289ZM21.349 26.4737C21.7803 26.481 22.1687 26.4163 22.5076 26.1768C22.8829 25.9116 23.0236 25.5363 22.9735 25.0866C22.9289 24.6842 22.675 24.4499 22.3212 24.3058C22.2202 24.2647 22.1158 24.2327 22.0113 24.2007C21.6544 24.091 21.2777 24.0527 20.9322 23.902C20.7361 23.8164 20.5829 23.6931 20.5919 23.4512C20.6013 23.2082 20.7379 23.053 20.953 22.9688C21.2186 22.8647 21.4929 22.8581 21.7657 22.9392C21.9266 22.9869 22.0895 23.0763 22.1137 23.2448C22.1538 23.524 22.3208 23.5341 22.5311 23.5125C22.5996 23.5055 22.6695 23.5083 22.7383 23.5121C22.8189 23.5167 22.8355 23.4763 22.8282 23.4056C22.7805 22.9479 22.5709 22.6067 22.132 22.4351C21.7782 22.2966 21.4116 22.298 21.0433 22.3502C20.7825 22.3871 20.5473 22.488 20.3363 22.6502C19.8501 23.0245 19.71 24.0604 20.5265 24.4057C20.7448 24.4979 20.9696 24.5655 21.1975 24.6264C21.4856 24.7033 21.7872 24.7378 22.0583 24.8721C22.3817 25.0323 22.4364 25.4117 22.1801 25.6665C22.1092 25.7368 22.0269 25.7901 21.9338 25.8228C21.5952 25.9415 21.257 25.9418 20.9219 25.8082C20.7534 25.741 20.6351 25.6244 20.5642 25.4528C20.5238 25.355 20.5719 25.206 20.456 25.1625C20.3595 25.1263 20.2402 25.152 20.1309 25.1506C20.079 25.1499 20.0268 25.1545 19.9756 25.1496C19.8826 25.1409 19.8611 25.1826 19.8615 25.2714C19.8629 25.7594 20.1679 26.1984 20.6289 26.3634C20.8703 26.4497 21.1207 26.48 21.3493 26.4734L21.349 26.4737ZM23.5306 24.4228C23.5306 24.5328 23.5217 24.6434 23.532 24.7524C23.6285 25.772 24.2462 26.5441 25.3779 26.473C26.0547 26.4306 26.5731 26.0146 26.7405 25.3466C26.803 25.0971 26.7102 24.9724 26.4621 24.9724C26.4562 24.9724 26.4504 24.9731 26.4448 24.9724C26.2511 24.94 26.1598 25.0023 26.1128 25.2161C26.027 25.6066 25.7711 25.8576 25.3619 25.9004C24.958 25.9429 24.6267 25.8016 24.4005 25.4496C24.25 25.2154 24.1854 24.9508 24.1656 24.6776C24.1304 24.1854 24.1632 23.7022 24.4544 23.2789C24.664 22.9743 24.9708 22.8626 25.3267 22.8925C25.6538 22.92 25.953 23.0666 26.0291 23.391C26.109 23.7314 26.294 23.7635 26.5645 23.7276C26.5928 23.7238 26.6222 23.7248 26.6506 23.7276C26.7267 23.7339 26.753 23.6987 26.745 23.6246C26.708 23.2685 26.5991 22.9447 26.3227 22.7018C25.583 22.0508 24.3655 22.2353 23.8513 23.0767C23.5991 23.4888 23.5151 23.9455 23.5303 24.4231L23.5306 24.4228ZM34.5925 24.4791C34.5925 24.9428 34.5894 25.4065 34.5935 25.8698C34.5963 26.1799 34.7453 26.3658 35.0438 26.4452C35.225 26.4936 35.4101 26.4765 35.5937 26.4643C35.8362 26.4483 35.8358 26.4448 35.8358 26.2054C35.8358 26.0262 35.7471 25.9376 35.5695 25.9394C35.3084 25.9418 35.2112 25.8726 35.2098 25.6526C35.205 24.7834 35.2077 23.9142 35.205 23.045C35.205 22.9566 35.232 22.9197 35.3236 22.9235C35.4616 22.9291 35.5999 22.9218 35.7383 22.9256C35.8144 22.9277 35.85 22.8943 35.8344 22.8229C35.8057 22.6927 35.9112 22.5389 35.7691 22.4313C35.7504 22.4174 35.713 22.4282 35.684 22.4282C35.5747 22.4282 35.4644 22.4202 35.3558 22.4303C35.2295 22.4417 35.1977 22.3878 35.2043 22.2712C35.2126 22.1211 35.2064 21.9701 35.2064 21.8193C35.2064 21.3289 35.2064 21.3317 34.7069 21.3529C34.6153 21.3567 34.5887 21.3853 34.5904 21.474C34.5952 21.6999 34.5921 21.9259 34.5918 22.1521C34.5918 22.3364 34.5017 22.4285 34.3217 22.4285C34.1545 22.4285 34.0709 22.5096 34.0709 22.6718C34.0709 22.8408 34.157 22.9252 34.3293 22.9252C34.3697 22.9252 34.4106 22.9298 34.45 22.9245C34.5652 22.9089 34.5956 22.9583 34.5942 23.0711C34.5883 23.5403 34.5918 24.0099 34.5921 24.4791H34.5925ZM27.4651 24.3587V25.9043C27.4651 26.316 27.4651 26.3094 27.8801 26.3185C28.0351 26.322 28.0856 26.2826 28.0845 26.1183C28.0769 25.0358 28.0807 23.9532 28.0807 22.8706C28.0807 22.4264 28.0807 22.4323 27.6453 22.425C27.5052 22.4226 27.4592 22.456 27.4613 22.6046C27.4703 23.1891 27.4647 23.7739 27.4647 24.3587H27.4651ZM32.8255 24.3622V25.8736C32.8255 26.3185 32.8255 26.3126 33.2616 26.3181C33.4055 26.3199 33.446 26.2767 33.4453 26.1326C33.4397 25.0497 33.4422 23.9667 33.4422 22.8838C33.4422 22.4233 33.4422 22.4289 32.9849 22.4254C32.8546 22.4243 32.821 22.4612 32.8224 22.5904C32.8293 23.1811 32.8255 23.7718 32.8255 24.3625V24.3622ZM28.0818 21.2916C28.0818 21.0331 27.9533 20.9039 27.6965 20.9039C27.6619 20.9039 27.627 20.9077 27.5931 20.9032C27.4827 20.8878 27.436 20.9279 27.444 21.0455C27.4526 21.1782 27.4461 21.3115 27.4461 21.4448C27.4461 21.6084 27.5256 21.6902 27.6847 21.6902C27.9494 21.6902 28.0818 21.5573 28.0818 21.2916ZM33.4422 21.2899C33.4422 21.1973 33.4404 21.1051 33.4429 21.0125C33.4442 20.9456 33.4283 20.9112 33.3495 20.9021C32.8082 20.8412 32.8086 20.8391 32.8086 21.3766C32.8086 21.3995 32.8086 21.4229 32.8086 21.4458C32.8086 21.6078 32.8883 21.6889 33.0479 21.6892C33.311 21.6892 33.4425 21.556 33.4425 21.2895L33.4422 21.2899Z" fill="#64FF37"/>
</g>
<defs>
<clipPath id="clip0_822_39">
<rect width="48" height="48" fill="white"/>
</clipPath>
</defs>
</svg>
