<svg width="48" height="48" viewBox="0 0 48 48" fill="none" xmlns="http://www.w3.org/2000/svg">
<g clip-path="url(#clip0_822_82)">
<path d="M43.6862 23.4775C41.7356 21.5667 39.7925 19.66 37.8441 17.7586C37.4674 17.3911 37.1836 16.9911 37.1622 16.4487C37.1313 15.6771 37.4546 15.1001 38.1482 14.74C38.813 14.3934 39.6058 14.4782 40.1745 14.9933C40.7998 15.5598 41.3888 16.1639 41.9917 16.7545C43.7758 18.4999 45.5589 20.2453 47.3398 21.9928C48.3887 23.0221 48.3845 23.978 47.3313 25.0125C42.1635 30.0833 36.9958 35.1552 31.827 40.2249C30.7727 41.2594 29.807 41.2584 28.7506 40.2218C23.5829 35.151 18.4151 30.0802 13.2485 25.0083C12.1793 23.9581 12.1771 23.0388 13.241 21.9939C18.4333 16.8979 23.6288 11.8041 28.8157 6.70288C29.3076 6.21915 29.854 5.90608 30.5646 6.02545C31.286 6.1469 31.8013 6.5563 32.0169 7.24839C32.2367 7.95305 32.0649 8.58337 31.525 9.11317C29.7174 10.8837 27.913 12.6584 26.1075 14.4321C23.1358 17.3502 20.1672 20.2715 17.1838 23.1781C16.917 23.4377 16.9245 23.5634 17.1838 23.8168C21.4562 27.9934 25.7202 32.1795 29.9799 36.3697C30.1858 36.5728 30.2989 36.6587 30.5582 36.4032C34.8755 32.147 39.2056 27.9034 43.5326 23.6566C43.5816 23.6084 43.6233 23.5508 43.6851 23.4786L43.6862 23.4775Z" fill="#64FF37"/>
<path d="M0.00015182 36.4052C-0.00625051 35.9058 0.190088 35.488 0.542216 35.1414C2.93562 32.7898 5.32476 30.434 7.72883 28.0928C8.51846 27.3242 9.60578 27.3253 10.3431 28.0457C11.0922 28.7775 11.0794 29.8623 10.2802 30.6507C7.91664 32.9824 5.54457 35.3058 3.17144 37.6271C2.55895 38.226 1.7896 38.382 1.08108 38.0564C0.372554 37.7318 0.0108224 37.1748 0.00015182 36.4052Z" fill="#64FF37"/>
<path d="M11.4277 18.3049C11.3829 19.0022 11.0479 19.5812 10.3255 19.887C9.60628 20.1916 8.92657 20.0807 8.35676 19.555C7.69839 18.9478 7.07096 18.307 6.43179 17.6798C4.65194 15.9333 2.8721 14.1869 1.09331 12.4383C0.554451 11.9085 0.399728 11.274 0.637681 10.5704C0.870299 9.88249 1.38675 9.48671 2.11128 9.37572C2.6907 9.28672 3.20608 9.46158 3.6169 9.86364C6.05405 12.2446 8.48587 14.6319 10.9156 17.0202C11.2559 17.3542 11.4128 17.7719 11.4267 18.3038L11.4277 18.3049Z" fill="#64FF37"/>
</g>
<defs>
<clipPath id="clip0_822_82">
<rect width="48" height="48" fill="white"/>
</clipPath>
</defs>
</svg>
