<svg width="48" height="48" viewBox="0 0 48 48" fill="none" xmlns="http://www.w3.org/2000/svg">
<path d="M32.5312 47L3 41.8756L6.93766 13.6878L32.5312 6M32.5312 47L45 44.4378L39.5951 9.30894L35.8117 9.20366L32.5312 6M32.5312 47V6" stroke="#64FF37" stroke-linecap="round" stroke-linejoin="round"/>
<path d="M13.3273 33.2557C14.3396 34.5275 15.6082 35 17.375 35H19.8201C20.9123 34.9997 21.9595 34.5814 22.7316 33.8372C23.5037 33.0929 23.9375 32.0837 23.9375 31.0314V31.0136C23.9375 29.9611 23.5035 28.9517 22.7312 28.2074C21.9588 27.4631 20.9112 27.045 19.8188 27.045H17.1239C16.5824 27.0452 16.0462 26.9426 15.5459 26.743C15.0455 26.5434 14.5909 26.2509 14.2079 25.882C13.825 25.5131 13.5212 25.0751 13.3139 24.5931C13.1067 24.111 13 23.5944 13 23.0726C13 22.0167 13.4353 21.004 14.2102 20.2574C14.985 19.5108 16.036 19.0913 17.1318 19.0913H19.5638C21.3293 19.0913 22.5979 19.5638 23.6101 20.8343M19.2904 9.14758C17.9823 4.5076 26.7757 -2.68354 29 6.26961" stroke="#64FF37" stroke-linecap="round" stroke-linejoin="round"/>
<path d="M13 12C14.8648 0.289398 26.3868 -3.60475 25.99 7.94623" stroke="#64FF37" stroke-linecap="round" stroke-linejoin="round"/>
</svg>
