<svg width="48" height="48" viewBox="0 0 48 48" fill="none" xmlns="http://www.w3.org/2000/svg">
<g clip-path="url(#clip0_811_8)">
<path d="M13.5262 20.0719C13.5289 20.6666 13.5876 21.1399 13.7022 21.492C13.8302 21.844 13.9902 22.2279 14.2142 22.6439C14.2942 22.7699 14.3262 22.8979 14.3262 23.0099C14.3289 23.1699 14.2276 23.3299 14.0222 23.4899L13.0162 24.1599C12.8938 24.2459 12.7496 24.2958 12.6002 24.304C12.4402 24.3013 12.2809 24.2266 12.1222 24.0799C11.9077 23.8486 11.7155 23.5975 11.5482 23.3299C11.3691 23.0234 11.2036 22.7091 11.0522 22.3879C9.80691 23.856 8.24224 24.5899 6.35824 24.5899C5.01824 24.5899 3.94824 24.2079 3.16624 23.4419C2.38224 22.6753 1.98891 21.6533 1.98624 20.3759C1.98624 19.0199 2.46424 17.9159 3.43824 17.0879C4.41224 16.2579 5.70424 15.8419 7.34824 15.8419C7.89224 15.8419 8.45024 15.8899 9.04024 15.9699C9.63224 16.0499 10.2402 16.1779 10.8762 16.3219V15.1559C10.8749 13.9439 10.6249 13.0926 10.1262 12.6019C9.61624 12.1059 8.75424 11.8679 7.52624 11.8679C6.96624 11.8679 6.39024 11.9299 5.80024 12.0739C5.20957 12.2153 4.63491 12.3966 4.07624 12.6179C3.89502 12.7011 3.70783 12.7707 3.51624 12.8259C3.43392 12.8522 3.34854 12.8677 3.26224 12.8719C3.03824 12.8746 2.92624 12.7099 2.92624 12.3779V11.5959C2.92624 11.3399 2.95824 11.1479 3.03824 11.0359C3.15921 10.8909 3.3127 10.7765 3.48624 10.7019C4.12603 10.3848 4.80057 10.1431 5.49624 9.98195C6.31011 9.77265 7.14794 9.67111 7.98824 9.67995C9.88824 9.67995 11.2762 10.1119 12.1702 10.9739C13.0502 11.8339 13.4916 13.1426 13.4942 14.8999V20.0719H13.5262ZM7.04624 22.4999C7.57224 22.4999 8.11424 22.4039 8.69024 22.2119C9.27488 22.008 9.79704 21.6567 10.2062 21.1919C10.4623 20.8959 10.6483 20.5459 10.7502 20.1679C10.8442 19.7859 10.9102 19.3219 10.9102 18.78V18.11C10.4254 17.9932 9.93473 17.9024 9.44024 17.8379C8.94274 17.7746 8.44176 17.7426 7.94024 17.742C6.87024 17.742 6.08824 17.9499 5.56024 18.3819C5.03424 18.8119 4.78024 19.4179 4.78024 20.2159C4.78024 20.9659 4.97024 21.526 5.37024 21.908C5.75224 22.308 6.31024 22.4999 7.04624 22.4999ZM19.8662 24.224C19.5782 24.224 19.3862 24.1759 19.2582 24.0639C19.1302 23.9679 19.0182 23.7439 18.9222 23.4419L15.1722 11.0999C15.0993 10.893 15.051 10.6782 15.0282 10.4599C15.0282 10.2039 15.1562 10.0599 15.4102 10.0599H16.9762C17.2789 10.0586 17.4856 10.1119 17.5962 10.2199C17.7262 10.3159 17.8222 10.5399 17.9162 10.8439L20.6002 21.412L23.0902 10.8439C23.1676 10.5239 23.2682 10.3159 23.3922 10.2199C23.5842 10.1024 23.8076 10.0466 24.0322 10.0599H25.3082C25.6122 10.0599 25.8202 10.1099 25.9482 10.2199C26.0742 10.3159 26.1882 10.5399 26.2502 10.8439L28.7722 21.54L31.5342 10.8439C31.6329 10.5239 31.7396 10.3159 31.8542 10.2199C32.0395 10.1023 32.2572 10.0463 32.4762 10.0599H33.9622C34.2162 10.0599 34.3622 10.1899 34.3622 10.4599C34.3622 10.5399 34.3442 10.6199 34.3282 10.7159C34.3049 10.8528 34.2674 10.9869 34.2162 11.1159L30.3702 23.4559C30.2742 23.7759 30.1622 23.9833 30.0342 24.0779C29.8546 24.1948 29.6422 24.2509 29.4282 24.238H28.0542C27.7522 24.238 27.5442 24.1899 27.4142 24.0779C27.2882 23.9659 27.1762 23.7579 27.1142 23.4379L24.6382 13.1419L22.1782 23.422C22.0982 23.742 22.0042 23.9499 21.8782 24.0619C21.7482 24.174 21.5242 24.2219 21.2382 24.2219L19.8662 24.224ZM40.3782 24.6539C39.5482 24.6539 38.7182 24.5579 37.9202 24.3679C37.1222 24.1759 36.5002 23.9679 36.0842 23.728C35.8282 23.5859 35.6542 23.4259 35.5902 23.2819C35.5298 23.1402 35.4972 22.9881 35.4942 22.8339V22.0199C35.4942 21.686 35.6222 21.5259 35.8602 21.5259C35.9562 21.5259 36.0522 21.5419 36.1482 21.5739C36.2442 21.6059 36.3882 21.6699 36.5482 21.7339C37.0922 21.9753 37.6776 22.1613 38.3042 22.2919C38.9422 22.4199 39.5642 22.4839 40.2042 22.4839C41.2082 22.4839 41.9922 22.3079 42.5342 21.9559C42.7941 21.799 43.0077 21.576 43.1535 21.3098C43.2993 21.0435 43.372 20.7434 43.3642 20.4399C43.3698 20.2345 43.3346 20.0299 43.2608 19.838C43.187 19.6462 43.076 19.4708 42.9342 19.3219C42.6462 19.0199 42.1022 18.7479 41.3202 18.492L39.0062 17.7719C37.8402 17.4059 36.9782 16.8639 36.4522 16.1459C35.9372 15.4835 35.6559 14.6691 35.6522 13.8299C35.6522 13.1606 35.7962 12.5699 36.0842 12.0579C36.3722 11.5479 36.7542 11.0999 37.2342 10.7499C37.7142 10.3819 38.2542 10.1099 38.8942 9.91995C39.5342 9.72795 40.2042 9.64795 40.9062 9.64795C41.2562 9.64795 41.6242 9.66395 41.9762 9.71195C42.3422 9.75995 42.6762 9.82395 43.0122 9.88795C43.3322 9.96528 43.6356 10.0499 43.9222 10.1419C44.2102 10.2379 44.4342 10.3339 44.5942 10.4299C44.7823 10.5254 44.9464 10.6622 45.0742 10.8299C45.1773 10.9853 45.2272 11.1699 45.2162 11.3559V12.1059C45.2136 12.4446 45.0909 12.6153 44.8482 12.6179C44.6354 12.5951 44.4294 12.5298 44.2422 12.4259C43.2778 11.9998 42.2325 11.7876 41.1782 11.8039C40.2682 11.8039 39.5482 11.9459 39.0542 12.2499C38.5602 12.5539 38.3042 13.0159 38.3042 13.6699C38.3042 14.1179 38.4642 14.5019 38.7842 14.8039C39.1022 15.1079 39.6922 15.4119 40.5382 15.6839L42.8062 16.3999C43.9542 16.7679 44.7862 17.2799 45.2802 17.9339C45.7742 18.5879 46.0142 19.3379 46.0142 20.1679C46.0142 20.8539 45.8702 21.478 45.6002 22.0199C45.3142 22.565 44.917 23.044 44.4342 23.426C43.9382 23.8259 43.3482 24.1119 42.6622 24.3199C41.9422 24.5419 41.1942 24.6539 40.3782 24.6539ZM43.3962 32.414C38.1442 36.294 30.5122 38.352 23.9522 38.352C14.7562 38.352 6.47224 34.952 0.21224 29.2999C-0.28176 28.854 0.16424 28.246 0.75624 28.5979C7.52424 32.524 15.8742 34.9039 24.5102 34.9039C30.3382 34.9039 36.7382 33.69 42.6302 31.2C43.5082 30.8 44.2582 31.774 43.3962 32.414ZM45.5842 29.922C44.9122 29.062 41.1442 29.5079 39.4362 29.716C38.9262 29.7799 38.8462 29.3319 39.3102 28.9959C42.3102 26.8899 47.2442 27.4959 47.8182 28.1979C48.3922 28.9179 47.6582 33.85 44.8482 36.212C44.4182 36.58 44.0022 36.388 44.1942 35.91C44.8342 34.33 46.2542 30.77 45.5842 29.922Z" fill="#64FF37"/>
</g>
<defs>
<clipPath id="clip0_811_8">
<rect width="48" height="48" fill="white"/>
</clipPath>
</defs>
</svg>
