<svg width="48" height="48" viewBox="0 0 48 48" fill="none" xmlns="http://www.w3.org/2000/svg">
<g clip-path="url(#clip0_811_10)">
<path d="M27.5436 46.2374L12 31H27.6083L31.8469 43.4861C32.7399 46.116 29.5199 48.174 27.5436 46.2374Z" stroke="#64FF37" stroke-linecap="round" stroke-linejoin="round"/>
<path d="M18.5302 37.1068L15.658 45.553C15.5139 45.9751 15.243 46.3413 14.883 46.6006C14.523 46.86 14.0919 46.9996 13.6496 47H2.26196C1.90185 46.9998 1.54698 46.9129 1.22683 46.7464C0.906688 46.58 0.630517 46.3388 0.421265 46.043C0.212014 45.7471 0.0757243 45.4051 0.0237212 45.0454C-0.0282819 44.6857 0.00550324 44.3187 0.122269 43.9748L14.1944 2.50565C14.8757 0.498117 17.6875 0.498117 18.3687 2.50565L24.3179 20.0368M24.3179 20.0368L20.6358 30.8655M24.3179 20.0368L28 30.8655" stroke="#64FF37" stroke-linecap="round" stroke-linejoin="round"/>
<path d="M16 1H32.1066C32.9355 1 33.672 1.53539 33.9413 2.33121L47.8632 43.6026C47.9937 43.9889 48.0316 44.4013 47.9736 44.8054C47.9156 45.2096 47.7634 45.5939 47.5297 45.9262C47.296 46.2586 46.9875 46.5294 46.63 46.7162C46.2724 46.9029 45.8762 47.0002 45.4741 47H29.3649" stroke="#64FF37" stroke-linecap="round" stroke-linejoin="round"/>
</g>
<defs>
<clipPath id="clip0_811_10">
<rect width="48" height="48" fill="white"/>
</clipPath>
</defs>
</svg>
