<svg width="48" height="48" viewBox="0 0 48 48" fill="none" xmlns="http://www.w3.org/2000/svg">
<path d="M35 9.71151C27.8733 2.83119 16.9979 3.57361 10.7068 11.3679C8.95918 13.5329 7.69173 16.2136 7 19" stroke="#64FF37" stroke-linecap="round" stroke-linejoin="round"/>
<path d="M16.5595 15.7316C20.1247 11.8861 26.094 11.2523 30.21 14.5237M30.21 14.5237L35.8342 9C38.4628 11.2911 40.3534 14.286 41.2742 17.6174C43.0519 18.798 44.5049 20.392 45.5038 22.2576C46.5027 24.1232 47.0166 26.2025 46.9996 28.3104C46.9434 35.3732 41.0696 41.0548 33.8797 40.9996H23.8686M30.21 14.5237C31.3817 15.4648 32.3207 16.6547 32.9564 18.004C33.592 19.3532 33.9077 20.8266 33.8797 22.313V23.2934C35.2072 23.2934 36.4804 23.8115 37.4191 24.7336C38.3578 25.6557 38.8852 26.9064 38.8852 28.2105C38.8852 29.5145 38.3578 30.7652 37.4191 31.6873C36.4804 32.6095 35.2072 33.1275 33.8797 33.1275H23.8686M23.8686 33.1275V40.9985H13.8587C11.0235 41.0107 8.26269 40.1085 6 38.4304M23.8686 33.1275L13.8587 33.1264C13.1453 33.1273 12.4402 32.9767 11.7917 32.6848" stroke="#64FF37" stroke-linecap="round" stroke-linejoin="round"/>
<path d="M13.7651 16.0001C6.67312 16.0421 0.958103 21.8103 1.00023 28.8832C1.02351 32.8326 2.87383 36.5919 6.01349 39L11.7263 33.2462C9.24183 32.1272 8.15094 29.2105 9.27399 26.7316C9.66506 25.8684 10.2975 25.136 11.0955 24.6223C11.8934 24.1086 12.8231 23.8354 13.7728 23.8354C14.7226 23.8354 15.6522 24.1086 16.4502 24.6223C17.2482 25.136 17.8806 25.8684 18.2717 26.7316L24 21.0198C22.7978 19.4525 21.2483 18.1838 19.4727 17.313C17.6972 16.4422 15.7437 15.9928 13.7651 16.0001Z" stroke="#64FF37" stroke-linecap="round" stroke-linejoin="round"/>
</svg>
