<svg width="48" height="48" viewBox="0 0 48 48" fill="none" xmlns="http://www.w3.org/2000/svg">
<path d="M37.1979 20.26C38.0046 20.3693 38.7802 20.5229 39.5294 20.7825C43.3283 22.0936 45.9956 24.6264 47.2542 28.4251C48.8796 33.3328 47.842 37.7456 44.2023 41.4438C42.1979 43.4796 39.6952 44.5786 36.8355 44.8393C36.4057 44.878 35.977 44.889 35.5471 44.889C27.4677 44.889 19.3871 44.889 11.3076 44.889C6.88887 44.889 2.91433 42.0038 1.54638 37.8031C-0.0989026 32.7507 2.06793 27.442 6.74964 25.0605C7.39273 24.7336 8.06565 24.4773 8.7673 24.3138C8.98277 24.263 9.06233 24.1537 9.12089 23.9648C10.3883 19.859 12.8733 16.7076 16.6015 14.5747C19.5208 12.9045 22.6821 12.234 26.0323 12.6151C30.9328 13.1729 34.756 15.5423 37.5814 19.5641C37.7449 19.7961 37.7095 19.9065 37.4808 20.0225C37.3825 20.0722 37.272 20.1219 37.199 20.2589L37.1979 20.26ZM35.7449 20.165C35.7228 20.1098 35.7217 20.0987 35.7151 20.0899C35.5836 19.9209 35.4565 19.7475 35.3173 19.5829C31.9162 15.5721 27.598 13.7981 22.3749 14.4554C19.1075 14.8663 16.2987 16.3376 14.0888 18.7831C10.4303 22.8304 9.35514 27.5392 10.806 32.7949C11.4258 35.0405 12.6081 36.9868 14.2269 38.6613C14.3971 38.8381 14.3916 38.9275 14.2159 39.0855C13.9374 39.3362 13.6689 39.6035 13.4269 39.8907C13.2203 40.1371 13.0888 40.1426 12.8623 39.8974C10.0026 36.7946 8.51979 33.1395 8.41813 28.9233C8.39714 28.0451 8.47228 27.1714 8.5883 26.2623C8.43692 26.3131 8.32421 26.3441 8.21703 26.3871C4.39276 27.9247 2.17621 31.9753 2.94305 36.0169C3.73089 40.1636 7.24025 43.0675 11.4689 43.0675C19.5396 43.0675 27.6102 43.0686 35.6819 43.0653C36.5979 43.0653 37.5029 42.9615 38.3935 42.7306C42.9813 41.5443 46.2277 37.3877 46.2133 32.5154C46.2056 29.8567 45.2951 27.5149 43.5404 25.509C39.967 21.4231 33.9195 20.7604 29.5969 24.031C26.8953 26.0745 25.5273 28.846 25.4003 32.226C25.3925 32.4259 25.3428 32.4834 25.1461 32.4767C24.7373 32.4624 24.3274 32.4546 23.9196 32.4789C23.6533 32.4944 23.5749 32.4237 23.5837 32.1487C23.6688 29.6413 24.4213 27.3537 25.8831 25.319C27.7627 22.7033 30.2886 21.0597 33.4565 20.4124C34.2035 20.26 34.9604 20.2147 35.746 20.1639L35.7449 20.165Z" fill="#64FF37"/>
<path d="M3.05472 15.6445C3.16612 15.6435 3.33264 15.6886 3.49112 15.7757C4.91286 16.5569 6.33805 17.3338 7.75979 18.1161C8.20997 18.3643 8.4029 18.791 8.26968 19.2004C8.08364 19.7742 7.42904 19.9956 6.83876 19.6743C5.73053 19.0725 4.62576 18.4643 3.51983 17.8582C3.16382 17.6637 2.80092 17.4789 2.45869 17.265C2.10383 17.0437 1.96258 16.6031 2.0912 16.2377C2.21523 15.8853 2.57698 15.6445 3.05587 15.6445H3.05472Z" fill="#64FF37"/>
<path d="M37.5523 7.21843C37.5741 7.41573 37.488 7.60288 37.3867 7.78553C36.6142 9.18127 35.8439 10.577 35.0704 11.9716C34.7882 12.4812 34.275 12.6503 33.8305 12.391C33.3969 12.1374 33.2433 11.5624 33.5091 11.0742C34.2979 9.62434 35.0933 8.17899 35.8962 6.73928C36.1348 6.31199 36.5303 6.15979 36.9531 6.28944C37.3104 6.3988 37.5545 6.76747 37.5523 7.21956V7.21843Z" fill="#64FF37"/>
<path d="M46.9555 16.5382C46.9418 16.9239 46.7165 17.1722 46.3769 17.357C45.0632 18.0758 43.7518 18.8001 42.4403 19.5221C42.3352 19.5802 42.23 19.6393 42.1236 19.6941C41.632 19.9455 41.0763 19.8176 40.8156 19.3943C40.5595 18.9784 40.7001 18.4261 41.1621 18.1639C42.0082 17.6836 42.8645 17.2227 43.7175 16.7542C44.3212 16.4232 44.9203 16.0847 45.5309 15.7645C46.1826 15.4218 46.9681 15.8548 46.9555 16.5382Z" fill="#64FF37"/>
<path d="M14.717 12.5095C14.3717 12.5311 14.1208 12.3541 13.9601 12.0614C13.1555 10.6013 12.3551 9.1389 11.5668 7.66972C11.3355 7.2386 11.4452 6.72581 11.784 6.43991C12.0902 6.18238 12.5702 6.17671 12.8688 6.43991C12.9632 6.52387 13.049 6.62937 13.1109 6.74169C13.9101 8.19159 14.7159 9.63922 15.4966 11.1005C15.8496 11.7619 15.4163 12.5129 14.717 12.5095Z" fill="#64FF37"/>
<path d="M25.0209 6.24059C25.0209 6.98638 25.0234 7.73216 25.0209 8.47794C25.0183 9.00101 24.5831 9.37901 23.9918 9.37799C23.4107 9.37697 22.9399 8.98671 22.9374 8.48305C22.9311 6.99148 22.9323 5.49991 22.9374 4.00835C22.9387 3.50264 23.4043 3.11545 23.988 3.11136C24.5895 3.10728 25.0183 3.47404 25.0209 4.00222C25.0234 4.748 25.0209 5.49378 25.0209 6.23957V6.24059Z" fill="#64FF37"/>
</svg>
