<svg width="48" height="48" viewBox="0 0 48 48" fill="none" xmlns="http://www.w3.org/2000/svg">
<path d="M47.8351 19.6917C47.6687 19.9469 47.4996 20.1992 47.3374 20.4557C47.2694 20.5624 47.2001 20.6525 47.0587 20.647C45.8761 20.647 44.692 20.6234 43.5094 20.6539C42.7288 20.6747 41.9358 21.3888 41.836 22.0778C41.8665 22.1707 41.9524 22.125 42.0107 22.1485C42.1077 22.2331 42.2228 22.1929 42.3295 22.1943C44.0473 22.1984 45.7665 22.1984 47.4843 22.1998L47.5024 22.2054L47.5204 22.1998C47.3554 22.4563 47.1765 22.7045 47.0296 22.9707C46.9298 23.1523 46.8036 23.205 46.6067 23.1967C46.274 23.1814 45.9412 23.1911 45.6085 23.1911C44.4245 23.1911 43.2404 23.1967 42.0564 23.1884C41.8429 23.1884 41.7861 23.241 41.8859 23.4365C41.9913 23.6417 42.0869 23.8525 42.2769 23.9994C42.6609 24.4514 43.16 24.6469 43.7423 24.6469C45.0816 24.6483 46.4209 24.6497 47.7602 24.651C47.8226 24.651 47.8836 24.651 48.0001 24.651C47.7713 25.0129 47.5675 25.3373 47.3623 25.659C47.293 25.7671 47.1807 25.7242 47.0837 25.7297C46.9644 25.7366 46.8438 25.7394 46.7246 25.7449C46.3558 25.7214 45.987 25.7228 45.6182 25.7449C45.2466 25.72 44.8751 25.7214 44.5035 25.7449C44.1347 25.7436 43.7659 25.7422 43.3971 25.7408C42.5042 25.6132 41.7556 25.2223 41.1788 24.5179C41.1552 24.4833 41.1303 24.4486 41.1067 24.4154C40.8904 24.0674 40.7324 23.693 40.6159 23.302C40.6104 23.2646 40.6062 23.2272 40.6007 23.1897C40.609 23.1107 40.6145 23.0331 40.5674 22.9637C40.5674 22.7461 40.5688 22.5298 40.5702 22.3121C40.6381 21.8837 40.7698 21.4761 40.9625 21.0893C41.0346 20.9811 41.1067 20.8716 41.1788 20.7635C41.4395 20.4626 41.7389 20.2047 42.0634 19.9746C42.1354 19.9358 42.2089 19.8956 42.281 19.8567C42.6956 19.6876 43.1254 19.5808 43.5704 19.5392C43.881 19.5573 44.1929 19.5656 44.5035 19.5337C44.8737 19.5614 45.2438 19.5614 45.614 19.5337C45.9842 19.5628 46.3544 19.5614 46.7232 19.5337C47.024 19.5406 47.3249 19.5448 47.6258 19.5573C47.7117 19.5614 47.8476 19.5157 47.8309 19.689L47.8351 19.6917Z" fill="#64FF37"/>
<path d="M0.0484988 23.3035C0.00413271 22.9347 -0.0180504 22.5645 0.0179971 22.1944C0.271716 20.8856 1.04812 20.044 2.3084 19.6378C2.67581 19.5726 3.04876 19.556 3.42032 19.5352C3.7905 19.5629 4.1593 19.5629 4.52948 19.5352C4.89966 19.5629 5.26984 19.5629 5.6414 19.5352C6.01158 19.5643 6.38038 19.5629 6.75056 19.5352C7.1249 19.5837 7.49369 19.6544 7.85416 19.7695C7.98865 19.8374 8.12175 19.9053 8.25623 19.9733C8.49193 20.1632 8.72901 20.3532 8.9647 20.5417C9.09642 20.722 9.22813 20.9022 9.35984 21.0824C9.45273 21.3126 9.56642 21.5386 9.63435 21.7756C9.89778 22.7101 9.73695 23.5863 9.22951 24.4057C9.14078 24.5153 9.05344 24.6248 8.9647 24.7343C8.63889 25.0574 8.26316 25.3111 7.85139 25.5135C7.4923 25.6327 7.1249 25.7118 6.74778 25.745C6.37899 25.7228 6.0102 25.7215 5.6414 25.745C5.26984 25.7215 4.89827 25.7215 4.52671 25.745C4.15791 25.7201 3.78912 25.7215 3.42171 25.745C3.04876 25.7284 2.67442 25.7201 2.30701 25.6438C2.17946 25.6036 2.05329 25.562 1.92574 25.5218C1.68173 25.3804 1.43771 25.2376 1.1937 25.0962L1.17568 25.0823L1.16736 25.0615H1.14517C0.906706 24.8425 0.690421 24.6054 0.490774 24.353C0.374313 24.1132 0.256465 23.8747 0.140004 23.6349C0.127526 23.596 0.115048 23.5572 0.103956 23.5184C0.106729 23.5115 0.113662 23.5045 0.110889 23.499C0.105343 23.4865 0.0970243 23.4768 0.0900921 23.4657C0.0914785 23.4075 0.092865 23.3479 0.0471124 23.3021L0.0484988 23.3035ZM8.47668 23.3118C8.62918 22.9458 8.64028 22.5742 8.53491 22.1944C8.47113 21.7327 8.2188 21.3833 7.86526 21.0991C7.61708 20.8758 7.33425 20.7289 7.00012 20.6887C6.91 20.6221 6.80463 20.6402 6.70619 20.6402C5.51385 20.636 4.32151 20.6332 3.12917 20.636C3.00301 20.636 2.86991 20.6166 2.75206 20.6901C1.98536 20.8661 1.47653 21.3195 1.25193 22.0807C1.10497 22.5174 1.1216 22.9486 1.30739 23.3714C1.4904 23.8733 1.82453 24.2338 2.31256 24.4501C2.34722 24.4653 2.38049 24.4806 2.41515 24.4945C2.73404 24.6581 3.0751 24.6691 3.4231 24.6373C4.54334 24.64 5.66359 24.6428 6.78383 24.6428C6.85454 24.6428 6.92525 24.6137 6.99734 24.5984C7.14015 24.5957 7.26909 24.5471 7.39109 24.4778C7.57549 24.421 7.73216 24.3198 7.86803 24.1839C8.16889 23.9607 8.37824 23.6737 8.48084 23.3104L8.47668 23.3118Z" fill="#64FF37"/>
<path d="M40.6712 24.8547C40.5409 25.0765 40.4106 25.2997 40.2803 25.5216C40.1902 25.5798 40.1735 25.7101 40.0626 25.7476C39.6938 25.724 39.325 25.7226 38.9562 25.7476C38.5847 25.724 38.2131 25.7226 37.8415 25.7476C37.4727 25.7226 37.1039 25.724 36.7351 25.7476C36.3636 25.724 35.992 25.7226 35.6204 25.7476C35.2752 25.7434 34.93 25.7392 34.5848 25.7337C34.4309 25.6741 34.2936 25.5881 34.1827 25.4647C34.1577 25.3912 34.1314 25.3191 34.1064 25.2457C34.1092 25.0432 34.1148 24.8408 34.1148 24.6384C34.1162 22.9525 34.1175 21.268 34.1189 19.582C34.4087 19.5308 34.6998 19.5668 34.991 19.5696C35.2045 19.5931 35.2392 19.7262 35.2378 19.919C35.2308 21.3872 35.2336 22.8554 35.235 24.3237C35.235 24.4318 35.2045 24.5469 35.278 24.6467C35.3709 24.7743 35.5095 24.741 35.6357 24.741C37.2162 24.741 38.7968 24.741 40.3787 24.7438C40.4813 24.7438 40.6324 24.6661 40.6726 24.8533L40.6712 24.8547Z" fill="#64FF37"/>
<path d="M10.4053 25.6895C10.4053 23.6556 10.4053 21.6217 10.4067 19.5878L10.4205 19.5822V19.5684C10.6784 19.5337 10.9391 19.5947 11.1942 19.5337H11.1997C11.5685 19.5656 11.9359 19.5614 12.3047 19.5351C12.6749 19.5642 13.0451 19.5628 13.4139 19.5351C13.784 19.5628 14.1542 19.5628 14.5258 19.5351C14.896 19.5642 15.2648 19.5628 15.6349 19.5351C16.0245 19.5781 16.3947 19.6904 16.7441 19.8678C16.7774 19.9274 16.8328 19.9593 16.8966 19.9801C17.2418 20.2824 17.4817 20.6553 17.6383 21.0837C17.6411 21.1031 17.6439 21.1212 17.6467 21.1406C17.6356 21.2044 17.6494 21.2626 17.6855 21.3153C17.7007 21.6092 17.6896 21.9017 17.6383 22.1915C17.4858 22.6213 17.2474 22.9942 16.9035 23.2979C16.837 23.3159 16.7843 23.352 16.7469 23.4116C16.2533 23.7013 15.707 23.7651 15.1358 23.7249L15.1317 23.8053C15.854 24.4001 16.5763 24.9963 17.2987 25.5911C17.3167 25.6465 17.4567 25.7311 17.2626 25.7339C17.0921 25.7352 16.9229 25.7422 16.7524 25.7463C16.6526 25.7422 16.5528 25.7394 16.4543 25.7311C16.1853 25.7103 15.9094 25.7838 15.646 25.6812C15.6058 25.6091 15.5434 25.5619 15.4713 25.5245C15.1816 25.2403 14.8779 24.9727 14.5563 24.7259L14.5507 24.7218C14.5272 24.658 14.4745 24.6261 14.4149 24.6011C14.3428 24.5387 14.2693 24.4764 14.1972 24.414C13.9601 24.1658 13.6967 23.9467 13.4236 23.7415C13.2738 23.5752 13.1074 23.4282 12.9217 23.3034C12.74 23.0955 12.521 22.9277 12.3047 22.7586C12.2908 22.7183 12.2506 22.6768 12.3075 22.6379C12.679 22.6601 13.0492 22.6587 13.4208 22.6352C13.7896 22.6601 14.1598 22.6587 14.5286 22.6352C14.8973 22.6379 15.2661 22.6615 15.6322 22.6379C16.1673 22.6019 16.5528 22.1402 16.5333 21.6009C16.5153 21.0713 16.1091 20.6664 15.5809 20.6498C14.3428 20.6179 13.1033 20.6262 11.8652 20.6456C11.7917 20.629 11.7182 20.622 11.6448 20.6525C11.5311 20.7246 11.5921 20.8369 11.5921 20.9271C11.5865 22.4424 11.5837 23.9592 11.5935 25.4746C11.5948 25.6867 11.538 25.763 11.3314 25.7311C11.2871 25.7242 11.2399 25.7394 11.1942 25.7436C10.9349 25.6867 10.6645 25.7921 10.408 25.6867L10.4053 25.6895Z" fill="#64FF37"/>
<path d="M33.3024 19.7114C33.3024 19.7419 33.301 19.7738 33.2996 19.8057C33.2635 19.8612 33.2289 19.9166 33.1928 19.9721C33.1124 20.0983 33.032 20.2258 32.9516 20.352C32.892 20.395 32.8531 20.4532 32.8393 20.5253C32.6895 20.7194 32.4705 20.5932 32.2903 20.6459C31.2712 20.6223 30.2536 20.6223 29.2345 20.6459L29.1264 20.6487C28.7008 20.6514 28.3347 20.8067 28.0172 21.084C27.3476 21.6095 27.0883 22.4608 27.3573 23.2483C27.4308 23.5311 27.5653 23.7779 27.7843 23.9747C27.8023 23.9969 27.8204 24.0191 27.8398 24.0413C28.0089 24.2368 28.2072 24.3879 28.4581 24.4628C28.6467 24.5959 28.8685 24.6402 29.0862 24.6402C30.5239 24.6458 31.9631 24.6375 33.4008 24.6347C33.6254 24.7304 33.3578 24.8149 33.3952 24.9064C33.24 25.0964 33.1027 25.2974 33.0001 25.5206C32.8448 25.8492 32.5329 25.6884 32.2903 25.7466C31.9187 25.7231 31.5471 25.7231 31.1756 25.7466C30.8068 25.7217 30.438 25.7244 30.0692 25.7466C29.6976 25.7466 29.326 25.7438 28.9545 25.7438C28.0685 25.6302 27.3296 25.2433 26.7431 24.5668C26.7223 24.5016 26.6849 24.4489 26.6294 24.4101C25.9639 23.3259 25.9182 22.2167 26.5005 21.084C26.836 20.5475 27.2949 20.1426 27.8467 19.8404C28.0561 19.7919 28.2432 19.6726 28.4623 19.6546C28.6536 19.7724 28.8366 19.6324 29.0266 19.6338C30.3312 19.6477 31.6359 19.6421 32.9391 19.6393C33.0362 19.6393 33.1443 19.674 33.2303 19.5908C33.3037 19.6019 33.2816 19.6671 33.2982 19.7114H33.3024Z" fill="#64FF37"/>
<path d="M17.8534 25.7465C17.8021 25.7215 17.7938 25.6771 17.8021 25.6272C17.8368 25.5745 17.87 25.5219 17.9047 25.4692C18.1446 25.1295 18.3747 24.7843 18.573 24.4169L18.5827 24.4002L18.6021 24.3933V24.3725C19.086 23.6626 19.5463 22.9389 19.9858 22.2013C20.0315 22.1722 20.0274 22.1278 20.0232 22.0821C20.3227 21.802 20.489 21.4305 20.697 21.088C20.9216 20.7442 21.1615 20.41 21.3667 20.0551C21.5788 19.6891 21.8769 19.4936 22.297 19.4756C22.6547 19.5505 22.8987 19.7626 23.0803 20.0787C23.2591 20.3893 23.4754 20.679 23.6751 20.9771C24.4251 22.2166 25.2113 23.4325 26.0154 24.6373C26.1526 24.8619 26.2941 25.0824 26.423 25.3097C26.5006 25.447 26.6476 25.5524 26.624 25.7381C26.2941 25.7395 25.9627 25.7423 25.6327 25.7437C25.447 25.7326 25.2501 25.7465 25.1669 25.5219C25.0172 25.2668 24.8688 25.0116 24.7191 24.7579C24.6747 24.6831 24.6262 24.6151 24.5222 24.6526C23.8109 24.6484 23.0983 24.6442 22.3871 24.6387C22.0737 24.6359 21.7022 24.7302 21.4609 24.5957C21.21 24.4543 21.0824 24.091 20.9064 23.8207C20.8634 23.7555 20.7691 23.689 20.8107 23.6058C20.8537 23.5212 20.9604 23.5656 21.0381 23.5656C21.9171 23.5642 22.7947 23.5628 23.6737 23.5684C23.8442 23.5684 23.9066 23.5323 23.7943 23.3701C23.664 23.1802 23.5406 22.9861 23.413 22.7947C23.316 22.5798 23.1829 22.3871 23.047 22.1958C22.803 21.7937 22.559 21.3916 22.315 20.991C22.2262 20.8454 22.1666 20.8814 22.1237 21.0215C21.8602 21.3792 21.6328 21.7591 21.411 22.1431C21.2114 22.4495 21.0062 22.7545 20.8121 23.0651C20.3019 23.8817 19.7972 24.7025 19.2912 25.5205C19.1969 25.6147 19.1414 25.7673 18.9667 25.7465C18.5952 25.7187 18.2236 25.7229 17.8506 25.7451L17.8534 25.7465Z" fill="#64FF37"/>
</svg>
