<svg width="48" height="48" viewBox="0 0 48 48" fill="none" xmlns="http://www.w3.org/2000/svg">
<g clip-path="url(#clip0_806_99)">
<path d="M22.1898 25.4695L25.4695 22.1898L28.7492 25.4695L25.4695 28.7492L22.1898 25.4695ZM26.5511 32.4826L32.4826 26.5511L35.1196 29.1868L29.1881 35.1196L26.5511 32.4826ZM37.1286 31.1959L31.1959 37.1286L38.5435 47L47 38.5435L37.1286 31.1959ZM29.6642 19.7444H21.2748V16.0146H29.6642V19.7444ZM21.2748 13.1763H29.6642L31.4495 1H19.4895L21.2748 13.1763ZM19.7444 21.2748V29.6642H16.0146V21.2748H19.7444ZM13.1763 29.6642V21.2748L1 19.4895V31.4495L13.1763 29.6642Z" stroke="#64FF37" stroke-linecap="round" stroke-linejoin="round"/>
</g>
<defs>
<clipPath id="clip0_806_99">
<rect width="48" height="48" fill="white"/>
</clipPath>
</defs>
</svg>
