<svg width="48" height="48" viewBox="0 0 48 48" fill="none" xmlns="http://www.w3.org/2000/svg">
<g clip-path="url(#clip0_806_103)">
<path d="M27.4219 39.8057L12.7198 25.3731C12.1083 24.7348 11.775 23.8871 11.791 23.0109V2.412C11.791 1.212 10.5688 0.0119999 9.34672 0.0119999H4.44425C3.22213 0.0119999 2 1.212 2 2.412V26.4051C2 27.6771 2.47663 28.9011 3.39497 29.8011L20.5047 46.596C21.458 47.532 22.7045 48 23.9633 48H26.4076C27.0558 48 27.6775 47.7471 28.1359 47.2971C28.5943 46.847 28.8518 46.2365 28.8518 45.6V43.2137C28.8518 41.9777 28.3752 40.7537 27.4219 39.8177V39.8057ZM46 2.4C46 1.188 44.7901 0 43.5558 0H38.6533C37.4312 0 36.209 1.2 36.209 2.4V22.9869C36.2114 23.8733 35.8605 24.7254 35.2313 25.3611L30.3062 30.1971C29.3901 31.0977 28.8757 32.3186 28.8763 33.5914V35.9914C28.8763 37.3234 29.9762 38.3897 31.3205 38.3897H33.7648C35.0113 38.3897 36.2701 37.9217 37.2234 36.9874L44.5561 29.7891C45.4727 28.8874 45.9878 27.6669 45.9878 26.3931V2.4H46Z" fill="#64FF37"/>
</g>
<defs>
<clipPath id="clip0_806_103">
<rect width="48" height="48" fill="white"/>
</clipPath>
</defs>
</svg>
