<svg width="48" height="48" viewBox="0 0 48 48" fill="none" xmlns="http://www.w3.org/2000/svg">
<path fill-rule="evenodd" clip-rule="evenodd" d="M16.3627 0.00223521C14.3761 0.000800525 12.4405 0.615592 10.8363 1.75757C9.23221 2.89954 8.04282 4.5094 7.44043 6.35398C6.83805 8.19857 6.85395 10.1821 7.48584 12.0173C8.11772 13.8525 9.33278 15.444 10.955 16.5615C9.7339 17.4035 8.738 18.5188 8.051 19.8137C7.36399 21.1085 7.00595 22.5451 7.00693 24.0027C7.00693 27.0748 8.56738 29.7941 10.9596 31.444C9.64909 32.3478 8.59937 33.5651 7.91144 34.9787C7.22352 36.3922 6.92054 37.9545 7.03166 39.5152C7.14278 41.0758 7.66426 42.5824 8.54592 43.8898C9.42758 45.1973 10.6398 46.2617 12.0658 46.9805C13.4919 47.6994 15.0838 48.0486 16.6885 47.9945C18.2931 47.9405 19.8565 47.4849 21.2282 46.6717C22.5998 45.8586 23.7336 44.7151 24.5205 43.3514C25.3073 41.9877 25.7207 40.4497 25.7208 38.8852V31.0622C26.6942 31.8305 27.8159 32.4006 29.0196 32.7385C30.2233 33.0765 31.4844 33.1755 32.7281 33.0297C33.9718 32.8838 35.1728 32.4961 36.2598 31.8896C37.3468 31.283 38.2978 30.47 39.0562 29.4986C39.8147 28.5272 40.3652 27.4173 40.6752 26.2348C40.9851 25.0522 41.0482 23.821 40.8606 22.6143C40.673 21.4075 40.2386 20.2497 39.5832 19.2096C38.9278 18.1695 38.0646 17.2682 37.045 16.5592C38.6672 15.4418 39.8823 13.8502 40.5142 12.0151C41.146 10.1799 41.1619 8.19633 40.5596 6.35175C39.9572 4.50717 38.7678 2.89731 37.1637 1.75533C35.5595 0.61336 33.6239 -0.00143218 31.6373 2.5053e-06L16.3627 0.00223521ZM22.2814 29.7695H16.3627C15.5855 29.7695 14.8158 29.6204 14.0978 29.3306C13.3797 29.0407 12.7272 28.616 12.1776 28.0805C11.628 27.545 11.192 26.9092 10.8946 26.2096C10.5971 25.5099 10.444 24.76 10.444 24.0027C10.444 23.2454 10.5971 22.4955 10.8946 21.7959C11.192 21.0962 11.628 20.4605 12.1776 19.925C12.7272 19.3895 13.3797 18.9647 14.0978 18.6749C14.8158 18.3851 15.5855 18.2359 16.3627 18.2359H22.2814V29.7695ZM16.3627 14.887H22.2814V3.35114H16.3627C14.7927 3.35114 13.287 3.95883 12.1768 5.04053C11.0666 6.12222 10.4429 7.58932 10.4429 9.11907C10.4429 10.6488 11.0666 12.1159 12.1768 13.1976C13.287 14.2793 14.7927 14.887 16.3627 14.887ZM37.5582 9.11795C37.5589 10.6466 36.9365 12.113 35.8279 13.1948C34.7194 14.2766 33.2154 14.8852 31.6464 14.887H25.7186V3.35114H31.6395C32.4168 3.35114 33.1864 3.5003 33.9045 3.79011C34.6226 4.07992 35.2751 4.5047 35.8247 5.0402C36.3743 5.5757 36.8103 6.21143 37.1077 6.91109C37.4052 7.61075 37.5582 8.36064 37.5582 9.11795ZM25.7186 23.996C25.7204 22.4689 26.3438 21.0048 27.4521 19.925C28.5604 18.8451 30.063 18.2377 31.6304 18.2359H31.6441C32.8142 18.2372 33.9575 18.5764 34.9298 19.2106C35.9021 19.8448 36.6596 20.7455 37.1067 21.7989C37.5539 22.8524 37.6705 24.0114 37.4419 25.1294C37.2133 26.2474 36.6497 27.2744 35.8224 28.0805C34.9951 28.8866 33.9411 29.4357 32.7936 29.6584C31.6461 29.8811 30.4567 29.7675 29.3754 29.3318C28.2942 28.8962 27.3698 28.1581 26.7189 27.2108C26.068 26.2634 25.7199 25.1494 25.7186 24.0094V23.996ZM16.3627 33.1184C15.1922 33.1184 14.048 33.4566 13.0747 34.0902C12.1015 34.7237 11.3428 35.6242 10.8948 36.6779C10.4468 37.7315 10.3294 38.8909 10.5576 40.0095C10.7858 41.1281 11.3493 42.1556 12.1768 42.9622C13.0043 43.7688 14.0587 44.3182 15.2067 44.541C16.3546 44.7637 17.5446 44.6499 18.6261 44.2137C19.7077 43.7776 20.6322 43.0388 21.2829 42.0907C21.9335 41.1427 22.281 40.028 22.2814 38.8875V33.1184H16.3627Z" fill="#64FF37"/>
</svg>
