<svg width="48" height="48" viewBox="0 0 48 48" fill="none" xmlns="http://www.w3.org/2000/svg">
<path d="M47.7939 17.9595L36.2068 4.29256C36.1295 4.20105 36.0341 4.12763 35.927 4.07718C35.82 4.02673 35.7038 4.00042 35.5861 4H12.4119C12.2942 4.00042 12.178 4.02673 12.071 4.07718C11.9639 4.12763 11.8685 4.20105 11.7912 4.29256L0.204081 17.9595C0.0693526 18.1188 -0.0033232 18.3241 0.000116762 18.5355C0.00355673 18.7469 0.0828679 18.9495 0.222703 19.1041L23.3969 44.7296C23.4743 44.8149 23.5679 44.883 23.6718 44.9295C23.7757 44.976 23.8878 45 24.0011 45C24.1143 45 24.2264 44.976 24.3303 44.9295C24.4343 44.883 24.5278 44.8149 24.6052 44.7296L47.7794 19.1041C47.9187 18.949 47.9972 18.7461 47.9999 18.5347C48.0026 18.3232 47.9292 18.1183 47.7939 17.9595ZM13.5065 19.3753L21.5905 40.2302L2.72841 19.3753H13.5065ZM32.7079 19.3753L23.999 41.8467L15.2901 19.3753H32.7079ZM15.7225 17.6669L23.999 6.27853L32.2755 17.6669H15.7225ZM34.4915 19.3753H45.2696L26.4075 40.2302L34.4915 19.3753ZM45.3482 17.6669H34.3446L25.6543 5.70837H35.2095L45.3482 17.6669ZM12.7885 5.70837H22.3437L13.6534 17.6669H2.64978L12.7885 5.70837Z" fill="#64FF37"/>
</svg>
