<svg width="48" height="48" viewBox="0 0 48 48" fill="none" xmlns="http://www.w3.org/2000/svg">
<g clip-path="url(#clip0_806_78)">
<path d="M39.4995 0.601569H8.49904C7.38235 0.600187 6.27636 0.819116 5.24441 1.24582C4.21245 1.67252 3.27482 2.29861 2.4852 3.08823C1.69558 3.87785 1.06949 4.81548 0.642789 5.84743C0.216089 6.87939 -0.00284026 7.98538 -0.00145834 9.10207V38.8981C-0.00284026 40.0148 0.216089 41.1208 0.642789 42.1527C1.06949 43.1847 1.69558 44.1223 2.4852 44.9119C3.27482 45.7015 4.21245 46.3276 5.24441 46.7543C6.27636 47.181 7.38235 47.3999 8.49904 47.3986H39.4995C40.6162 47.3999 41.7222 47.181 42.7542 46.7543C43.7861 46.3276 44.7238 45.7015 45.5134 44.9119C46.303 44.1223 46.9291 43.1847 47.3558 42.1527C47.7825 41.1208 48.0014 40.0148 48 38.8981V9.10207C48.0014 7.98538 47.7825 6.87939 47.3558 5.84743C46.9291 4.81548 46.303 3.87785 45.5134 3.08823C44.7238 2.29861 43.7861 1.67252 42.7542 1.24582C41.7222 0.819116 40.6162 0.600187 39.4995 0.601569ZM45.9765 38.1181C45.9821 39.0718 45.7991 40.0172 45.438 40.8999C45.077 41.7827 44.545 42.5854 43.8727 43.2619C43.2004 43.9383 42.401 44.4753 41.5205 44.8418C40.64 45.2083 39.6958 45.3972 38.742 45.3976H9.25804C7.33382 45.3948 5.48921 44.6292 4.12857 43.2685C2.76794 41.9079 2.00232 40.0633 1.99954 38.1391V9.85957C2.00232 7.93535 2.76794 6.09073 4.12857 4.7301C5.48921 3.36947 7.33382 2.60385 9.25804 2.60107H38.718C40.643 2.60147 42.489 3.36633 43.8501 4.72747C45.2113 6.08862 45.9761 7.93462 45.9765 9.85957V38.1181ZM18.9765 22.5001L24.579 33.2581C24.681 33.4216 24.6195 33.5776 24.4605 33.5776H20.976C20.7585 33.5776 20.6565 33.5236 20.562 33.3196C19.2825 30.6796 17.976 28.0396 16.6395 25.2031H16.602C15.3721 27.9344 14.1035 30.6482 12.7965 33.3436C12.705 33.4996 12.603 33.5611 12.438 33.5611H9.13954C8.93704 33.5611 8.92204 33.3976 9.02404 33.2806L14.5005 22.8421L9.20404 12.2806C9.07804 12.1171 9.20404 11.9986 9.31954 11.9986H12.7575C12.96 11.9986 13.0395 12.0391 13.1175 12.2161C14.3939 14.877 15.6415 17.5517 16.86 20.2396H16.8975C18.0615 17.5996 19.344 14.8576 20.577 12.2401C20.679 12.0766 20.7405 11.9746 20.937 11.9746H24.1545C24.318 11.9746 24.381 12.1006 24.2805 12.2566L18.9765 22.5001ZM25.5615 25.7581C25.5615 21.1021 28.656 17.4601 33.5775 17.4601C33.999 17.4601 34.218 17.4601 34.617 17.5006V12.2041C34.617 12.0781 34.7175 12.0001 34.8195 12.0001H37.9755C38.139 12.0001 38.1795 12.0616 38.1795 12.1561V30.5236C38.1795 31.0621 38.1795 31.7416 38.2815 32.4751C38.2815 32.6011 38.241 32.6386 38.118 32.7031C36.5182 33.4614 34.7705 33.8563 33 33.8596C28.656 33.8821 25.5615 31.2031 25.5615 25.7581ZM34.6185 20.6401C34.2487 20.5005 33.8558 20.4318 33.4605 20.4376C30.939 20.4376 29.181 22.3816 29.181 25.6021C29.181 29.2816 30.9765 30.7576 33.243 30.7576C33.7185 30.7576 34.2435 30.7036 34.6185 30.5401V20.6401Z" fill="#64FF37"/>
</g>
<defs>
<clipPath id="clip0_806_78">
<rect width="48" height="48" fill="white"/>
</clipPath>
</defs>
</svg>
