<svg width="48" height="48" viewBox="0 0 48 48" fill="none" xmlns="http://www.w3.org/2000/svg">
<g clip-path="url(#clip0_804_10)">
<path d="M21.8034 46C21.1341 45.5684 20.7702 44.9725 20.9243 44.1649C21.057 43.4697 20.6764 43.2803 20.1102 43.1884C19.6785 43.1179 19.232 43.0631 18.8309 42.9053C17.7476 42.4784 16.7868 42.1201 16.1425 43.6182C15.8724 44.2466 15.0815 44.2095 14.4845 43.892C13.4866 43.362 12.497 42.8097 11.5436 42.2036C10.7286 41.6857 10.5364 40.9032 11.1268 40.1337C11.6977 39.3883 11.4917 38.9391 10.8186 38.475C10.5206 38.2698 10.2514 38.0025 10.0231 37.7203C9.3166 36.8478 8.69927 36.0811 7.42283 37.066C6.78787 37.556 6.11298 36.988 5.7203 36.3336C5.23201 35.5205 4.75299 34.7018 4.28698 33.8757C3.64922 32.746 3.80054 32.0926 4.95351 31.4503C5.54671 31.1198 5.71844 30.8079 5.4056 30.1758C5.19951 29.7591 5.10668 29.2764 5.02313 28.8123C4.83004 27.7439 4.6908 26.7776 3.12751 27.0283C2.44798 27.1378 2.0126 26.4286 2.00703 25.6675C1.9996 24.6409 1.99589 23.6143 2.00703 22.5886C2.02096 21.3866 2.46562 20.8714 3.65479 20.9457C4.46522 20.9958 4.76135 20.6978 4.8449 19.9701C4.88667 19.61 4.95258 19.2406 5.08533 18.9064C5.52721 17.7925 5.86883 16.8105 4.36032 16.1162C3.69935 15.8117 3.82282 14.9828 4.17372 14.3544C4.6713 13.4634 5.17445 12.5732 5.71009 11.7044C6.3135 10.727 6.94568 10.5218 7.89906 11.1493C8.60273 11.6125 9.02418 11.5252 9.47999 10.8755C9.72878 10.5191 10.0388 10.1803 10.3879 9.92408C11.2865 9.26505 11.8128 8.63294 10.9588 7.49959C10.4891 6.87583 10.9105 6.20566 11.5167 5.82231C12.471 5.21804 13.4569 4.66019 14.4558 4.13203C15.32 3.67442 16.0905 3.93618 16.4702 4.78735C16.8555 5.64966 17.3354 5.67565 18.0669 5.32479C18.3891 5.16977 18.7632 5.1113 19.1196 5.04168C20.1965 4.83283 21.2316 4.71681 20.9837 3.09893C20.8788 2.41762 21.6122 2.00921 22.3697 2.00735C23.4326 2.0055 24.4965 1.98972 25.5584 2.01107C26.6028 2.03241 27.1431 2.51973 27.0623 3.57696C26.9927 4.49404 27.3724 4.79385 28.1782 4.86625C28.5383 4.89874 28.9078 4.97485 29.242 5.10944C30.2882 5.53085 31.2147 5.91699 31.8329 4.41235C32.1059 3.74868 32.9367 3.79695 33.5782 4.14688C34.539 4.6704 35.5035 5.19205 36.429 5.77497C37.3026 6.3254 37.4084 6.98629 36.779 8.02403C36.442 8.5791 36.43 8.92904 36.9832 9.36437C37.6117 9.85911 38.1919 10.443 38.6876 11.0714C39.1072 11.6041 39.4322 11.5438 39.9455 11.2421C41.1746 10.5191 41.6963 10.6806 42.4297 11.917C42.8576 12.6382 43.2772 13.365 43.6913 14.0955C44.3559 15.2678 44.2371 15.8878 43.0842 16.532C42.4464 16.8885 42.2951 17.2319 42.6237 17.89C42.8316 18.3049 42.931 18.7913 42.9978 19.2563C43.1519 20.3312 43.3747 21.2279 44.8275 20.9503C45.3799 20.8445 45.6695 21.4284 46 21.8043V26.2031C45.6723 26.5818 45.379 27.1601 44.8285 27.0561C43.3868 26.7841 43.1417 27.6567 43.0006 28.7436C42.9449 29.1734 42.853 29.6245 42.6571 30.0041C42.2802 30.7337 42.4018 31.1579 43.1807 31.5125C44.0348 31.9014 44.3355 32.6477 43.8936 33.509C43.3636 34.5449 42.7713 35.5539 42.1428 36.5341C41.7827 37.0966 41.1115 37.5059 40.5517 37.0585C39.3625 36.109 38.7192 36.7355 38.0341 37.6517C37.7751 37.9988 37.4409 38.3135 37.0816 38.5557C36.442 38.9874 36.3529 39.4134 36.8291 40.0502C37.4381 40.8651 37.31 41.6578 36.4476 42.2101C35.4979 42.8181 34.5084 43.3704 33.5095 43.8948C32.9144 44.2076 32.1189 44.241 31.8534 43.6117C31.2128 42.095 30.2427 42.4932 29.1668 42.9035C28.7639 43.0576 28.3183 43.1068 27.8876 43.1801C27.3241 43.2757 26.9481 43.4753 27.08 44.164C27.235 44.9715 26.8627 45.5628 26.2008 45.9972H21.8015L21.8034 46ZM35.6205 7.29909C35.7551 6.90925 35.4924 6.84149 35.3188 6.7366C34.8193 6.43493 34.2735 6.19638 33.813 5.84551C33.0528 5.26538 32.5747 5.36563 32.2479 6.28641C31.9081 7.24433 31.3298 7.41326 30.3746 6.96308C29.2225 6.41915 27.9554 6.14533 26.6873 5.99588C26.004 5.91513 25.7413 5.65244 25.7283 4.96093C25.6977 3.36254 25.6698 3.36347 24.1121 3.36347C23.9655 3.36347 23.8151 3.38482 23.673 3.35976C22.5591 3.16855 22.0652 3.56675 22.2527 4.74465C22.3409 5.29787 22.3158 5.87707 21.5295 5.96711C19.9978 6.14254 18.5292 6.56859 17.107 7.14594C16.5788 7.36036 16.3124 7.17843 16.0246 6.76259C15.049 5.35634 15.0388 5.36377 13.5321 6.23908C13.5005 6.25764 13.4755 6.29013 13.442 6.30127C12.381 6.6642 12.0848 7.24155 12.8748 8.17904C13.4077 8.81115 13.2685 9.32353 12.6001 9.81919C11.5084 10.6295 10.5689 11.6125 9.73806 12.6892C9.34538 13.1979 8.96941 13.3538 8.34558 13.0076C6.98188 12.2502 6.96517 12.2808 6.18075 13.636C6.12598 13.7307 6.08234 13.8346 6.01365 13.9182C5.31091 14.774 5.23943 15.4488 6.47781 15.8711C7.25574 16.1366 7.3857 16.6759 7.04037 17.4333C6.47781 18.666 6.16311 19.9859 5.99137 21.3244C5.90318 22.0103 5.63582 22.2656 4.9498 22.2786C3.36052 22.3102 3.36052 22.3361 3.36052 23.9039C3.36052 24.0868 3.38837 24.2752 3.35588 24.4525C3.16371 25.506 3.56475 25.9302 4.63974 25.7483C5.52907 25.5979 5.92917 25.9358 6.03129 26.9159C6.16682 28.2127 6.53444 29.4917 7.07564 30.6938C7.35135 31.3055 7.24738 31.6879 6.66254 32.0508C5.33505 32.8741 5.3499 32.8983 6.1464 34.2804C6.20117 34.3751 6.26522 34.467 6.3005 34.5691C6.66718 35.6514 7.25945 35.889 8.18313 35.1186C8.81995 34.5876 9.32589 34.7399 9.82439 35.4091C10.6357 36.4988 11.6179 37.4419 12.6975 38.2689C13.2211 38.669 13.3427 39.0514 13.0039 39.664C12.2529 41.0201 12.2807 41.0359 13.6453 41.8268C13.74 41.8815 13.8449 41.9242 13.9276 41.9938C14.7937 42.7234 15.4528 42.7383 15.8733 41.5195C16.1407 40.7445 16.6819 40.6164 17.4366 40.9626C18.6694 41.5279 19.9904 41.8388 21.329 42.0124C22.016 42.1015 22.2666 42.3707 22.2787 43.0557C22.3066 44.6457 22.3344 44.6457 23.9033 44.6457C24.0499 44.6457 24.2003 44.6244 24.3424 44.6495C25.4721 44.849 25.9418 44.4174 25.7497 43.2581C25.6188 42.4691 25.9168 42.0867 26.7996 41.991C28.1754 41.8416 29.5159 41.4425 30.7951 40.8976C31.3382 40.6665 31.6547 40.7677 31.9843 41.2466C32.9497 42.6529 32.9655 42.6427 34.4722 41.7655C34.5353 41.7284 34.5882 41.6671 34.655 41.6448C35.7634 41.281 35.8043 40.6628 35.1201 39.8265C34.6003 39.1906 34.7237 38.6848 35.4023 38.1817C36.494 37.3723 37.4363 36.3884 38.2643 35.3107C38.6672 34.7863 39.0488 34.6628 39.6577 34.996C41.0233 35.7432 41.0363 35.7182 41.8226 34.3658C41.8773 34.2711 41.9219 34.1681 41.9906 34.0836C42.6887 33.2297 42.7722 32.5558 41.5274 32.1334C40.7541 31.8717 40.612 31.3277 40.9602 30.5722C41.5283 29.3395 41.8365 28.0168 42.011 26.6793C42.1011 25.9914 42.361 25.7399 43.0489 25.7269C44.6474 25.6981 44.6465 25.6712 44.6465 24.1109C44.6465 23.9642 44.6252 23.8139 44.6502 23.6718C44.8415 22.558 44.4441 22.0642 43.2652 22.2507C42.7175 22.3371 42.1336 22.3259 42.0417 21.5342C41.8625 20.0035 41.4401 18.5323 40.8608 17.1112C40.6464 16.584 40.8283 16.3158 41.2424 16.0271C42.6497 15.045 42.6432 15.0348 41.7724 13.5376C41.7177 13.4429 41.6341 13.3603 41.5988 13.2591C41.2544 12.2966 40.6956 12.1787 39.9279 12.8173C39.2131 13.4123 38.6635 13.2768 38.1158 12.5231C37.3165 11.4222 36.3084 10.5051 35.2352 9.67161C34.7321 9.28083 34.6643 8.87706 35.0032 8.35447C35.2408 7.98783 35.445 7.59891 35.6205 7.29538V7.29909Z" fill="#64FF37"/>
<path d="M24.054 8.00094C32.7655 7.99156 39.9906 15.2299 40 23.9733C40.0094 32.7758 32.8012 39.9962 24.0005 40C15.2138 40.0047 7.99156 32.7701 8.00001 23.9714C8.00751 15.1801 15.2157 8.00938 24.0549 8L24.054 8.00094ZM16.8655 36.5948C17.0785 33.7075 17.0569 30.8306 17.1517 27.9565C17.1855 26.9403 16.9528 26.3519 16.0443 25.7486C12.467 23.3727 12.864 17.7821 16.6703 15.912C17.5918 15.4588 17.9869 15.6812 18.0113 16.689C18.0301 17.4669 18.0141 18.2447 18.0151 19.0226C18.017 19.8727 18.7095 20.7454 19.4237 20.7989C20.1425 20.8524 20.897 19.9394 20.8989 19.0142C20.8999 18.347 20.8914 17.6808 20.9017 17.0136C20.9092 16.5829 20.775 16.0866 21.2377 15.8032C21.736 15.4973 22.1686 15.8163 22.5722 16.0565C26.2593 18.2522 26.3325 23.7105 22.6566 25.9419C21.9321 26.382 21.7379 26.8108 21.7679 27.5915C21.8815 30.5153 21.9443 33.4401 22.0044 36.3658C22.0523 38.7032 22.102 38.7595 24.5232 38.5878C26.1605 38.4715 27.1468 37.6219 27.4821 36.0393C27.5966 35.4979 27.7054 34.9546 27.7843 34.4085C27.819 34.1692 28.0658 33.9393 27.849 33.6794C27.1405 32.8311 27.606 31.8393 27.5178 30.916C27.4802 30.5294 27.758 30.2272 28.1184 30.2638C28.9245 30.3474 28.902 29.8773 28.8832 29.3227C28.8588 28.6199 28.8794 27.9152 28.8766 27.2114C28.871 25.3779 29.1112 23.5003 27.9372 21.8723C27.7702 21.6406 27.7955 21.3994 27.8612 21.1329C28.1794 19.8446 28.5116 18.5591 28.7762 17.2595C28.9151 16.5782 29.2708 16.3615 29.9286 16.3681C32.7017 16.3962 32.1199 16.1588 32.6923 18.5572C32.7608 18.8443 32.8059 19.139 32.9025 19.4158C33.399 20.8345 33.5031 22.1961 32.5234 23.4919C32.224 23.8879 32.3573 24.4255 32.3554 24.9041C32.3507 26.2375 32.3489 27.5708 32.3554 28.9051C32.3592 29.5573 32.0927 30.383 33.2667 30.3126C33.4037 30.3042 33.6693 30.5998 33.6871 30.7734C33.7744 31.647 34.0052 32.5872 33.5707 33.3782C33.2507 33.9618 33.3004 34.3644 33.5829 34.8776C38.2451 31.1374 39.8583 24.0962 37.4155 18.3142C34.801 12.1249 28.5801 8.66622 21.6853 9.56796C15.7356 10.3458 10.4981 15.577 9.57565 21.6612C8.65129 27.7594 11.8523 34.3465 16.8655 36.5948ZM20.4044 38.0989C20.4044 34.3456 20.4428 30.6082 20.3781 26.8727C20.3612 25.8884 20.6146 25.4164 21.5436 24.9566C24.9098 23.2892 24.4556 19.062 22.3178 17.7774C22.3178 18.4596 22.3207 19.0733 22.3178 19.6879C22.3131 20.7754 20.3753 22.5414 19.3439 22.2721C18.4252 22.0328 17.5749 21.5064 16.8608 20.8824C16.3869 20.4686 16.7088 19.7592 16.6628 19.1849C16.6262 18.7298 16.6553 18.2691 16.6553 17.7061C14.0436 19.8127 14.6076 23.7706 17.6106 25.0627C18.4618 25.4286 18.6682 25.8856 18.6344 26.7301C18.52 29.6155 18.4749 32.5027 18.3942 35.389C18.3529 36.8797 19.0233 37.7827 20.4053 38.098L20.4044 38.0989ZM30.2402 26.5574C30.2402 27.5568 30.2299 28.5561 30.2477 29.5554C30.2524 29.8078 30.0806 30.2075 30.5696 30.2254C31.082 30.2432 30.9055 29.8285 30.9074 29.5807C30.9224 27.8411 30.9196 26.1014 30.9121 24.3617C30.9102 23.916 30.8614 23.444 31.1505 23.0828C32.4718 21.4304 31.462 19.7892 31.1411 18.1528C31.0013 17.4368 30.1876 17.7521 30.1492 17.9079C29.8357 19.1746 28.9104 20.5634 29.4885 21.7175C30.2955 23.3296 30.1979 24.9163 30.2392 26.5574H30.2402ZM28.6561 37.7893C29.8301 37.4459 30.8173 36.9054 31.7924 36.3236C32.1734 36.0956 32.2663 35.8338 32.195 35.4115C31.9172 33.762 31.8374 33.686 30.0694 33.7704C29.771 33.7845 29.4087 33.6372 29.3158 34.1626C29.1065 35.3477 28.6805 36.4963 28.6551 37.7902L28.6561 37.7893ZM30.6972 31.5944C30.2571 31.5944 29.816 31.5963 29.3759 31.5944C29.0953 31.5925 28.8588 31.6348 28.871 32.0007C28.8804 32.2841 29.0484 32.3751 29.298 32.3751C30.1792 32.376 31.0604 32.3798 31.9406 32.3723C32.1893 32.3704 32.3658 32.24 32.3507 31.9697C32.3357 31.7098 32.1687 31.5925 31.9087 31.5944C31.5052 31.5982 31.1007 31.5944 30.6972 31.5944Z" fill="#64FF37"/>
</g>
<defs>
<clipPath id="clip0_804_10">
<rect width="48" height="48" fill="white"/>
</clipPath>
</defs>
</svg>
