<svg width="48" height="48" viewBox="0 0 48 48" fill="none" xmlns="http://www.w3.org/2000/svg">
<g clip-path="url(#clip0_813_77)">
<path d="M41.8259 26.294L42.0659 24.504C43.9599 25.656 44.5819 26.348 44.7739 26.646C44.4539 26.708 43.6499 26.738 41.8259 26.294ZM37.4779 42.27L37.4679 42.416C37.4679 42.584 37.0539 43.226 35.2199 43.952C34.2842 44.3117 33.3228 44.6005 32.3439 44.816C29.5339 45.466 26.0879 45.824 22.6379 45.824C13.4139 45.824 7.81387 43.456 7.81387 42.416L7.80387 42.27L3.61987 11.204C3.89053 11.36 4.17853 11.5113 4.48387 11.658C4.5692 11.698 4.65453 11.736 4.73987 11.772C5.00653 11.896 5.28453 12.016 5.57387 12.132L5.93187 12.27C6.2412 12.386 6.55987 12.498 6.88787 12.606L7.14787 12.692C7.56253 12.8213 7.9932 12.946 8.43987 13.066L8.79187 13.154C9.14253 13.242 9.49853 13.3267 9.85987 13.408C10.4197 13.5318 10.9818 13.6452 11.5459 13.748L11.7879 13.794C12.2919 13.8833 12.8039 13.9647 13.3239 14.038C13.4665 14.0593 13.6105 14.0793 13.7559 14.098C14.1545 14.1513 14.5572 14.2027 14.9639 14.252L15.4439 14.306C15.9319 14.3593 16.4252 14.406 16.9239 14.446L17.0859 14.464C17.6365 14.508 18.1899 14.5453 18.7459 14.576L19.2119 14.6C19.6332 14.62 20.0552 14.6367 20.4779 14.65C22.3411 14.7116 24.2061 14.6943 26.0679 14.598L26.5319 14.576C27.0879 14.5453 27.6412 14.508 28.1919 14.464L28.3519 14.448C28.8519 14.408 29.3465 14.36 29.8359 14.304L30.3119 14.252C30.7212 14.204 31.1272 14.1527 31.5299 14.098L31.9519 14.038C32.4745 13.9633 32.9892 13.882 33.4959 13.794L33.7179 13.754C34.1485 13.674 34.5712 13.5907 34.9859 13.504L35.4099 13.41C35.7819 13.3273 36.1459 13.2407 36.5019 13.15L36.8339 13.066C37.2845 12.946 37.7205 12.82 38.1419 12.688L38.3719 12.612C38.7032 12.5045 39.032 12.3891 39.3579 12.266C39.4739 12.2233 39.5872 12.1793 39.6979 12.134C39.9979 12.0153 40.2845 11.892 40.5579 11.764C40.6365 11.7307 40.7139 11.696 40.7899 11.66C41.0965 11.5133 41.3872 11.3613 41.6619 11.204L39.7099 25.694C34.7339 24.134 28.0999 21.11 25.0879 19.694C25.0852 19.1183 24.8549 18.5669 24.4473 18.1604C24.0396 17.7538 23.4876 17.5251 22.9119 17.524C21.7119 17.524 20.7359 18.502 20.7359 19.7C20.7359 20.898 21.7119 21.878 22.9119 21.878C23.3039 21.878 23.6679 21.766 23.9859 21.582C27.4259 23.206 34.2739 26.316 39.4159 27.882L37.4779 42.27ZM22.6379 2.176C33.9919 2.176 41.9899 5.694 42.1379 7.648L42.1099 7.874C42.0899 7.94 42.0479 8.008 42.0139 8.076C41.9839 8.132 41.9619 8.19 41.9199 8.25C41.8719 8.316 41.8039 8.386 41.7399 8.454C41.6839 8.514 41.6379 8.574 41.5719 8.634C41.4959 8.704 41.3979 8.774 41.3059 8.844C41.2259 8.904 41.1579 8.964 41.0679 9.026C40.9619 9.098 40.8359 9.168 40.7139 9.24C40.6139 9.3 40.5239 9.36 40.4139 9.42C40.2779 9.492 40.1199 9.566 39.9699 9.64C39.8519 9.696 39.7419 9.754 39.6159 9.81C39.4479 9.886 39.2619 9.958 39.0799 10.032C38.9439 10.086 38.8199 10.14 38.6739 10.196C38.4799 10.268 38.2639 10.34 38.0539 10.41C37.9039 10.462 37.7579 10.516 37.5979 10.568C37.3759 10.638 37.1319 10.706 36.8979 10.774C36.7279 10.822 36.5679 10.874 36.3919 10.92C36.1439 10.988 35.8759 11.05 35.6139 11.116C35.4279 11.16 35.2519 11.208 35.0579 11.252C34.7799 11.316 34.4839 11.374 34.1919 11.434C33.9959 11.474 33.8099 11.516 33.6059 11.554C33.2959 11.614 32.9659 11.668 32.6419 11.722C32.4419 11.758 32.2459 11.794 32.0379 11.826C31.7059 11.878 31.3539 11.922 31.0079 11.97C30.7879 11.998 30.5819 12.03 30.3579 12.058C29.9959 12.104 29.6139 12.14 29.2379 12.178C29.0205 12.2033 28.7992 12.2273 28.5739 12.25C28.1979 12.282 27.8019 12.308 27.4139 12.336C27.1699 12.354 26.9339 12.376 26.6859 12.392C26.2719 12.416 25.8419 12.432 25.4159 12.448C25.1759 12.458 24.9479 12.472 24.7079 12.48C23.3288 12.5196 21.9489 12.5196 20.5699 12.48C20.3299 12.472 20.1019 12.458 19.8659 12.448C19.4379 12.432 19.0059 12.416 18.5919 12.392C18.3479 12.376 18.1159 12.352 17.8719 12.338C17.4819 12.308 17.0839 12.282 16.7039 12.25C16.4839 12.23 16.2739 12.202 16.0559 12.18C15.6759 12.14 15.2879 12.104 14.9199 12.06L14.2899 11.972C13.9379 11.924 13.5799 11.88 13.2399 11.826C13.0399 11.796 12.8559 11.76 12.6599 11.726C12.3259 11.67 11.9899 11.616 11.6719 11.554C11.4799 11.518 11.3059 11.478 11.1199 11.442C10.8179 11.378 10.5099 11.318 10.2199 11.252C10.0399 11.212 9.87387 11.166 9.69987 11.124C9.42387 11.056 9.14587 10.99 8.88587 10.92C8.72187 10.876 8.57187 10.828 8.41587 10.782C8.1694 10.7139 7.92403 10.6419 7.67987 10.566C7.52987 10.518 7.39787 10.468 7.25387 10.42C7.03387 10.346 6.80787 10.27 6.60387 10.194C6.46987 10.144 6.35387 10.092 6.22787 10.04C6.03587 9.964 5.83787 9.888 5.66387 9.81C5.54387 9.756 5.44387 9.702 5.33187 9.65C5.17187 9.572 5.00787 9.496 4.86587 9.418C4.76187 9.362 4.67787 9.308 4.58187 9.25C4.45587 9.174 4.32187 9.1 4.21187 9.024C4.12587 8.966 4.06187 8.908 3.98587 8.852C3.88987 8.778 3.78987 8.706 3.70787 8.632C3.64387 8.574 3.59987 8.518 3.54787 8.458C3.48187 8.388 3.40987 8.318 3.36187 8.25C3.32187 8.19 3.29987 8.134 3.26987 8.078C3.23387 8.008 3.19187 7.942 3.17187 7.874L3.14187 7.648C3.29387 5.694 11.2899 2.176 22.6379 2.176ZM47.0019 26.424C46.7659 25.168 45.3219 23.842 42.3819 22.168L44.3079 7.848L44.3179 7.702C44.3199 3.162 32.8939 0 22.6399 0C12.3879 0 0.963867 3.162 0.963867 7.702L0.973867 7.846L5.63787 42.5C5.77987 46.504 16.1099 48 22.6379 48C26.2479 48 29.8679 47.624 32.8339 46.938C34.0299 46.662 35.0999 46.338 36.0179 45.978C38.3779 45.044 39.5959 43.872 39.6439 42.5L41.5339 28.464C42.6479 28.726 43.5659 28.858 44.3119 28.858C45.3919 28.858 46.1159 28.584 46.5799 28.032C46.7659 27.8126 46.9002 27.5541 46.9729 27.2758C47.0456 26.9975 47.0568 26.7064 47.0019 26.424Z" fill="#64FF37"/>
</g>
<defs>
<clipPath id="clip0_813_77">
<rect width="48" height="48" fill="white"/>
</clipPath>
</defs>
</svg>
