<svg width="48" height="48" viewBox="0 0 48 48" fill="none" xmlns="http://www.w3.org/2000/svg">
<path d="M48 4.7998V21.5998H43.2V4.7998H48ZM0 21.5998H4.8V4.7998H0V21.5998ZM6 4.7998H42V21.5998H6V4.7998ZM31.2 13.1998C31.2 14.1546 31.5793 15.0703 32.2544 15.7454C32.9296 16.4205 33.8452 16.7998 34.8 16.7998C35.7548 16.7998 36.6705 16.4205 37.3456 15.7454C38.0207 15.0703 38.4 14.1546 38.4 13.1998C38.4 12.245 38.0207 11.3294 37.3456 10.6542C36.6705 9.97909 35.7548 9.5998 34.8 9.5998C33.8452 9.5998 32.9296 9.97909 32.2544 10.6542C31.5793 11.3294 31.2 12.245 31.2 13.1998ZM9.6 14.3998H24V11.9998H9.6V14.3998ZM43.2 43.1998H48V26.3998H43.2V43.1998ZM0 43.1998H4.8V26.3998H0V43.1998ZM6 26.3998H42V43.1998H6V26.3998ZM31.2 34.7998C31.2 35.7546 31.5793 36.6703 32.2544 37.3454C32.9296 38.0205 33.8452 38.3998 34.8 38.3998C35.7548 38.3998 36.6705 38.0205 37.3456 37.3454C38.0207 36.6703 38.4 35.7546 38.4 34.7998C38.4 33.845 38.0207 32.9294 37.3456 32.2542C36.6705 31.5791 35.7548 31.1998 34.8 31.1998C33.8452 31.1998 32.9296 31.5791 32.2544 32.2542C31.5793 32.9294 31.2 33.845 31.2 34.7998ZM9.6 35.9998H24V33.5998H9.6V35.9998Z" fill="#64FF37"/>
</svg>
