<svg width="48" height="48" viewBox="0 0 48 48" fill="none" xmlns="http://www.w3.org/2000/svg">
<path d="M22.4581 28.1519L22.4221 28.5419C22.3921 28.8719 22.3651 29.1959 22.3261 29.5169C22.298 29.681 22.2475 29.8405 22.1761 29.9909C22.0771 30.2219 21.8881 30.3419 21.6361 30.3719C21.0271 30.4439 20.8141 30.1379 20.6911 29.6219C20.5291 28.9439 20.5441 28.2509 20.5801 27.5579L20.5831 27.5069C20.5824 27.2461 20.6229 26.9869 20.7031 26.7389C20.7549 26.5912 20.8201 26.4486 20.8981 26.3129C21.1471 25.8989 21.8581 25.9379 22.0951 26.2529C22.2119 26.4188 22.288 26.61 22.3171 26.8109C22.3651 27.1319 22.3951 27.4559 22.4221 27.7769L22.4581 28.1519ZM25.7251 18.1589C25.5451 18.6929 25.5301 19.2449 25.5391 19.8389C25.5211 20.3669 25.5511 20.9279 25.7251 21.4739C25.8031 21.7199 25.9501 21.9119 26.2051 21.9599C26.4961 22.0109 26.7871 22.0199 27.0091 21.7619C27.1989 21.5317 27.314 21.2491 27.3391 20.9519C27.4413 20.2003 27.4413 19.4384 27.3391 18.6869C27.3107 18.458 27.2459 18.2352 27.1471 18.0269C27.0721 17.8829 26.9311 17.7179 26.7811 17.6699C26.3611 17.5379 25.9051 17.6309 25.7251 18.1589Z" fill="#64FF37"/>
<path fill-rule="evenodd" clip-rule="evenodd" d="M29.4811 14.6851V18.2041H32.9521C32.9521 18.2491 32.9581 18.2911 32.9611 18.3301C32.9701 18.4111 32.9761 18.4801 32.9761 18.5521V31.8541C32.9761 32.1031 32.9761 32.3491 32.8561 32.5801C32.6461 32.9881 32.3401 33.2521 31.8661 33.2881L31.7371 33.2971C31.5361 33.3121 31.3351 33.3271 31.1371 33.3271H16.6201C16.3951 33.3271 16.1701 33.3121 15.9511 33.2701C15.7041 33.2187 15.4797 33.0902 15.3104 32.9031C15.1411 32.716 15.0356 32.48 15.0091 32.2291C14.9991 32.1094 14.9951 31.9892 14.9971 31.8691V16.1581C14.9971 15.8491 15.0121 15.5581 15.1891 15.2791C15.2946 15.118 15.4347 14.9824 15.5993 14.8823C15.7638 14.7821 15.9485 14.7199 16.1401 14.7001C16.2511 14.6821 16.3681 14.6821 16.4821 14.6851H29.4811ZM19.3021 28.5991L19.2781 28.2571C19.2901 27.6511 19.3411 27.0511 19.5421 26.4781C19.7611 25.8421 20.1451 25.3471 20.8381 25.1401C21.4291 24.9601 22.0111 24.9901 22.5601 25.2331C22.7529 25.3139 22.9267 25.4341 23.0703 25.5859C23.2139 25.7378 23.3242 25.9181 23.3941 26.1151C23.7181 27.0361 23.7721 27.9751 23.6641 28.9351C23.6191 29.3401 23.5441 29.7361 23.3941 30.1171C23.2745 30.4562 23.0576 30.7526 22.7706 30.9692C22.4835 31.1859 22.139 31.3131 21.7801 31.3351C21.4501 31.3711 21.1231 31.3651 20.8051 31.2961C20.5639 31.2437 20.3377 31.137 20.1438 30.9842C19.95 30.8314 19.7934 30.6364 19.6861 30.4141C19.5147 30.0764 19.4059 29.7105 19.3651 29.3341C19.3364 29.0898 19.3154 28.8447 19.3021 28.5991ZM28.6711 19.3891L28.7101 19.7431C28.6801 20.3611 28.6171 20.9641 28.4221 21.5491C28.1971 22.2241 27.7801 22.7221 27.0631 22.8871C26.3641 23.0461 25.6711 23.0191 25.0651 22.5571C24.764 22.3074 24.5549 21.9642 24.4711 21.5821C24.2499 20.71 24.2 19.8032 24.3241 18.9121C24.3548 18.3917 24.5225 17.8888 24.8101 17.4541C24.9875 17.2077 25.2197 17.0058 25.4883 16.8643C25.7568 16.7227 26.0546 16.6453 26.3581 16.6381C26.7481 16.6141 27.1261 16.6711 27.4831 16.8181C27.7051 16.9081 27.8971 17.0491 28.0531 17.2441C28.3891 17.6641 28.5511 18.1441 28.5931 18.6721C28.6141 18.9121 28.6441 19.1521 28.6711 19.3891ZM28.5001 30.6451C28.5241 30.8563 28.4743 31.0694 28.3591 31.2481L28.2871 31.2541C28.2271 31.2571 28.1611 31.2631 28.0951 31.2631H27.1591C26.4691 31.2601 25.7791 31.2571 25.0861 31.2691C24.7861 31.2721 24.6991 31.1611 24.6991 30.8971V30.7861V30.5881C24.7141 30.3961 24.7831 30.3301 24.9841 30.3241C25.1581 30.3181 25.3321 30.3181 25.5061 30.3211H25.9801C26.0461 30.0931 26.0671 26.7811 26.0101 26.3611C25.9853 26.3715 25.9603 26.3815 25.9351 26.3911C25.8824 26.4063 25.8311 26.4264 25.7821 26.4511L25.5061 26.6161C25.3861 26.6881 25.2601 26.7631 25.1341 26.8321C25.0585 26.869 24.9775 26.8933 24.8941 26.9041C24.7831 26.9191 24.7051 26.8741 24.6991 26.7571C24.6901 26.5812 24.6911 26.4049 24.7021 26.2291C24.7081 26.1691 24.7591 26.0941 24.8131 26.0491C24.9031 25.9741 25.0051 25.9111 25.1071 25.8451L25.1551 25.8151L25.4341 25.6381C25.6081 25.5301 25.7851 25.4251 25.9501 25.3051C26.1664 25.156 26.4257 25.0822 26.6881 25.0951C26.8141 25.0951 26.9371 25.1131 27.0721 25.1281L27.2761 25.1521V30.2941L27.4261 30.3061L27.6661 30.3211H28.1731C28.4071 30.3301 28.4851 30.4111 28.5031 30.6451H28.5001ZM22.3201 16.7401V21.9211L22.3231 21.9241H23.1631C23.4391 21.9241 23.4931 21.9691 23.5081 22.2421C23.5113 22.3989 23.4993 22.5556 23.4721 22.7101C23.4571 22.8151 23.3821 22.8691 23.2711 22.8661H20.1511C19.8361 22.8661 19.8061 22.8361 19.7731 22.5241C19.7689 22.4962 19.7659 22.4682 19.7641 22.4401C19.7431 21.9751 19.7941 21.9211 20.2531 21.9211H20.8711C21.0511 21.9151 21.0781 21.8911 21.0811 21.7051V21.0241V17.9731L21.0001 17.9911C20.9536 18.0038 20.9084 18.0209 20.8651 18.0421C20.7615 18.0981 20.6585 18.1551 20.5561 18.2131C20.4243 18.2882 20.2913 18.3613 20.1571 18.4321C20.0911 18.4681 20.0161 18.4891 19.9411 18.5101L19.8421 18.5401C19.733 18.314 19.7096 18.0561 19.7761 17.8141C19.8004 17.7264 19.8545 17.65 19.9291 17.5981C20.3281 17.3281 20.7301 17.0611 21.1441 16.8091C21.2263 16.766 21.3158 16.7385 21.4081 16.7281C21.4342 16.7235 21.4602 16.7185 21.4861 16.7131C21.6511 16.6801 21.8071 16.6981 21.9721 16.7131C22.0831 16.7281 22.1971 16.7461 22.3201 16.7401Z" fill="#64FF37"/>
<path fill-rule="evenodd" clip-rule="evenodd" d="M44.547 24.777L45 24.012L44.829 23.712L44.364 22.908L44.043 22.365C43.665 21.7162 43.289 21.0662 42.915 20.415C42.2445 19.2462 41.5675 18.0812 40.884 16.92L40.431 16.158L39.756 15.012C39.516 14.604 39.282 14.193 39.045 13.782L38.577 12.972C37.902 11.8051 37.222 10.6411 36.537 9.48L36.198 8.91L35.943 8.481L35.433 7.623L35.379 7.527C35.1157 7.08109 34.8577 6.63205 34.605 6.18C34.53 6.048 34.443 5.991 34.293 6.006C34.2271 6.01187 34.1609 6.01187 34.095 6.006H18.594C16.974 6.006 15.354 6.006 13.734 6C13.527 6 13.419 6.069 13.32 6.246C12.831 7.116 12.33 7.977 11.829 8.841L11.58 9.273L10.41 11.283L9.83401 12.258C9.02918 13.6152 8.23416 14.9783 7.44901 16.347L6.85201 17.379C6.48608 18.0094 6.11607 18.6374 5.74201 19.263L5.25601 20.088L4.77301 20.913L4.45201 21.453L3.94201 22.317C3.64201 22.827 3.34501 23.34 3.05101 23.853C2.99701 23.943 2.97301 24.027 3.03901 24.135C3.16501 24.345 3.28501 24.555 3.40501 24.765L3.66601 25.215L4.05601 25.869C4.23901 26.175 4.42201 26.478 4.59901 26.784C4.80301 27.135 5.00101 27.489 5.20201 27.843C5.44201 28.272 5.68201 28.698 5.93101 29.121L6.84001 30.651L7.48501 31.74L7.95601 32.553C8.2523 33.0702 8.55231 33.5852 8.85601 34.098L9.42001 35.067L10.881 37.578L11.232 38.187C11.412 38.505 11.595 38.823 11.781 39.138L12.306 40.026C12.633 40.581 12.96 41.136 13.281 41.694C13.404 41.91 13.536 42 13.8 42C18.27 41.991 22.737 41.994 27.204 41.994H34.248C34.422 41.994 34.53 41.958 34.626 41.79C35.199 40.77 35.79 39.753 36.381 38.742C36.654 38.268 36.933 37.797 37.212 37.326L37.983 36.018L39.003 34.26L39.897 32.712C40.5993 31.5074 41.3093 30.3074 42.027 29.112C42.243 28.746 42.45 28.377 42.66 28.008C42.888 27.606 43.116 27.204 43.35 26.808C43.746 26.13 44.145 25.455 44.547 24.777ZM13.431 31.842V16.185C13.431 15.786 13.461 15.396 13.602 15.015C13.8152 14.4359 14.2125 13.9426 14.733 13.611C15.267 13.263 15.861 13.137 16.491 13.137H18.924C22.575 13.137 26.226 13.137 29.874 13.131C30.111 13.131 30.258 13.218 30.405 13.371C30.576 13.551 30.753 13.722 30.93 13.896L31.215 14.175L31.5 14.463C31.665 14.631 31.83 14.799 32.001 14.961L32.862 15.792L33.723 16.623L34.059 16.962L34.428 17.331C34.518 17.415 34.542 17.511 34.542 17.625V31.821C34.542 31.929 34.542 32.037 34.536 32.142C34.5179 32.6291 34.372 33.1028 34.113 33.5156C33.8539 33.9285 33.4907 34.2659 33.06 34.494C32.5722 34.7551 32.0228 34.8795 31.47 34.854H16.458C16.0461 34.8738 15.6345 34.8084 15.249 34.662C14.6878 34.4434 14.21 34.0529 13.884 33.5464C13.558 33.04 13.3975 32.4434 13.431 31.842Z" fill="#64FF37"/>
</svg>
