<svg width="48" height="48" viewBox="0 0 48 48" fill="none" xmlns="http://www.w3.org/2000/svg">
<path d="M38.4035 30.6335L24.0732 38.0666V23.3536L38.4035 15.8525V30.6335Z" fill="#64FF37"/>
<path d="M21.7175 38.0669L8.52686 31.2462V16.5332L21.7175 23.3539V38.0669Z" fill="#64FF37"/>
<path d="M45.5307 11.6767L31.6512 4.5498L27.0332 6.89708L40.6066 13.8794V38.8319L45.5307 36.323V11.6767Z" fill="#64FF37"/>
<path d="M38.4037 33.1423L22.9338 41.1791L0.183963 29.4258L0.107422 36.3996L22.7807 47.9998L38.4037 40.0395V33.1423Z" fill="#64FF37"/>
<path d="M29.0741 3.25726L22.7807 0L0.183963 11.6768L0.107422 26.9256L6.24775 30.0298V15.0872L29.0741 3.25726Z" fill="#64FF37"/>
<path d="M22.9336 21.4656L10.874 15.2403L24.6005 8.18994L36.5834 14.4068L22.9336 21.4656Z" fill="#64FF37"/>
</svg>
