<svg width="48" height="48" viewBox="0 0 48 48" fill="none" xmlns="http://www.w3.org/2000/svg">
<g clip-path="url(#clip0_817_18)">
<path d="M18.6199 0C19.9259 2.7 21.7539 8.164 15.8439 14.348C12.2239 18.108 9.68793 22.046 11.1439 26.478C11.8739 28.684 13.5179 31.492 16.9179 32.048C18.1379 32.248 19.6039 32.048 20.3979 31.768C25.3059 30.058 24.5939 24.938 23.5079 21.672C23.3679 21.246 23.1259 20.206 23.0359 19.824C22.2899 16.62 24.5879 14.512 25.2939 12.216C25.3513 12.032 25.3979 11.8507 25.4339 11.672C25.5166 11.252 25.5686 10.8267 25.5899 10.396C25.5899 6.742 23.6139 5.136 22.0399 3.196C20.3599 1.128 18.6199 0 18.6199 0ZM31.1719 12.036C31.1719 12.036 29.7539 12.708 28.7339 13.802C27.8439 14.766 27.0079 15.56 26.1459 17.52C26.0913 17.8 26.0413 18.092 25.9959 18.396C25.5319 21.678 28.2919 24.684 27.4339 28.774C27.2099 29.844 26.7239 30.198 25.8719 32.048C24.8519 34.26 25.1059 37.224 26.5919 39.106C27.9359 40.804 30.3479 41.57 32.6959 41.006C36.9079 39.996 38.8259 36.44 38.4879 32.434C38.2259 29.274 36.8579 26.928 32.9799 22.514C31.0599 20.328 29.7659 17.694 29.8559 15.7C30.1299 13.286 31.1719 12.036 31.1719 12.036ZM9.78593 30.388C9.74193 30.416 9.69793 30.51 9.66793 30.708L9.65593 30.748V30.768C9.42793 31.848 9.32593 34.412 9.88793 36.704C10.5939 39.59 12.7219 44.508 18.7119 46.962C23.7479 49.03 30.1479 48.044 34.4119 43.708C35.4699 42.622 35.2259 42.728 33.4339 43.306V43.302C31.2099 44.014 26.3979 44.394 23.8979 41.302C20.8519 37.532 23.0379 34.576 21.1839 35.002C13.9519 36.67 10.6499 32.07 10.0899 30.798C10.0859 30.794 9.91793 30.3 9.78593 30.388Z" fill="#64FF37"/>
</g>
<defs>
<clipPath id="clip0_817_18">
<rect width="48" height="48" fill="white"/>
</clipPath>
</defs>
</svg>
