<svg width="105" height="105" viewBox="0 0 105 105" fill="none" xmlns="http://www.w3.org/2000/svg">
<path d="M4.66548 65.3967H48.6399L68.1808 99.0841C68.9034 100.318 70.0674 101.207 71.4193 101.556C72.7713 101.905 74.2018 101.687 75.3993 100.949L102.456 84.1089C103.648 83.3599 104.505 82.1539 104.843 80.7533C105.18 79.3526 104.97 77.8706 104.258 76.6297L87.6836 48.058C87.6903 48.0462 87.6789 12.7177 87.6836 12.7074V4.97789C87.7029 3.6801 87.2247 2.42734 86.3537 1.49422C85.4828 0.561096 84.2902 0.0237598 83.0374 0H4.66548C3.41018 0.0211146 2.21418 0.556973 1.33969 1.4901C0.465198 2.42322 -0.0164184 3.67746 0.000427503 4.97784V60.4189C-0.0164184 61.7193 0.465198 62.9735 1.33969 63.9066C2.21418 64.8398 3.41018 65.3756 4.66548 65.3967ZM101.449 79.8761C101.394 80.1078 101.295 80.326 101.158 80.5179C101.021 80.7099 100.849 80.8719 100.651 80.9946L73.5943 97.8343C73.1953 98.0806 72.7184 98.1536 72.2677 98.0373C71.817 97.921 71.4289 97.6248 71.1881 97.2134L49.3552 59.5762C49.236 59.3719 49.1571 59.1451 49.123 58.909C49.0889 58.6728 49.1003 58.432 49.1566 58.2005L54.5572 35.7656C54.6709 35.299 54.9582 34.898 55.3565 34.6502C55.7547 34.4024 56.2315 34.3279 56.6825 34.4431L78.3398 40.0366C78.5635 40.0938 78.774 40.1965 78.9592 40.3385C79.1444 40.4806 79.3006 40.6592 79.4187 40.8641L101.251 78.5013C101.37 78.7053 101.449 78.9319 101.484 79.168C101.518 79.404 101.506 79.6448 101.449 79.8761ZM82.4243 38.9916C82.0701 38.3773 81.6017 37.8418 81.0465 37.4161C80.4912 36.9904 79.8599 36.683 79.1892 36.5116L57.532 30.9181C56.178 30.5698 54.746 30.7921 53.5502 31.5363C52.3543 32.2804 51.4923 33.4857 51.1534 34.8875L45.7537 57.3215C45.5738 58.0769 45.5501 58.8633 45.6844 59.6288C45.8186 60.3944 46.1076 61.1219 46.5325 61.7636H4.66548C4.34031 61.7429 4.03619 61.59 3.81936 61.3381C3.60253 61.0863 3.49054 60.7559 3.50779 60.4189V14.5326H84.1763V42.0117L82.4243 38.9916ZM4.66548 3.63315H83.0374C83.36 3.65669 83.6605 3.81114 83.8738 4.06292C84.087 4.31471 84.1957 4.64349 84.1763 4.97784V10.8995H3.50779V4.97784C3.49054 4.64084 3.60253 4.31044 3.81936 4.05858C4.03619 3.80673 4.34031 3.65381 4.66548 3.63315Z" fill="#64FF37"/>
<path d="M47.9926 25.682L38.5993 19.3598C38.0363 18.8437 35.6091 19.1328 34.9067 19.0629C34.6004 19.063 34.2995 19.1442 34.0341 19.2984C33.7686 19.4525 33.5478 19.6743 33.3937 19.9416C32.9344 20.7405 32.2753 21.4036 31.4824 21.8646C30.6895 22.3255 29.7907 22.5681 28.8758 22.5681C27.9608 22.5681 27.062 22.3254 26.2691 21.8645C25.4763 21.4035 24.8172 20.7403 24.3579 19.9414C24.2038 19.6742 23.983 19.4524 23.7175 19.2983C23.452 19.1441 23.1511 19.063 22.8449 19.0629C22.1229 19.1654 19.7472 18.8152 19.1515 19.3598L9.75994 25.6811C9.12214 26.1126 8.64196 26.7432 8.39295 27.4765C8.14394 28.2097 8.13981 29.0052 8.3812 29.7411L10.8215 37.1327C11.0256 37.6894 11.3587 38.1888 11.7928 38.5891C12.2269 38.9895 12.7496 39.2792 13.3171 39.4341C13.8847 39.589 14.4808 39.6046 15.0555 39.4796C15.6303 39.3546 16.1671 39.0926 16.6212 38.7156V50.8801C16.6221 51.8174 16.9913 52.7161 17.6477 53.3789C18.3041 54.0416 19.1941 54.4144 20.1224 54.4153H37.6282C38.5565 54.4144 39.4465 54.0416 40.1029 53.3789C40.7593 52.7161 41.1285 51.8174 41.1294 50.8801V38.7156L42.0432 39.1765C42.4925 39.3991 42.9835 39.5224 43.4837 39.5385C43.9838 39.5545 44.4816 39.4627 44.9439 39.2694C45.4062 39.076 45.8224 38.7855 46.1649 38.417C46.5073 38.0486 46.7681 37.6108 46.9299 37.1326L49.3704 29.7411C49.6116 29.0054 49.6075 28.2102 49.3586 27.4772C49.1098 26.7441 48.63 26.1135 47.9926 25.682ZM43.6084 36.0141L40.1619 34.2741C39.8946 34.143 39.5989 34.0822 39.3021 34.0974C39.0053 34.1126 38.7172 34.2033 38.4644 34.3611C38.2116 34.5188 38.0025 34.7385 37.8563 34.9997C37.7101 35.261 37.6317 35.5553 37.6283 35.8553V50.8801H20.1225V35.8553C20.1191 35.5553 20.0407 35.261 19.8945 34.9997C19.7484 34.7385 19.5392 34.5188 19.2864 34.361C19.0336 34.2033 18.7455 34.1126 18.4487 34.0974C18.1519 34.0822 17.8561 34.143 17.5889 34.2741L14.1432 36.0141L11.7029 28.6225L20.6524 22.5981H21.9098C22.7259 23.6827 23.7793 24.562 24.9877 25.1673C26.1961 25.7726 27.5268 26.0876 28.8758 26.0876C30.2247 26.0876 31.5554 25.7726 32.7638 25.1673C33.9722 24.562 35.0256 23.6827 35.8417 22.5981H37.0983L46.0486 28.6225L43.6084 36.0141ZM79.6407 8.45712C80.1004 8.45024 80.5391 8.26098 80.8618 7.93023C81.1846 7.59949 81.3655 7.15381 81.3655 6.6895C81.3655 6.22519 81.1846 5.77951 80.8618 5.44877C80.5391 5.11802 80.1004 4.92876 79.6407 4.92188C79.1809 4.92876 78.7422 5.11802 78.4195 5.44877C78.0967 5.77951 77.9158 6.22519 77.9158 6.6895C77.9158 7.15381 78.0967 7.59949 78.4195 7.93023C78.7422 8.26098 79.1809 8.45024 79.6407 8.45712ZM72.6383 8.45712C73.0981 8.45024 73.5367 8.26098 73.8595 7.93023C74.1822 7.59949 74.3631 7.15381 74.3631 6.6895C74.3631 6.22519 74.1822 5.77951 73.8595 5.44877C73.5367 5.11802 73.0981 4.92876 72.6383 4.92188C72.1785 4.92876 71.7399 5.11802 71.4171 5.44877C71.0944 5.77951 70.9135 6.22519 70.9135 6.6895C70.9135 7.15381 71.0944 7.59949 71.4171 7.93023C71.7399 8.26098 72.1785 8.45024 72.6383 8.45712ZM65.636 8.45712C66.0958 8.45024 66.5344 8.26098 66.8571 7.93023C67.1799 7.59949 67.3608 7.15381 67.3608 6.6895C67.3608 6.22519 67.1799 5.77951 66.8571 5.44877C66.5344 5.11802 66.0958 4.92876 65.636 4.92188C65.1762 4.92876 64.7375 5.11802 64.4148 5.44877C64.0921 5.77951 63.9111 6.22519 63.9111 6.6895C63.9111 7.15381 64.0921 7.59949 64.4148 7.93023C64.7375 8.26098 65.1762 8.45024 65.636 8.45712ZM72.64 20.8305H55.1342C54.6758 20.8395 54.2392 21.0297 53.9182 21.3603C53.5972 21.6908 53.4174 22.1352 53.4174 22.5982C53.4174 23.0611 53.5973 23.5055 53.9183 23.836C54.2393 24.1665 54.6759 24.3567 55.1343 24.3657H72.64C73.0984 24.3567 73.535 24.1665 73.856 23.836C74.177 23.5055 74.3568 23.061 74.3568 22.5981C74.3568 22.1352 74.177 21.6907 73.856 21.3602C73.535 21.0297 73.0984 20.8395 72.64 20.8305ZM70.1047 60.262C69.3797 59.0727 68.2192 58.2202 66.8754 57.8896C65.5316 57.5589 64.1129 57.7769 62.9273 58.4961C61.7417 59.2153 60.8848 60.3776 60.5428 61.7309C60.2008 63.0841 60.4012 64.5189 61.1006 65.7238C61.8257 66.9131 62.9861 67.7656 64.3299 68.0962C65.6737 68.4268 67.0924 68.2089 68.2781 67.4897C69.4637 66.7705 70.3205 65.6081 70.6625 64.2549C71.0045 62.9017 70.8041 61.4669 70.1047 60.262ZM66.5044 64.5075C66.107 64.7381 65.636 64.8021 65.1923 64.6859C64.7487 64.5697 64.3679 64.2825 64.1316 63.886C63.8953 63.4894 63.8224 63.0152 63.9286 62.565C64.0347 62.1148 64.3114 61.7246 64.6992 61.478C65.0966 61.2475 65.5677 61.1835 66.0113 61.2997C66.4549 61.4159 66.8357 61.7031 67.072 62.0996C67.3083 62.4961 67.3812 62.9704 67.2751 63.4206C67.169 63.8708 66.8923 64.261 66.5044 64.5075ZM85.3523 76.0066C86.1904 76.2176 87.0671 76.2167 87.9048 76.0038C88.7425 75.7909 89.5152 75.3727 90.1546 74.7863C90.7939 74.1998 91.2801 73.4631 91.5701 72.6415C91.8602 71.82 91.945 70.9389 91.8172 70.0763C91.6893 69.2137 91.3528 68.3962 90.8373 67.6964C90.3218 66.9965 89.6433 66.4359 88.8619 66.064C88.0806 65.6922 87.2205 65.5207 86.3578 65.5648C85.4951 65.6089 84.6565 65.8671 83.9163 66.3166C83.0399 66.8666 82.3422 67.6636 81.9092 68.6092C81.4762 69.5549 81.3268 70.6079 81.4795 71.6383C81.6322 72.6687 82.0803 73.6314 82.7685 74.4076C83.4567 75.1839 84.3549 75.7397 85.3523 76.0066ZM84.9249 70.4336C85.0128 70.0977 85.1962 69.7951 85.4524 69.5634C85.7087 69.3316 86.0267 69.1807 86.3669 69.1294C86.7072 69.0781 87.0549 69.1286 87.3671 69.2746C87.6793 69.4206 87.9422 69.6559 88.1235 69.9512C88.2665 70.1992 88.3472 70.4788 88.3585 70.7655C88.3698 71.0523 88.3114 71.3375 88.1884 71.5962C88.0654 71.8549 87.8815 72.0793 87.6528 72.2497C87.4241 72.4201 87.1576 72.5314 86.8764 72.5738C86.5953 72.6162 86.3082 72.5884 86.0402 72.4929C85.7722 72.3974 85.5314 72.2371 85.3388 72.026C85.1463 71.8149 85.0079 71.5593 84.9358 71.2817C84.8636 71.0042 84.8599 70.7129 84.9249 70.4336ZM79.2321 54.2971C79.009 54.2405 78.777 54.2289 78.5495 54.263C78.3219 54.2971 78.1032 54.3762 77.906 54.4957C77.7088 54.6152 77.5368 54.7729 77.4 54.9596C77.2632 55.1464 77.1643 55.3585 77.1088 55.5839L71.1185 79.8396C71.0076 80.2942 71.0796 80.7746 71.3189 81.1755C71.5582 81.5765 71.9452 81.8653 72.3951 81.9786C72.8449 82.092 73.3209 82.0206 73.7187 81.7801C74.1165 81.5396 74.4036 81.1497 74.5171 80.6958L80.5074 56.4402C80.6195 55.9852 80.5481 55.504 80.309 55.1021C80.0698 54.7003 79.6825 54.4107 79.2321 54.2971Z" fill="#64FF37"/>
</svg>
