<svg width="105" height="105" viewBox="0 0 105 105" fill="none" xmlns="http://www.w3.org/2000/svg">
<path d="M103.633 26.5L53.0248 11.5618C52.6762 11.4586 52.305 11.4586 51.9564 11.5618L1.34833 26.5C0.968988 26.6105 0.634415 26.8377 0.392424 27.149C0.150433 27.4603 0.0134089 27.8398 0.000934297 28.2333C-0.0115403 28.6269 0.101173 29.0143 0.322966 29.3401C0.544759 29.666 0.86428 29.9137 1.23587 30.0479L26.2588 39.3469V60.111C24.7674 60.111 23.3372 60.7012 22.2826 61.7518C21.2281 62.8023 20.6356 64.2272 20.6356 65.7129C20.6356 67.1986 21.2281 68.6234 22.2826 69.674C23.3372 70.7245 24.7674 71.3147 26.2588 71.3147H26.5587C27.5045 77.4936 30.6413 83.1304 35.4004 87.2033C40.1595 91.2762 46.2259 93.5156 52.5 93.5156C58.7741 93.5156 64.8405 91.2762 69.5996 87.2033C74.3587 83.1304 77.4955 77.4936 78.4413 71.3147H78.7412C80.2326 71.3147 81.6628 70.7245 82.7174 69.674C83.7719 68.6234 84.3644 67.1986 84.3644 65.7129C84.3644 64.2272 83.7719 62.8023 82.7174 61.7518C81.6628 60.7012 80.2326 60.111 78.7412 60.111V39.3469L86.2387 36.5833V41.7744C85.3565 42.0903 84.5676 42.621 83.9437 43.3181C83.3198 44.0153 82.8808 44.8567 82.6666 45.766C82.4524 46.6753 82.4698 47.6234 82.7172 48.5243C82.9646 49.4251 83.4342 50.2501 84.0832 50.924L82.6962 53.6689C82.5854 53.8884 82.5191 54.1274 82.5011 54.3724C82.4831 54.6174 82.5136 54.8636 82.5911 55.0968C82.6685 55.33 82.7914 55.5457 82.9525 55.7316C83.1136 55.9176 83.31 56.0701 83.5303 56.1804C83.7506 56.2908 83.9905 56.3568 84.2364 56.3748C84.4824 56.3927 84.7294 56.3623 84.9635 56.2851C85.1976 56.2079 85.4142 56.0856 85.6008 55.9251C85.7875 55.7645 85.9405 55.569 86.0513 55.3495L87.4383 52.6419C87.8836 52.7325 88.3426 52.7325 88.7879 52.6419L90.1937 55.4242C90.4174 55.8674 90.8087 56.204 91.2814 56.3598C91.7542 56.5156 92.2698 56.478 92.7147 56.2551C93.1596 56.0323 93.4974 55.6425 93.6539 55.1715C93.8103 54.7005 93.7725 54.1869 93.5488 53.7436L92.1618 50.9987C92.8278 50.3244 93.3115 49.4929 93.5679 48.582C93.8242 47.6711 93.8448 46.7103 93.6277 45.7893C93.4106 44.8683 92.9629 44.0171 92.3264 43.315C91.6899 42.613 90.8852 42.0829 89.9875 41.7744V35.2016L103.764 30.1226C104.136 29.9884 104.455 29.7407 104.677 29.4148C104.899 29.089 105.012 28.7016 104.999 28.308C104.987 27.9145 104.85 27.535 104.608 27.2237C104.366 26.9124 104.031 26.6852 103.652 26.5747L103.633 26.5ZM26.2588 67.5802C25.7616 67.5802 25.2849 67.3834 24.9334 67.0332C24.5819 66.6831 24.3844 66.2081 24.3844 65.7129C24.3844 65.2176 24.5819 64.7427 24.9334 64.3925C25.2849 64.0423 25.7616 63.8456 26.2588 63.8456V67.5802ZM74.9925 67.5802C74.9925 73.5229 72.6228 79.2223 68.4046 83.4245C64.1864 87.6267 58.4654 89.9875 52.5 89.9875C46.5346 89.9875 40.8136 87.6267 36.5954 83.4245C32.3772 79.2223 30.0075 73.5229 30.0075 67.5802V65.5635C36.7263 69.834 44.5302 72.1029 52.5 72.1029C60.4698 72.1029 68.2737 69.834 74.9925 65.5635V67.5802ZM74.9925 61.0447C68.4656 65.8029 60.5878 68.3677 52.5 68.3677C44.4122 68.3677 36.5344 65.8029 30.0075 61.0447V59.9617C36.7263 64.2322 44.5302 66.5011 52.5 66.5011C60.4698 66.5011 68.2737 64.2322 74.9925 59.9617V61.0447ZM74.9925 55.4428C68.4656 60.201 60.5878 62.7659 52.5 62.7659C44.4122 62.7659 36.5344 60.201 30.0075 55.4428V40.7287L51.844 48.7953C52.267 48.9528 52.733 48.9528 53.156 48.7953L74.9925 40.7287V55.4428ZM80.6156 65.7129C80.6156 66.2081 80.4181 66.6831 80.0666 67.0332C79.7151 67.3834 79.2384 67.5802 78.7412 67.5802V63.8456C79.2384 63.8456 79.7151 64.0423 80.0666 64.3925C80.4181 64.7427 80.6156 65.2176 80.6156 65.7129ZM88.1131 48.9074C87.7424 48.9074 87.38 48.7979 87.0718 48.5927C86.7635 48.3875 86.5233 48.0959 86.3814 47.7547C86.2396 47.4135 86.2024 47.038 86.2748 46.6758C86.3471 46.3136 86.5256 45.9809 86.7877 45.7197C87.0499 45.4586 87.3838 45.2807 87.7474 45.2087C88.111 45.1366 88.4879 45.1736 88.8304 45.315C89.1729 45.4563 89.4656 45.6956 89.6716 46.0027C89.8776 46.3098 89.9875 46.6708 89.9875 47.0401C89.9875 47.5353 89.79 48.0103 89.4385 48.3605C89.087 48.7106 88.6102 48.9074 88.1131 48.9074ZM87.7945 32.1019L52.7999 26.5C52.3028 26.4233 51.7954 26.5464 51.3894 26.8423C50.9834 27.1382 50.7121 27.5827 50.635 28.0779C50.5579 28.5731 50.6815 29.0786 50.9786 29.483C51.2756 29.8875 51.7217 30.1578 52.2188 30.2346L80.6156 34.6787L52.5 45.0421L7.81492 28.5727L52.5 15.2964L97.1851 28.4794L87.7945 32.1019Z" fill="#64FF37"/>
<path d="M48.3984 79.2969V77.3828C48.3984 76.8752 48.1824 76.3883 47.7978 76.0294C47.4132 75.6704 46.8916 75.4688 46.3477 75.4688C45.8038 75.4688 45.2821 75.6704 44.8975 76.0294C44.5129 76.3883 44.2969 76.8752 44.2969 77.3828V79.2969C44.2969 81.3274 45.1611 83.2748 46.6995 84.7107C48.2379 86.1465 50.3244 86.9531 52.5 86.9531C54.6756 86.9531 56.7621 86.1465 58.3005 84.7107C59.8389 83.2748 60.7031 81.3274 60.7031 79.2969V77.3828C60.7031 76.8752 60.4871 76.3883 60.1025 76.0294C59.7179 75.6704 59.1962 75.4688 58.6523 75.4688C58.1084 75.4688 57.5868 75.6704 57.2022 76.0294C56.8176 76.3883 56.6016 76.8752 56.6016 77.3828V79.2969C56.6016 80.3122 56.1694 81.2859 55.4002 82.0038C54.6311 82.7217 53.5878 83.125 52.5 83.125C51.4122 83.125 50.369 82.7217 49.5998 82.0038C48.8306 81.2859 48.3984 80.3122 48.3984 79.2969Z" fill="#64FF37"/>
</svg>
