<svg width="105" height="105" viewBox="0 0 105 105" fill="none" xmlns="http://www.w3.org/2000/svg">
<g clip-path="url(#clip0_792_2)">
<path d="M52.5 0C23.5336 0 0 23.5336 0 52.5C0 81.4664 23.5336 105 52.5 105C81.4664 105 105 81.4664 105 52.5C105 23.5336 81.4646 0 52.5 0ZM52.5 3.62124C79.5255 3.62124 101.379 25.4763 101.379 52.5C101.379 79.5237 79.5237 101.379 52.5 101.379C25.4763 101.379 3.62124 79.5237 3.62124 52.5C3.62124 25.4763 25.4745 3.62124 52.5 3.62124ZM52.5 11.2767C29.7569 11.2767 11.2767 29.7569 11.2767 52.5C11.2767 75.2431 29.7569 93.7233 52.5 93.7233C75.2431 93.7233 93.7233 75.2431 93.7233 52.5C93.7233 29.7569 75.2413 11.2767 52.5 11.2767ZM52.5 14.898C62.4739 14.8785 72.0366 18.8382 79.1107 25.8911C86.1635 32.9652 90.1215 42.5279 90.1038 52.5018C90.1233 62.4757 86.1635 72.0384 79.1107 79.1125C72.0366 86.1653 62.4739 90.1233 52.5 90.1038C42.5261 90.1233 32.9634 86.1635 25.8893 79.1125C18.8365 72.0384 14.8785 62.4757 14.898 52.5018C14.8785 42.5279 18.8382 32.9652 25.8893 25.8911C32.9634 18.8382 42.5261 14.8802 52.5 14.898ZM47.069 25.3451V33.0786C43.2989 33.6635 39.8283 35.5654 37.9051 38.9243C35.6399 42.8451 35.6399 47.6717 37.9051 51.5925C39.8265 54.9514 43.2989 56.8728 47.069 57.4382V61.5522H36.2071V72.4142H47.069V79.6549H57.931V71.9214C61.7011 71.356 65.154 69.4346 67.0931 66.0757C69.3583 62.1549 69.3583 57.3283 67.0931 53.4075C65.1522 50.0486 61.7011 48.1467 57.931 47.5618V43.4478H68.7929V32.5858H57.931V25.3451H47.069ZM50.6903 28.9664H54.3115V36.2071H65.1735V39.8283H54.3115V50.6903H56.1212C59.3454 50.7098 62.3445 52.4238 63.9469 55.2332C65.5687 58.0285 65.5687 61.4742 63.9469 64.2695C62.3445 67.0789 59.3454 68.7929 56.1212 68.7929H54.3115V76.0336H50.6903V68.7929H39.8283V65.1717H50.6903V54.3097H48.8805C45.6563 54.3097 42.6572 52.5957 41.0354 49.7863C39.433 46.991 39.433 43.5435 41.0354 40.7305C42.6572 37.9406 45.6563 36.2248 48.8805 36.2071H50.6903V28.9664ZM48.8805 39.8283C46.9396 39.8283 45.1494 40.8652 44.1639 42.5456C43.2014 44.2401 43.2014 46.2962 44.1639 47.973C45.1494 49.6533 46.9396 50.6903 48.8805 50.6903H50.6903V39.8283H48.8805ZM54.3115 54.3115V65.1735H56.1212C58.0621 65.1735 59.8524 64.1365 60.8184 62.4562C61.7986 60.7794 61.7986 58.7251 60.8184 57.0288C59.8524 55.3484 58.0621 54.3292 56.1212 54.3115H54.3115Z" fill="#64FF37"/>
</g>
<defs>
<clipPath id="clip0_792_2">
<rect width="105" height="105" fill="white"/>
</clipPath>
</defs>
</svg>
