<svg width="105" height="105" viewBox="0 0 105 105" fill="none" xmlns="http://www.w3.org/2000/svg">
<path d="M88.9925 81.1427C87.7068 66.9717 82.5028 53.4381 73.9628 42.0566L71.495 38.766C72.7977 38.3671 73.916 37.5177 74.6497 36.3697C75.3834 35.2217 75.6847 33.8501 75.4996 32.5003C75.3146 31.1505 74.6553 29.9106 73.6396 29.0025C72.624 28.0943 71.3184 27.5772 69.9564 27.5436C70.3024 24.9501 71.3683 22.5054 73.0332 20.4868L78.95 13.388C79.1973 13.091 79.3492 12.7263 79.386 12.3416C79.4228 11.9569 79.3427 11.57 79.1562 11.2316C78.9696 10.8931 78.6854 10.6188 78.3405 10.4444C77.9956 10.27 77.6061 10.2037 77.223 10.2542L76.633 10.331C71.4978 10.9997 66.51 12.5199 61.8747 14.8291C61.2253 10.5135 59.2035 6.52172 56.1087 3.4446L53.8582 1.19428C53.6799 1.01582 53.4682 0.874249 53.2351 0.777657C53.0021 0.681065 52.7523 0.631348 52.5 0.631348C52.2477 0.631348 51.9979 0.681065 51.7649 0.777657C51.5318 0.874249 51.3201 1.01582 51.1418 1.19428L48.8915 3.4446C45.7995 6.51822 43.7785 10.5052 43.1274 14.8161C38.6355 12.5598 33.7998 11.0658 28.818 10.3952L27.7853 10.2545C27.4017 10.2025 27.0113 10.2676 26.6653 10.4412C26.3193 10.6149 26.0339 10.889 25.8464 11.2277C25.6589 11.5663 25.5781 11.9537 25.6145 12.3391C25.651 12.7245 25.803 13.0899 26.0508 13.3874L31.9676 20.4863C33.6325 22.5048 34.6984 24.9495 35.0444 27.5431C33.6823 27.5766 32.3767 28.0938 31.3611 29.0019C30.3455 29.9101 29.6862 31.15 29.5011 32.4998C29.3161 33.8496 29.6174 35.2212 30.3511 36.3691C31.0848 37.5171 32.2031 38.3666 33.5058 38.7655L31.038 42.056C22.4683 53.4875 17.2602 67.0843 16 81.3156V87.0788C16.0051 91.6627 17.8283 96.0574 21.0696 99.2987C24.3109 102.54 28.7056 104.363 33.2895 104.368H71.7105C76.2944 104.363 80.6891 102.54 83.9304 99.2987C87.1717 96.0574 88.9949 91.6627 89 87.0788V81.3156C89 81.258 88.9971 81.2004 88.9925 81.1427ZM32.3599 14.9563C36.3971 15.9152 40.2681 17.473 43.8441 19.578C44.136 19.7491 44.4678 19.8401 44.8061 19.8418C45.1444 19.8435 45.4771 19.7559 45.7707 19.5877C46.0642 19.4195 46.3082 19.1769 46.4778 18.8842C46.6475 18.5915 46.7368 18.2592 46.7368 17.9209C46.7308 15.736 47.1582 13.5716 47.9943 11.553C48.8304 9.53438 50.0587 7.70168 51.6079 6.16097L52.5 5.26903L53.3921 6.16097C54.9413 7.70168 56.1696 9.53438 57.0057 11.553C57.8418 13.5716 58.2692 15.736 58.2632 17.9209C58.2632 18.2585 58.3522 18.59 58.5212 18.8823C58.6902 19.1745 58.9332 19.417 59.2257 19.5854C59.5183 19.7539 59.8501 19.8422 60.1876 19.8416C60.5252 19.841 60.8566 19.7515 61.1486 19.582C64.7304 17.4989 68.596 15.9475 72.6242 14.9765L70.0821 18.0269C67.8344 20.7286 66.4325 24.0325 66.0515 27.5262H38.9485C38.5675 24.0325 37.1656 20.7286 34.9179 18.0269L32.3599 14.9563ZM35.2105 31.3683H69.7895C70.299 31.3683 70.7876 31.5706 71.1479 31.9309C71.5081 32.2912 71.7105 32.7798 71.7105 33.2893C71.7105 33.7988 71.5081 34.2874 71.1479 34.6477C70.7876 35.008 70.299 35.2104 69.7895 35.2104H35.2105C34.701 35.2104 34.2124 35.008 33.8521 34.6477C33.4919 34.2874 33.2895 33.7988 33.2895 33.2893C33.2895 32.7798 33.4919 32.2912 33.8521 31.9309C34.2124 31.5706 34.701 31.3683 35.2105 31.3683ZM85.1579 87.0788C85.1539 90.644 83.7359 94.0621 81.2149 96.5831C78.6939 99.1041 75.2758 100.522 71.7105 100.526H33.2895C29.7242 100.522 26.3061 99.1041 23.7851 96.5831C21.2641 94.0621 19.8461 90.644 19.8421 87.0788L19.8346 81.4885C21.0554 68.0277 25.9983 55.1723 34.1101 44.3611L38.0921 39.0525H66.9079L70.8899 44.3617C78.9836 55.1496 83.9231 67.9729 85.1579 81.4028V87.0788Z" fill="#64FF37"/>
<path d="M52.5001 56.3418C48.7006 56.3418 44.9864 57.4685 41.8273 59.5794C38.6681 61.6902 36.2059 64.6905 34.7519 68.2008C33.2979 71.711 32.9174 75.5736 33.6587 79.3001C34.3999 83.0266 36.2296 86.4496 38.9162 89.1362C41.6028 91.8229 45.0258 93.6525 48.7523 94.3937C52.4788 95.135 56.3414 94.7545 59.8516 93.3005C63.3619 91.8465 66.3622 89.3843 68.4731 86.2251C70.5839 83.066 71.7106 79.3518 71.7106 75.5523C71.705 70.4591 69.6792 65.5761 66.0777 61.9747C62.4763 58.3732 57.5933 56.3474 52.5001 56.3418ZM52.5001 90.9207C49.4605 90.9207 46.4892 90.0194 43.9619 88.3307C41.4345 86.642 39.4647 84.2418 38.3015 81.4336C37.1383 78.6253 36.834 75.5353 37.427 72.5541C38.02 69.5729 39.4837 66.8345 41.633 64.6852C43.7823 62.5359 46.5207 61.0722 49.5019 60.4792C52.483 59.8862 55.5731 60.1906 58.3813 61.3538C61.1895 62.517 63.5898 64.4868 65.2785 67.0141C66.9672 69.5414 67.8685 72.5127 67.8685 75.5523C67.8638 79.6268 66.2432 83.5331 63.362 86.4143C60.4809 89.2954 56.5746 90.9161 52.5001 90.9207Z" fill="#64FF37"/>
<path d="M52.5 69.7892H56.3421C56.8516 69.7892 57.3402 69.5868 57.7005 69.2265C58.0607 68.8663 58.2631 68.3776 58.2631 67.8681C58.2631 67.3586 58.0607 66.87 57.7005 66.5097C57.3402 66.1495 56.8516 65.9471 56.3421 65.9471H54.421V64.026C54.421 63.5165 54.2186 63.0279 53.8584 62.6676C53.4981 62.3074 53.0095 62.105 52.5 62.105C51.9905 62.105 51.5019 62.3074 51.1416 62.6676C50.7813 63.0279 50.5789 63.5165 50.5789 64.026V66.3011C49.2977 66.7517 48.2173 67.6414 47.5294 68.8124C46.8414 69.9834 46.5903 71.3602 46.8204 72.6987C47.0506 74.0372 47.7472 75.251 48.7868 76.125C49.8264 76.999 51.1418 77.4767 52.5 77.4734C53.0095 77.4734 53.4981 77.6758 53.8584 78.0361C54.2186 78.3963 54.421 78.885 54.421 79.3945C54.421 79.9039 54.2186 80.3926 53.8584 80.7528C53.4981 81.1131 53.0095 81.3155 52.5 81.3155H48.6579C48.1484 81.3155 47.6597 81.5179 47.2995 81.8782C46.9392 82.2384 46.7368 82.7271 46.7368 83.2366C46.7368 83.7461 46.9392 84.2347 47.2995 84.595C47.6597 84.9552 48.1484 85.1576 48.6579 85.1576H50.5789V87.0787C50.5789 87.5882 50.7813 88.0768 51.1416 88.4371C51.5019 88.7973 51.9905 88.9997 52.5 88.9997C53.0095 88.9997 53.4981 88.7973 53.8584 88.4371C54.2186 88.0768 54.421 87.5882 54.421 87.0787V84.8036C55.7023 84.353 56.7826 83.4633 57.4706 82.2923C58.1585 81.1213 58.4097 79.7445 58.1795 78.406C57.9494 77.0675 57.2528 75.8537 56.2132 74.9797C55.1736 74.1057 53.8581 73.628 52.5 73.6313C51.9905 73.6313 51.5019 73.4289 51.1416 73.0686C50.7813 72.7084 50.5789 72.2197 50.5789 71.7102C50.5789 71.2007 50.7813 70.7121 51.1416 70.3519C51.5019 69.9916 51.9905 69.7892 52.5 69.7892Z" fill="#64FF37"/>
</svg>
