<svg width="105" height="105" viewBox="0 0 105 105" fill="none" xmlns="http://www.w3.org/2000/svg">
<g clip-path="url(#clip0_792_5)">
<path d="M58.4659 0C49.9275 0 42.9545 6.97297 42.9545 15.5114C42.9545 24.2455 48.0566 33.1657 53.6192 40.1196C56.3993 43.5965 59.3226 46.5652 61.9428 48.7272C63.253 49.8083 64.4796 50.6841 65.6346 51.3379C66.7896 51.9894 67.8133 52.5001 69.2045 52.5001C70.5958 52.5001 71.6195 51.9894 72.7745 51.3379C73.9295 50.6864 75.1561 49.8106 76.4663 48.7272C79.0841 46.5652 82.0098 43.5965 84.7899 40.1196C90.3549 33.1657 95.4569 24.2455 95.4569 15.5114C95.4569 6.97297 88.4816 0 79.9456 0C75.7838 0 72.0897 1.99023 69.2069 4.88967C66.317 1.99023 62.6253 0 58.4659 0ZM58.4659 4.77273C61.9667 4.77273 65.2384 6.47183 67.2525 9.33547C67.4727 9.64862 67.765 9.9042 68.1048 10.0806C68.4445 10.2571 68.8217 10.3492 69.2045 10.3492C69.5874 10.3492 69.9646 10.2571 70.3043 10.0806C70.6441 9.9042 70.9364 9.64862 71.1566 9.33547C72.1471 7.92517 73.4627 6.77422 74.9921 5.98C76.5216 5.18579 78.2198 4.77168 79.9432 4.77273C85.9019 4.77273 90.6818 9.55263 90.6818 15.5114C90.6818 22.2887 86.236 30.6696 81.0624 37.139C78.4732 40.3726 75.7313 43.1455 73.426 45.0475C72.4875 45.8426 71.4841 46.5578 70.4264 47.1856C69.6246 47.6391 69.0065 47.7273 69.2045 47.7273C69.4026 47.7273 68.7845 47.6391 67.9827 47.1856C66.9241 46.5579 65.9199 45.8427 64.9807 45.0475C62.6778 43.1455 59.9359 40.3726 57.3467 37.139C52.1731 30.6696 47.7297 22.2887 47.7297 15.5114C47.7297 9.55263 52.5048 4.77273 58.4659 4.77273ZM28.6698 52.5001C28.2211 52.4941 27.7797 52.6147 27.3965 52.8481C27.0132 53.0815 26.7035 53.4183 26.503 53.8197L15.2322 76.3638H2.38636C1.75346 76.3638 1.14648 76.6152 0.69895 77.0627C0.25142 77.5102 0 78.1172 0 78.7501C0 79.383 0.25142 79.99 0.69895 80.4375C1.14648 80.8851 1.75346 81.1365 2.38636 81.1365H16.7045C17.148 81.1367 17.5828 81.0133 17.96 80.7802C18.3373 80.5471 18.6421 80.2135 18.8403 79.8168L28.6364 60.2248L50.3666 103.68C50.5648 104.077 50.8694 104.41 51.2464 104.643C51.6235 104.877 52.058 105 52.5012 105C52.9444 105 53.3789 104.877 53.7559 104.643C54.133 104.41 54.4376 104.077 54.6358 103.68L69.2045 74.543L76.6166 89.3623C76.7865 89.7018 77.0349 89.9959 77.3413 90.2202C77.6477 90.4444 78.0032 90.5923 78.3782 90.6516C78.7532 90.7109 79.1369 90.6798 79.4975 90.561C79.8581 90.4422 80.1852 90.239 80.4515 89.9684L89.145 81.1365H102.614C103.247 81.1365 103.854 80.8851 104.301 80.4375C104.749 79.99 105 79.383 105 78.7501C105 78.1172 104.749 77.5102 104.301 77.0627C103.854 76.6152 103.247 76.3638 102.614 76.3638H88.1475C87.8307 76.3638 87.5171 76.4269 87.225 76.5494C86.9329 76.6719 86.6681 76.8514 86.446 77.0773L79.3943 84.2388L71.3403 68.1356C71.1424 67.7384 70.8377 67.4044 70.4604 67.1709C70.0832 66.9374 69.6482 66.8137 69.2045 66.8137C68.7609 66.8137 68.3259 66.9374 67.9487 67.1709C67.5714 67.4044 67.2667 67.7384 67.0688 68.1356L52.5 97.2755L30.7722 53.8197C30.5765 53.4281 30.2769 53.0978 29.9061 52.865C29.5352 52.6323 29.1075 52.506 28.6698 52.5001Z" fill="#64FF37"/>
</g>
<defs>
<clipPath id="clip0_792_5">
<rect width="105" height="105" fill="white"/>
</clipPath>
</defs>
</svg>
