<svg width="105" height="105" viewBox="0 0 105 105" fill="none" xmlns="http://www.w3.org/2000/svg">
<g clip-path="url(#clip0_795_27)">
<path fill-rule="evenodd" clip-rule="evenodd" d="M54.1406 34.9637V25.7642C54.1406 24.8585 53.4056 24.1235 52.5 24.1235C51.5944 24.1235 50.8594 24.8585 50.8594 25.7642V34.9637C50.8594 35.8693 51.5944 36.6043 52.5 36.6043C53.4056 36.6043 54.1406 35.8693 54.1406 34.9637Z" fill="#64FF37"/>
<path fill-rule="evenodd" clip-rule="evenodd" d="M86.5572 101.172H18.4429C17.4913 101.172 16.7202 100.401 16.7202 99.4492V58.7519C16.7202 57.8003 17.4913 57.0292 18.4429 57.0292H30.8537C31.7593 57.0292 32.4943 56.2942 32.4943 55.3886C32.4943 54.483 31.7593 53.748 30.8537 53.748H18.4429C15.679 53.748 13.439 55.988 13.439 58.7519V99.4492C13.439 102.213 15.679 104.453 18.4429 104.453C30.8712 104.453 74.129 104.453 86.5572 104.453C89.3212 104.453 91.5611 102.213 91.5611 99.4492V58.7519C91.5611 55.988 89.3212 53.748 86.5572 53.748H74.1465C73.2408 53.748 72.5058 54.483 72.5058 55.3886C72.5058 56.2942 73.2408 57.0292 74.1465 57.0292H86.5572C87.5088 57.0292 88.2799 57.8003 88.2799 58.7519V99.4492C88.2799 100.401 87.5088 101.172 86.5572 101.172ZM70.6333 49.3478V46.0469C70.6333 44.1995 69.6162 42.5031 67.9876 41.6336C63.7252 39.3553 53.2733 33.7717 53.2733 33.7717C52.7899 33.5136 52.2102 33.5136 51.7268 33.7717C51.7268 33.7717 41.2749 39.3553 37.0126 41.6336C35.384 42.5031 34.3668 44.1995 34.3668 46.0469V49.3478C34.3668 50.2534 35.1018 50.9884 36.0074 50.9884C36.913 50.9884 37.648 50.2534 37.648 49.3478V46.0469C37.648 45.4103 37.998 44.8262 38.558 44.5277L52.5001 37.0792L66.4421 44.5277C67.0021 44.8262 67.3521 45.4103 67.3521 46.0458C67.3521 46.0469 67.3521 49.3478 67.3521 49.3478C67.3521 50.2534 68.0871 50.9884 68.9927 50.9884C69.8983 50.9884 70.6333 50.2534 70.6333 49.3478Z" fill="#64FF37"/>
<path fill-rule="evenodd" clip-rule="evenodd" d="M74.4987 74.2864H79.6306C81.7743 74.2864 83.5134 72.5485 83.5134 70.4047V65.2499C83.5134 63.1061 81.7743 61.3682 79.6306 61.3682H74.4987C73.5931 61.3682 72.8581 62.1032 72.8581 63.0088C72.8581 63.9144 73.5931 64.6494 74.4987 64.6494H79.6306C79.962 64.6494 80.2321 64.9185 80.2321 65.2499C80.2321 65.251 80.2321 70.4036 80.2321 70.4036C80.2321 70.7361 79.962 71.0052 79.6306 71.0052H74.4987C73.5931 71.0052 72.8581 71.7402 72.8581 72.6458C72.8581 73.5514 73.5931 74.2864 74.4987 74.2864ZM40.949 74.2864C48.4237 74.2864 57.084 74.2864 64.5095 74.2864C65.414 74.2864 66.1501 73.5514 66.1501 72.6458C66.1501 71.7402 65.414 71.0052 64.5095 71.0052C57.084 71.0052 48.4237 71.0052 40.949 71.0052C40.0434 71.0052 39.3084 71.7402 39.3084 72.6458C39.3084 73.5514 40.0434 74.2864 40.949 74.2864ZM30.5256 61.3682H25.3696C23.2259 61.3682 21.4868 63.1061 21.4868 65.2499V70.4047C21.4868 72.5485 23.2259 74.2864 25.3696 74.2864H30.5256C31.4312 74.2864 32.1662 73.5514 32.1662 72.6458C32.1662 71.7402 31.4312 71.0052 30.5256 71.0052H25.3696C25.0382 71.0052 24.7681 70.7361 24.7681 70.4047C24.7681 70.4036 24.7681 65.2499 24.7681 65.2499C24.7681 64.9185 25.0382 64.6494 25.3696 64.6494H30.5256C31.4312 64.6494 32.1662 63.9144 32.1662 63.0088C32.1662 62.1032 31.4312 61.3682 30.5256 61.3682ZM63.9374 61.3682C56.6421 61.3682 48.2323 61.3682 40.949 61.3682C40.0434 61.3682 39.3084 62.1032 39.3084 63.0088C39.3084 63.9144 40.0434 64.6494 40.949 64.6494C48.2323 64.6494 56.6421 64.6494 63.9374 64.6494C64.8431 64.6494 65.5781 63.9144 65.5781 63.0088C65.5781 62.1032 64.8431 61.3682 63.9374 61.3682ZM74.5053 92.155H79.6306C81.7743 92.155 83.5134 90.4171 83.5134 88.2722V83.1185C83.5134 80.9736 81.7743 79.2357 79.6306 79.2357H74.5053C73.5996 79.2357 72.8646 79.9707 72.8646 80.8763C72.8646 81.7819 73.5996 82.5169 74.5053 82.5169H79.6306C79.962 82.5169 80.2321 82.786 80.2321 83.1185V88.2722C80.2321 88.6047 79.962 88.8738 79.6306 88.8738H74.5053C73.5996 88.8738 72.8646 89.6088 72.8646 90.5144C72.8646 91.42 73.5996 92.155 74.5053 92.155ZM41.3351 92.155C48.6063 92.155 56.9495 92.155 64.1693 92.155C65.0749 92.155 65.8099 91.42 65.8099 90.5144C65.8099 89.6088 65.0749 88.8738 64.1693 88.8738C56.9495 88.8738 48.6063 88.8738 41.3351 88.8738C40.4295 88.8738 39.6945 89.6088 39.6945 90.5144C39.6945 91.42 40.4295 92.155 41.3351 92.155ZM30.0148 79.2357H25.3696C23.2259 79.2357 21.4868 80.9736 21.4868 83.1185V88.2722C21.4868 90.4171 23.2259 92.155 25.3696 92.155H30.0148C30.9204 92.155 31.6554 91.42 31.6554 90.5144C31.6554 89.6088 30.9204 88.8738 30.0148 88.8738H25.3696C25.0382 88.8738 24.7681 88.6047 24.7681 88.2722V83.1185C24.7681 82.786 25.0382 82.5169 25.3696 82.5169H30.0148C30.9204 82.5169 31.6554 81.7819 31.6554 80.8763C31.6554 79.9707 30.9204 79.2357 30.0148 79.2357ZM64.1693 79.2357C58.5026 79.2357 52.1446 79.2357 46.1563 79.2357C45.2507 79.2357 44.5157 79.9707 44.5157 80.8763C44.5157 81.7819 45.2507 82.5169 46.1563 82.5169C52.1446 82.5169 58.5026 82.5169 64.1693 82.5169C65.0749 82.5169 65.8099 81.7819 65.8099 80.8763C65.8099 79.9707 65.0749 79.2357 64.1693 79.2357Z" fill="#64FF37"/>
<path fill-rule="evenodd" clip-rule="evenodd" d="M46.5345 90.5144V102.812C46.5345 103.718 47.2695 104.453 48.1751 104.453C49.0808 104.453 49.8158 103.718 49.8158 102.812V90.5144C49.8158 89.6087 49.0808 88.8737 48.1751 88.8737C47.2695 88.8737 46.5345 89.6087 46.5345 90.5144ZM58.4651 102.812V90.5144C58.4651 89.6087 57.7301 88.8737 56.8245 88.8737C55.9189 88.8737 55.1839 89.6087 55.1839 90.5144V102.812C55.1839 103.718 55.9189 104.453 56.8245 104.453C57.7301 104.453 58.4651 103.718 58.4651 102.812ZM50.8592 63.0088V72.6458C50.8592 73.5514 51.5942 74.2864 52.4998 74.2864C53.4054 74.2864 54.1404 73.5514 54.1404 72.6458V63.0088C54.1404 62.1031 53.4054 61.3681 52.4998 61.3681C51.5942 61.3681 50.8592 62.1031 50.8592 63.0088ZM50.8592 80.8763V90.5144C50.8592 91.42 51.5942 92.155 52.4998 92.155C53.4054 92.155 54.1404 91.42 54.1404 90.5144V80.8763C54.1404 79.9706 53.4054 79.2356 52.4998 79.2356C51.5942 79.2356 50.8592 79.9706 50.8592 80.8763ZM42.1311 102.585V53.0513C42.1311 50.2884 39.8911 48.0473 37.1283 48.0473C36.1844 48.0473 35.1595 48.0473 34.2167 48.0473C31.4528 48.0473 29.2128 50.2884 29.2128 53.0513V102.585C29.2128 103.491 29.9478 104.226 30.8534 104.226C31.759 104.226 32.494 103.491 32.494 102.585V53.0513C32.494 52.0997 33.2651 51.3286 34.2167 51.3286H37.1283C38.0787 51.3286 38.8498 52.0997 38.8498 53.0513V102.585C38.8498 103.491 39.5859 104.226 40.4904 104.226C41.3961 104.226 42.1311 103.491 42.1311 102.585ZM75.7869 102.585V53.0513C75.7869 50.2884 73.5469 48.0473 70.783 48.0473C69.8401 48.0473 68.8153 48.0473 67.8714 48.0473C65.1086 48.0473 62.8686 50.2884 62.8686 53.0513V102.585C62.8686 103.491 63.6036 104.226 64.5092 104.226C65.4137 104.226 66.1498 103.491 66.1498 102.585V53.0513C66.1498 52.0997 66.9209 51.3286 67.8714 51.3286H70.783C71.7345 51.3286 72.5056 52.0997 72.5056 53.0513V102.585C72.5056 103.491 73.2406 104.226 74.1462 104.226C75.0519 104.226 75.7869 103.491 75.7869 102.585ZM48.6706 6.15891H44.7758C43.5792 6.15891 42.5194 6.92891 42.1497 8.06641C41.78 9.205 42.1847 10.4508 43.1526 11.1541L46.3026 13.4433L45.0995 17.1467C44.7298 18.2842 45.1356 19.5311 46.1036 20.2344C47.0704 20.9377 48.3819 20.9377 49.3498 20.2344L52.4998 17.9452L55.6498 20.2344C56.6178 20.9377 57.9292 20.9377 58.8961 20.2344C59.864 19.5311 60.2698 18.2842 59.9001 17.1467L58.697 13.4433L61.847 11.1541C62.815 10.4508 63.2197 9.205 62.85 8.06641C62.4803 6.92891 61.4204 6.15891 60.2239 6.15891H56.329L55.1259 2.45547C54.7562 1.31687 53.6964 0.546875 52.4998 0.546875C51.3033 0.546875 50.2434 1.31687 49.8737 2.45547L48.6706 6.15891ZM52.4998 4.98969L53.3256 7.53156C53.6953 8.66906 54.7551 9.44016 55.9517 9.44016H58.6248L56.4625 11.0108C55.4945 11.7141 55.0898 12.9598 55.4595 14.0984L56.2853 16.6392L54.1229 15.0686C53.155 14.3653 51.8447 14.3653 50.8767 15.0686L48.7144 16.6392L49.5401 14.0984C49.9098 12.9598 49.5051 11.7141 48.5372 11.0108L46.3748 9.44016H49.0479C50.2445 9.44016 51.3044 8.66906 51.674 7.53156L52.4998 4.98969ZM72.8764 18.3345H68.7125C67.7587 18.3345 66.9144 18.9492 66.619 19.8559C66.3248 20.7627 66.6475 21.7558 67.4186 22.3169L70.7873 24.7647L69.5011 28.7252C69.2058 29.6319 69.5295 30.625 70.3006 31.1861C71.0717 31.7461 72.1162 31.7461 72.8884 31.1861L76.2572 28.7383L79.6259 31.1861C80.397 31.7461 81.4426 31.7461 82.2137 31.1861C82.9848 30.625 83.3075 29.6319 83.0133 28.7252L81.7259 24.7647L85.0958 22.3169C85.8669 21.7558 86.1895 20.7627 85.8953 19.8559C85.6 18.9492 84.7556 18.3345 83.8019 18.3345H79.6369L78.3506 14.3741C78.0553 13.4673 77.2109 12.8537 76.2572 12.8537C75.3034 12.8537 74.4579 13.4673 74.1637 14.3741L72.8764 18.3345ZM76.2572 18.55L76.7592 20.0955C77.0534 21.0022 77.8989 21.6158 78.8526 21.6158H80.4769L79.1633 22.5706C78.3911 23.1317 78.0684 24.1248 78.3637 25.0316L78.8658 26.577L77.5511 25.6222C76.7789 25.0622 75.7344 25.0622 74.9633 25.6222L73.6486 26.577L74.1506 25.0316C74.4459 24.1248 74.1233 23.1317 73.3511 22.5706L72.0364 21.6158H73.6617C74.6154 21.6158 75.4598 21.0022 75.7551 20.0955L76.2572 18.55ZM89.9433 36.3989H87.2515C86.2978 36.3989 85.4534 37.0136 85.1581 37.9203C84.8639 38.827 85.1865 39.8202 85.9576 40.3812L88.1353 41.9639L87.304 44.5233C87.0087 45.43 87.3325 46.4242 88.1036 46.9842C88.8747 47.5453 89.9192 47.5453 90.6914 46.9842L92.869 45.4027L95.0467 46.9842C95.8178 47.5453 96.8623 47.5453 97.6345 46.9842C98.4056 46.4242 98.7283 45.43 98.434 44.5233L97.6017 41.9639L99.7794 40.3812C100.552 39.8202 100.874 38.827 100.579 37.9203C100.285 37.0136 99.4392 36.3989 98.4854 36.3989H95.7937L94.9625 33.8395C94.6672 32.9317 93.8228 32.3181 92.869 32.3181C91.9153 32.3181 91.0698 32.9317 90.7756 33.8395L89.9433 36.3989ZM92.869 38.0144L92.9161 38.1598C93.2103 39.0666 94.0558 39.6802 95.0095 39.6802H95.1615L95.0379 39.7698C94.2669 40.3309 93.9442 41.3241 94.2384 42.2308L94.2855 42.3762L94.163 42.2866C93.3908 41.7255 92.3462 41.7255 91.5751 42.2866L91.4515 42.3762L91.4986 42.2308C91.7939 41.3241 91.4701 40.3309 90.699 39.7698L90.5754 39.6802H90.7286C91.6823 39.6802 92.5267 39.0666 92.822 38.1598L92.869 38.0144ZM9.20592 36.3989H6.5142C5.56045 36.3989 4.71498 37.0136 4.42076 37.9203C4.12545 38.827 4.4481 39.8202 5.22029 40.3812L7.39795 41.9639L6.5656 44.5233C6.27138 45.43 6.59404 46.4242 7.36514 46.9842C8.13732 47.5453 9.18185 47.5453 9.95295 46.9842L12.1306 45.4027L14.3083 46.9842C15.0804 47.5453 16.125 47.5453 16.8961 46.9842C17.6672 46.4242 17.9909 45.43 17.6956 44.5233L16.8644 41.9639L19.042 40.3812C19.8131 39.8202 20.1358 38.827 19.8415 37.9203C19.5462 37.0136 18.7019 36.3989 17.7481 36.3989H15.0564L14.224 33.8395C13.9298 32.9317 13.0844 32.3181 12.1306 32.3181C11.1769 32.3181 10.3325 32.9317 10.0372 33.8395L9.20592 36.3989ZM12.1306 38.0144L12.1776 38.1598C12.4729 39.0666 13.3173 39.6802 14.2711 39.6802H14.4242L14.3006 39.7698C13.5295 40.3309 13.2058 41.3241 13.5011 42.2308L13.5481 42.3762L13.4245 42.2866C12.6534 41.7255 11.6089 41.7255 10.8367 42.2866L10.7142 42.3762L10.7612 42.2308C11.0554 41.3241 10.7328 40.3309 9.9617 39.7698L9.8381 39.6802H9.99013C10.9439 39.6802 11.7894 39.0666 12.0836 38.1598L12.1306 38.0144ZM25.3628 18.3345H21.1978C20.244 18.3345 19.3997 18.9492 19.1044 19.8559C18.8101 20.7627 19.1328 21.7558 19.9039 22.3169L23.2737 24.7647L21.9864 28.7252C21.6922 29.6319 22.0148 30.625 22.7859 31.1861C23.557 31.7461 24.6026 31.7461 25.3737 31.1861L28.7425 28.7383L32.1112 31.1861C32.8834 31.7461 33.9279 31.7461 34.699 31.1861C35.4701 30.625 35.7939 29.6319 35.4986 28.7252L34.2123 24.7647L37.5811 22.3169C38.3522 21.7558 38.6748 20.7627 38.3806 19.8559C38.0853 18.9492 37.2409 18.3345 36.2872 18.3345H32.1233L30.8359 14.3741C30.5417 13.4673 29.6962 12.8537 28.7425 12.8537C27.7887 12.8537 26.9444 13.4673 26.649 14.3741L25.3628 18.3345ZM28.7425 18.55L29.2445 20.0955C29.5398 21.0022 30.3842 21.6158 31.3379 21.6158H32.9633L31.6486 22.5706C30.8764 23.1317 30.5537 24.1248 30.849 25.0316L31.3511 26.577L30.0364 25.6222C29.2653 25.0622 28.2208 25.0622 27.4486 25.6222L26.1339 26.577L26.6359 25.0316C26.9312 24.1248 26.6086 23.1317 25.8364 22.5706L24.5228 21.6158H26.147C27.1008 21.6158 27.9462 21.0022 28.2404 20.0955L28.7425 18.55Z" fill="#64FF37"/>
</g>
<defs>
<clipPath id="clip0_795_27">
<rect width="105" height="105" fill="white"/>
</clipPath>
</defs>
</svg>
