<svg width="105" height="105" viewBox="0 0 105 105" fill="none" xmlns="http://www.w3.org/2000/svg">
<path d="M84.4868 4.46809H77.0818V1.39628C77.0818 0.558511 76.5229 0 75.6846 0C74.8463 0 74.2874 0.558511 74.2874 1.39628V4.46809H61.7128V1.39628C61.7128 0.558511 61.1539 0 60.3156 0C59.4773 0 58.9184 0.558511 58.9184 1.39628V4.46809H46.3439V1.39628C46.3439 0.558511 45.785 0 44.9467 0C44.1084 0 43.5495 0.558511 43.5495 1.39628V4.46809H30.9749V1.39628C30.9749 0.558511 30.416 0 29.5777 0C28.7394 0 28.1805 0.558511 28.1805 1.39628V4.46809H20.7755C16.8634 4.46809 13.6499 7.67952 13.6499 11.5891V97.879C13.6499 101.789 16.8634 105 20.7755 105H84.2074C88.1194 105 91.333 101.789 91.333 97.879V11.5891C91.6124 7.67952 88.3989 4.46809 84.4868 4.46809ZM88.818 97.879C88.818 100.253 86.862 102.207 84.4868 102.207H21.0549C18.6797 102.207 16.7237 100.253 16.7237 97.879V11.5891C16.7237 9.21543 18.6797 7.26064 21.0549 7.26064H28.46V11.3098C25.6656 12.008 23.7096 14.3816 23.7096 17.3138C23.7096 20.6649 26.5039 23.4574 29.8572 23.4574C33.2104 23.4574 36.0047 20.6649 36.0047 17.3138C36.0047 14.3816 33.909 12.008 31.2543 11.3098V7.26064H43.8289V11.3098C41.0346 12.008 39.0785 14.3816 39.0785 17.3138C39.0785 20.6649 41.8729 23.4574 45.2261 23.4574C48.5793 23.4574 51.3737 20.6649 51.3737 17.3138C51.3737 14.3816 49.2779 12.008 46.6233 11.3098V7.26064H59.1979V11.3098C56.4035 12.008 54.4475 14.3816 54.4475 17.3138C54.4475 20.6649 57.2418 23.4574 60.5951 23.4574C63.9483 23.4574 66.7426 20.6649 66.7426 17.3138C66.7426 14.3816 64.6469 12.008 61.9922 11.3098V7.26064H74.5668V11.3098C71.7725 12.008 69.8164 14.3816 69.8164 17.3138C69.8164 20.6649 72.6108 23.4574 75.964 23.4574C79.3172 23.4574 82.1116 20.6649 82.1116 17.3138C82.1116 14.3816 80.0158 12.008 77.3612 11.3098V7.26064H84.7662C87.1414 7.26064 89.0975 9.21543 89.0975 11.5891V97.879H88.818ZM29.8572 18.7101C30.6955 18.7101 31.2543 18.1516 31.2543 17.3138V14.242C32.3721 14.8005 33.2104 15.9176 33.2104 17.3138C33.2104 19.129 31.6735 20.6649 29.8572 20.6649C28.0408 20.6649 26.5039 19.129 26.5039 17.3138C26.5039 15.9176 27.3422 14.8005 28.46 14.242V17.3138C28.46 18.012 29.0188 18.7101 29.8572 18.7101ZM45.0864 18.7101C45.9247 18.7101 46.4836 18.1516 46.4836 17.3138V14.242C47.6013 14.8005 48.4396 15.9176 48.4396 17.3138C48.4396 19.129 46.9027 20.6649 45.0864 20.6649C43.2701 20.6649 41.7332 19.129 41.7332 17.3138C41.7332 15.9176 42.5715 14.8005 43.6892 14.242V17.3138C43.6892 18.012 44.3878 18.7101 45.0864 18.7101ZM60.4553 18.7101C61.2936 18.7101 61.8525 18.1516 61.8525 17.3138V14.242C62.9703 14.8005 63.8086 15.9176 63.8086 17.3138C63.8086 19.129 62.2717 20.6649 60.4553 20.6649C58.639 20.6649 57.1021 19.129 57.1021 17.3138C57.1021 15.9176 57.9404 14.8005 59.0582 14.242V17.3138C59.0582 18.012 59.617 18.7101 60.4553 18.7101ZM75.6846 18.7101C76.5229 18.7101 77.0818 18.1516 77.0818 17.3138V14.242C78.1995 14.8005 79.0378 15.9176 79.0378 17.3138C79.0378 19.129 77.5009 20.6649 75.6846 20.6649C73.8682 20.6649 72.3313 19.129 72.3313 17.3138C72.3313 15.9176 73.1697 14.8005 74.2874 14.242V17.3138C74.2874 18.012 74.986 18.7101 75.6846 18.7101Z" fill="#64FF37"/>
<path d="M81.5657 35.7002H23.4339C22.6034 35.7002 22.0498 36.2602 22.0498 37.1002C22.0498 37.9402 22.6034 38.5002 23.4339 38.5002H81.5657C82.3962 38.5002 82.9498 37.9402 82.9498 37.1002C82.9498 36.4002 82.3962 35.7002 81.5657 35.7002ZM81.5657 46.9002H23.4339C22.6034 46.9002 22.0498 47.4602 22.0498 48.3002C22.0498 49.1402 22.6034 49.7002 23.4339 49.7002H81.5657C82.3962 49.7002 82.9498 49.1402 82.9498 48.3002C82.9498 47.6002 82.3962 46.9002 81.5657 46.9002ZM81.5657 58.1002H23.4339C22.6034 58.1002 22.0498 58.6602 22.0498 59.5002C22.0498 60.3402 22.6034 60.9002 23.4339 60.9002H81.5657C82.3962 60.9002 82.9498 60.3402 82.9498 59.5002C82.9498 58.8002 82.3962 58.1002 81.5657 58.1002ZM81.5657 69.3002H23.4339C22.6034 69.3002 22.0498 69.8602 22.0498 70.7002C22.0498 71.5402 22.6034 72.1002 23.4339 72.1002H81.5657C82.3962 72.1002 82.9498 71.5402 82.9498 70.7002C82.9498 70.0002 82.3962 69.3002 81.5657 69.3002ZM81.5657 80.5002H23.4339C22.6034 80.5002 22.0498 81.0602 22.0498 81.9002C22.0498 82.7402 22.6034 83.3002 23.4339 83.3002H81.5657C82.3962 83.3002 82.9498 82.7402 82.9498 81.9002C82.9498 81.2002 82.3962 80.5002 81.5657 80.5002ZM81.5657 91.7002H23.4339C22.6034 91.7002 22.0498 92.2602 22.0498 93.1002C22.0498 93.9402 22.6034 94.5002 23.4339 94.5002H81.5657C82.3962 94.5002 82.9498 93.9402 82.9498 93.1002C82.9498 92.4002 82.3962 91.7002 81.5657 91.7002Z" fill="#64FF37"/>
</svg>
