<svg width="105" height="105" viewBox="0 0 105 105" fill="none" xmlns="http://www.w3.org/2000/svg">
<g clip-path="url(#clip0_795_24)">
<path d="M102.813 92.2521L93.6984 83.1386C95.7441 78.8919 96.4231 74.1154 95.6421 69.4667C94.861 64.8181 92.6581 60.5258 89.3368 57.1808C88.0594 55.9047 86.6334 54.7867 85.0895 53.8506V41.1626H92.7549C93.0081 41.1626 93.2583 41.1076 93.4883 41.0014C93.7182 40.8953 93.9223 40.7405 94.0866 40.5478C94.2509 40.3551 94.3714 40.1291 94.4398 39.8853C94.5082 39.6414 94.5228 39.3857 94.4828 39.1357C92.9492 32.2201 89.7214 25.7939 85.0895 20.4344V1.75107C85.0895 1.28693 84.9051 0.841789 84.5769 0.513587C84.2487 0.185386 83.8036 0.00100469 83.3394 0.00100469H67.6586C67.1944 0.00100469 66.7493 0.185386 66.4211 0.513587C66.0929 0.841789 65.9085 1.28693 65.9085 1.75107V5.86898C60.0679 3.16712 53.9123 1.20647 47.585 0.032681C47.3664 -0.0108936 47.1413 -0.0108936 46.9226 0.032681C5.40061 8.01211 0.0699962 38.8289 0.0213436 39.14C-0.0180281 39.3898 -0.00280288 39.6452 0.0659715 39.8885C0.134746 40.1318 0.255436 40.3574 0.419732 40.5496C0.584028 40.7418 0.788029 40.8961 1.01769 41.002C1.24735 41.1078 1.49722 41.1626 1.75009 41.1626H9.41549V81.5891H6.45783C5.99368 81.5891 5.54854 81.7735 5.22033 82.1017C4.89213 82.4299 4.70774 82.8751 4.70774 83.3392V92.7546C4.70774 93.2187 4.89213 93.6638 5.22033 93.9921C5.54854 94.3203 5.99368 94.5046 6.45783 94.5046H65.2014C70.5005 96.5357 76.3709 96.4919 81.639 94.3821C82.1504 94.1798 82.6553 93.9511 83.15 93.7098L92.2525 102.813C93.6529 104.213 95.5522 105 97.5327 105C99.5131 105 101.412 104.213 102.813 102.813C104.213 101.413 105 99.5132 105 97.5328C105 95.5523 104.213 93.6525 102.813 92.2521ZM11.1656 37.6625H3.94628C5.79542 30.9835 14.1582 10.0212 47.2525 3.53369C54.0736 4.80717 60.6725 7.06835 66.8411 10.2459C67.1078 10.3868 67.4063 10.4563 67.7078 10.4479C68.0093 10.4394 68.3035 10.3531 68.5618 10.1975C68.8201 10.0418 69.0338 9.82204 69.1822 9.55947C69.3306 9.2969 69.4086 9.00043 69.4087 8.69884V3.50114H81.5893V21.0718C81.5893 21.4874 81.7371 21.8893 82.0064 22.2059C85.8904 26.71 88.7931 31.9741 90.5293 37.6625H83.3394C82.8753 37.6625 82.4301 37.8468 82.1019 38.175C81.7737 38.5032 81.5893 38.9484 81.5893 39.4125V52.1049C81.5559 52.0918 81.5207 52.0851 81.4873 52.0722C80.727 51.7822 79.9517 51.5335 79.1646 51.3272C79.0223 51.2895 78.881 51.2512 78.7382 51.2164C77.9629 51.0264 77.1782 50.8772 76.3873 50.7692C76.2493 50.7503 76.1114 50.7363 75.9729 50.7202C75.1626 50.6219 74.3476 50.5667 73.5314 50.5547C73.4523 50.5536 73.3739 50.5585 73.2944 50.5585C72.4787 50.5574 71.6634 50.5995 70.8521 50.6845C70.7872 50.6914 70.7219 50.6936 70.657 50.701C69.8403 50.7976 69.0294 50.9378 68.2277 51.121C68.0987 51.15 67.9701 51.1758 67.8416 51.2071C67.0636 51.3964 66.2962 51.6267 65.5425 51.8971C65.4073 51.9454 65.2737 51.996 65.14 52.047C64.3804 52.3329 63.637 52.6601 62.913 53.027C62.8136 53.0776 62.7174 53.1343 62.6185 53.1864C62.4328 53.2848 62.2473 53.383 62.0641 53.4866C61.8468 53.3924 61.6126 53.3436 61.3757 53.3431H33.1292C32.6651 53.3431 32.22 53.5274 31.8917 53.8556C31.5635 54.1838 31.3792 54.629 31.3792 55.0931V81.5891H12.9157V39.4125C12.9157 38.9484 12.7313 38.5032 12.4031 38.175C12.0749 37.8468 11.6297 37.6625 11.1656 37.6625ZM55.9741 58.4954C55.8439 58.6487 55.7259 58.8096 55.6003 58.9657C55.3553 59.2693 55.1125 59.5733 54.8855 59.8874C54.748 60.0777 54.622 60.2738 54.4909 60.4676C54.294 60.759 54.0985 61.0503 53.9161 61.3491C53.7875 61.5591 53.668 61.7744 53.5467 61.9886C53.381 62.2812 53.2187 62.575 53.0665 62.8739C52.9527 63.0974 52.8451 63.323 52.7389 63.5498C52.5989 63.8498 52.4647 64.152 52.3363 64.4567C52.2402 64.6873 52.1478 64.9191 52.0591 65.152C51.9415 65.4628 51.833 65.7759 51.7291 66.0909C51.6521 66.3247 51.5749 66.558 51.5052 66.7939C51.4098 67.1178 51.3265 67.4444 51.2455 67.772C51.1883 68.0037 51.1274 68.2342 51.0773 68.4673C51.0022 68.8163 50.9429 69.1673 50.8848 69.5196C50.8498 69.7345 50.8062 69.9477 50.7765 70.1633C50.7182 70.5849 50.6797 71.0084 50.6449 71.4326C50.6326 71.5809 50.6113 71.7284 50.6018 71.877C50.5668 72.4467 50.5524 73.0174 50.5586 73.5891C50.5605 73.7609 50.5761 73.9324 50.5819 74.1043C50.5957 74.5068 50.6113 74.9093 50.6463 75.3104C50.6661 75.5392 50.6988 75.7667 50.7264 75.9949C50.7669 76.34 50.8078 76.6849 50.8642 77.0285C50.9041 77.2721 50.9553 77.5139 51.0031 77.7563C51.0677 78.0825 51.1344 78.4082 51.2131 78.7321C51.2739 78.981 51.3428 79.2281 51.4121 79.4754C51.5007 79.7904 51.594 80.1054 51.6965 80.4173C51.7772 80.6631 51.8625 80.9077 51.9522 81.1511C52.0047 81.2965 52.0485 81.4446 52.1048 81.5886H49.0026V56.8432H57.5255C57.4103 56.9544 57.2949 57.0674 57.1795 57.1824C56.7567 57.6057 56.357 58.045 55.9741 58.4954ZM34.8793 81.5891V56.8432H45.5024V81.5891H34.8793ZM8.20793 91.0045V85.0893H47.2483L47.2525 85.0903L47.2567 85.0894H53.8341C53.8659 85.1419 53.9072 85.189 53.9391 85.241C54.347 85.9004 54.7895 86.5378 55.2648 87.1505C55.3563 87.2685 55.4526 87.3827 55.5465 87.4993C56.5569 88.7739 57.7071 89.9311 58.9755 90.9492C58.9968 90.9667 59.0157 90.9873 59.0371 91.0045H8.20793ZM80.348 91.1284C75.7844 92.9523 70.6942 92.9517 66.1311 91.1267C61.9794 89.4701 58.5334 86.4206 56.3843 82.5011C54.409 78.8456 53.6606 74.6521 54.2494 70.539C54.8382 66.4259 56.733 62.6108 59.6545 59.6562C60.4824 58.8185 61.3919 58.0657 62.3694 57.4088C63.0571 56.9392 63.7753 56.5161 64.5193 56.1423C64.5975 56.1026 64.6734 56.0579 64.752 56.0198C65.4552 55.6775 66.1789 55.3789 66.9188 55.1257C67.0369 55.0847 67.1544 55.0413 67.2734 55.0032C67.996 54.7696 68.7317 54.579 69.4767 54.4321C69.6113 54.4055 69.7461 54.3804 69.8812 54.3569C70.6254 54.2243 71.3766 54.135 72.1311 54.0895C72.2596 54.0821 72.3884 54.0804 72.517 54.0753C73.0711 54.0538 73.6253 54.077 74.1796 54.1026C74.5441 54.1201 74.9087 54.132 75.272 54.1693C75.7584 54.2191 76.2407 54.3042 76.7228 54.3908C77.0688 54.4529 77.4162 54.5025 77.7589 54.5833C78.2839 54.7078 78.7984 54.8765 79.3131 55.0453C79.6014 55.14 79.8952 55.213 80.1798 55.3217C80.966 55.6201 81.7314 55.9709 82.4707 56.3717L82.5057 56.3892C84.1072 57.2621 85.5737 58.3625 86.8595 59.6561C89.8079 62.6218 91.7123 66.4655 92.2857 70.6078C92.859 74.7502 92.0703 78.9666 90.0384 82.6217L90.023 82.6509C89.1639 84.2156 88.0844 85.6488 86.8175 86.9064C85.5769 88.1494 84.162 89.2052 82.6173 90.0407C81.8866 90.4547 81.1285 90.8181 80.348 91.1284ZM100.338 100.338C99.5932 101.08 98.5844 101.497 97.5327 101.497C96.4809 101.497 95.4721 101.08 94.7273 100.338L86.2852 91.8941C86.3648 91.8388 86.4416 91.7703 86.5209 91.7135C86.8534 91.4744 87.1844 91.2187 87.5125 90.9536C87.6595 90.8347 87.8077 90.7217 87.9537 90.5976C88.4215 90.2 88.8858 89.7821 89.3445 89.3288C89.785 88.8831 90.1959 88.4253 90.5897 87.9611C90.7113 87.8176 90.8235 87.671 90.9408 87.5257C91.2084 87.1943 91.4658 86.8596 91.7094 86.5201C91.7672 86.4394 91.8356 86.3626 91.8918 86.2816L100.338 94.7269C101.081 95.4717 101.497 96.4805 101.497 97.5322C101.497 98.5839 101.081 99.5928 100.338 100.338Z" fill="#64FF37"/>
<path d="M34.4407 44.2969H60.7156C61.1474 44.2969 61.5615 44.1072 61.8669 43.7696C62.1722 43.432 62.3438 42.9741 62.3438 42.4966V37.654C62.3438 33.3241 60.7881 29.1716 58.019 26.1099C55.2499 23.0482 51.4942 21.3281 47.5781 21.3281C43.662 21.3281 39.9063 23.0482 37.1373 26.1099C34.3682 29.1716 32.8125 33.3241 32.8125 37.654V42.4966C32.8125 42.9741 32.984 43.432 33.2894 43.7696C33.5947 44.1072 34.0089 44.2969 34.4407 44.2969ZM36.0689 37.654C36.0689 34.279 37.2814 31.0423 39.4398 28.6558C41.5983 26.2693 44.5257 24.9286 47.5781 24.9286C50.6306 24.9286 53.558 26.2693 55.7164 28.6558C57.8748 31.0423 59.0874 34.279 59.0874 37.654V40.6964H36.0689V37.654Z" fill="#64FF37"/>
</g>
<defs>
<clipPath id="clip0_795_24">
<rect width="105" height="105" fill="white"/>
</clipPath>
</defs>
</svg>
