<svg width="105" height="105" viewBox="0 0 105 105" fill="none" xmlns="http://www.w3.org/2000/svg">
<g clip-path="url(#clip0_795_33)">
<path d="M91.1699 35.506H67.7437V26.7567H75.773C76.0304 26.7638 76.2866 26.7189 76.5263 26.6248C76.7659 26.5307 76.9842 26.3893 77.168 26.209C77.3519 26.0287 77.4975 25.8132 77.5963 25.5754C77.695 25.3376 77.7449 25.0824 77.7428 24.8249V14.5306C78.8221 14.1862 79.8072 13.5972 80.6216 12.8097C81.5786 11.8486 82.2295 10.6255 82.492 9.29475C82.7545 7.96404 82.6169 6.58538 82.0965 5.33281C81.5761 4.08025 80.6963 3.00993 79.5681 2.25697C78.4399 1.50402 77.114 1.10217 75.7576 1.10217C74.4013 1.10217 73.0753 1.50402 71.9471 2.25697C70.819 3.00993 69.9392 4.08025 69.4188 5.33281C68.8984 6.58538 68.7608 7.96404 69.0233 9.29475C69.2858 10.6255 69.9366 11.8486 70.8937 12.8097C71.6975 13.5963 72.673 14.1854 73.7434 14.5306V22.7571H65.8349C65.288 22.7689 64.7665 22.9899 64.3776 23.3745C63.9887 23.7592 63.762 24.2782 63.7441 24.8249V35.506H58.9945V13.4289C60.0762 13.1024 61.0601 12.5131 61.8585 11.7136C62.9243 10.6496 63.6117 9.26545 63.8155 7.77333C64.0194 6.28122 63.7283 4.76343 62.9869 3.4526C62.2455 2.14176 61.0947 1.1102 59.7109 0.516013C58.3271 -0.0781737 56.7866 -0.202202 55.3256 0.162937C53.8646 0.528077 52.5636 1.36224 51.622 2.53757C50.6804 3.71291 50.1503 5.16457 50.1127 6.67007C50.0752 8.17558 50.5324 9.65185 51.4142 10.8727C52.296 12.0935 53.5538 12.9914 54.9948 13.4289V35.506H50.2453V24.8249C50.2274 24.2782 50.0006 23.7592 49.6117 23.3745C49.2228 22.9899 48.7013 22.7689 48.1544 22.7571H40.2461V14.5306C41.3166 14.1855 42.2922 13.5964 43.0959 12.8097C44.0628 11.8469 44.7222 10.6188 44.9905 9.28099C45.2588 7.94315 45.124 6.55577 44.6032 5.2946C44.0824 4.03342 43.199 2.9552 42.0648 2.19653C40.9307 1.43786 39.5969 1.03288 38.2325 1.03288C36.868 1.03288 35.5342 1.43786 34.4001 2.19653C33.2659 2.9552 32.3825 4.03342 31.8617 5.2946C31.3409 6.55577 31.2061 7.94315 31.4744 9.28099C31.7427 10.6188 32.4021 11.8469 33.369 12.8097C34.183 13.597 35.1677 14.1859 36.2465 14.5306V24.8249C36.2445 25.0824 36.2943 25.3376 36.393 25.5754C36.4918 25.8132 36.6374 26.0287 36.8213 26.209C37.0051 26.3893 37.2234 26.5307 37.4631 26.6248C37.7028 26.7189 37.9589 26.7638 38.2163 26.7567H46.2456V35.506H22.6252C22.3735 35.4988 22.123 35.5438 21.8895 35.6381C21.656 35.7323 21.4445 35.8738 21.2682 36.0536C21.092 36.2334 20.9547 36.4477 20.8652 36.6831C20.7757 36.9184 20.7357 37.1698 20.7479 37.4213V47.6779L10.987 71.5278C10.697 72.22 10.5826 72.9732 10.6539 73.7203C10.7253 74.4674 10.9802 75.1853 11.3959 75.8101C11.8117 76.4349 12.3755 76.9473 13.0371 77.3017C13.6987 77.656 14.4376 77.8414 15.1881 77.8412H15.2349L21.1391 77.7727L23.9713 91.4197C24.1886 92.4436 24.7477 93.363 25.5569 94.027C26.366 94.6909 27.3769 95.0597 28.4234 95.0729L40.9861 95.1729L41.5263 103.153C41.5612 103.657 41.7869 104.129 42.1576 104.472C42.5282 104.815 43.0158 105.004 43.5209 105H85.3137C85.5753 105.002 85.8347 104.952 86.0771 104.854C86.3195 104.755 86.5399 104.61 86.7258 104.426C86.9117 104.241 87.0593 104.022 87.1602 103.781C87.261 103.54 87.3131 103.281 87.3135 103.019C87.3135 102.806 87.318 81.6549 87.7029 77.806C87.7054 77.7782 87.7077 77.756 87.7094 77.7277C87.9404 73.7531 89.3016 68.8585 90.7424 63.6735C93.4017 54.1043 96.1512 44.2552 93.0165 36.6963C92.8627 36.3363 92.6046 36.0305 92.2755 35.8183C91.9464 35.6062 91.5613 35.4974 91.1699 35.506ZM73.7374 9.98146C73.2665 9.51055 72.9735 8.89093 72.9083 8.22819C72.843 7.56545 73.0096 6.90059 73.3796 6.34688C73.7496 5.79318 74.3001 5.38489 74.9374 5.19158C75.5746 4.99828 76.2592 5.03192 76.8745 5.28677C77.4897 5.54162 77.9976 6.00191 78.3115 6.58922C78.6255 7.17653 78.726 7.85453 78.5961 8.50768C78.4662 9.16083 78.1138 9.74873 77.5991 10.1712C77.0843 10.5937 76.4389 10.8246 75.773 10.8246C75.3948 10.8257 75.0202 10.7517 74.6708 10.6069C74.3214 10.4622 74.0041 10.2496 73.7374 9.98146ZM54.9591 4.81417C55.3617 4.41157 55.8746 4.13739 56.4331 4.02631C56.9915 3.91523 57.5703 3.97224 58.0963 4.19012C58.6223 4.40801 59.0719 4.77698 59.3883 5.25039C59.7046 5.7238 59.8734 6.28038 59.8734 6.84974C59.8734 7.4191 59.7046 7.97568 59.3883 8.44909C59.0719 8.9225 58.6223 9.29147 58.0963 9.50936C57.5703 9.72724 56.9915 9.78425 56.4331 9.67317C55.8746 9.56209 55.3617 9.28791 54.9591 8.88531C54.6907 8.61858 54.4778 8.30142 54.3324 7.95208C54.1871 7.60274 54.1123 7.22811 54.1123 6.84974C54.1123 6.47137 54.1871 6.09674 54.3324 5.7474C54.4778 5.39806 54.6907 5.0809 54.9591 4.81417ZM35.3376 7.94589C35.3376 7.47248 35.4543 7.00637 35.6775 6.58886C35.9007 6.17134 36.2233 5.81531 36.617 5.55229C37.0106 5.28927 37.463 5.12739 37.9342 5.08099C38.4053 5.03459 38.8806 5.10509 39.318 5.28626C39.7553 5.46742 40.1413 5.75366 40.4416 6.11962C40.742 6.48557 40.9474 6.91995 41.0398 7.38426C41.1321 7.84858 41.1085 8.32851 40.9711 8.78154C40.8337 9.23457 40.5867 9.64671 40.2519 9.98146C39.8493 10.384 39.3364 10.6581 38.778 10.7691C38.2196 10.8801 37.6408 10.8231 37.1149 10.6052C36.5889 10.3873 36.1394 10.0184 35.823 9.54506C35.5067 9.07171 35.3379 8.5152 35.3378 7.94589H35.3376ZM86.8888 62.647C85.3937 68.0276 83.981 73.0711 83.7188 77.462C83.3871 80.8969 83.3271 95.5006 83.3173 101H45.3907L44.8512 93.0348C44.8169 92.5327 44.5936 92.0622 44.2264 91.718C43.8592 91.3738 43.3752 91.1814 42.8719 91.1795L28.4549 91.0678C28.3214 91.0667 28.1922 91.0201 28.0887 90.9356C27.9852 90.8512 27.9136 90.7339 27.8857 90.6033L24.7163 75.3452C24.6222 74.8911 24.373 74.4838 24.0116 74.1933C23.6502 73.9027 23.1989 73.7469 22.7352 73.7526L15.1806 73.8406C15.0839 73.842 14.9884 73.8193 14.9027 73.7747C14.8169 73.73 14.7436 73.6647 14.6894 73.5846C14.6339 73.5054 14.5994 73.4133 14.5892 73.3171C14.579 73.221 14.5933 73.1237 14.6309 73.0346L24.539 48.823C24.6555 48.5873 24.7263 48.3317 24.7475 48.0696V39.5056H89.7585C91.6028 45.755 89.2088 54.299 86.8888 62.647Z" fill="#64FF37"/>
</g>
<defs>
<clipPath id="clip0_795_33">
<rect width="105" height="105" fill="white"/>
</clipPath>
</defs>
</svg>
