<svg width="105" height="105" viewBox="0 0 105 105" fill="none" xmlns="http://www.w3.org/2000/svg">
<g clip-path="url(#clip0_795_19)">
<path d="M88.986 45.7799C88.7726 45.7843 88.5644 45.7127 88.3978 45.5775C88.2311 45.4423 88.1164 45.2522 88.0738 45.0402C86.9367 39.4913 84.5431 34.2862 81.0818 29.8355C77.6206 25.3848 73.1864 21.8104 68.1292 19.3943C67.9148 19.2872 67.7504 19.0992 67.6714 18.8706C67.5924 18.6419 67.605 18.391 67.7066 18.1718C67.8082 17.9525 67.9906 17.7824 68.2146 17.698C68.4386 17.6137 68.6863 17.6218 68.9045 17.7206C74.2185 20.2587 78.8778 24.014 82.5148 28.6901C86.1518 33.3663 88.6669 38.8354 89.8617 44.6657C89.8856 44.7847 89.8863 44.9073 89.8635 45.0266C89.8407 45.1458 89.795 45.2594 89.7289 45.3607C89.6628 45.462 89.5777 45.5492 89.4784 45.6171C89.3791 45.6851 89.2676 45.7326 89.1502 45.7568C89.0963 45.77 89.0413 45.7778 88.986 45.7799Z" fill="#64FF37"/>
<path d="M68.5184 19.4338C68.383 19.4337 68.2492 19.4038 68.1266 19.346L67.4398 19.0364C67.325 18.9899 67.2207 18.9206 67.1331 18.8328C67.0456 18.745 66.9766 18.6404 66.9303 18.5253C66.884 18.4101 66.8613 18.2868 66.8635 18.1627C66.8658 18.0385 66.893 17.9162 66.9435 17.8028C66.994 17.6894 67.0668 17.5874 67.1575 17.5029C67.2482 17.4183 67.3549 17.353 67.4714 17.3107C67.5878 17.2684 67.7116 17.2501 67.8352 17.2568C67.9589 17.2636 68.08 17.2952 68.1912 17.3499L68.901 17.6733C69.0907 17.7627 69.2443 17.9141 69.3366 18.1028C69.4288 18.2914 69.4543 18.5059 69.4086 18.7109C69.363 18.9159 69.249 19.0992 69.0855 19.2306C68.9221 19.3621 68.7188 19.4337 68.5092 19.4338H68.5184ZM16.2372 45.767C16.1759 45.774 16.1141 45.774 16.0528 45.767C15.9339 45.7408 15.8214 45.6912 15.7217 45.6211C15.622 45.5511 15.5371 45.462 15.4719 45.3588C15.4068 45.2557 15.3627 45.1407 15.3421 45.0204C15.3216 44.9001 15.325 44.777 15.3522 44.658C16.5552 38.8192 19.0975 33.3413 22.7777 28.6577C26.4579 23.9741 31.1751 20.2134 36.556 17.6733C36.7779 17.5691 37.032 17.5576 37.2623 17.6412C37.4927 17.7249 37.6805 17.8968 37.7844 18.1192C37.8883 18.3416 37.8999 18.5963 37.8164 18.8273C37.733 19.0582 37.5615 19.2465 37.3396 19.3506C32.2198 21.7673 27.7316 25.3457 24.2305 29.8025C20.7294 34.2592 18.3115 39.4719 17.1683 45.0277C17.125 45.2411 17.0077 45.4324 16.8374 45.5677C16.667 45.7029 16.4544 45.7735 16.2372 45.767ZM32.7024 84.7146C32.5273 84.7132 32.3563 84.6619 32.2092 84.5667C23.7842 79.2106 17.8014 70.745 15.555 61.0013C15.4994 60.7623 15.5407 60.511 15.67 60.3026C15.7992 60.0942 16.0057 59.9458 16.2441 59.89C16.4825 59.8343 16.7332 59.8757 16.9411 60.0053C17.149 60.1348 17.2971 60.3419 17.3527 60.5808C19.4903 69.8527 25.1833 77.9082 33.2003 83.0049C33.3716 83.1113 33.5034 83.2711 33.5756 83.4597C33.6477 83.6484 33.6562 83.8555 33.5997 84.0494C33.5432 84.2434 33.4249 84.4134 33.2629 84.5336C33.1008 84.6537 32.904 84.7173 32.7024 84.7146ZM72.7315 84.7146C72.5327 84.714 72.3394 84.6491 72.1804 84.5295C72.0215 84.4098 71.9053 84.2419 71.8493 84.0507C71.7933 83.8594 71.8005 83.6552 71.8698 83.4684C71.9391 83.2816 72.0667 83.1223 72.2337 83.0142C80.1262 77.9923 85.7714 70.1011 87.9845 60.9967C88.0425 60.7583 88.1927 60.5529 88.4019 60.4255C88.6111 60.2981 88.8622 60.2592 89.1 60.3174C89.3378 60.3756 89.5427 60.5262 89.6698 60.7359C89.7969 60.9456 89.8356 61.1973 89.7776 61.4356C87.4522 71.0031 81.5194 79.2953 73.2248 84.5713C73.0772 84.6649 72.9062 84.7146 72.7315 84.7146ZM99.9047 72.1833C99.7878 72.1847 99.6719 72.1627 99.5636 72.1186C99.4509 72.0738 99.3482 72.0072 99.2613 71.9225C99.1743 71.8378 99.1049 71.7368 99.0569 71.6252C99.009 71.5137 98.9834 71.3937 98.9818 71.2722C98.9801 71.1507 99.0024 71.0301 99.0473 70.9172C99.8296 68.9596 100.484 66.9531 101.006 64.9104C101.068 64.6726 101.22 64.469 101.431 64.3442C101.642 64.2194 101.894 64.1837 102.131 64.245C102.368 64.3063 102.571 64.4595 102.696 64.6709C102.82 64.8824 102.856 65.1347 102.795 65.3724C102.247 67.4861 101.569 69.5633 100.762 71.5919C100.695 71.7655 100.578 71.9149 100.425 72.0205C100.272 72.126 100.09 72.1828 99.9047 72.1833ZM103.251 48.0865C103.022 48.0877 102.8 48.0031 102.63 47.8493C102.459 47.6955 102.352 47.4836 102.329 47.2548C101.27 37.1596 97.184 27.6232 90.609 19.9031C84.0341 12.183 75.2793 6.64174 65.4992 4.01001C65.3739 3.9879 65.2545 3.94004 65.1486 3.86944C65.0426 3.79884 64.9524 3.70702 64.8836 3.59976C64.8148 3.4925 64.7689 3.37212 64.7487 3.2462C64.7286 3.12028 64.7346 2.99155 64.7665 2.8681C64.7984 2.74464 64.8555 2.62915 64.9341 2.52887C65.0127 2.4286 65.1112 2.34572 65.2233 2.28545C65.3354 2.22518 65.4587 2.18882 65.5856 2.17866C65.7124 2.1685 65.8399 2.18477 65.9601 2.22643C76.0995 4.95251 85.1767 10.6947 91.9952 18.6959C98.8136 26.6972 103.053 36.5819 104.155 47.0469C104.167 47.168 104.156 47.2904 104.122 47.4072C104.087 47.5239 104.03 47.6327 103.953 47.7271C103.876 47.8216 103.782 47.8999 103.675 47.9577C103.568 48.0154 103.45 48.0513 103.33 48.0634L103.251 48.0865ZM2.18275 47.5736H2.08134C1.96083 47.5604 1.84411 47.5235 1.73785 47.465C1.63159 47.4065 1.53789 47.3276 1.4621 47.2327C1.38632 47.1378 1.32994 47.0289 1.2962 46.9122C1.26245 46.7955 1.25201 46.6733 1.26546 46.5525C2.46895 36.1184 6.7912 26.2927 13.665 18.365C20.5387 10.4372 29.6429 4.7778 39.7827 2.12939C40.0198 2.06812 40.2716 2.1038 40.4825 2.22858C40.6934 2.35336 40.8463 2.55703 40.9074 2.79477C40.9685 3.03251 40.9329 3.28486 40.8084 3.49629C40.684 3.70773 40.4808 3.86094 40.2436 3.92221C30.4694 6.47703 21.6939 11.934 15.0687 19.5772C8.44341 27.2204 4.27782 36.6926 3.11849 46.7512C3.0932 46.9807 2.98314 47.1923 2.80996 47.3446C2.63678 47.4968 2.41303 47.5785 2.18275 47.5736ZM25.0598 96.0629C24.8811 96.062 24.7066 96.009 24.5574 95.9104C13.6457 88.8466 5.79133 77.9193 2.56073 65.3078C2.49961 65.07 2.5352 64.8177 2.65968 64.6062C2.78416 64.3948 2.98734 64.2416 3.22451 64.1803C3.46167 64.119 3.71341 64.1547 3.92434 64.2795C4.13527 64.4043 4.2881 64.6079 4.34923 64.8457C7.4579 77.0134 15.0296 87.5585 25.553 94.3764C25.7204 94.4847 25.8482 94.6445 25.9174 94.8317C25.9865 95.019 25.9934 95.2236 25.9368 95.4151C25.8802 95.6065 25.7633 95.7745 25.6036 95.8938C25.4438 96.0131 25.2498 96.0773 25.0506 96.0768L25.0598 96.0629ZM45.457 103.729H45.3233C41.9118 103.241 38.5577 102.411 35.3114 101.252C35.0797 101.169 34.8904 100.998 34.7849 100.775C34.6794 100.552 34.6665 100.297 34.7491 100.064C34.8316 99.8322 35.0027 99.6423 35.2249 99.5366C35.4471 99.4309 35.702 99.418 35.9337 99.5007C39.063 100.62 42.2968 101.42 45.586 101.89C45.8306 101.907 46.0582 102.021 46.219 102.206C46.3798 102.391 46.4605 102.633 46.4434 102.878C46.4263 103.123 46.3128 103.352 46.1278 103.513C45.9428 103.674 45.7015 103.755 45.457 103.738V103.729ZM60.6361 103.622C60.3916 103.641 60.1496 103.562 59.9633 103.402C59.7771 103.242 59.6617 103.015 59.6428 102.77C59.6239 102.525 59.7028 102.282 59.8623 102.095C60.0218 101.909 60.2487 101.793 60.4932 101.774C63.6207 101.283 66.694 100.492 69.6708 99.4129C69.7855 99.3676 69.9081 99.3458 70.0313 99.3488C70.1545 99.3518 70.2759 99.3796 70.3882 99.4305C70.5006 99.4813 70.6016 99.5542 70.6853 99.6449C70.7691 99.7356 70.8338 99.8422 70.8757 99.9584C70.9176 100.075 70.9359 100.198 70.9294 100.321C70.9229 100.445 70.8918 100.566 70.8379 100.677C70.784 100.788 70.7085 100.887 70.6157 100.968C70.5229 101.05 70.4148 101.112 70.2977 101.15C67.2106 102.271 64.023 103.091 60.779 103.599C60.7323 103.612 60.6844 103.619 60.6361 103.622ZM80.3465 96.0629C80.1473 96.0634 79.9533 95.9992 79.7935 95.8799C79.6338 95.7606 79.5169 95.5927 79.4603 95.4012C79.4037 95.2098 79.4105 95.0051 79.4797 94.8179C79.5489 94.6306 79.6767 94.4708 79.844 94.3625C86.8011 89.8268 92.5304 83.6359 96.5213 76.3419C96.6387 76.1268 96.8365 75.9673 97.0712 75.8984C97.3059 75.8295 97.5582 75.8569 97.7728 75.9746C97.9873 76.0922 98.1465 76.2905 98.2152 76.5257C98.2839 76.761 98.2566 77.014 98.1393 77.2291C93.9918 84.797 88.0368 91.2157 80.8074 95.9104C80.6701 96.0016 80.511 96.0543 80.3465 96.0629Z" fill="#64FF37"/>
<path d="M52.9062 105H50.1372C49.9226 105.005 49.713 104.934 49.5445 104.801C49.3761 104.668 49.2593 104.481 49.2142 104.271L46.7545 92.8562L28.7562 99.6636C28.5881 99.7262 28.4055 99.7385 28.2306 99.699C28.0557 99.6595 27.8961 99.57 27.7712 99.4414C27.6464 99.3127 27.5618 99.1505 27.5277 98.9746C27.4936 98.7986 27.5116 98.6166 27.5793 98.4506L30.0022 92.5011C30.0536 92.3772 30.1307 92.2656 30.2283 92.1736L43.6117 79.7211L42.3749 53.4323L0.651118 60.5165C0.487054 60.5443 0.31852 60.5272 0.163353 60.4672C0.00818532 60.4071 -0.127843 60.3062 -0.230337 60.1752C-0.32956 60.0454 -0.392523 59.8916 -0.412794 59.7296C-0.433065 59.5675 -0.409915 59.403 -0.345711 59.2528L2.33557 53.294C2.43774 53.0847 2.61357 52.9205 2.82938 52.8328L41.7196 37.2164L40.8842 12.0806C40.8219 10.5172 41.0761 8.95737 41.6318 7.49459C42.1874 6.03181 43.033 4.69626 44.1178 3.56808C45.2026 2.43989 46.5042 1.54231 47.9446 0.929177C49.385 0.316046 50.9345 0 52.5001 0C54.0657 0 55.6152 0.316046 57.0556 0.929177C58.496 1.54231 59.7976 2.43989 60.8824 3.56808C61.9672 4.69626 62.8127 6.03181 63.3684 7.49459C63.924 8.95737 64.1783 10.5172 64.1159 12.0806L63.2806 37.1656L102.171 52.782C102.388 52.8679 102.564 53.0327 102.665 53.2433L105.346 59.202C105.41 59.3522 105.433 59.5168 105.413 59.6788C105.393 59.8409 105.33 59.9947 105.23 60.1244C105.128 60.2555 104.992 60.3563 104.837 60.4164C104.682 60.4765 104.513 60.4935 104.349 60.4657L62.6253 53.3955L61.3839 79.6842L74.7672 92.1367C74.8649 92.2287 74.9419 92.3403 74.9933 92.4642L77.4162 98.4138C77.4846 98.5801 77.5029 98.7629 77.4687 98.9395C77.4345 99.1161 77.3494 99.2789 77.2239 99.4078C77.0983 99.5367 76.9378 99.6261 76.7621 99.665C76.5863 99.7039 76.403 99.6906 76.2348 99.6267L58.2688 92.8239L55.809 104.234C55.764 104.444 55.6472 104.631 55.4787 104.764C55.3102 104.897 55.1006 104.968 54.886 104.963H52.8923L52.9062 105ZM50.8572 103.155H54.1568L56.6858 91.4219C56.7142 91.2925 56.7701 91.1708 56.8497 91.0649C56.9294 90.9591 57.0309 90.8716 57.1473 90.8085C57.2639 90.7456 57.3927 90.7085 57.5248 90.6997C57.657 90.691 57.7896 90.7107 57.9134 90.7577L74.901 97.21L73.355 93.4097L59.8148 80.8049C59.7161 80.7137 59.6385 80.6021 59.5875 80.4778C59.5365 80.3535 59.5133 80.2196 59.5194 80.0854L60.8301 52.3393C60.8362 52.2093 60.8699 52.0822 60.9287 51.9661C60.9876 51.85 61.0703 51.7478 61.1716 51.6659C61.2731 51.5835 61.3911 51.5236 61.5176 51.4902C61.6441 51.4568 61.7763 51.4507 61.9053 51.4722L102.951 58.4318L101.137 54.387L61.993 38.6369C61.8177 38.5661 61.6683 38.4432 61.5651 38.2848C61.462 38.1265 61.41 37.9402 61.4162 37.7514L62.2699 12.0115C62.3273 10.6936 62.117 9.3777 61.6519 8.14317C61.1868 6.90864 60.4764 5.781 59.5635 4.82818C58.6507 3.87536 57.5542 3.1171 56.3403 2.59908C55.1264 2.08105 53.82 1.814 52.5001 1.814C51.1801 1.814 49.8738 2.08105 48.6599 2.59908C47.4459 3.1171 46.3495 3.87536 45.4366 4.82818C44.5238 5.781 43.8134 6.90864 43.3483 8.14317C42.8831 9.3777 42.6729 10.6936 42.7302 12.0115L43.584 37.7652C43.5873 37.9517 43.534 38.1349 43.431 38.2905C43.328 38.4462 43.1802 38.5669 43.0071 38.6369L3.86312 54.364L2.04945 58.4088L43.0948 51.4492C43.2239 51.4276 43.356 51.4338 43.4825 51.4672C43.609 51.5006 43.727 51.5604 43.8286 51.6429C43.9298 51.7247 44.0126 51.827 44.0714 51.943C44.1303 52.0591 44.1639 52.1863 44.1701 52.3162L45.4807 80.0624C45.4869 80.1966 45.4637 80.3305 45.4126 80.4547C45.3616 80.579 45.2841 80.6907 45.1854 80.7819L31.6451 93.3866L30.0991 97.21L47.1006 90.7531C47.2245 90.7063 47.3569 90.6868 47.4891 90.6957C47.6212 90.7046 47.7498 90.7418 47.8663 90.8048C47.9827 90.8678 48.0842 90.9551 48.1639 91.0608C48.2436 91.1665 48.2996 91.288 48.3282 91.4173L50.8572 103.155Z" fill="#64FF37"/>
</g>
<defs>
<clipPath id="clip0_795_19">
<rect width="105" height="105" fill="white"/>
</clipPath>
</defs>
</svg>
